<?xml version="1.0" encoding="utf-8"?>
<!-- Generator: Adobe Illustrator 22.1.0, SVG Export Plug-In . SVG Version: 6.00 Build 0)  -->
<svg version="1.1" xmlns="http://www.w3.org/2000/svg" xmlns:xlink="http://www.w3.org/1999/xlink" x="0px" y="0px"
	 viewBox="0 0 1092.9 1092.9" style="enable-background:new 0 0 1092.9 1092.9;" xml:space="preserve">
<style type="text/css">
	.st0{fill:#1E3555;}
	.st1{fill:url(#SVGID_1_);}
	.st2{fill:#DB9022;}
	.st3{fill:#EFD79F;stroke:#EFD79F;stroke-width:2;stroke-linecap:round;stroke-linejoin:round;stroke-miterlimit:10;}
	.st4{fill:#C4C4C4;}
	.st5{opacity:0.9;fill:#9B9B9A;}
	.st6{opacity:0.6;fill:#9B9B9A;}
	.st7{opacity:0.8;fill:#9B9B9A;}
	.st8{fill:#9B9B9A;}
	.st9{opacity:0.8;}
	.st10{fill:#527AE7;}
	.st11{fill:#3F5CAC;}
	.st12{fill:#A6B436;}
	.st13{fill:#FFFFFF;}
	.st14{fill:#9ACDFC;}
	.st15{opacity:0.5;}
	.st16{fill:#A6DFFD;}
	.st17{fill:#E6AF41;}
	.st18{fill:#E27C2D;}
	.st19{fill:#C95079;}
	.st20{fill:#73C098;}
	.st21{fill:#F5DC34;}
	.st22{fill:#F8E96F;}
	.st23{fill:#FFFF71;}
</style>
<g id="BACKGROUND">
	<g>
		<rect x="-2.9" y="-2.9" class="st0" width="1095.7" height="1095.7"/>
		<linearGradient id="SVGID_1_" gradientUnits="userSpaceOnUse" x1="544.9999" y1="1092.8674" x2="544.9999" y2="-2.8676">
			<stop  offset="0" style="stop-color:#182A41"/>
			<stop  offset="0.4587" style="stop-color:#192C44;stop-opacity:0.5413"/>
			<stop  offset="0.853" style="stop-color:#1C324F;stop-opacity:0.147"/>
			<stop  offset="1" style="stop-color:#1E3555;stop-opacity:0"/>
		</linearGradient>
		<rect x="-2.9" y="-2.9" class="st1" width="1095.7" height="1095.7"/>
	</g>
</g>
<g id="OBJECTS">
	<g>
		<g>
			<g>
				<path class="st2" d="M973.1,341.6c-5,21.7-26.7,35.3-48.4,30.3c-21.7-5-35.3-26.7-30.3-48.4c5-21.7,26.7-35.3,48.4-30.3
					C964.6,298.2,978.2,319.8,973.1,341.6z"/>
				<g>
					<path class="st3" d="M930.5,349.5c-35.1-8.1-60.5-23.7-58.6-32.1c1.9-8.4,30.9-8.4,66.1-0.3c35.1,8.1,61.2,20.8,59.3,29.2
						C995.3,354.7,965.6,357.6,930.5,349.5z M937.5,319.1c-30.4-7-57.6-6.7-59.1-0.2c-1.5,6.5,22.9,18.4,53.3,25.4
						c30.4,7,57.6,7,59,0.5C992.2,338.3,967.9,326.1,937.5,319.1z"/>
				</g>
				<path class="st2" d="M935,330.3c12.8,3.3,25.8,5.2,38.9,6.8c2.3-20.2-10.8-39.3-31-43.9c-20-4.6-40,6.6-46.9,25.4
					C909.1,322,921.8,327,935,330.3z"/>
			</g>
			<g>
				<path class="st2" d="M379.5,136.5c-5,21.7-26.7,35.3-48.4,30.3c-21.7-5-35.3-26.7-30.3-48.4c5-21.7,26.7-35.3,48.4-30.3
					C370.9,93.1,384.5,114.7,379.5,136.5z"/>
				<g>
					<path class="st3" d="M336.8,144.4c-35.1-8.1-60.5-23.7-58.6-32.1c1.9-8.4,30.9-8.4,66.1-0.3c35.1,8.1,61.2,20.8,59.3,29.2
						C401.6,149.6,371.9,152.5,336.8,144.4z M343.8,114c-30.4-7-57.6-6.7-59.1-0.2c-1.5,6.5,22.9,18.4,53.3,25.4
						c30.4,7,57.6,7,59,0.5C398.6,133.2,374.3,121,343.8,114z"/>
				</g>
				<path class="st2" d="M341.3,125.2c12.8,3.3,25.8,5.2,38.9,6.8c2.3-20.2-10.8-39.3-31-43.9c-20-4.6-40,6.6-46.9,25.4
					C315.4,116.9,328.1,121.9,341.3,125.2z"/>
			</g>
			<g>
				<path class="st4" d="M790.5,774.7c6.6,24.7-8,50.1-32.7,56.7c-24.7,6.6-50.1-8-56.7-32.7c-6.6-24.7,8-50.1,32.7-56.7
					C758.4,735.4,783.8,750,790.5,774.7z"/>
				<g>
					<path class="st5" d="M728,776.8c1.6,6.1-2,12.3-8,13.9c-6.1,1.6-12.3-2-13.9-8c-1.6-6.1,2-12.3,8-13.9
						C720.1,767.1,726.4,770.7,728,776.8z"/>
					<path class="st6" d="M760.6,751.2c0.7,2.6-0.8,5.3-3.4,6c-2.6,0.7-5.3-0.8-6-3.4c-0.7-2.6,0.8-5.3,3.4-6
						C757.2,747.1,759.9,748.6,760.6,751.2z"/>
					<path class="st7" d="M746.9,791c1.1,3.9-1.3,7.9-5.2,9c-3.9,1-7.9-1.3-9-5.2c-1-3.9,1.3-7.9,5.2-9
						C741.9,784.8,745.9,787.1,746.9,791z"/>
					<path class="st7" d="M783.1,769.3c0.5,1.7-0.6,3.5-2.3,4c-1.7,0.5-3.5-0.6-4-2.3c-0.5-1.7,0.6-3.5,2.3-4
						C780.9,766.6,782.7,767.6,783.1,769.3z"/>
					<path class="st6" d="M724.4,805.5c0.7,2.6-0.8,5.3-3.4,6c-2.6,0.7-5.3-0.8-6-3.4c-0.7-2.6,0.8-5.3,3.4-6
						C721,801.4,723.7,802.9,724.4,805.5z"/>
					<path class="st8" d="M766.4,810.2c0.8,3-1,6.1-4,7c-3,0.8-6.2-1-7-4c-0.8-3,1-6.2,4-7C762.5,805.4,765.6,807.2,766.4,810.2z"/>
					<g>
						<path class="st8" d="M736.5,780.4c2.5-0.7,1.5-4.6-1.1-3.9C732.9,777.1,734,781.1,736.5,780.4L736.5,780.4z"/>
					</g>
					<g class="st9">
						<path class="st8" d="M774.1,817.1c3.8-1,2.2-6.9-1.6-5.9C768.8,812.3,770.3,818.2,774.1,817.1L774.1,817.1z"/>
					</g>
					<g>
						<path class="st8" d="M786.5,780.3c1.9-0.5,1.1-3.4-0.8-2.9C783.8,777.9,784.6,780.8,786.5,780.3L786.5,780.3z"/>
					</g>
					<g>
						<path class="st8" d="M708.2,800.2c2.5-0.7,1.5-4.6-1.1-3.9C704.6,796.9,705.7,800.9,708.2,800.2L708.2,800.2z"/>
					</g>
					<g>
						<path class="st8" d="M755.7,826.7c2.3-0.6,1.3-4.1-0.9-3.5C752.5,823.8,753.4,827.3,755.7,826.7L755.7,826.7z"/>
					</g>
				</g>
			</g>
			<g>
				<g>
					<path class="st10" d="M266.1,895c8.2,23.1-3.9,48.5-27,56.7c-23.1,8.2-48.5-3.9-56.7-27c-8.2-23.1,3.9-48.5,27-56.7
						C232.5,859.8,257.9,871.9,266.1,895z"/>
					<g>
						<path class="st11" d="M252.5,893.9c-1,0.3-1.8,0.7-2.7,1.2c-0.1,0.2-0.3,0.3-0.5,0.3c0,0,0,0-0.1,0c0,0,0,0,0,0
							c-0.3,0.2-0.6,0.2-0.8,0c-1-0.1-1.7-0.9-2.3-1.9c-0.7-1.3-1.4-3.9-3.7-3.4c-2.1,0.4-2.3,1.5-3,3.1c-2.1,4.3-6.2,3.4-10.1,2.4
							c-1.7-0.5-4.1-1.3-5.8-0.5c-2.8,1.2-2.4,2.6-3.2,4.8c-0.8,2.4-2.6,3.4-5.1,3.9c-2,0.4-3.9,0.8-5.6,2.1
							c-0.6,0.4-1.1,0.8-1.6,1.4c-0.1,2.6,1,3.8,3.3,3.5c2.8-0.5,5-2.5,7.7-3.2c1.3-0.4,3.3-0.1,4.1,1.1c1,1.5,0.3,3.2,1.1,4.6
							c1.3,2.6,6.4,0.5,7.3-1.4c0.4-0.9,0.7-1.8,1.1-2.8c0.6-1.8,1.7-4.1,3.5-5c1.4-0.7,3.3-1.5,4.8-0.5c1.2,0.8,1.8,2.6,3.4,2.8
							c2.8,0.3,3.7-1.3,5.2-3c1.5-1.7,3-2.6,5.1-3.6c1.7-0.8,4-2.1,1.7-4.8C255.2,893.7,253.9,893.4,252.5,893.9z"/>
						<path class="st11" d="M197.1,889.7c2.3-1.2,4.6-2.7,7-3.7c2.7-1,5.6-1.4,8.4-2.2c3.2-0.9,6.1-2,8.8-4.1
							c1.9-1.5,3.7-3.2,6.1-3.9c2.3-0.6,4.6,0.2,6.9-0.5c3.1-1.1,0.5-3-1.4-3.3c-1.3-0.3-2.7-0.6-4-0.7c-5.4-0.4-7.3,2.1-10.6,5.6
							c-1.5,1.6-3,2.8-5,3.6c-2.5,0.9-5.3,0.2-7.8,0.5c-2.3,0.3-4.1,1.2-6.1,2.4c-3.6,2.1-9.5,6.3-14.2,5.3c-0.7,1.3-1.4,2.7-2,4
							C187.9,894,193.1,891.7,197.1,889.7z"/>
						<path class="st11" d="M258,916.2c-3.5,3.2-6.1,5.3-10.8,6.4c-6.5,1.5-13.3-0.1-19.8,1.1c-3.8,0.7-7.2,2.4-11,3.3
							c-1.5,0.3-3,0.6-4.5,1c-1.6,0.5-4,3-1.3,4c4.7,1.7,10.7-1.6,15.1-3c6.1-1.8,12.4-0.5,18.6-1c4.1-0.3,8.3-1.2,11.7-3.8
							c2.4-1.8,4.5-4.1,7-5.8c1.7-1.2,3.4-1.9,5.1-2.1c0.3-1.9,0.4-3.8,0.5-5.8C265.3,909.3,260.3,914.1,258,916.2z"/>
						<path class="st11" d="M247.9,882.1c1.5-0.2,3-0.7,4.4-1.4c1.3-0.6,2.5-1.2,3.7-1.9c-1-1-1.9-1.9-3-2.8c-2.3,1.4-5.5,2.1-7.2,4
							C244.5,881.5,246.6,882.3,247.9,882.1z"/>
						<path class="st11" d="M227.9,945.4c3.6-1.2,7.5-2.3,11-3.9c0.7-0.3,1.4-0.7,2-1.1c0-1.6-0.9-2.1-2.6-1.5
							c-1.5,0.2-2.8,0.5-4.2,1c-3.1,1.1-6.1,2.4-9.3,3.2c-2.6,0.7-5.4,0.3-7.9,1.5c-3.6,1.8-5.2,5.1-8.2,6.8
							c1.7,0.6,3.4,1.2,5.2,1.6c2.4-1.3,3.8-3.4,6.2-4.8C222.6,946.8,225.2,946.3,227.9,945.4z"/>
						<path class="st11" d="M258,933.9c-1.4,0.4-4.8,1.3-4.6,3.4c0.2,1.8,1.6,1.9,3,1.4c0.7-0.2,1.4-0.5,2.3-0.9
							c1.3-1.6,2.5-3.3,3.5-5.1C260.8,933.2,259.3,933.4,258,933.9z"/>
						<path class="st11" d="M213,895.8c0.6-0.8,1.2-1.6,1.8-2.3c1.3-1.5,3.7-3,5.6-3.6c2.4-0.9,4.8-1,7.3-1.1c1.5,0,3.4,0,4.7-0.9
							c1-0.7,3.8-2.9,0.2-3c-0.1,0-0.2,0-0.3-0.1c-7.9,2.7-18.5,2.3-23.5,10C206.9,897.5,211.5,897.7,213,895.8z"/>
						<path class="st11" d="M193,915.3c2-0.6,4-1.2,5.9-1.9c1-0.4,2-0.7,2.9-1.2c0.3-0.1,3.8-2.3,0.5-2.1c-3.6,0.2-6.8,2.1-10,3.4
							c-1.8,0.7-3.7-0.2-5.4,0.5c-2.3,0.9-4,2.6-6.2,3.6c0.2,1.1,0.4,2.3,0.7,3.4c1.8-1.2,3.2-3.2,5.1-4.3
							C188.2,915.5,190.9,915.8,193,915.3z"/>
						<path class="st11" d="M228.8,935.1c-4.6-2.3-11.2,1.7-15.6,3c-6,1.8-11.4,3.1-16.3,6.8c0.9,0.7,1.8,1.3,2.7,1.9
							C206,937.7,220.1,941.3,228.8,935.1z"/>
						<path class="st11" d="M215.3,869.2c1.4-1.2,2.6-2.4,4-3.4c-3.3,0.4-6.6,1.1-9.9,2.3c-3.4,1.2-6.5,2.8-9.4,4.7
							C205.4,873,211.2,872.7,215.3,869.2z"/>
						<path class="st11" d="M250.5,911.7c-2.8,0.7-5.5,1.3-8.3,2.1c-0.7,0.2-7.3,2.5-4.3,3c4.7,0.7,11.5-1.4,15.6-3.8
							c5.1-3,9.3-7.2,14.8-8.1c-0.1-1.1-0.3-2.2-0.5-3.4C261,902.3,257.2,910,250.5,911.7z"/>
						<path class="st11" d="M199.9,899.8c-0.2,0.4-0.5,0.5-0.8,0.4c-0.8,0.7-1.9,1-3.1,0.9c-1.2-0.1-3-0.6-3.9,0.5
							c-1.4,1.7-0.4,2.9,1.4,3.2c2.1,0.4,4.3,0,6.3-0.8c1-0.4,2.2-1,2.9-1.9C204.4,899.7,201.2,896.8,199.9,899.8z"/>
						<path class="st11" d="M193.9,927.6c1.3-0.8,2.5-1.4,3.9-1.9c1.7-0.6,3.4-1.1,5.1-1.8c0.7-0.3,6.3-3.7,2.6-4
							c-3.4-0.3-8.7,0.1-11.8,1.6c-3.9,1.9-6.1,5.4-10.2,6.1c0.6,1.4,1.2,2.7,2,4C188.5,930.7,191.2,929.4,193.9,927.6z"/>
					</g>
				</g>
			</g>
			<g>
				<g>
					<g>
						<path class="st12" d="M380.1,118.2c-0.9,0.6-2.4,0.1-3,0.9c-1.2,1.6-3.5,0.1-3.7-1.5c-0.1-0.7-0.2-1.6,0.6-2
							c0.2-0.1,0.6-0.1,0.8,0.1c0.1,0.1,0.4,0.3,0.5,0.4c1.1,0.6,0.6-0.3,0-0.3c-0.1,0-0.2-0.1-0.2-0.2c-0.1-0.7,0.4-1.1,0.9-1.5
							c0.1-0.1,0.2,0,0.2,0c0.5,0,0.8,0.3,0.9,0.8c0.2,0.7,0.3,1.3,1.2,1.3c0.4,0,0.9,0,1.3,0.3C380,116.9,380.7,117.7,380.1,118.2z
							 M384.9,119.5c-0.4-0.1-0.9-0.2-1.2-0.5c-0.6-0.5-0.3-1.3-1.1-1.9c-0.5-0.4-1.1-1.5-1.7-1.7c-0.5-0.2-0.9-0.3-1.2-0.7
							c-0.5-0.7-0.9-1.7-0.1-2.4c0.5-0.4,0.8-0.2,1,0.4c0.3,0.6,0.4,1.3,0.9,1.8c0.4,0.4,0.8,1.1,1.4,1.1c0.4,0,0.5,0.2,0.8,0.5
							c0.2,0.2,0.1,0.6,0.2,0.9c0.7,0.5,1.7,0.8,2.1,1.6C386.1,119.1,385.4,119.5,384.9,119.5z"/>
						<path class="st12" d="M354.4,97.3c0.9,0.5,1.8,0.5,2.8,0.7c0.7,0.2,1.7,0.7,2.4,0.5c0.2-0.1-0.2-0.3-0.4-0.5
							c-0.6-0.1-1.2-0.4-1.6-0.8c-0.4-0.2-0.8-0.3-1.1-0.4c-0.6-0.1-1.3-0.3-1.7-0.7c-0.3-0.3-0.5-0.8-0.9-1.1
							c-0.4-0.1-0.9-0.1-1.3-0.2C352.2,96.1,353.4,96.8,354.4,97.3z"/>
						<path class="st12" d="M392.7,155c0.1-0.6-0.2-0.7-0.9-0.4c-0.2,0.4-0.3,0.8-0.4,1.2c-0.2,0.8-0.7,1.5-1,2.2
							c-0.4,0.9-0.4,1.8-0.7,2.7c-0.2,0.5-0.6,1-0.8,1.5c-0.3,0.5-1.1,2-0.3,2.5c0.2,0.1,0.5,0.1,0.7-0.1c1.5-2.9,2.7-6,3.5-9.1
							C392.7,155.3,392.7,155.2,392.7,155z"/>
						<path class="st12" d="M344.4,98c0.4,0.2,0.8,0.4,1.2,0.5c0.6,0.1,1.7-0.3,0.8-0.9c-0.4-0.1-0.8-0.1-1.2-0.3
							c-0.1-0.1-0.1-0.2-0.1-0.3c0.1-0.1,0.1-0.2,0.2-0.3c-0.4-0.2-1-0.1-1.4-0.1c-0.4,0.1-1,0.2-1.2,0.6
							C342.5,97.6,344.2,98,344.4,98z"/>
						<path class="st12" d="M333.1,169.9c-0.4,0-0.7,0.1-0.9,0.1c0.1,0.4-0.1,0.8-0.2,1.2c0.4,0.8,0.8,1,1.4,0.6
							c0.1,0,0.2-0.1,0.2-0.1c0.2-0.1,0.4-0.3,0.6-0.4c0.2-0.1,0.4-0.2,0.6-0.3C334.4,170.4,333.7,170.2,333.1,169.9z"/>
						<path class="st12" d="M313.2,156.4c-1.3-0.4-2.6-1.5-3.9-1.2c-0.5,0.1-1,0.2-1.4,0.5c-0.2,0.1-0.4,0.2-0.5,0.3
							c-0.4,0.5,1.2,0.2,1.2,0.2c1.2-0.2,2.2,0.6,3.3,0.7c0.4,0,0.8,0.1,1.2,0.1C313.7,156.9,313.8,156.8,313.2,156.4
							C313.3,156.4,313.3,156.4,313.2,156.4z"/>
						<path class="st12" d="M321.5,131.7c-0.1,0.3-0.6,1.1,0.1,1.1c0.4,0,0.9,0,1.3,0.2c0.4,0.1,0.4,0.7,0.9,0.7
							c0.3,0,1.6-0.2,1.4-0.8c-0.2-0.7-0.4-2.9-1.6-2.1c-0.1,0.1-0.3,0.1-0.3-0.1c-0.2-0.3-0.3-0.8-0.7-0.9
							C322.2,130.3,321.8,131,321.5,131.7z"/>
						<path class="st12" d="M319.7,114c-0.4-0.8,0.5-1.6-0.6-2c-0.6-0.2-0.7-0.7-0.8-1.3c-0.6,0.1-0.9,0.2-1.3,0.5
							c-0.1,0.1-0.3,0-0.3-0.1c-0.1-0.3-0.1-0.5,0-0.8c0.3-0.7-0.3-0.6-0.8-0.6c-0.4,0-1.1-0.1-1.6,0c-0.8,0.3-1.1,1-1.3,1.6
							c0.4,0,0.9,0,1,0.5c0.1,0.2,0,0.4-0.2,0.6c-0.6,0.5,0.4,1.1,0.8,1.1c0.8,0,0.5-0.1,0.8-0.5c0.3-0.5,0.8-0.2,1.1,0.2
							c0.2,0.3,0.2,1,0.4,1.4c0.1,0.2,0.2,0.5,0.2,0.8c0,0.8-0.8,0.9-1.2,1.4c-0.3,0.3-0.6,0.7-1,0.9c-0.2,0.1-1.8,0.9-1.1,0.9
							c0.8,0,1.5,0,2,0.6c0.4,0.5,0.8,1,1.3,1.4c0.3,0.2,1.4,0.8,1.1-0.4c-0.1-0.5-0.3-0.8-0.6-1.2c-0.1-0.1,0-0.3,0.2-0.3
							c0.3,0,0.6,0.1,0.9,0.3c0.1,0.1,0.3,0.2,0.4,0.3c0.1-0.3,0.3-0.6,0.4-0.8c-0.1-0.2-0.2-0.4-0.4-0.5c-0.4-0.5-0.9-1-0.8-1.6
							c0.2-1.3,1.6,0.5,2,0.7c0.9,0.5,2.4-0.9,1.4-1.6c-0.3-0.2-0.6-0.3-0.8-0.5C320.4,114.7,320,114.5,319.7,114z"/>
						<path class="st12" d="M337,103.6c-0.5,0.1-0.9,0.2-1.3,0c-0.1-0.1-0.1-0.3,0-0.4c0.5-0.3,0.5-1,0.4-1.5
							c-0.1-0.3-0.5-1.1-0.7-0.4c0,0.1-0.2,0.2-0.3,0.1c-1-0.8-1.9-3.8-3.4-1.9c-0.9,1.1-1.8,1.1-3,0.9c0,0-0.1,0-0.1,0
							c0,0-0.1,0-0.1,0c0,0,0,0-0.1,0c0,0,0,0,0,0c-0.9-0.3-1.5,0.6-2.2,1c-0.5,0.3-1.2,0.1-1.7,0.2c-1.1,0.2-1,0.7-1,1.5
							c0,0.3-0.3,0.4-0.5,0.5c-0.2,0.1-0.5,0-0.6-0.1c-0.2-0.3-0.3-1.5-1.1-0.6c-0.5,0.5-0.8,1-1.3,1.4c-0.5,0.4-0.3,0.9-0.4,1.4
							c-0.1,0.3-0.3,0.5-0.6,0.6c-0.2,0.1-0.4,0.1-0.5,0.2c-0.2,0.5-0.1,0.7,0.3,0.6c0.1,0,0.2,0,0.4,0c0.3,0,1.4,0.9,1.2-0.2
							c0-0.3,0.1-0.5,0.3-0.7c0.5-0.4,1.3,0,1.8-0.5c0.5-0.5,0.8-1.1,1.1-1.6c0.4-0.7,1-1.2,1.8-0.9c0.1,0,0.2,0.2,0.1,0.3
							c-0.5,1,1,1,0.9,1.8c-0.1,0.4-0.3,0.8-0.4,1.2c-0.1,0.6,0.1,1-0.1,1.6c-0.2,0.4-0.9,0.6-0.6,1.3c0.1,0.3,0.1,0.4,0.1,0.7
							c0,0.7,0.1,1.4,0,2c-0.1,0.8-1.3,0.5-1,1.5c0.2,0.8,0.2,1.6,0.4,2.4c0.3,0.8,2.3,2,3.2,1.8c0.7-0.1,1.3-0.2,2,0
							c1.7,0.5,1.7-1.9,1.9-2.9c0-0.3,0.1-0.5,0.3-0.7c0.3-0.5-0.1-0.7-0.3-1c-0.2-0.4-0.1-1,0.3-1.4c0.7-0.7,1.6-1.1,2.1-2.1
							c0.4-0.7,0.7-1.8,1.5-2.2c0.6-0.3,1.4-0.4,1.7-1c0.2-0.3,0.3-0.7,0.5-1.1c0.1-0.4,0.3-0.8,0.3-1.2
							C338.2,103.5,337.4,103.5,337,103.6z"/>
						<path class="st12" d="M330.9,97.7c1.7,0.1,3.5-0.6,5.1-0.9c0.7-0.1,1.3-0.3,2-0.2c0.9,0.1,1.9,0.5,2.6-0.2
							c0.6-0.6,1-1.2,1.5-1.9c-2.4,0.2-4.8,0.5-7.2,1.1c-2,0.5-3.8,1-5.7,1.7C329.8,97.4,330.4,97.6,330.9,97.7z"/>
						<path class="st12" d="M347.1,119.8c0.3,0.1,0.7-0.1,0.9-0.3c0.7-0.4,1.4-1.3,1.1-2.1c0-0.1,0-0.1,0-0.2c0-0.3,0-0.6-0.2-0.8
							c-0.2-0.2-0.5-0.1-0.7-0.1c-0.4,0.1-0.8,0.2-1.1,0.5c-0.3,0.3-0.5,0.6-0.7,0.9c-0.1,0.2-0.2,0.4-0.3,0.6
							c-0.1,0.3,0.2,0.2,0.4,0.2c0.1,0,0.3,0.1,0.3,0.2C346.8,119,346.7,119.7,347.1,119.8z"/>
						<path class="st12" d="M352.6,116.3c-0.7-0.2-1.3-0.7-1.8-1.2c-0.1,0-0.1,0-0.2-0.1c-0.2-0.3-0.3-0.5-0.5-0.8
							c-0.1-0.3-0.3-0.7-0.7-0.8c-0.6-0.2-1,0-1.2,0.6c0.1,1,0.3,1.6,1.3,1.9c0.6,0.2,1,0.8,1.2,1.4c0.2,0.7-0.5,1.4-0.5,2.1
							c0.1,0.9,2.9-0.7,3.4-0.9c0.7-0.3,1-0.8,0.5-1.5C353.7,116.2,353.2,116.4,352.6,116.3z"/>
					</g>
				</g>
			</g>
		</g>
		<g>
			<g>
				<g>
					<g>
						<path class="st13" d="M349.6,345.3c4,6.5,10.1,11.3,15.1,17c0.5,0.6,1.4-0.3,0.9-0.9c-4.9-5.6-10.9-10.3-14.9-16.7
							C350.3,344,349.2,344.6,349.6,345.3L349.6,345.3z"/>
					</g>
				</g>
				<g>
					<g>
						<path class="st13" d="M367,344.9c-6.5,5.1-12.2,11.1-19.7,14.9c-0.7,0.4-0.1,1.4,0.6,1.1c7.6-3.8,13.4-9.9,20-15.1
							C368.5,345.3,367.6,344.4,367,344.9L367,344.9z"/>
					</g>
				</g>
				<g>
					<g>
						<path class="st13" d="M358.5,343c-2.2,7.2-4.1,14.5-6,21.7c-0.2,0.8,1,1.1,1.2,0.3c1.9-7.3,3.8-14.5,6-21.7
							C360,342.5,358.8,342.2,358.5,343L358.5,343z"/>
					</g>
				</g>
				<g>
					<g>
						<path class="st13" d="M344.9,353.1c8.5,0.4,16.9,1.8,25.5,1.9c0.8,0,0.8-1.2,0-1.3c-8.5-0.1-17-1.4-25.5-1.9
							C344.1,351.8,344.1,353.1,344.9,353.1L344.9,353.1z"/>
					</g>
				</g>
			</g>
			<g>
				<g>
					<g>
						<path class="st13" d="M1022.8,652.6c4.9,4.9,9.6,9.9,15,14.2c0.6,0.5,1.5-0.4,0.9-0.9c-5.4-4.3-10.1-9.4-15-14.2
							C1023.1,651.1,1022.2,652,1022.8,652.6L1022.8,652.6z"/>
					</g>
				</g>
				<g>
					<g>
						<path class="st13" d="M1038.4,650c-4.3,7-10.8,12.8-17.8,17c-0.7,0.4-0.1,1.5,0.6,1.1c7.2-4.3,13.8-10.3,18.2-17.5
							C1039.9,649.9,1038.8,649.3,1038.4,650L1038.4,650z"/>
					</g>
				</g>
				<g>
					<g>
						<path class="st13" d="M1029.7,649.5c0.6,7.4,0,14.7-0.4,22.1c0,0.8,1.2,0.8,1.3,0c0.4-7.4,1-14.7,0.4-22.1
							C1030.9,648.7,1029.7,648.7,1029.7,649.5L1029.7,649.5z"/>
					</g>
				</g>
				<g>
					<g>
						<path class="st13" d="M1018.4,660.6c8.4,0,16.7,0,25.1,0c0.8,0,0.8-1.3,0-1.3c-8.4,0-16.7,0-25.1,0
							C1017.6,659.4,1017.6,660.6,1018.4,660.6L1018.4,660.6z"/>
					</g>
				</g>
			</g>
			<g>
				<g>
					<g>
						<path class="st13" d="M528.3,866c4.4,6.4,10.5,11.7,16.7,16.3c0.6,0.5,1.3-0.6,0.6-1.1c-6-4.5-12-9.6-16.3-15.9
							C528.9,864.7,527.8,865.3,528.3,866L528.3,866z"/>
					</g>
				</g>
				<g>
					<g>
						<path class="st13" d="M543.7,866c-5.9,5.4-12.4,10.2-19.7,13.4c-0.7,0.3-0.1,1.4,0.6,1.1c7.4-3.3,14-8.1,20-13.6
							C545.2,866.3,544.3,865.4,543.7,866L543.7,866z"/>
					</g>
				</g>
				<g>
					<g>
						<path class="st13" d="M535.3,863c-0.1,6.9-2.1,13.7-2.2,20.6c0,0.8,1.2,0.8,1.3,0c0.2-6.9,2.1-13.7,2.2-20.6
							C536.6,862.2,535.3,862.2,535.3,863L535.3,863z"/>
					</g>
				</g>
				<g>
					<g>
						<path class="st13" d="M524.2,872.6c7.6,1.3,15.3,0.6,22.8,2.2c0.8,0.2,1.1-1,0.3-1.2c-7.5-1.7-15.3-1-22.8-2.2
							C523.7,871.3,523.4,872.5,524.2,872.6L524.2,872.6z"/>
					</g>
				</g>
			</g>
			<g>
				<g>
					<g>
						<path class="st13" d="M87.2,811.4c5.1,5.8,11.5,10.5,17.7,15.1c0.6,0.5,1.3-0.6,0.6-1.1c-6.2-4.5-12.4-9.1-17.5-14.9
							C87.5,809.9,86.6,810.8,87.2,811.4L87.2,811.4z"/>
					</g>
				</g>
				<g>
					<g>
						<path class="st13" d="M103.5,809.5c-4.8,6.6-9.6,13.2-16.3,18.1c-0.6,0.5,0,1.6,0.6,1.1c6.8-5.1,11.8-11.8,16.7-18.6
							C105.1,809.5,104,808.9,103.5,809.5L103.5,809.5z"/>
					</g>
				</g>
				<g>
					<g>
						<path class="st13" d="M93.7,808.9c1.4,7.3,2.5,14.5,2.6,21.9c0,0.8,1.3,0.8,1.3,0c-0.1-7.5-1.2-14.9-2.6-22.3
							C94.8,807.8,93.6,808.1,93.7,808.9L93.7,808.9z"/>
					</g>
				</g>
				<g>
					<g>
						<path class="st13" d="M85.1,821.3c7.6-1.1,15.3-1.2,22.8-2.2c0.8-0.1,0.5-1.3-0.3-1.2c-7.6,1.1-15.3,1.2-22.8,2.2
							C84,820.2,84.4,821.4,85.1,821.3L85.1,821.3z"/>
					</g>
				</g>
			</g>
			<g>
				<g>
					<g>
						<path class="st13" d="M806.2,113.1c4.4,6.4,11.3,10,17.3,14.7c0.6,0.5,1.5-0.4,0.9-0.9c-5.9-4.6-12.8-8.2-17.1-14.5
							C806.8,111.8,805.7,112.4,806.2,113.1L806.2,113.1z"/>
					</g>
				</g>
				<g>
					<g>
						<path class="st13" d="M820.4,111.7c-3.1,6-8,10.5-13,14.9c-0.6,0.5,0.3,1.4,0.9,0.9c5.1-4.4,10-9.1,13.2-15.1
							C821.9,111.6,820.8,111,820.4,111.7L820.4,111.7z"/>
					</g>
				</g>
				<g>
					<g>
						<path class="st13" d="M813.2,109.8c0.7,7,0.7,14,0.8,21c0,0.8,1.3,0.8,1.3,0c0-7-0.1-14-0.8-21
							C814.4,109,813.2,109,813.2,109.8L813.2,109.8z"/>
					</g>
				</g>
				<g>
					<g>
						<path class="st13" d="M803.4,121.7c7.4,0.1,14.9,0.6,22.3-0.4c0.8-0.1,0.5-1.3-0.3-1.2c-7.3,1-14.6,0.4-21.9,0.4
							C802.6,120.4,802.6,121.7,803.4,121.7L803.4,121.7z"/>
					</g>
				</g>
			</g>
			<g>
				<g>
					<g>
						<path class="st13" d="M236.6,168.7c4.8,5,10.9,8.5,17,11.7c0.7,0.4,1.3-0.7,0.6-1.1c-6-3.2-12-6.6-16.7-11.5
							C236.9,167.2,236,168.1,236.6,168.7L236.6,168.7z"/>
					</g>
				</g>
				<g>
					<g>
						<path class="st13" d="M250.7,165.7c-4.3,6.3-9.5,11.7-14.9,17.1c-0.6,0.6,0.3,1.5,0.9,0.9c5.4-5.4,10.7-11,15.1-17.4
							C252.3,165.6,251.2,165,250.7,165.7L250.7,165.7z"/>
					</g>
				</g>
				<g>
					<g>
						<path class="st13" d="M243.5,164.9c0.7,6.5,0.7,13,0.7,19.5c0,0.8,1.3,0.8,1.3,0c0-6.5,0-13-0.7-19.5
							C244.7,164.1,243.5,164.1,243.5,164.9L243.5,164.9z"/>
					</g>
				</g>
				<g>
					<g>
						<path class="st13" d="M235.2,176.7c6.7,0.2,13.2-1.4,19.9-1.1c0.8,0,0.8-1.2,0-1.3c-6.7-0.2-13.2,1.3-19.9,1.1
							C234.4,175.4,234.4,176.7,235.2,176.7L235.2,176.7z"/>
					</g>
				</g>
			</g>
		</g>
		<g>
			<g>
				<g>
					<g>
						<path class="st14" d="M193.9,329.7c1.6,0,1.6-2.5,0-2.5C192.3,327.2,192.3,329.7,193.9,329.7L193.9,329.7z"/>
					</g>
				</g>
				<g>
					<g>
						<path class="st14" d="M165.1,380.1c1.6,0,1.6-2.5,0-2.5C163.5,377.6,163.5,380.1,165.1,380.1L165.1,380.1z"/>
					</g>
				</g>
				<g>
					<g>
						<path class="st14" d="M62.9,387.3c1.6,0,1.6-2.5,0-2.5C61.2,384.8,61.2,387.3,62.9,387.3L62.9,387.3z"/>
					</g>
				</g>
				<g>
					<g>
						<path class="st14" d="M61.4,455c1.6,0,1.6-2.5,0-2.5C59.8,452.5,59.8,455,61.4,455L61.4,455z"/>
					</g>
				</g>
				<g>
					<g>
						<path class="st14" d="M48.4,567.4c1.6,0,1.6-2.5,0-2.5C46.8,564.9,46.8,567.4,48.4,567.4L48.4,567.4z"/>
					</g>
				</g>
				<g>
					<g>
						<path class="st14" d="M136.3,583.3c1.6,0,1.6-2.5,0-2.5C134.7,580.8,134.7,583.3,136.3,583.3L136.3,583.3z"/>
					</g>
				</g>
				<g>
					<g>
						<path class="st14" d="M169.5,645.2c1.6,0,1.6-2.5,0-2.5C167.8,642.7,167.8,645.2,169.5,645.2L169.5,645.2z"/>
					</g>
				</g>
				<g>
					<g>
						<path class="st14" d="M260.2,308.1c1.6,0,1.6-2.5,0-2.5C258.6,305.6,258.6,308.1,260.2,308.1L260.2,308.1z"/>
					</g>
				</g>
				<g>
					<g>
						<path class="st14" d="M117.6,342.4c1.3,0,1.3-2,0-2C116.3,340.4,116.3,342.4,117.6,342.4L117.6,342.4z"/>
					</g>
				</g>
				<g>
					<g>
						<path class="st14" d="M117.6,427.4c1.3,0,1.3-2,0-2C116.3,425.4,116.3,427.4,117.6,427.4L117.6,427.4z"/>
					</g>
				</g>
				<g>
					<g>
						<path class="st14" d="M5.2,447.6c1.3,0,1.3-2,0-2C3.9,445.6,3.9,447.6,5.2,447.6L5.2,447.6z"/>
					</g>
				</g>
				<g>
					<g>
						<path class="st14" d="M87.3,513.9c1.3,0,1.3-2,0-2C86.1,511.9,86.1,513.9,87.3,513.9L87.3,513.9z"/>
					</g>
				</g>
				<g>
					<g>
						<path class="st14" d="M84.5,614.7c1.3,0,1.3-2,0-2C83.2,612.7,83.2,614.7,84.5,614.7L84.5,614.7z"/>
					</g>
				</g>
				<g>
					<g>
						<path class="st14" d="M195.4,603.2c1.3,0,1.3-2,0-2C194.1,601.2,194.1,603.2,195.4,603.2L195.4,603.2z"/>
					</g>
				</g>
				<g>
					<g>
						<path class="st14" d="M232.8,347.9c1,0,1-1.5,0-1.5C231.9,346.4,231.9,347.9,232.8,347.9L232.8,347.9z"/>
					</g>
				</g>
				<g>
					<g>
						<path class="st14" d="M152.2,314.8c1,0,1-1.5,0-1.5C151.2,313.3,151.2,314.8,152.2,314.8L152.2,314.8z"/>
					</g>
				</g>
				<g>
					<g>
						<path class="st14" d="M110.4,389.7c1,0,1-1.5,0-1.5C109.4,388.2,109.4,389.7,110.4,389.7L110.4,389.7z"/>
					</g>
				</g>
				<g>
					<g>
						<path class="st14" d="M3.8,499.2c1,0,1-1.5,0-1.5C2.8,497.7,2.8,499.2,3.8,499.2L3.8,499.2z"/>
					</g>
				</g>
				<g>
					<g>
						<path class="st14" d="M98.9,561.2c1,0,1-1.5,0-1.5C97.9,559.7,97.9,561.2,98.9,561.2L98.9,561.2z"/>
					</g>
				</g>
				<g>
					<g>
						<path class="st14" d="M132,628.9c1,0,1-1.5,0-1.5C131,627.4,131,628.9,132,628.9L132,628.9z"/>
					</g>
				</g>
				<g>
					<g>
						<path class="st14" d="M155,358.8c1.9,0,1.9-3,0-3C153.1,355.8,153.1,358.8,155,358.8L155,358.8z"/>
					</g>
				</g>
				<g>
					<g>
						<path class="st14" d="M45.6,429.4c1.9,0,1.9-3,0-3C43.6,426.4,43.6,429.4,45.6,429.4L45.6,429.4z"/>
					</g>
				</g>
				<g>
					<g>
						<path class="st14" d="M44.1,517.2c1.9,0,1.9-3,0-3C42.2,514.2,42.2,517.2,44.1,517.2L44.1,517.2z"/>
					</g>
				</g>
				<g>
					<g>
						<path class="st14" d="M116.2,593.6c1.9,0,1.9-3,0-3C114.2,590.6,114.2,593.6,116.2,593.6L116.2,593.6z"/>
					</g>
				</g>
				<g>
					<g>
						<path class="st14" d="M206.9,642.6c1.9,0,1.9-3,0-3C205,639.6,205,642.6,206.9,642.6L206.9,642.6z"/>
					</g>
				</g>
				<g>
					<g>
						<path class="st14" d="M235.7,295.4c1.9,0,1.9-3,0-3C233.8,292.4,233.8,295.4,235.7,295.4L235.7,295.4z"/>
					</g>
				</g>
				<g>
					<g>
						<path class="st14" d="M205.5,298.8c0.8,0,0.8-1.3,0-1.3C204.7,297.6,204.7,298.8,205.5,298.8L205.5,298.8z"/>
					</g>
				</g>
				<g>
					<g>
						<path class="st14" d="M198.3,376.6c0.8,0,0.8-1.3,0-1.3C197.5,375.4,197.5,376.6,198.3,376.6L198.3,376.6z"/>
					</g>
				</g>
				<g>
					<g>
						<path class="st14" d="M87.3,363.7c0.8,0,0.8-1.3,0-1.3C86.5,362.4,86.5,363.7,87.3,363.7L87.3,363.7z"/>
					</g>
				</g>
				<g>
					<g>
						<path class="st14" d="M88.8,425.6c0.8,0,0.8-1.3,0-1.3C88,424.4,88,425.6,88.8,425.6L88.8,425.6z"/>
					</g>
				</g>
				<g>
					<g>
						<path class="st14" d="M29.7,474.6c0.8,0,0.8-1.3,0-1.3C28.9,473.3,28.9,474.6,29.7,474.6L29.7,474.6z"/>
					</g>
				</g>
				<g>
					<g>
						<path class="st14" d="M13.9,542.3c0.8,0,0.8-1.3,0-1.3C13.1,541.1,13.1,542.3,13.9,542.3L13.9,542.3z"/>
					</g>
				</g>
				<g>
					<g>
						<path class="st14" d="M71.5,542.3c0.8,0,0.8-1.3,0-1.3C70.7,541.1,70.7,542.3,71.5,542.3L71.5,542.3z"/>
					</g>
				</g>
				<g>
					<g>
						<path class="st14" d="M80.1,589.8c0.8,0,0.8-1.3,0-1.3C79.3,588.6,79.3,589.8,80.1,589.8L80.1,589.8z"/>
					</g>
				</g>
				<g>
					<g>
						<path class="st14" d="M159.4,612.9c0.8,0,0.8-1.3,0-1.3C158.6,611.6,158.6,612.9,159.4,612.9L159.4,612.9z"/>
					</g>
				</g>
				<g>
					<g>
						<path class="st14" d="M87.3,397.9c2.3,0,2.3-3.5,0-3.5C85.1,394.4,85.1,397.9,87.3,397.9L87.3,397.9z"/>
					</g>
				</g>
				<g>
					<g>
						<path class="st14" d="M230,325.1c1.3,0,1.3-2,0-2C228.7,323.1,228.7,325.1,230,325.1L230,325.1z"/>
					</g>
				</g>
				<g>
					<g>
						<path class="st14" d="M117.6,368.4c1.3,0,1.3-2,0-2C116.3,366.4,116.3,368.4,117.6,368.4L117.6,368.4z"/>
					</g>
				</g>
				<g>
					<g>
						<path class="st14" d="M22.5,443.3c1.3,0,1.3-2,0-2C21.2,441.3,21.2,443.3,22.5,443.3L22.5,443.3z"/>
					</g>
				</g>
				<g>
					<g>
						<path class="st14" d="M75.8,568.6c1.3,0,1.3-2,0-2C74.5,566.6,74.5,568.6,75.8,568.6L75.8,568.6z"/>
					</g>
				</g>
				<g>
					<g>
						<path class="st14" d="M191.1,624.8c1.3,0,1.3-2,0-2C189.8,622.8,189.8,624.8,191.1,624.8L191.1,624.8z"/>
					</g>
				</g>
				<g>
					<g>
						<path class="st14" d="M206.9,346.8c1.3,0,1.3-2,0-2C205.6,344.8,205.6,346.8,206.9,346.8L206.9,346.8z"/>
					</g>
				</g>
				<g>
					<g>
						<path class="st14" d="M263.1,266.1c1.3,0,1.3-2,0-2C261.8,264.1,261.8,266.1,263.1,266.1L263.1,266.1z"/>
					</g>
				</g>
				<g>
					<g>
						<path class="st14" d="M241.5,270.2c1,0,1-1.5,0-1.5C240.5,268.7,240.5,270.2,241.5,270.2L241.5,270.2z"/>
					</g>
				</g>
				<g>
					<g>
						<path class="st14" d="M181,359.5c1,0,1-1.5,0-1.5C180,358,180,359.5,181,359.5L181,359.5z"/>
					</g>
				</g>
				<g>
					<g>
						<path class="st14" d="M65.7,415.7c1,0,1-1.5,0-1.5C64.8,414.2,64.8,415.7,65.7,415.7L65.7,415.7z"/>
					</g>
				</g>
				<g>
					<g>
						<path class="st14" d="M24,503.5c1,0,1-1.5,0-1.5C23,502,23,503.5,24,503.5L24,503.5z"/>
					</g>
				</g>
				<g>
					<g>
						<path class="st14" d="M136.3,613c1,0,1-1.5,0-1.5C135.4,611.5,135.4,613,136.3,613L136.3,613z"/>
					</g>
				</g>
				<g>
					<g>
						<path class="st14" d="M224.2,656.2c1,0,1-1.5,0-1.5C223.2,654.7,223.2,656.2,224.2,656.2L224.2,656.2z"/>
					</g>
				</g>
				<g>
					<g>
						<path class="st14" d="M54.2,489.1c1,0,1-1.5,0-1.5C53.2,487.6,53.2,489.1,54.2,489.1L54.2,489.1z"/>
					</g>
				</g>
				<g>
					<g>
						<path class="st14" d="M139.2,398.4c1,0,1-1.5,0-1.5C138.2,396.9,138.2,398.4,139.2,398.4L139.2,398.4z"/>
					</g>
				</g>
				<g>
					<g>
						<path class="st14" d="M29.7,404.1c1,0,1-1.5,0-1.5C28.8,402.6,28.8,404.1,29.7,404.1L29.7,404.1z"/>
					</g>
				</g>
				<g>
					<g>
						<path class="st14" d="M38.4,545.3c1,0,1-1.5,0-1.5C37.4,543.8,37.4,545.3,38.4,545.3L38.4,545.3z"/>
					</g>
				</g>
				<g>
					<g>
						<path class="st14" d="M123.4,564c1,0,1-1.5,0-1.5C122.4,562.5,122.4,564,123.4,564L123.4,564z"/>
					</g>
				</g>
				<g>
					<g>
						<path class="st14" d="M254.4,288.6c0.6,0,0.6-1,0-1C253.8,287.6,253.8,288.6,254.4,288.6L254.4,288.6z"/>
					</g>
				</g>
				<g>
					<g>
						<path class="st14" d="M166.6,333.3c0.6,0,0.6-1,0-1C165.9,332.3,165.9,333.3,166.6,333.3L166.6,333.3z"/>
					</g>
				</g>
				<g>
					<g>
						<path class="st14" d="M110.4,415.4c0.6,0,0.6-1,0-1C109.7,414.4,109.7,415.4,110.4,415.4L110.4,415.4z"/>
					</g>
				</g>
				<g>
					<g>
						<path class="st14" d="M8.1,473c0.6,0,0.6-1,0-1C7.5,472,7.5,473,8.1,473L8.1,473z"/>
					</g>
				</g>
				<g>
					<g>
						<path class="st14" d="M70.1,516.2c0.6,0,0.6-1,0-1C69.4,515.2,69.4,516.2,70.1,516.2L70.1,516.2z"/>
					</g>
				</g>
				<g>
					<g>
						<path class="st14" d="M57.1,591.2c0.6,0,0.6-1,0-1C56.4,590.2,56.4,591.2,57.1,591.2L57.1,591.2z"/>
					</g>
				</g>
				<g>
					<g>
						<path class="st14" d="M168,591.2c0.6,0,0.6-1,0-1C167.4,590.2,167.4,591.2,168,591.2L168,591.2z"/>
					</g>
				</g>
				<g>
					<g>
						<path class="st14" d="M111.8,618.5c0.6,0,0.6-1,0-1C111.2,617.5,111.2,618.5,111.8,618.5L111.8,618.5z"/>
					</g>
				</g>
				<g>
					<g>
						<path class="st14" d="M196.8,658.9c0.6,0,0.6-1,0-1C196.2,657.9,196.2,658.9,196.8,658.9L196.8,658.9z"/>
					</g>
				</g>
				<g>
					<g>
						<path class="st14" d="M268.9,245.4c0.6,0,0.6-1,0-1C268.2,244.4,268.2,245.4,268.9,245.4L268.9,245.4z"/>
					</g>
				</g>
				<g>
					<g>
						<path class="st14" d="M242.9,670.4c0.6,0,0.6-1,0-1C242.3,669.4,242.3,670.4,242.9,670.4L242.9,670.4z"/>
					</g>
				</g>
			</g>
			<g>
				<g>
					<g>
						<path class="st14" d="M938.7,60.3c1.6,0,1.6-2.5,0-2.5C937.1,57.8,937.1,60.3,938.7,60.3L938.7,60.3z"/>
					</g>
				</g>
				<g>
					<g>
						<path class="st14" d="M1020.8,77.6c1.6,0,1.6-2.5,0-2.5C1019.2,75.1,1019.2,77.6,1020.8,77.6L1020.8,77.6z"/>
					</g>
				</g>
				<g>
					<g>
						<path class="st14" d="M1000.7,142.4c1.6,0,1.6-2.5,0-2.5C999.1,139.9,999.1,142.4,1000.7,142.4L1000.7,142.4z"/>
					</g>
				</g>
				<g>
					<g>
						<path class="st14" d="M1007.9,211.6c1.6,0,1.6-2.5,0-2.5C1006.3,209.1,1006.3,211.6,1007.9,211.6L1007.9,211.6z"/>
					</g>
				</g>
				<g>
					<g>
						<path class="st14" d="M912.8,204.4c1.6,0,1.6-2.5,0-2.5C911.2,201.9,911.2,204.4,912.8,204.4L912.8,204.4z"/>
					</g>
				</g>
				<g>
					<g>
						<path class="st14" d="M859.5,253.4c1.6,0,1.6-2.5,0-2.5C857.9,250.9,857.9,253.4,859.5,253.4L859.5,253.4z"/>
					</g>
				</g>
				<g>
					<g>
						<path class="st14" d="M760.1,220.2c1.6,0,1.6-2.5,0-2.5C758.5,217.7,758.5,220.2,760.1,220.2L760.1,220.2z"/>
					</g>
				</g>
				<g>
					<g>
						<path class="st14" d="M724.1,292.3c1.6,0,1.6-2.5,0-2.5C722.5,289.8,722.5,292.3,724.1,292.3L724.1,292.3z"/>
					</g>
				</g>
				<g>
					<g>
						<path class="st14" d="M970.4,90.3c1.3,0,1.3-2,0-2C969.1,88.3,969.1,90.3,970.4,90.3L970.4,90.3z"/>
					</g>
				</g>
				<g>
					<g>
						<path class="st14" d="M1052.5,123.5c1.3,0,1.3-2,0-2C1051.3,121.5,1051.2,123.5,1052.5,123.5L1052.5,123.5z"/>
					</g>
				</g>
				<g>
					<g>
						<path class="st14" d="M956,175.3c1.3,0,1.3-2,0-2C954.7,173.3,954.7,175.3,956,175.3L956,175.3z"/>
					</g>
				</g>
				<g>
					<g>
						<path class="st14" d="M953.1,244.5c1.3,0,1.3-2,0-2C951.9,242.5,951.8,244.5,953.1,244.5L953.1,244.5z"/>
					</g>
				</g>
				<g>
					<g>
						<path class="st14" d="M836.4,198.4c1.3,0,1.3-2,0-2C835.2,196.4,835.2,198.4,836.4,198.4L836.4,198.4z"/>
					</g>
				</g>
				<g>
					<g>
						<path class="st14" d="M801.9,276.2c1.3,0,1.3-2,0-2C800.6,274.2,800.6,276.2,801.9,276.2L801.9,276.2z"/>
					</g>
				</g>
				<g>
					<g>
						<path class="st14" d="M693.8,240.2c1.3,0,1.3-2,0-2C692.5,238.2,692.5,240.2,693.8,240.2L693.8,240.2z"/>
					</g>
				</g>
				<g>
					<g>
						<path class="st14" d="M980.5,51.2c1,0,1-1.5,0-1.5C979.5,49.7,979.5,51.2,980.5,51.2L980.5,51.2z"/>
					</g>
				</g>
				<g>
					<g>
						<path class="st14" d="M1030.9,162.1c1,0,1-1.5,0-1.5C1030,160.6,1030,162.1,1030.9,162.1L1030.9,162.1z"/>
					</g>
				</g>
				<g>
					<g>
						<path class="st14" d="M957.5,211.1c1,0,1-1.5,0-1.5C956.5,209.6,956.5,211.1,957.5,211.1L957.5,211.1z"/>
					</g>
				</g>
				<g>
					<g>
						<path class="st14" d="M873.9,196.7c1,0,1-1.5,0-1.5C872.9,195.2,872.9,196.7,873.9,196.7L873.9,196.7z"/>
					</g>
				</g>
				<g>
					<g>
						<path class="st14" d="M801.9,244.2c1,0,1-1.5,0-1.5C800.9,242.7,800.9,244.2,801.9,244.2L801.9,244.2z"/>
					</g>
				</g>
				<g>
					<g>
						<path class="st14" d="M679.4,277.4c1,0,1-1.5,0-1.5C678.5,275.9,678.5,277.4,679.4,277.4L679.4,277.4z"/>
					</g>
				</g>
				<g>
					<g>
						<path class="st14" d="M999.2,86.5c1.9,0,1.9-3,0-3C997.3,83.5,997.3,86.5,999.2,86.5L999.2,86.5z"/>
					</g>
				</g>
				<g>
					<g>
						<path class="st14" d="M1003.6,185.9c1.9,0,1.9-3,0-3C1001.6,182.9,1001.6,185.9,1003.6,185.9L1003.6,185.9z"/>
					</g>
				</g>
				<g>
					<g>
						<path class="st14" d="M889.8,234.9c1.9,0,1.9-3,0-3C887.8,231.9,887.8,234.9,889.8,234.9L889.8,234.9z"/>
					</g>
				</g>
				<g>
					<g>
						<path class="st14" d="M803.3,223.4c1.9,0,1.9-3,0-3C801.4,220.4,801.4,223.4,803.3,223.4L803.3,223.4z"/>
					</g>
				</g>
				<g>
					<g>
						<path class="st14" d="M724.1,262.3c1.9,0,1.9-3,0-3C722.2,259.3,722.1,262.3,724.1,262.3L724.1,262.3z"/>
					</g>
				</g>
				<g>
					<g>
						<path class="st14" d="M682.3,311.2c1.9,0,1.9-3,0-3C680.4,308.2,680.4,311.2,682.3,311.2L682.3,311.2z"/>
					</g>
				</g>
				<g>
					<g>
						<path class="st14" d="M1019.4,114.4c0.8,0,0.8-1.3,0-1.3C1018.6,113.2,1018.6,114.4,1019.4,114.4L1019.4,114.4z"/>
					</g>
				</g>
				<g>
					<g>
						<path class="st14" d="M981.9,179.3c0.8,0,0.8-1.3,0-1.3C981.1,178,981.1,179.3,981.9,179.3L981.9,179.3z"/>
					</g>
				</g>
				<g>
					<g>
						<path class="st14" d="M925.8,241.2c0.8,0,0.8-1.3,0-1.3C925,240,925,241.2,925.8,241.2L925.8,241.2z"/>
					</g>
				</g>
				<g>
					<g>
						<path class="st14" d="M849.4,216.7c0.8,0,0.8-1.3,0-1.3C848.6,215.5,848.6,216.7,849.4,216.7L849.4,216.7z"/>
					</g>
				</g>
				<g>
					<g>
						<path class="st14" d="M754.3,262.8c0.8,0,0.8-1.3,0-1.3C753.5,261.6,753.5,262.8,754.3,262.8L754.3,262.8z"/>
					</g>
				</g>
				<g>
					<g>
						<path class="st14" d="M721.2,222.5c0.8,0,0.8-1.3,0-1.3C720.4,221.2,720.4,222.5,721.2,222.5L721.2,222.5z"/>
					</g>
				</g>
				<g>
					<g>
						<path class="st14" d="M774.5,243.8c2.3,0,2.3-3.5,0-3.5C772.3,240.3,772.2,243.8,774.5,243.8L774.5,243.8z"/>
					</g>
				</g>
				<g>
					<g>
						<path class="st14" d="M999.2,114.1c2.3,0,2.3-3.5,0-3.5C997,110.6,997,114.1,999.2,114.1L999.2,114.1z"/>
					</g>
				</g>
				<g>
					<g>
						<path class="st14" d="M958.9,42.1c2.3,0,2.3-3.5,0-3.5C956.6,38.6,956.6,42.1,958.9,42.1L958.9,42.1z"/>
					</g>
				</g>
				<g>
					<g>
						<path class="st14" d="M832.1,240.2c1.3,0,1.3-2,0-2C830.8,238.2,830.8,240.2,832.1,240.2L832.1,240.2z"/>
					</g>
				</g>
				<g>
					<g>
						<path class="st14" d="M971.9,67.3c1.3,0,1.3-2,0-2C970.6,65.3,970.6,67.3,971.9,67.3L971.9,67.3z"/>
					</g>
				</g>
				<g>
					<g>
						<path class="st14" d="M979.1,225.7c1.3,0,1.3-2,0-2C977.8,223.7,977.8,225.7,979.1,225.7L979.1,225.7z"/>
					</g>
				</g>
				<g>
					<g>
						<path class="st14" d="M876.8,218.5c1.3,0,1.3-2,0-2C875.5,216.5,875.5,218.5,876.8,218.5L876.8,218.5z"/>
					</g>
				</g>
				<g>
					<g>
						<path class="st14" d="M701,284.8c1.3,0,1.3-2,0-2C699.7,282.8,699.7,284.8,701,284.8L701,284.8z"/>
					</g>
				</g>
				<g>
					<g>
						<path class="st14" d="M1002.1,62.7c1,0,1-1.5,0-1.5C1001.2,61.2,1001.2,62.7,1002.1,62.7L1002.1,62.7z"/>
					</g>
				</g>
				<g>
					<g>
						<path class="st14" d="M1005,165c1,0,1-1.5,0-1.5C1004,163.5,1004,165,1005,165L1005,165z"/>
					</g>
				</g>
				<g>
					<g>
						<path class="st14" d="M979.1,209.6c1,0,1-1.5,0-1.5C978.1,208.1,978.1,209.6,979.1,209.6L979.1,209.6z"/>
					</g>
				</g>
				<g>
					<g>
						<path class="st14" d="M922.9,218.3c1,0,1-1.5,0-1.5C921.9,216.8,921.9,218.3,922.9,218.3L922.9,218.3z"/>
					</g>
				</g>
				<g>
					<g>
						<path class="st14" d="M739.9,237c1,0,1-1.5,0-1.5C739,235.5,739,237,739.9,237L739.9,237z"/>
					</g>
				</g>
				<g>
					<g>
						<path class="st14" d="M666.5,304.7c1,0,1-1.5,0-1.5C665.5,303.2,665.5,304.7,666.5,304.7L666.5,304.7z"/>
					</g>
				</g>
				<g>
					<g>
						<path class="st14" d="M1025.2,135.9c0.6,0,0.6-1,0-1C1024.5,134.9,1024.5,135.9,1025.2,135.9L1025.2,135.9z"/>
					</g>
				</g>
				<g>
					<g>
						<path class="st14" d="M944.5,200.8c0.6,0,0.6-1,0-1C943.8,199.8,943.8,200.8,944.5,200.8L944.5,200.8z"/>
					</g>
				</g>
				<g>
					<g>
						<path class="st14" d="M858.1,233.9c0.6,0,0.6-1,0-1C857.4,232.9,857.4,233.9,858.1,233.9L858.1,233.9z"/>
					</g>
				</g>
				<g>
					<g>
						<path class="st14" d="M761.5,282.9c0.6,0,0.6-1,0-1C760.9,281.9,760.9,282.9,761.5,282.9L761.5,282.9z"/>
					</g>
				</g>
				<g>
					<g>
						<path class="st14" d="M701,261.3c0.6,0,0.6-1,0-1C700.4,260.3,700.4,261.3,701,261.3L701,261.3z"/>
					</g>
				</g>
				<g>
					<g>
						<path class="st14" d="M659.3,282.9c0.6,0,0.6-1,0-1C658.6,281.9,658.6,282.9,659.3,282.9L659.3,282.9z"/>
					</g>
				</g>
				<g>
					<g>
						<path class="st14" d="M937.3,40.8c0.6,0,0.6-1,0-1C936.6,39.8,936.6,40.8,937.3,40.8L937.3,40.8z"/>
					</g>
				</g>
				<g>
					<g>
						<path class="st14" d="M644.9,307.4c0.6,0,0.6-1,0-1C644.2,306.4,644.2,307.4,644.9,307.4L644.9,307.4z"/>
					</g>
				</g>
				<g>
					<g>
						<path class="st14" d="M663.6,333.3c0.6,0,0.6-1,0-1C662.9,332.3,662.9,333.3,663.6,333.3L663.6,333.3z"/>
					</g>
				</g>
				<g>
					<g>
						<path class="st14" d="M633.3,341.9c0.6,0,0.6-1,0-1C632.7,340.9,632.7,341.9,633.3,341.9L633.3,341.9z"/>
					</g>
				</g>
				<g>
					<g>
						<path class="st14" d="M920,29.3c0.6,0,0.6-1,0-1C919.4,28.3,919.4,29.3,920,29.3L920,29.3z"/>
					</g>
				</g>
				<g>
					<g>
						<path class="st14" d="M1039.6,193.6c0.6,0,0.6-1,0-1C1038.9,192.6,1038.9,193.6,1039.6,193.6L1039.6,193.6z"/>
					</g>
				</g>
				<g>
					<g>
						<path class="st14" d="M1064.1,159c0.6,0,0.6-1,0-1C1063.4,158,1063.4,159,1064.1,159L1064.1,159z"/>
					</g>
				</g>
			</g>
			<g class="st15">
				<g>
					<g>
						<path class="st13" d="M872.5,584.7c1.6,0,1.6-2.5,0-2.5C870.9,582.2,870.9,584.7,872.5,584.7L872.5,584.7z"/>
					</g>
				</g>
				<g>
					<g>
						<path class="st13" d="M912.8,643.8c1.6,0,1.6-2.5,0-2.5C911.2,641.3,911.2,643.8,912.8,643.8L912.8,643.8z"/>
					</g>
				</g>
				<g>
					<g>
						<path class="st13" d="M878.2,695.6c1.6,0,1.6-2.5,0-2.5C876.6,693.1,876.6,695.6,878.2,695.6L878.2,695.6z"/>
					</g>
				</g>
				<g>
					<g>
						<path class="st13" d="M951.7,737.4c1.6,0,1.6-2.5,0-2.5C950.1,734.9,950.1,737.4,951.7,737.4L951.7,737.4z"/>
					</g>
				</g>
				<g>
					<g>
						<path class="st13" d="M931.5,792.1c1.6,0,1.6-2.5,0-2.5C929.9,789.6,929.9,792.1,931.5,792.1L931.5,792.1z"/>
					</g>
				</g>
				<g>
					<g>
						<path class="st13" d="M1026.6,797.9c1.6,0,1.6-2.5,0-2.5C1025,795.4,1025,797.9,1026.6,797.9L1026.6,797.9z"/>
					</g>
				</g>
				<g>
					<g>
						<path class="st13" d="M1015.1,858.4c1.6,0,1.6-2.5,0-2.5C1013.5,855.9,1013.5,858.4,1015.1,858.4L1015.1,858.4z"/>
					</g>
				</g>
				<g>
					<g>
						<path class="st13" d="M1068.4,900.2c1.6,0,1.6-2.5,0-2.5C1066.8,897.7,1066.8,900.2,1068.4,900.2L1068.4,900.2z"/>
					</g>
				</g>
				<g>
					<g>
						<path class="st13" d="M993.5,937.6c1.6,0,1.6-2.5,0-2.5C991.9,935.1,991.9,937.6,993.5,937.6L993.5,937.6z"/>
					</g>
				</g>
				<g>
					<g>
						<path class="st13" d="M964.7,986.6c1.6,0,1.6-2.5,0-2.5C963.1,984.1,963.1,986.6,964.7,986.6L964.7,986.6z"/>
					</g>
				</g>
				<g>
					<g>
						<path class="st13" d="M869.6,959.3c1.6,0,1.6-2.5,0-2.5C868,956.8,868,959.3,869.6,959.3L869.6,959.3z"/>
					</g>
				</g>
				<g>
					<g>
						<path class="st13" d="M871,1014c1.6,0,1.6-2.5,0-2.5C869.4,1011.5,869.4,1014,871,1014L871,1014z"/>
					</g>
				</g>
				<g>
					<g>
						<path class="st13" d="M855.2,642.1c1.3,0,1.3-2,0-2C853.9,640.1,853.9,642.1,855.2,642.1L855.2,642.1z"/>
					</g>
				</g>
				<g>
					<g>
						<path class="st13" d="M944.5,692.5c1.3,0,1.3-2,0-2C943.2,690.5,943.2,692.5,944.5,692.5L944.5,692.5z"/>
					</g>
				</g>
				<g>
					<g>
						<path class="st13" d="M897,760.2c1.3,0,1.3-2,0-2C895.7,758.2,895.7,760.2,897,760.2L897,760.2z"/>
					</g>
				</g>
				<g>
					<g>
						<path class="st13" d="M1000.7,766c1.3,0,1.3-2,0-2C999.4,764,999.4,766,1000.7,766L1000.7,766z"/>
					</g>
				</g>
				<g>
					<g>
						<path class="st13" d="M967.5,829.4c1.3,0,1.3-2,0-2C966.3,827.4,966.3,829.4,967.5,829.4L967.5,829.4z"/>
					</g>
				</g>
				<g>
					<g>
						<path class="st13" d="M1075.6,851c1.3,0,1.3-2,0-2C1074.3,849,1074.3,851,1075.6,851L1075.6,851z"/>
					</g>
				</g>
				<g>
					<g>
						<path class="st13" d="M1015.1,904.3c1.3,0,1.3-2,0-2C1013.8,902.3,1013.8,904.3,1015.1,904.3L1015.1,904.3z"/>
					</g>
				</g>
				<g>
					<g>
						<path class="st13" d="M1048.2,973.4c1.3,0,1.3-2,0-2C1046.9,971.4,1046.9,973.4,1048.2,973.4L1048.2,973.4z"/>
					</g>
				</g>
				<g>
					<g>
						<path class="st13" d="M917.1,930.2c1.3,0,1.3-2,0-2C915.8,928.2,915.8,930.2,917.1,930.2L917.1,930.2z"/>
					</g>
				</g>
				<g>
					<g>
						<path class="st13" d="M914.2,1003.7c1.3,0,1.3-2,0-2C913,1001.7,913,1003.7,914.2,1003.7L914.2,1003.7z"/>
					</g>
				</g>
				<g>
					<g>
						<path class="st13" d="M824.9,995c1.3,0,1.3-2,0-2C823.6,993,823.6,995,824.9,995L824.9,995z"/>
					</g>
				</g>
				<g>
					<g>
						<path class="st13" d="M902.7,608.7c1,0,1-1.5,0-1.5C901.8,607.2,901.7,608.7,902.7,608.7L902.7,608.7z"/>
					</g>
				</g>
				<g>
					<g>
						<path class="st13" d="M902.7,721.1c1,0,1-1.5,0-1.5C901.8,719.6,901.7,721.1,902.7,721.1L902.7,721.1z"/>
					</g>
				</g>
				<g>
					<g>
						<path class="st13" d="M979.1,774.4c1,0,1-1.5,0-1.5C978.1,772.9,978.1,774.4,979.1,774.4L979.1,774.4z"/>
					</g>
				</g>
				<g>
					<g>
						<path class="st13" d="M1018,836.3c1,0,1-1.5,0-1.5C1017,834.8,1017,836.3,1018,836.3L1018,836.3z"/>
					</g>
				</g>
				<g>
					<g>
						<path class="st13" d="M1043.9,944.4c1,0,1-1.5,0-1.5C1042.9,942.9,1042.9,944.4,1043.9,944.4L1043.9,944.4z"/>
					</g>
				</g>
				<g>
					<g>
						<path class="st13" d="M944.5,950.1c1,0,1-1.5,0-1.5C943.5,948.6,943.5,950.1,944.5,950.1L944.5,950.1z"/>
					</g>
				</g>
				<g>
					<g>
						<path class="st13" d="M892.6,986.1c1,0,1-1.5,0-1.5C891.7,984.6,891.7,986.1,892.6,986.1L892.6,986.1z"/>
					</g>
				</g>
				<g>
					<g>
						<path class="st13" d="M884,642.6c1.9,0,1.9-3,0-3C882.1,639.6,882.1,642.6,884,642.6L884,642.6z"/>
					</g>
				</g>
				<g>
					<g>
						<path class="st13" d="M934.4,750.6c1.9,0,1.9-3,0-3C932.5,747.6,932.5,750.6,934.4,750.6L934.4,750.6z"/>
					</g>
				</g>
				<g>
					<g>
						<path class="st13" d="M1003.6,809.7c1.9,0,1.9-3,0-3C1001.6,806.7,1001.6,809.7,1003.6,809.7L1003.6,809.7z"/>
					</g>
				</g>
				<g>
					<g>
						<path class="st13" d="M1049.7,891.8c1.9,0,1.9-3,0-3C1047.7,888.8,1047.7,891.8,1049.7,891.8L1049.7,891.8z"/>
					</g>
				</g>
				<g>
					<g>
						<path class="st13" d="M997.8,966.7c1.9,0,1.9-3,0-3C995.9,963.7,995.9,966.7,997.8,966.7L997.8,966.7z"/>
					</g>
				</g>
				<g>
					<g>
						<path class="st13" d="M908.5,959.5c1.9,0,1.9-3,0-3C906.5,956.5,906.5,959.5,908.5,959.5L908.5,959.5z"/>
					</g>
				</g>
				<g>
					<g>
						<path class="st13" d="M849.4,994.1c1.9,0,1.9-3,0-3C847.5,991.1,847.5,994.1,849.4,994.1L849.4,994.1z"/>
					</g>
				</g>
				<g>
					<g>
						<path class="st13" d="M907,683.5c0.8,0,0.8-1.3,0-1.3C906.2,682.2,906.2,683.5,907,683.5L907,683.5z"/>
					</g>
				</g>
				<g>
					<g>
						<path class="st13" d="M964.7,800.2c0.8,0,0.8-1.3,0-1.3C963.9,798.9,963.9,800.2,964.7,800.2L964.7,800.2z"/>
					</g>
				</g>
				<g>
					<g>
						<path class="st13" d="M1049.7,837.6c0.8,0,0.8-1.3,0-1.3C1048.9,836.4,1048.9,837.6,1049.7,837.6L1049.7,837.6z"/>
					</g>
				</g>
				<g>
					<g>
						<path class="st13" d="M1026.6,928.4c0.8,0,0.8-1.3,0-1.3C1025.8,927.1,1025.8,928.4,1026.6,928.4L1026.6,928.4z"/>
					</g>
				</g>
				<g>
					<g>
						<path class="st13" d="M935.8,978.8c0.8,0,0.8-1.3,0-1.3C935,977.6,935,978.8,935.8,978.8L935.8,978.8z"/>
					</g>
				</g>
				<g>
					<g>
						<path class="st13" d="M869.6,983.1c0.8,0,0.8-1.3,0-1.3C868.8,981.9,868.8,983.1,869.6,983.1L869.6,983.1z"/>
					</g>
				</g>
				<g>
					<g>
						<path class="st13" d="M930.1,717.7c2.3,0,2.3-3.5,0-3.5C927.8,714.2,927.8,717.7,930.1,717.7L930.1,717.7z"/>
					</g>
				</g>
				<g>
					<g>
						<path class="st13" d="M1045.3,866.1c2.3,0,2.3-3.5,0-3.5C1043.1,862.6,1043.1,866.1,1045.3,866.1L1045.3,866.1z"/>
					</g>
				</g>
				<g>
					<g>
						<path class="st13" d="M969,936.7c2.3,0,2.3-3.5,0-3.5C966.7,933.2,966.7,936.7,969,936.7L969,936.7z"/>
					</g>
				</g>
				<g>
					<g>
						<path class="st13" d="M878.2,668c1.3,0,1.3-2,0-2C876.9,666,876.9,668,878.2,668L878.2,668z"/>
					</g>
				</g>
				<g>
					<g>
						<path class="st13" d="M912.8,581.6c1.3,0,1.3-2,0-2C911.5,579.6,911.5,581.6,912.8,581.6L912.8,581.6z"/>
					</g>
				</g>
				<g>
					<g>
						<path class="st13" d="M954.6,776.1c1.3,0,1.3-2,0-2C953.3,774.1,953.3,776.1,954.6,776.1L954.6,776.1z"/>
					</g>
				</g>
				<g>
					<g>
						<path class="st13" d="M1032.4,823.6c1.3,0,1.3-2,0-2C1031.1,821.6,1031.1,823.6,1032.4,823.6L1032.4,823.6z"/>
					</g>
				</g>
				<g>
					<g>
						<path class="st13" d="M1020.8,947.5c1.3,0,1.3-2,0-2C1019.6,945.5,1019.6,947.5,1020.8,947.5L1020.8,947.5z"/>
					</g>
				</g>
				<g>
					<g>
						<path class="st13" d="M961.8,969.1c1.3,0,1.3-2,0-2C960.5,967.1,960.5,969.1,961.8,969.1L961.8,969.1z"/>
					</g>
				</g>
				<g>
					<g>
						<path class="st13" d="M839.3,966.2c1.3,0,1.3-2,0-2C838,964.2,838,966.2,839.3,966.2L839.3,966.2z"/>
					</g>
				</g>
				<g>
					<g>
						<path class="st13" d="M848,1021c1.3,0,1.3-2,0-2C846.7,1019,846.7,1021,848,1021L848,1021z"/>
					</g>
				</g>
				<g>
					<g>
						<path class="st13" d="M1046.8,921.6c1.3,0,1.3-2,0-2C1045.5,919.6,1045.5,921.6,1046.8,921.6L1046.8,921.6z"/>
					</g>
				</g>
				<g>
					<g>
						<path class="st13" d="M884,611.6c1,0,1-1.5,0-1.5C883,610.1,883,611.6,884,611.6L884,611.6z"/>
					</g>
				</g>
				<g>
					<g>
						<path class="st13" d="M922.9,679.3c1,0,1-1.5,0-1.5C921.9,677.8,921.9,679.3,922.9,679.3L922.9,679.3z"/>
					</g>
				</g>
				<g>
					<g>
						<path class="st13" d="M918.6,749.9c1,0,1-1.5,0-1.5C917.6,748.4,917.6,749.9,918.6,749.9L918.6,749.9z"/>
					</g>
				</g>
				<g>
					<g>
						<path class="st13" d="M993.5,791.6c1,0,1-1.5,0-1.5C992.5,790.1,992.5,791.6,993.5,791.6L993.5,791.6z"/>
					</g>
				</g>
				<g>
					<g>
						<path class="st13" d="M1030.9,891c1,0,1-1.5,0-1.5C1030,889.5,1030,891,1030.9,891L1030.9,891z"/>
					</g>
				</g>
				<g>
					<g>
						<path class="st13" d="M1020.8,976c1,0,1-1.5,0-1.5C1019.9,974.5,1019.9,976,1020.8,976L1020.8,976z"/>
					</g>
				</g>
				<g>
					<g>
						<path class="st13" d="M931.5,964.5c1,0,1-1.5,0-1.5C930.6,963,930.6,964.5,931.5,964.5L931.5,964.5z"/>
					</g>
				</g>
				<g>
					<g>
						<path class="st13" d="M885.4,971.7c1,0,1-1.5,0-1.5C884.5,970.2,884.5,971.7,885.4,971.7L885.4,971.7z"/>
					</g>
				</g>
				<g>
					<g>
						<path class="st13" d="M891.2,572.4c0.6,0,0.6-1,0-1C890.5,571.4,890.5,572.4,891.2,572.4L891.2,572.4z"/>
					</g>
				</g>
				<g>
					<g>
						<path class="st13" d="M898.4,667.5c0.6,0,0.6-1,0-1C897.8,666.5,897.8,667.5,898.4,667.5L898.4,667.5z"/>
					</g>
				</g>
				<g>
					<g>
						<path class="st13" d="M881.1,729.5c0.6,0,0.6-1,0-1C880.5,728.5,880.5,729.5,881.1,729.5L881.1,729.5z"/>
					</g>
				</g>
				<g>
					<g>
						<path class="st13" d="M976.2,748.2c0.6,0,0.6-1,0-1C975.5,747.2,975.5,748.2,976.2,748.2L976.2,748.2z"/>
					</g>
				</g>
				<g>
					<g>
						<path class="st13" d="M1054,808.7c0.6,0,0.6-1,0-1C1053.3,807.7,1053.3,808.7,1054,808.7L1054,808.7z"/>
					</g>
				</g>
				<g>
					<g>
						<path class="st13" d="M1072.7,936.9c0.6,0,0.6-1,0-1C1072.1,935.9,1072.1,936.9,1072.7,936.9L1072.7,936.9z"/>
					</g>
				</g>
				<g>
					<g>
						<path class="st13" d="M945.9,926.8c0.6,0,0.6-1,0-1C945.3,925.8,945.3,926.8,945.9,926.8L945.9,926.8z"/>
					</g>
				</g>
				<g>
					<g>
						<path class="st13" d="M824.9,1016.1c0.6,0,0.6-1,0-1C824.3,1015.1,824.3,1016.1,824.9,1016.1L824.9,1016.1z"/>
					</g>
				</g>
				<g>
					<g>
						<path class="st13" d="M908.5,558c0.6,0,0.6-1,0-1C907.8,557,907.8,558,908.5,558L908.5,558z"/>
					</g>
				</g>
				<g>
					<g>
						<path class="st13" d="M884,550.8c0.6,0,0.6-1,0-1C883.3,549.8,883.3,550.8,884,550.8L884,550.8z"/>
					</g>
				</g>
				<g>
					<g>
						<path class="st13" d="M899.8,533.5c0.6,0,0.6-1,0-1C899.2,532.5,899.2,533.5,899.8,533.5L899.8,533.5z"/>
					</g>
				</g>
				<g>
					<g>
						<path class="st13" d="M804.8,1000.3c0.6,0,0.6-1,0-1C804.1,999.3,804.1,1000.3,804.8,1000.3L804.8,1000.3z"/>
					</g>
				</g>
				<g>
					<g>
						<path class="st13" d="M822,1042.1c0.6,0,0.6-1,0-1C821.4,1041.1,821.4,1042.1,822,1042.1L822,1042.1z"/>
					</g>
				</g>
				<g>
					<g>
						<path class="st13" d="M793.2,1030.5c0.6,0,0.6-1,0-1C792.6,1029.5,792.6,1030.5,793.2,1030.5L793.2,1030.5z"/>
					</g>
				</g>
			</g>
			<g class="st9">
				<g>
					<g>
						<path class="st13" d="M374,776.3c1.6,0,1.6-2.5,0-2.5C372.4,773.8,372.4,776.3,374,776.3L374,776.3z"/>
					</g>
				</g>
				<g>
					<g>
						<path class="st13" d="M404.3,839.7c1.6,0,1.6-2.5,0-2.5C402.7,837.2,402.7,839.7,404.3,839.7L404.3,839.7z"/>
					</g>
				</g>
				<g>
					<g>
						<path class="st13" d="M340.9,898.8c1.6,0,1.6-2.5,0-2.5C339.3,896.3,339.3,898.8,340.9,898.8L340.9,898.8z"/>
					</g>
				</g>
				<g>
					<g>
						<path class="st13" d="M368.3,969.3c1.6,0,1.6-2.5,0-2.5C366.6,966.8,366.6,969.3,368.3,969.3L368.3,969.3z"/>
					</g>
				</g>
				<g>
					<g>
						<path class="st13" d="M284.7,982.3c1.6,0,1.6-2.5,0-2.5C283.1,979.8,283.1,982.3,284.7,982.3L284.7,982.3z"/>
					</g>
				</g>
				<g>
					<g>
						<path class="st13" d="M227.1,1027c1.6,0,1.6-2.5,0-2.5C225.5,1024.5,225.5,1027,227.1,1027L227.1,1027z"/>
					</g>
				</g>
				<g>
					<g>
						<path class="st13" d="M142.1,980.9c1.6,0,1.6-2.5,0-2.5C140.5,978.4,140.5,980.9,142.1,980.9L142.1,980.9z"/>
					</g>
				</g>
				<g>
					<g>
						<path class="st13" d="M97.4,1039.9c1.6,0,1.6-2.5,0-2.5C95.8,1037.4,95.8,1039.9,97.4,1039.9L97.4,1039.9z"/>
					</g>
				</g>
				<g>
					<g>
						<path class="st13" d="M407.2,810.6c1.3,0,1.3-2,0-2C405.9,808.6,405.9,810.6,407.2,810.6L407.2,810.6z"/>
					</g>
				</g>
				<g>
					<g>
						<path class="st13" d="M349.5,848.1c1.3,0,1.3-2,0-2C348.2,846.1,348.2,848.1,349.5,848.1L349.5,848.1z"/>
					</g>
				</g>
				<g>
					<g>
						<path class="st13" d="M397.1,917.2c1.3,0,1.3-2,0-2C395.8,915.2,395.8,917.2,397.1,917.2L397.1,917.2z"/>
					</g>
				</g>
				<g>
					<g>
						<path class="st13" d="M325,947.5c1.3,0,1.3-2,0-2C323.8,945.5,323.7,947.5,325,947.5L325,947.5z"/>
					</g>
				</g>
				<g>
					<g>
						<path class="st13" d="M323.6,1023.8c1.3,0,1.3-2,0-2C322.3,1021.8,322.3,1023.8,323.6,1023.8L323.6,1023.8z"/>
					</g>
				</g>
				<g>
					<g>
						<path class="st13" d="M209.8,984.9c1.3,0,1.3-2,0-2C208.5,982.9,208.5,984.9,209.8,984.9L209.8,984.9z"/>
					</g>
				</g>
				<g>
					<g>
						<path class="st13" d="M160.8,1041.1c1.3,0,1.3-2,0-2C159.5,1039.1,159.5,1041.1,160.8,1041.1L160.8,1041.1z"/>
					</g>
				</g>
				<g>
					<g>
						<path class="st13" d="M90.2,989.3c1.3,0,1.3-2,0-2C88.9,987.3,88.9,989.3,90.2,989.3L90.2,989.3z"/>
					</g>
				</g>
				<g>
					<g>
						<path class="st13" d="M371.1,814.7c1,0,1-1.5,0-1.5C370.2,813.2,370.2,814.7,371.1,814.7L371.1,814.7z"/>
					</g>
				</g>
				<g>
					<g>
						<path class="st13" d="M387,888.2c1,0,1-1.5,0-1.5C386,886.7,386,888.2,387,888.2L387,888.2z"/>
					</g>
				</g>
				<g>
					<g>
						<path class="st13" d="M339.4,993.3c1,0,1-1.5,0-1.5C338.5,991.8,338.5,993.3,339.4,993.3L339.4,993.3z"/>
					</g>
				</g>
				<g>
					<g>
						<path class="st13" d="M253,997.7c1,0,1-1.5,0-1.5C252,996.2,252,997.7,253,997.7L253,997.7z"/>
					</g>
				</g>
				<g>
					<g>
						<path class="st13" d="M175.2,1019.3c1,0,1-1.5,0-1.5C174.3,1017.8,174.3,1019.3,175.2,1019.3L175.2,1019.3z"/>
					</g>
				</g>
				<g>
					<g>
						<path class="st13" d="M62.9,1013.5c1,0,1-1.5,0-1.5C61.9,1012,61.9,1013.5,62.9,1013.5L62.9,1013.5z"/>
					</g>
				</g>
				<g>
					<g>
						<path class="st13" d="M378.3,855.8c1.9,0,1.9-3,0-3C376.4,852.8,376.4,855.8,378.3,855.8L378.3,855.8z"/>
					</g>
				</g>
				<g>
					<g>
						<path class="st13" d="M351,933.6c1.9,0,1.9-3,0-3C349,930.6,349,933.6,351,933.6L351,933.6z"/>
					</g>
				</g>
				<g>
					<g>
						<path class="st13" d="M293.3,1007c1.9,0,1.9-3,0-3C291.4,1004,291.4,1007,293.3,1007L293.3,1007z"/>
					</g>
				</g>
				<g>
					<g>
						<path class="st13" d="M173.8,998.4c1.9,0,1.9-3,0-3C171.8,995.4,171.8,998.4,173.8,998.4L173.8,998.4z"/>
					</g>
				</g>
				<g>
					<g>
						<path class="st13" d="M110.4,1014.3c1.9,0,1.9-3,0-3C108.5,1011.3,108.5,1014.3,110.4,1014.3L110.4,1014.3z"/>
					</g>
				</g>
				<g>
					<g>
						<path class="st13" d="M361.1,883.7c0.8,0,0.8-1.3,0-1.3C360.2,882.5,360.2,883.7,361.1,883.7L361.1,883.7z"/>
					</g>
				</g>
				<g>
					<g>
						<path class="st13" d="M315,980.2c0.8,0,0.8-1.3,0-1.3C314.2,979,314.1,980.2,315,980.2L315,980.2z"/>
					</g>
				</g>
				<g>
					<g>
						<path class="st13" d="M268.9,1022c0.8,0,0.8-1.3,0-1.3C268.1,1020.8,268,1022,268.9,1022L268.9,1022z"/>
					</g>
				</g>
				<g>
					<g>
						<path class="st13" d="M205.5,1007.6c0.8,0,0.8-1.3,0-1.3C204.7,1006.4,204.7,1007.6,205.5,1007.6L205.5,1007.6z"/>
					</g>
				</g>
				<g>
					<g>
						<path class="st13" d="M139.2,1016.3c0.8,0,0.8-1.3,0-1.3C138.4,1015,138.4,1016.3,139.2,1016.3L139.2,1016.3z"/>
					</g>
				</g>
				<g>
					<g>
						<path class="st13" d="M80.1,1017.7c0.8,0,0.8-1.3,0-1.3C79.3,1016.4,79.3,1017.7,80.1,1017.7L80.1,1017.7z"/>
					</g>
				</g>
				<g>
					<g>
						<path class="st13" d="M379.8,939.6c2.3,0,2.3-3.5,0-3.5C377.5,936.1,377.5,939.6,379.8,939.6L379.8,939.6z"/>
					</g>
				</g>
				<g>
					<g>
						<path class="st13" d="M230,1007.3c2.3,0,2.3-3.5,0-3.5C227.7,1003.8,227.7,1007.3,230,1007.3L230,1007.3z"/>
					</g>
				</g>
				<g>
					<g>
						<path class="st13" d="M391.3,802c1.3,0,1.3-2,0-2C390,800,390,802,391.3,802L391.3,802z"/>
					</g>
				</g>
				<g>
					<g>
						<path class="st13" d="M368.3,914.3c1.3,0,1.3-2,0-2C367,912.3,367,914.3,368.3,914.3L368.3,914.3z"/>
					</g>
				</g>
				<g>
					<g>
						<path class="st13" d="M342.3,972c1.3,0,1.3-2,0-2C341,970,341,972,342.3,972L342.3,972z"/>
					</g>
				</g>
				<g>
					<g>
						<path class="st13" d="M234.3,983.5c1.3,0,1.3-2,0-2C233,981.5,233,983.5,234.3,983.5L234.3,983.5z"/>
					</g>
				</g>
				<g>
					<g>
						<path class="st13" d="M201.1,1035.4c1.3,0,1.3-2,0-2C199.9,1033.4,199.9,1035.4,201.1,1035.4L201.1,1035.4z"/>
					</g>
				</g>
				<g>
					<g>
						<path class="st13" d="M123.4,995c1.3,0,1.3-2,0-2C122.1,993,122.1,995,123.4,995L123.4,995z"/>
					</g>
				</g>
				<g>
					<g>
						<path class="st13" d="M61.4,1046.9c1.3,0,1.3-2,0-2C60.1,1044.9,60.1,1046.9,61.4,1046.9L61.4,1046.9z"/>
					</g>
				</g>
				<g>
					<g>
						<path class="st13" d="M405.7,783c1,0,1-1.5,0-1.5C404.7,781.5,404.7,783,405.7,783L405.7,783z"/>
					</g>
				</g>
				<g>
					<g>
						<path class="st13" d="M363.9,836.3c1,0,1-1.5,0-1.5C363,834.8,363,836.3,363.9,836.3L363.9,836.3z"/>
					</g>
				</g>
				<g>
					<g>
						<path class="st13" d="M402.8,875.2c1,0,1-1.5,0-1.5C401.9,873.7,401.9,875.2,402.8,875.2L402.8,875.2z"/>
					</g>
				</g>
				<g>
					<g>
						<path class="st13" d="M289,1038c1,0,1-1.5,0-1.5C288.1,1036.5,288.1,1038,289,1038L289,1038z"/>
					</g>
				</g>
				<g>
					<g>
						<path class="st13" d="M170.9,973.2c1,0,1-1.5,0-1.5C169.9,971.7,169.9,973.2,170.9,973.2L170.9,973.2z"/>
					</g>
				</g>
				<g>
					<g>
						<path class="st13" d="M126.2,1048.1c1,0,1-1.5,0-1.5C125.3,1046.6,125.3,1048.1,126.2,1048.1L126.2,1048.1z"/>
					</g>
				</g>
				<g>
					<g>
						<path class="st13" d="M392.7,768.3c0.6,0,0.6-1,0-1C392.1,767.3,392.1,768.3,392.7,768.3L392.7,768.3z"/>
					</g>
				</g>
				<g>
					<g>
						<path class="st13" d="M398.5,866.3c0.6,0,0.6-1,0-1C397.9,865.3,397.9,866.3,398.5,866.3L398.5,866.3z"/>
					</g>
				</g>
				<g>
					<g>
						<path class="st13" d="M299.1,958.5c0.6,0,0.6-1,0-1C298.5,957.5,298.5,958.5,299.1,958.5L299.1,958.5z"/>
					</g>
				</g>
				<g>
					<g>
						<path class="st13" d="M358.2,1007.5c0.6,0,0.6-1,0-1C357.5,1006.5,357.5,1007.5,358.2,1007.5L358.2,1007.5z"/>
					</g>
				</g>
				<g>
					<g>
						<path class="st13" d="M44.1,1034.9c0.6,0,0.6-1,0-1C43.5,1033.9,43.5,1034.9,44.1,1034.9L44.1,1034.9z"/>
					</g>
				</g>
				<g>
					<g>
						<path class="st13" d="M394.2,742.4c0.6,0,0.6-1,0-1C393.5,741.4,393.5,742.4,394.2,742.4L394.2,742.4z"/>
					</g>
				</g>
				<g>
					<g>
						<path class="st13" d="M28.3,1059.3c0.6,0,0.6-1,0-1C27.6,1058.3,27.6,1059.3,28.3,1059.3L28.3,1059.3z"/>
					</g>
				</g>
			</g>
			<g class="st15">
				<g>
					<g>
						<path class="st13" d="M8.1,118.2c1.9,0,1.9-3,0-3C6.2,115.2,6.2,118.2,8.1,118.2L8.1,118.2z"/>
					</g>
				</g>
				<g>
					<g>
						<path class="st13" d="M90.2,162.9c1.9,0,1.9-3,0-3C88.3,159.9,88.3,162.9,90.2,162.9L90.2,162.9z"/>
					</g>
				</g>
				<g>
					<g>
						<path class="st13" d="M111.8,237.5c1.6,0,1.6-2.5,0-2.5C110.2,235,110.2,237.5,111.8,237.5L111.8,237.5z"/>
					</g>
				</g>
				<g>
					<g>
						<path class="st13" d="M-2,79.1c1.6,0,1.6-2.5,0-2.5C-3.6,76.6-3.6,79.1-2,79.1L-2,79.1z"/>
					</g>
				</g>
				<g>
					<g>
						<path class="st13" d="M52.8,122c1.3,0,1.3-2,0-2C51.5,120,51.5,122,52.8,122L52.8,122z"/>
					</g>
				</g>
				<g>
					<g>
						<path class="st13" d="M72.9,196.9c1.3,0,1.3-2,0-2C71.6,194.9,71.6,196.9,72.9,196.9L72.9,196.9z"/>
					</g>
				</g>
				<g>
					<g>
						<path class="st13" d="M169.5,234.4c1.3,0,1.3-2,0-2C168.2,232.4,168.2,234.4,169.5,234.4L169.5,234.4z"/>
					</g>
				</g>
				<g>
					<g>
						<path class="st13" d="M145,250c1,0,1-1.5,0-1.5C144,248.5,144,250,145,250L145,250z"/>
					</g>
				</g>
				<g>
					<g>
						<path class="st13" d="M120.5,209.6c1,0,1-1.5,0-1.5C119.5,208.1,119.5,209.6,120.5,209.6L120.5,209.6z"/>
					</g>
				</g>
				<g>
					<g>
						<path class="st13" d="M61.4,157.8c1,0,1-1.5,0-1.5C60.4,156.3,60.4,157.8,61.4,157.8L61.4,157.8z"/>
					</g>
				</g>
				<g>
					<g>
						<path class="st13" d="M36.9,101.6c1,0,1-1.5,0-1.5C36,100.1,36,101.6,36.9,101.6L36.9,101.6z"/>
					</g>
				</g>
				<g>
					<g>
						<path class="st13" d="M31.2,134.5c0.6,0,0.6-1,0-1C30.5,133.5,30.5,134.5,31.2,134.5L31.2,134.5z"/>
					</g>
				</g>
				<g>
					<g>
						<path class="st13" d="M103.2,196.4c0.6,0,0.6-1,0-1C102.5,195.4,102.5,196.4,103.2,196.4L103.2,196.4z"/>
					</g>
				</g>
				<g>
					<g>
						<path class="st13" d="M74.4,135.9c0.6,0,0.6-1,0-1C73.7,134.9,73.7,135.9,74.4,135.9L74.4,135.9z"/>
					</g>
				</g>
				<g>
					<g>
						<path class="st13" d="M18.2,88.4c0.6,0,0.6-1,0-1C17.6,87.4,17.5,88.4,18.2,88.4L18.2,88.4z"/>
					</g>
				</g>
				<g>
					<g>
						<path class="st13" d="M-12.1,118.6c0.6,0,0.6-1,0-1C-12.7,117.6-12.7,118.6-12.1,118.6L-12.1,118.6z"/>
					</g>
				</g>
				<g>
					<g>
						<path class="st13" d="M81.6,229.6c0.6,0,0.6-1,0-1C80.9,228.6,80.9,229.6,81.6,229.6L81.6,229.6z"/>
					</g>
				</g>
				<g>
					<g>
						<path class="st13" d="M44.1,176.3c0.6,0,0.6-1,0-1C43.5,175.3,43.5,176.3,44.1,176.3L44.1,176.3z"/>
					</g>
				</g>
				<g>
					<g>
						<path class="st13" d="M84.5,182.3c1,0,1-1.5,0-1.5C83.5,180.8,83.5,182.3,84.5,182.3L84.5,182.3z"/>
					</g>
				</g>
				<g>
					<g>
						<path class="st13" d="M143.5,229.8c1,0,1-1.5,0-1.5C142.6,228.3,142.6,229.8,143.5,229.8L143.5,229.8z"/>
					</g>
				</g>
				<g>
					<g>
						<path class="st13" d="M-3.4,97.3c1,0,1-1.5,0-1.5C-4.4,95.8-4.4,97.3-3.4,97.3L-3.4,97.3z"/>
					</g>
				</g>
				<g>
					<g>
						<path class="st13" d="M96,215.7c1.3,0,1.3-2,0-2C94.7,213.7,94.7,215.7,96,215.7L96,215.7z"/>
					</g>
				</g>
				<g>
					<g>
						<path class="st13" d="M47,146.5c1.3,0,1.3-2,0-2C45.7,144.5,45.7,146.5,47,146.5L47,146.5z"/>
					</g>
				</g>
				<g>
					<g>
						<path class="st13" d="M68.6,107.6c1.3,0,1.3-2,0-2C67.3,105.6,67.3,107.6,68.6,107.6L68.6,107.6z"/>
					</g>
				</g>
				<g>
					<g>
						<path class="st13" d="M13.9,65.8c1.3,0,1.3-2,0-2C12.6,63.8,12.6,65.8,13.9,65.8L13.9,65.8z"/>
					</g>
				</g>
				<g>
					<g>
						<path class="st13" d="M129.1,234.4c1.3,0,1.3-2,0-2C127.8,232.4,127.8,234.4,129.1,234.4L129.1,234.4z"/>
					</g>
				</g>
				<g>
					<g>
						<path class="st13" d="M91.7,141.9c1,0,1-1.5,0-1.5C90.7,140.4,90.7,141.9,91.7,141.9L91.7,141.9z"/>
					</g>
				</g>
				<g>
					<g>
						<path class="st13" d="M60,185.2c1,0,1-1.5,0-1.5C59,183.7,59,185.2,60,185.2L60,185.2z"/>
					</g>
				</g>
				<g>
					<g>
						<path class="st13" d="M18.2,134.7c1,0,1-1.5,0-1.5C17.2,133.2,17.2,134.7,18.2,134.7L18.2,134.7z"/>
					</g>
				</g>
				<g>
					<g>
						<path class="st13" d="M-13.5,67c1,0,1-1.5,0-1.5C-14.5,65.5-14.5,67-13.5,67L-13.5,67z"/>
					</g>
				</g>
				<g>
					<g>
						<path class="st13" d="M-10.6,136.2c1,0,1-1.5,0-1.5C-11.6,134.7-11.6,136.2-10.6,136.2L-10.6,136.2z"/>
					</g>
				</g>
				<g>
					<g>
						<path class="st13" d="M44.1,80c1,0,1-1.5,0-1.5C43.2,78.5,43.2,80,44.1,80L44.1,80z"/>
					</g>
				</g>
				<g>
					<g>
						<path class="st13" d="M107.5,180.8c1,0,1-1.5,0-1.5C106.5,179.3,106.5,180.8,107.5,180.8L107.5,180.8z"/>
					</g>
				</g>
			</g>
			<g class="st9">
				<g>
					<g>
						<path class="st13" d="M629-1.4c1.9,0,1.9-3,0-3C627.1-4.4,627.1-1.4,629-1.4L629-1.4z"/>
					</g>
				</g>
				<g>
					<g>
						<path class="st13" d="M665,80.7c1.9,0,1.9-3,0-3C663.1,77.7,663.1,80.7,665,80.7L665,80.7z"/>
					</g>
				</g>
				<g>
					<g>
						<path class="st13" d="M624.7,125.4c1.9,0,1.9-3,0-3C622.8,122.4,622.7,125.4,624.7,125.4L624.7,125.4z"/>
					</g>
				</g>
				<g>
					<g>
						<path class="st13" d="M629,61.8c1.6,0,1.6-2.5,0-2.5C627.4,59.3,627.4,61.8,629,61.8L629,61.8z"/>
					</g>
				</g>
				<g>
					<g>
						<path class="st13" d="M673.7,7c1.6,0,1.6-2.5,0-2.5C672.1,4.5,672.1,7,673.7,7L673.7,7z"/>
					</g>
				</g>
				<g>
					<g>
						<path class="st13" d="M646.3,28.4c1.3,0,1.3-2,0-2C645,26.4,645,28.4,646.3,28.4L646.3,28.4z"/>
					</g>
				</g>
				<g>
					<g>
						<path class="st13" d="M649.2,120.6c1.3,0,1.3-2,0-2C647.9,118.6,647.9,120.6,649.2,120.6L649.2,120.6z"/>
					</g>
				</g>
				<g>
					<g>
						<path class="st13" d="M614.6,168.1c1.3,0,1.3-2,0-2C613.3,166.1,613.3,168.1,614.6,168.1L614.6,168.1z"/>
					</g>
				</g>
				<g>
					<g>
						<path class="st13" d="M672.2,41.1c1,0,1-1.5,0-1.5C671.3,39.6,671.3,41.1,672.2,41.1L672.2,41.1z"/>
					</g>
				</g>
				<g>
					<g>
						<path class="st13" d="M618.9,29.6c1,0,1-1.5,0-1.5C618,28.1,618,29.6,618.9,29.6L618.9,29.6z"/>
					</g>
				</g>
				<g>
					<g>
						<path class="st13" d="M631.9,95.8c1,0,1-1.5,0-1.5C630.9,94.3,630.9,95.8,631.9,95.8L631.9,95.8z"/>
					</g>
				</g>
				<g>
					<g>
						<path class="st13" d="M643.4,146.3c1,0,1-1.5,0-1.5C642.4,144.8,642.4,146.3,643.4,146.3L643.4,146.3z"/>
					</g>
				</g>
				<g>
					<g>
						<path class="st13" d="M606,152c1,0,1-1.5,0-1.5C605,150.5,605,152,606,152L606,152z"/>
					</g>
				</g>
				<g>
					<g>
						<path class="st13" d="M652.1,4.8c0.6,0,0.6-1,0-1C651.4,3.8,651.4,4.8,652.1,4.8L652.1,4.8z"/>
					</g>
				</g>
				<g>
					<g>
						<path class="st13" d="M611.7,50.9c0.6,0,0.6-1,0-1C611.1,49.9,611.1,50.9,611.7,50.9L611.7,50.9z"/>
					</g>
				</g>
				<g>
					<g>
						<path class="st13" d="M667.9,62.5c0.6,0,0.6-1,0-1C667.3,61.5,667.3,62.5,667.9,62.5L667.9,62.5z"/>
					</g>
				</g>
				<g>
					<g>
						<path class="st13" d="M623.2,81.2c0.6,0,0.6-1,0-1C622.6,80.2,622.6,81.2,623.2,81.2L623.2,81.2z"/>
					</g>
				</g>
				<g>
					<g>
						<path class="st13" d="M667.9,102.8c0.6,0,0.6-1,0-1C667.3,101.8,667.3,102.8,667.9,102.8L667.9,102.8z"/>
					</g>
				</g>
				<g>
					<g>
						<path class="st13" d="M647.7,81.2c0.6,0,0.6-1,0-1C647.1,80.2,647.1,81.2,647.7,81.2L647.7,81.2z"/>
					</g>
				</g>
				<g>
					<g>
						<path class="st13" d="M649.2,50.9c0.6,0,0.6-1,0-1C648.5,49.9,648.5,50.9,649.2,50.9L649.2,50.9z"/>
					</g>
				</g>
				<g>
					<g>
						<path class="st13" d="M611.7,2c0.6,0,0.6-1,0-1C611.1,1,611.1,2,611.7,2L611.7,2z"/>
					</g>
				</g>
				<g>
					<g>
						<path class="st13" d="M663.6,26.4c0.6,0,0.6-1,0-1C662.9,25.4,662.9,26.4,663.6,26.4L663.6,26.4z"/>
					</g>
				</g>
				<g>
					<g>
						<path class="st13" d="M688.1-3.8c0.6,0,0.6-1,0-1C687.4-4.8,687.4-3.8,688.1-3.8L688.1-3.8z"/>
					</g>
				</g>
				<g>
					<g>
						<path class="st13" d="M659.3,134.5c0.6,0,0.6-1,0-1C658.6,133.5,658.6,134.5,659.3,134.5L659.3,134.5z"/>
					</g>
				</g>
				<g>
					<g>
						<path class="st13" d="M616,107.1c0.6,0,0.6-1,0-1C615.4,106.1,615.4,107.1,616,107.1L616,107.1z"/>
					</g>
				</g>
				<g>
					<g>
						<path class="st13" d="M626.1,150.3c0.6,0,0.6-1,0-1C625.5,149.3,625.5,150.3,626.1,150.3L626.1,150.3z"/>
					</g>
				</g>
				<g>
					<g>
						<path class="st13" d="M634.8,177.7c0.6,0,0.6-1,0-1C634.1,176.7,634.1,177.7,634.8,177.7L634.8,177.7z"/>
					</g>
				</g>
				<g>
					<g>
						<path class="st13" d="M604.5,189.2c0.6,0,0.6-1,0-1C603.9,188.2,603.9,189.2,604.5,189.2L604.5,189.2z"/>
					</g>
				</g>
				<g>
					<g>
						<path class="st13" d="M646.3,103c1,0,1-1.5,0-1.5C645.3,101.5,645.3,103,646.3,103L646.3,103z"/>
					</g>
				</g>
				<g>
					<g>
						<path class="st13" d="M686.6,25.3c1,0,1-1.5,0-1.5C685.7,23.8,685.7,25.3,686.6,25.3L686.6,25.3z"/>
					</g>
				</g>
			</g>
			<g>
				<g>
					<g>
						<path class="st14" d="M598.3,748.2c2.4,0,2.4-3.8,0-3.8C595.9,744.4,595.9,748.2,598.3,748.2L598.3,748.2z"/>
					</g>
				</g>
				<g>
					<g>
						<path class="st14" d="M519.1,720.4c1.9,0,1.9-3,0-3C517.1,717.4,517.1,720.4,519.1,720.4L519.1,720.4z"/>
					</g>
				</g>
				<g>
					<g>
						<path class="st14" d="M615.6,798.2c1.9,0,1.9-3,0-3C613.6,795.2,613.6,798.2,615.6,798.2L615.6,798.2z"/>
					</g>
				</g>
				<g>
					<g>
						<path class="st14" d="M668.9,876c1.9,0,1.9-3,0-3C666.9,873,666.9,876,668.9,876L668.9,876z"/>
					</g>
				</g>
				<g>
					<g>
						<path class="st14" d="M549.3,783.6c1.6,0,1.6-2.5,0-2.5C547.7,781.1,547.7,783.6,549.3,783.6L549.3,783.6z"/>
					</g>
				</g>
				<g>
					<g>
						<path class="st14" d="M664.6,823.9c1.6,0,1.6-2.5,0-2.5C663,821.4,662.9,823.9,664.6,823.9L664.6,823.9z"/>
					</g>
				</g>
				<g>
					<g>
						<path class="st14" d="M549.3,745.9c1.3,0,1.3-2,0-2C548,743.9,548,745.9,549.3,745.9L549.3,745.9z"/>
					</g>
				</g>
				<g>
					<g>
						<path class="st14" d="M602.6,823.6c1.3,0,1.3-2,0-2C601.3,821.6,601.3,823.6,602.6,823.6L602.6,823.6z"/>
					</g>
				</g>
				<g>
					<g>
						<path class="st14" d="M709.2,887c1.3,0,1.3-2,0-2C707.9,885,707.9,887,709.2,887L709.2,887z"/>
					</g>
				</g>
				<g>
					<g>
						<path class="st14" d="M703.5,936c1.3,0,1.3-2,0-2C702.2,934,702.2,936,703.5,936L703.5,936z"/>
					</g>
				</g>
				<g>
					<g>
						<path class="st14" d="M545,702.4c1,0,1-1.5,0-1.5C544,700.9,544,702.4,545,702.4L545,702.4z"/>
					</g>
				</g>
				<g>
					<g>
						<path class="st14" d="M526.3,755.7c1,0,1-1.5,0-1.5C525.3,754.2,525.3,755.7,526.3,755.7L526.3,755.7z"/>
					</g>
				</g>
				<g>
					<g>
						<path class="st14" d="M582.4,767.2c1,0,1-1.5,0-1.5C581.5,765.7,581.5,767.2,582.4,767.2L582.4,767.2z"/>
					</g>
				</g>
				<g>
					<g>
						<path class="st14" d="M575.2,813.3c1,0,1-1.5,0-1.5C574.3,811.8,574.3,813.3,575.2,813.3L575.2,813.3z"/>
					</g>
				</g>
				<g>
					<g>
						<path class="st14" d="M643,847.9c1,0,1-1.5,0-1.5C642,846.4,642,847.9,643,847.9L643,847.9z"/>
					</g>
				</g>
				<g>
					<g>
						<path class="st14" d="M643,800.3c1,0,1-1.5,0-1.5C642,798.8,642,800.3,643,800.3L643,800.3z"/>
					</g>
				</g>
				<g>
					<g>
						<path class="st14" d="M689,856.5c1,0,1-1.5,0-1.5C688.1,855,688.1,856.5,689,856.5L689,856.5z"/>
					</g>
				</g>
				<g>
					<g>
						<path class="st14" d="M674.6,908.4c1,0,1-1.5,0-1.5C673.7,906.9,673.7,908.4,674.6,908.4L674.6,908.4z"/>
					</g>
				</g>
				<g>
					<g>
						<path class="st14" d="M717.9,919.9c1,0,1-1.5,0-1.5C716.9,918.4,716.9,919.9,717.9,919.9L717.9,919.9z"/>
					</g>
				</g>
				<g>
					<g>
						<path class="st14" d="M700.6,960.3c1,0,1-1.5,0-1.5C699.6,958.8,699.6,960.3,700.6,960.3L700.6,960.3z"/>
					</g>
				</g>
				<g>
					<g>
						<path class="st14" d="M526.3,680.8c1,0,1-1.5,0-1.5C525.3,679.3,525.3,680.8,526.3,680.8L526.3,680.8z"/>
					</g>
				</g>
				<g>
					<g>
						<path class="st14" d="M539.2,725.2c0.6,0,0.6-1,0-1C538.6,724.2,538.6,725.2,539.2,725.2L539.2,725.2z"/>
					</g>
				</g>
				<g>
					<g>
						<path class="st14" d="M595.4,804.4c0.6,0,0.6-1,0-1C594.8,803.4,594.8,804.4,595.4,804.4L595.4,804.4z"/>
					</g>
				</g>
				<g>
					<g>
						<path class="st14" d="M622.8,854.8c0.6,0,0.6-1,0-1C622.1,853.8,622.1,854.8,622.8,854.8L622.8,854.8z"/>
					</g>
				</g>
				<g>
					<g>
						<path class="st14" d="M683.3,834.7c0.6,0,0.6-1,0-1C682.6,833.7,682.6,834.7,683.3,834.7L683.3,834.7z"/>
					</g>
				</g>
				<g>
					<g>
						<path class="st14" d="M643,885.1c0.6,0,0.6-1,0-1C642.3,884.1,642.3,885.1,643,885.1L643,885.1z"/>
					</g>
				</g>
				<g>
					<g>
						<path class="st14" d="M727.9,905.3c0.6,0,0.6-1,0-1C727.3,904.3,727.3,905.3,727.9,905.3L727.9,905.3z"/>
					</g>
				</g>
				<g>
					<g>
						<path class="st14" d="M684.7,942.7c0.6,0,0.6-1,0-1C684.1,941.7,684.1,942.7,684.7,942.7L684.7,942.7z"/>
					</g>
				</g>
				<g>
					<g>
						<path class="st14" d="M570.9,730.9c0.6,0,0.6-1,0-1C570.3,729.9,570.3,730.9,570.9,730.9L570.9,730.9z"/>
					</g>
				</g>
				<g>
					<g>
						<path class="st14" d="M511.9,700.7c0.6,0,0.6-1,0-1C511.2,699.7,511.2,700.7,511.9,700.7L511.9,700.7z"/>
					</g>
				</g>
				<g>
					<g>
						<path class="st14" d="M537.8,664.7c0.6,0,0.6-1,0-1C537.1,663.7,537.1,664.7,537.8,664.7L537.8,664.7z"/>
					</g>
				</g>
				<g>
					<g>
						<path class="st14" d="M562.3,770.1c1,0,1-1.5,0-1.5C561.3,768.6,561.3,770.1,562.3,770.1L562.3,770.1z"/>
					</g>
				</g>
				<g>
					<g>
						<path class="st14" d="M631.4,830.6c1,0,1-1.5,0-1.5C630.5,829.1,630.5,830.6,631.4,830.6L631.4,830.6z"/>
					</g>
				</g>
				<g>
					<g>
						<path class="st14" d="M694.8,879.6c1,0,1-1.5,0-1.5C693.8,878.1,693.8,879.6,694.8,879.6L694.8,879.6z"/>
					</g>
				</g>
				<g>
					<g>
						<path class="st14" d="M697.7,918.5c1,0,1-1.5,0-1.5C696.7,917,696.7,918.5,697.7,918.5L697.7,918.5z"/>
					</g>
				</g>
				<g>
					<g>
						<path class="st14" d="M586.8,789.1c1.3,0,1.3-2,0-2C585.5,787.1,585.5,789.1,586.8,789.1L586.8,789.1z"/>
					</g>
				</g>
				<g>
					<g>
						<path class="st14" d="M661.7,852.5c1.3,0,1.3-2,0-2C660.4,850.5,660.4,852.5,661.7,852.5L661.7,852.5z"/>
					</g>
				</g>
				<g>
					<g>
						<path class="st14" d="M609.8,775.9c1,0,1-1.5,0-1.5C608.9,774.4,608.8,775.9,609.8,775.9L609.8,775.9z"/>
					</g>
				</g>
				<g>
					<g>
						<path class="st14" d="M723.6,944.3c0.8,0,0.8-1.3,0-1.3C722.8,943,722.8,944.3,723.6,944.3L723.6,944.3z"/>
					</g>
				</g>
				<g>
					<g>
						<path class="st14" d="M715,976c0.8,0,0.8-1.3,0-1.3C714.2,974.7,714.2,976,715,976L715,976z"/>
					</g>
				</g>
			</g>
		</g>
		<g>
			<polygon class="st16" points="477.9,269.4 475.4,264.7 470.7,262.2 475.4,259.7 477.9,255 480.5,259.7 485.1,262.2 480.5,264.7 
							"/>
			<polygon class="st16" points="371.1,678.5 366.2,674 359.6,672.8 364.2,667.9 365.4,661.2 370.3,665.8 376.9,667 372.3,671.9 			
				"/>
			<polygon class="st16" points="1054,544.3 1051,538.8 1045.6,535.9 1051,532.9 1054,527.5 1056.9,532.9 1062.4,535.9 
				1056.9,538.8 			"/>
			<polygon class="st16" points="13.9,972.4 10.8,966.8 5.2,963.8 10.8,960.7 13.9,955.1 16.9,960.7 22.5,963.8 16.9,966.8 			"/>
			<polygon class="st16" points="849.4,25.9 845.4,20.9 839.3,18.7 844.4,14.8 846.5,8.7 850.5,13.7 856.6,15.9 851.5,19.8 			"/>
			<polygon class="st17" points="36.9,661.2 30.8,657.5 24.3,660.4 25.9,653.5 21.1,648.2 28.3,647.6 31.8,641.4 34.6,648 
				41.6,649.5 36.2,654.1 			"/>
			<polygon class="st17" points="832.1,897.1 829.3,891.3 822.9,890.4 827.5,885.9 826.5,879.6 832.1,882.6 837.8,879.6 
				836.7,885.9 841.3,890.4 835,891.3 			"/>
			<polygon class="st17" points="1054,396.2 1049.3,393.2 1044.1,395.3 1045.6,389.9 1041.9,385.7 1047.5,385.4 1050.4,380.6 
				1052.4,385.8 1057.8,387.1 1053.5,390.6 			"/>
			<polygon class="st17" points="485.1,89.3 478.3,86.3 471.9,90.2 472.7,82.8 467,77.9 474.3,76.4 477.2,69.5 480.9,75.9 
				488.4,76.5 483.4,82.1 			"/>
			<polygon class="st17" points="646.3,694.5 642.7,691.6 638.4,692.9 640,688.6 637.4,684.8 642,685.1 644.8,681.5 645.9,685.9 
				650.2,687.4 646.4,689.9 			"/>
			<polygon class="st17" points="412.4,1012.8 410.7,1009.3 406.9,1008.8 409.7,1006.1 409,1002.3 412.4,1004.1 415.8,1002.3 
				415.1,1006.1 417.9,1008.8 414.1,1009.3 			"/>
			<polygon class="st17" points="591.5,398.5 589,393.3 583.3,392.5 587.4,388.5 586.5,382.8 591.5,385.5 596.6,382.8 595.7,388.5 
				599.8,392.5 594.1,393.3 			"/>
			<polygon class="st17" points="88.8,306.9 84,302.8 77.9,304.5 80.3,298.7 76.8,293.5 83.1,293.9 87,289 88.5,295.1 94.4,297.3 
				89.1,300.6 			"/>
		</g>
		<g>
			<g>
				<g>
					<path class="st18" d="M154.8,167.1c6.4,0,6.4-10,0-10C148.3,157.1,148.3,167.1,154.8,167.1L154.8,167.1z"/>
				</g>
			</g>
			<g>
				<g>
					<path class="st18" d="M960.3,883.4c9.7,0,9.7-15,0-15C950.7,868.4,950.7,883.4,960.3,883.4L960.3,883.4z"/>
				</g>
			</g>
			<g>
				<g>
					<path class="st19" d="M889.8,105.4c7.7,0,7.7-12,0-12C882,93.4,882,105.4,889.8,105.4L889.8,105.4z"/>
				</g>
			</g>
			<g>
				<g>
					<path class="st19" d="M170.9,766.3c12.9,0,12.9-20,0-20C158,746.3,158,766.3,170.9,766.3L170.9,766.3z"/>
				</g>
			</g>
			<g>
				<g>
					<path class="st20" d="M559.9,282.3c12.9,0,12.9-20,0-20C547,262.3,547,282.3,559.9,282.3L559.9,282.3z"/>
				</g>
			</g>
			<g>
				<g>
					<path class="st20" d="M466.2,932.8c6.4,0,6.4-10,0-10C459.8,922.8,459.8,932.8,466.2,932.8L466.2,932.8z"/>
				</g>
			</g>
			<g>
				<g>
					<path class="st21" d="M283.3,425.2c7.7,0,7.7-12,0-12C275.5,413.2,275.5,425.2,283.3,425.2L283.3,425.2z"/>
				</g>
			</g>
			<g>
				<g>
					<path class="st21" d="M992,595.8c4.8,0,4.8-7.5,0-7.5C987.2,588.3,987.2,595.8,992,595.8L992,595.8z"/>
				</g>
			</g>
			<g>
				<g>
					<path class="st13" d="M578.6,106.4c1.6,0,1.6-2.5,0-2.5C577,103.9,577,106.4,578.6,106.4L578.6,106.4z"/>
				</g>
			</g>
			<g>
				<g>
					<path class="st13" d="M1046.8,478.1c1.6,0,1.6-2.5,0-2.5C1045.2,475.6,1045.2,478.1,1046.8,478.1L1046.8,478.1z"/>
				</g>
			</g>
			<g>
				<g>
					<path class="st13" d="M603.1,930.4c1.6,0,1.6-2.5,0-2.5C601.5,927.9,601.5,930.4,603.1,930.4L603.1,930.4z"/>
				</g>
			</g>
			<g>
				<g>
					<path class="st13" d="M48.4,753.3c1.6,0,1.6-2.5,0-2.5C46.8,750.8,46.8,753.3,48.4,753.3L48.4,753.3z"/>
				</g>
			</g>
			<g>
				<g>
					<path class="st13" d="M74.4,48.8c1.6,0,1.6-2.5,0-2.5C72.8,46.3,72.8,48.8,74.4,48.8L74.4,48.8z"/>
				</g>
			</g>
			<g>
				<g>
					<path class="st13" d="M47,246.8c2.4,0,2.4-3.8,0-3.8C44.6,243,44.6,246.8,47,246.8L47,246.8z"/>
				</g>
			</g>
			<g>
				<g>
					<path class="st13" d="M1036.7,1050.6c2.4,0,2.4-3.8,0-3.8C1034.3,1046.9,1034.3,1050.6,1036.7,1050.6L1036.7,1050.6z"/>
				</g>
			</g>
			<g>
				<g>
					<path class="st13" d="M384.1,287.1c2.4,0,2.4-3.8,0-3.8C381.7,283.4,381.7,287.1,384.1,287.1L384.1,287.1z"/>
				</g>
			</g>
			<g>
				<g>
					<path class="st13" d="M747.1,37.9c2.4,0,2.4-3.8,0-3.8C744.7,34.2,744.7,37.9,747.1,37.9L747.1,37.9z"/>
				</g>
			</g>
			<g>
				<g>
					<path class="st13" d="M38.4,905.1c2.4,0,2.4-3.8,0-3.8C35.9,901.4,35.9,905.1,38.4,905.1L38.4,905.1z"/>
				</g>
			</g>
			<g>
				<g>
					<path class="st13" d="M349.5,30.7c2.4,0,2.4-3.8,0-3.8C347.1,27,347.1,30.7,349.5,30.7L349.5,30.7z"/>
				</g>
			</g>
			<g>
				<g>
					<path class="st13" d="M1066.9,722.2c2.4,0,2.4-3.8,0-3.8C1064.5,718.4,1064.5,722.2,1066.9,722.2L1066.9,722.2z"/>
				</g>
			</g>
			<g>
				<g>
					<path class="st13" d="M310.6,756.8c2.4,0,2.4-3.8,0-3.8C308.2,753,308.2,756.8,310.6,756.8L310.6,756.8z"/>
				</g>
			</g>
			<g>
				<g>
					<path class="st13" d="M819.2,439.8c2.4,0,2.4-3.8,0-3.8C816.8,436.1,816.7,439.8,819.2,439.8L819.2,439.8z"/>
				</g>
			</g>
			<g>
				<g>
					<path class="st13" d="M751.5,947.5c3.2,0,3.2-5,0-5C748.2,942.5,748.2,947.5,751.5,947.5L751.5,947.5z"/>
				</g>
			</g>
			<g>
				<g>
					<path class="st13" d="M202.6,830.9c3.2,0,3.2-5,0-5C199.4,825.9,199.4,830.9,202.6,830.9L202.6,830.9z"/>
				</g>
			</g>
			<g>
				<g>
					<path class="st13" d="M152.2,489.4c3.2,0,3.2-5,0-5C149,484.4,148.9,489.4,152.2,489.4L152.2,489.4z"/>
				</g>
			</g>
			<g>
				<g>
					<path class="st13" d="M1064.1,282c3.2,0,3.2-5,0-5C1060.8,277,1060.8,282,1064.1,282L1064.1,282z"/>
				</g>
			</g>
			<g>
				<g>
					<path class="st13" d="M718.3,158.1c3.2,0,3.2-5,0-5C715.1,153.1,715.1,158.1,718.3,158.1L718.3,158.1z"/>
				</g>
			</g>
			<g>
				<g>
					<path class="st13" d="M529.6,352.4c1.6,0,1.6-2.5,0-2.5C528,349.9,528,352.4,529.6,352.4L529.6,352.4z"/>
				</g>
			</g>
			<g>
				<g>
					<path class="st13" d="M475.3,797.9c1.6,0,1.6-2.5,0-2.5C473.7,795.4,473.7,797.9,475.3,797.9L475.3,797.9z"/>
				</g>
			</g>
			<g>
				<g>
					<path class="st13" d="M513.8,1026.2c1.6,0,1.6-2.5,0-2.5C512.1,1023.7,512.1,1026.2,513.8,1026.2L513.8,1026.2z"/>
				</g>
			</g>
			<g>
				<g>
					<path class="st13" d="M214.1,1081.7c1.6,0,1.6-2.5,0-2.5C212.5,1079.2,212.5,1081.7,214.1,1081.7L214.1,1081.7z"/>
				</g>
			</g>
			<g>
				<g>
					<path class="st13" d="M944.5,1074.5c1.6,0,1.6-2.5,0-2.5C942.9,1072,942.9,1074.5,944.5,1074.5L944.5,1074.5z"/>
				</g>
			</g>
			<g>
				<g>
					<path class="st13" d="M950.3,465.1c1.6,0,1.6-2.5,0-2.5C948.6,462.6,948.6,465.1,950.3,465.1L950.3,465.1z"/>
				</g>
			</g>
			<g>
				<g>
					<path class="st13" d="M1064.1,18.6c1.6,0,1.6-2.5,0-2.5C1062.5,16.1,1062.5,18.6,1064.1,18.6L1064.1,18.6z"/>
				</g>
			</g>
			<g>
				<g>
					<path class="st13" d="M529.6,18.6c1.6,0,1.6-2.5,0-2.5C528,16.1,528,18.6,529.6,18.6L529.6,18.6z"/>
				</g>
			</g>
			<g>
				<g>
					<path class="st13" d="M459,171.3c1.6,0,1.6-2.5,0-2.5C457.4,168.8,457.4,171.3,459,171.3L459,171.3z"/>
				</g>
			</g>
			<g>
				<g>
					<path class="st13" d="M240,102.1c1.6,0,1.6-2.5,0-2.5C238.4,99.6,238.4,102.1,240,102.1L240,102.1z"/>
				</g>
			</g>
			<g>
				<g>
					<path class="st13" d="M5.2,358.5c1.6,0,1.6-2.5,0-2.5C3.6,356,3.6,358.5,5.2,358.5L5.2,358.5z"/>
				</g>
			</g>
			<g>
				<g>
					<path class="st10" d="M755.8,383.9c6.4,0,6.4-10,0-10C749.3,373.9,749.3,383.9,755.8,383.9L755.8,383.9z"/>
				</g>
			</g>
			<g>
				<g>
					<path class="st10" d="M182.4,60.8c9.7,0,9.7-15,0-15C172.8,45.8,172.8,60.8,182.4,60.8L182.4,60.8z"/>
				</g>
			</g>
			<g>
				<g>
					<path class="st19" d="M689.5,1014.9c6.4,0,6.4-10,0-10C683.1,1004.9,683.1,1014.9,689.5,1014.9L689.5,1014.9z"/>
				</g>
			</g>
			<g>
				<g>
					<path class="st22" d="M220.6,540.8c3.2,0,3.2-5,0-5C217.3,535.8,217.3,540.8,220.6,540.8L220.6,540.8z"/>
				</g>
			</g>
			<g>
				<g>
					<path class="st22" d="M794.4,707.1c3.2,0,3.2-5,0-5C791.2,702.1,791.2,707.1,794.4,707.1L794.4,707.1z"/>
				</g>
			</g>
			<g>
				<g>
					<path class="st23" d="M800.4,1081c2.4,0,2.4-3.8,0-3.8C798,1077.3,798,1081,800.4,1081L800.4,1081z"/>
				</g>
			</g>
			<g>
				<g>
					<path class="st22" d="M121.7,915.3c3.2,0,3.2-5,0-5C118.5,910.3,118.5,915.3,121.7,915.3L121.7,915.3z"/>
				</g>
			</g>
			<g>
				<g>
					<path class="st23" d="M21.3,1079.5c2.4,0,2.4-3.8,0-3.8C18.9,1075.8,18.9,1079.5,21.3,1079.5L21.3,1079.5z"/>
				</g>
			</g>
			<g>
				<g>
					<path class="st23" d="M882.8,507.2c2.4,0,2.4-3.8,0-3.8C880.4,503.4,880.4,507.2,882.8,507.2L882.8,507.2z"/>
				</g>
			</g>
			<g>
				<g>
					<path class="st23" d="M563.7,189.6c2.4,0,2.4-3.8,0-3.8C561.2,185.8,561.2,189.6,563.7,189.6L563.7,189.6z"/>
				</g>
			</g>
			<g>
				<g>
					<path class="st23" d="M118.7,14.3c2.4,0,2.4-3.8,0-3.8C116.3,10.5,116.3,14.3,118.7,14.3L118.7,14.3z"/>
				</g>
			</g>
			<g>
				<g>
					<path class="st22" d="M1083.5,70.3c3.2,0,3.2-5,0-5C1080.3,65.3,1080.3,70.3,1083.5,70.3L1083.5,70.3z"/>
				</g>
			</g>
			<g>
				<g>
					<path class="st23" d="M259.5,731.9c2.4,0,2.4-3.8,0-3.8C257.1,728.2,257.1,731.9,259.5,731.9L259.5,731.9z"/>
				</g>
			</g>
			<g>
				<g>
					<path class="st22" d="M575.6,987.2c3.2,0,3.2-5,0-5C572.4,982.2,572.4,987.2,575.6,987.2L575.6,987.2z"/>
				</g>
			</g>
			<g>
				<g>
					<path class="st22" d="M316.5,247.1c3.2,0,3.2-5,0-5C313.2,242.1,313.2,247.1,316.5,247.1L316.5,247.1z"/>
				</g>
			</g>
			<g>
				<g>
					<path class="st16" d="M442.3,370.2c1.6,0,1.6-2.5,0-2.5C440.7,367.7,440.7,370.2,442.3,370.2L442.3,370.2z"/>
				</g>
			</g>
			<g>
				<g>
					<path class="st16" d="M891.8,398.7c1.6,0,1.6-2.5,0-2.5C890.2,396.2,890.2,398.7,891.8,398.7L891.8,398.7z"/>
				</g>
			</g>
			<g>
				<g>
					<path class="st16" d="M852.8,806.2c1.6,0,1.6-2.5,0-2.5C851.2,803.7,851.2,806.2,852.8,806.2L852.8,806.2z"/>
				</g>
			</g>
			<g>
				<g>
					<path class="st16" d="M445.3,719.3c1.6,0,1.6-2.5,0-2.5C443.7,716.8,443.7,719.3,445.3,719.3L445.3,719.3z"/>
				</g>
			</g>
			<g>
				<g>
					<path class="st16" d="M303,858.6c1.6,0,1.6-2.5,0-2.5C301.4,856.1,301.4,858.6,303,858.6L303,858.6z"/>
				</g>
			</g>
			<g>
				<g>
					<path class="st16" d="M123.2,689.3c1.6,0,1.6-2.5,0-2.5C121.6,686.8,121.6,689.3,123.2,689.3L123.2,689.3z"/>
				</g>
			</g>
			<g>
				<g>
					<path class="st16" d="M1.8,190.4c1.6,0,1.6-2.5,0-2.5C0.2,187.9,0.2,190.4,1.8,190.4L1.8,190.4z"/>
				</g>
			</g>
			<g>
				<g>
					<path class="st16" d="M367.4,471.4c1.6,0,1.6-2.5,0-2.5C365.8,468.9,365.8,471.4,367.4,471.4L367.4,471.4z"/>
				</g>
			</g>
			<g>
				<g>
					<path class="st16" d="M822.8,572.5c1.6,0,1.6-2.5,0-2.5C821.2,570,821.2,572.5,822.8,572.5L822.8,572.5z"/>
				</g>
			</g>
			<g>
				<g>
					<path class="st16" d="M1086.5,980c1.6,0,1.6-2.5,0-2.5C1084.9,977.5,1084.9,980,1086.5,980L1086.5,980z"/>
				</g>
			</g>
			<g>
				<g>
					<path class="st16" d="M312,1080.4c1.6,0,1.6-2.5,0-2.5C310.3,1077.9,310.3,1080.4,312,1080.4L312,1080.4z"/>
				</g>
			</g>
			<g>
				<g>
					<path class="st16" d="M0.3,807.7c1.6,0,1.6-2.5,0-2.5C-1.3,805.2-1.3,807.7,0.3,807.7L0.3,807.7z"/>
				</g>
			</g>
			<g>
				<g>
					<path class="st16" d="M430.3,19.6c1.6,0,1.6-2.5,0-2.5C428.7,17.1,428.7,19.6,430.3,19.6L430.3,19.6z"/>
				</g>
			</g>
			<g>
				<g>
					<path class="st16" d="M727,461.6c1.6,0,1.6-2.5,0-2.5C725.4,459.1,725.4,461.6,727,461.6L727,461.6z"/>
				</g>
			</g>
			<g>
				<g>
					<path class="st16" d="M704.5,728.3c1.6,0,1.6-2.5,0-2.5C702.9,725.8,702.9,728.3,704.5,728.3L704.5,728.3z"/>
				</g>
			</g>
		</g>
	</g>
</g>
</svg>
