<?xml version="1.0" encoding="utf-8"?>
<!-- Generator: Adobe Illustrator 22.1.0, SVG Export Plug-In . SVG Version: 6.00 Build 0)  -->
<svg version="1.1" id="Layer_1" xmlns="http://www.w3.org/2000/svg" xmlns:xlink="http://www.w3.org/1999/xlink" x="0px" y="0px"
	 viewBox="0 0 800 800" style="enable-background:new 0 0 800 800;" xml:space="preserve">
<style type="text/css">
	.st0{fill:#414042;}
	.st1{fill:#6DBEDE;}
	.st2{fill:#FFFFFF;}
	.st3{fill:#58595B;}
	.st4{opacity:0.3;fill:#FFFFFF;enable-background:new    ;}
	.st5{fill:#FFD269;}
	.st6{fill:#ECEDED;}
	.st7{font-family:'ColonnaMT';}
	.st8{font-size:53.1231px;}
	.st9{fill:#CCCECF;}
	.st10{fill:#E1E2E3;}
	.st11{fill:#A35278;}
	.st12{fill:#FFE4C9;}
	.st13{fill:#373948;}
</style>
<g id="OBJECTS">
	<g>
		<g>
			<path class="st0" d="M307.6,376.8H166.5c-2.8,0-5,2.2-5,5v212.9c0,2.8,2.2,5,5,5h141.1c2.8,0,5-2.2,5-5V381.8
				C312.6,379,310.3,376.8,307.6,376.8z"/>
			<rect x="178.4" y="391.7" class="st1" width="117.9" height="112"/>
			<path class="st2" d="M241,452.1v-1.2c3.4-1.5,5.8-4.9,5.8-8.8c0-5.3-4.3-9.6-9.6-9.6s-9.6,4.3-9.6,9.6c0,4,2.4,7.3,5.8,8.8v1.2
				c-8.3,1.7-14.6,8.8-15.1,17.4h38C255.6,460.9,249.3,453.8,241,452.1z"/>
		</g>
		<g>
			<path class="st3" d="M720.5,692.8c0,4.3-3.5,7.8-7.8,7.8H444.3c-4.3,0-7.8-3.5-7.8-7.8l0,0c0-4.3,3.5-7.8,7.8-7.8h268.5
				C717,685,720.5,688.5,720.5,692.8L720.5,692.8z"/>
			<path class="st3" d="M702,679.3H455.6c-2.8,0-5-2.2-5-5V522c0-2.8,2.2-5,5-5H702c2.8,0,5,2.2,5,5v152.4
				C707,677.1,704.7,679.3,702,679.3z"/>
			<path class="st1" d="M703,522v152.4c0,0.5-0.5,1-1,1H455.6c-0.5,0-1-0.5-1-1V522c0-0.6,0.5-1,1-1H702
				C702.5,521,703,521.4,703,522z"/>
			<polygon class="st4" points="668.8,521 454.6,667.2 454.6,650.1 646.5,521 			"/>
			<rect x="460.7" y="679.3" class="st0" width="228.6" height="5.7"/>
			<rect x="549" y="598.1" class="st2" width="134.5" height="57.4"/>
			<rect x="638.3" y="540.8" class="st2" width="45.2" height="45.2"/>
			<rect x="549" y="604.7" class="st5" width="134.5" height="6.7"/>
			<polygon class="st4" points="533,675 703,558.2 703,524.1 477.2,675.3 			"/>
			<path class="st5" d="M655.9,553.2c0,3.1-2.5,5.7-5.7,5.7c-3.1,0-5.7-2.5-5.7-5.7c0-3.1,2.5-5.7,5.7-5.7
				C653.3,547.5,655.9,550,655.9,553.2z"/>
		</g>
		<g>
			<rect x="157" y="622.5" class="st2" width="164.5" height="61.9"/>
			<polyline class="st6" points="166.8,640 245.6,662.8 321.4,645.5 321.4,649 245.6,667.2 166.8,643.5 166.8,640 			"/>
		</g>
		<g>
			<g>
				<g>
					<g>
						<path class="st2" d="M243.6,335.3c-1.3-0.1-2.4-1.2-2.3-2.5c0.1-1.3,1.2-2.3,2.5-2.3c1.3,0.1,2.3,1.2,2.3,2.5
							C246,334.3,244.9,335.3,243.6,335.3z"/>
						<path class="st2" d="M243.4,353.9c-1.3,0-2.4-1-2.4-2.4c0-1.3,1-2.4,2.3-2.4s2.4,1.1,2.4,2.4
							C245.8,352.8,244.8,353.9,243.4,353.9z"/>
					</g>
					<g>
						<path class="st2" d="M243.4,353.9c-1.3,0-2.4-1-2.4-2.4c0-1.3,1-2.4,2.3-2.4s2.4,1.1,2.4,2.4
							C245.8,352.8,244.8,353.9,243.4,353.9z"/>
						<path class="st2" d="M244.3,372.6c-1.3,0.1-2.5-0.9-2.5-2.2c-0.1-1.3,0.9-2.5,2.2-2.6s2.5,0.9,2.5,2.2
							C246.6,371.3,245.6,372.4,244.3,372.6z"/>
					</g>
					<g>
						<path class="st2" d="M244.3,372.6c-1.3,0.1-2.5-0.9-2.5-2.2c-0.1-1.3,0.9-2.5,2.2-2.6s2.5,0.9,2.5,2.2
							C246.6,371.3,245.6,372.4,244.3,372.6z"/>
						<path class="st2" d="M246.4,391.1c-1.3,0.2-2.5-0.7-2.8-2c-0.2-1.3,0.8-2.6,2.1-2.7c1.3-0.2,2.5,0.8,2.6,2.1
							C248.6,389.7,247.7,390.9,246.4,391.1z"/>
					</g>
					<g>
						<path class="st2" d="M246.4,391.1c-1.3,0.2-2.5-0.7-2.8-2c-0.2-1.3,0.8-2.6,2.1-2.7c1.3-0.2,2.5,0.8,2.6,2.1
							C248.6,389.7,247.7,390.9,246.4,391.1z"/>
						<path class="st2" d="M249.9,409.4c-1.3,0.3-2.6-0.5-2.8-1.9c-0.3-1.3,0.5-2.6,1.8-2.9s2.6,0.6,2.8,1.9
							C252,407.9,251.2,409.1,249.9,409.4z"/>
					</g>
					<g>
						<path class="st2" d="M249.9,409.4c-1.3,0.3-2.6-0.5-2.8-1.9c-0.3-1.3,0.5-2.6,1.8-2.9s2.6,0.6,2.8,1.9
							C252,407.9,251.2,409.1,249.9,409.4z"/>
						<path class="st2" d="M254.6,427.5c-1.3,0.4-2.6-0.3-3-1.6c-0.4-1.3,0.4-2.6,1.7-3s2.6,0.4,2.9,1.6
							C256.6,425.8,255.9,427.1,254.6,427.5z"/>
					</g>
					<g>
						<path class="st2" d="M254.6,427.5c-1.3,0.4-2.6-0.3-3-1.6c-0.4-1.3,0.4-2.6,1.7-3s2.6,0.4,2.9,1.6
							C256.6,425.8,255.9,427.1,254.6,427.5z"/>
						<path class="st2" d="M260.9,445.1c-1.2,0.5-2.6-0.1-3.1-1.4s0.1-2.7,1.4-3.1c1.2-0.5,2.6,0.2,3.1,1.4
							C262.7,443.2,262.1,444.6,260.9,445.1z"/>
					</g>
					<g>
						<path class="st2" d="M260.9,445.1c-1.2,0.5-2.6-0.1-3.1-1.4s0.1-2.7,1.4-3.1c1.2-0.5,2.6,0.2,3.1,1.4
							C262.7,443.2,262.1,444.6,260.9,445.1z"/>
						<path class="st2" d="M268.6,462.1c-1.2,0.6-2.6,0.1-3.3-1.1c-0.6-1.2-0.1-2.7,1.1-3.2c1.2-0.6,2.6,0,3.2,1.1
							C270.2,460.1,269.8,461.5,268.6,462.1z"/>
					</g>
					<g>
						<path class="st2" d="M268.6,462.1c-1.2,0.6-2.6,0.1-3.3-1.1c-0.6-1.2-0.1-2.7,1.1-3.2c1.2-0.6,2.6,0,3.2,1.1
							C270.2,460.1,269.8,461.5,268.6,462.1z"/>
						<path class="st2" d="M277.7,478.5c-1.1,0.7-2.6,0.3-3.3-0.8c-0.7-1.2-0.3-2.7,0.8-3.3c1.1-0.7,2.6-0.3,3.3,0.8
							C279.2,476.3,278.8,477.8,277.7,478.5z"/>
					</g>
					<g>
						<path class="st2" d="M277.7,478.5c-1.1,0.7-2.6,0.3-3.3-0.8c-0.7-1.2-0.3-2.7,0.8-3.3c1.1-0.7,2.6-0.3,3.3,0.8
							C279.2,476.3,278.8,477.8,277.7,478.5z"/>
						<path class="st2" d="M288.4,493.8c-1.1,0.8-2.6,0.6-3.4-0.5s-0.6-2.6,0.5-3.4s2.6-0.5,3.4,0.5
							C289.7,491.5,289.4,493,288.4,493.8z"/>
					</g>
					<g>
						<path class="st2" d="M288.4,493.8c-1.1,0.8-2.6,0.6-3.4-0.5s-0.6-2.6,0.5-3.4s2.6-0.5,3.4,0.5
							C289.7,491.5,289.4,493,288.4,493.8z"/>
						<path class="st2" d="M300.4,508.2c-1,0.9-2.5,0.8-3.4-0.2s-0.9-2.5,0.2-3.4c1-0.9,2.5-0.8,3.4,0.2
							C301.4,505.8,301.3,507.3,300.4,508.2z"/>
					</g>
					<g>
						<path class="st2" d="M300.4,508.2c-1,0.9-2.5,0.8-3.4-0.2s-0.9-2.5,0.2-3.4c1-0.9,2.5-0.8,3.4,0.2
							C301.4,505.8,301.3,507.3,300.4,508.2z"/>
						<path class="st2" d="M313.6,521.5c-0.9,1-2.4,1.1-3.4,0.1c-1-0.9-1-2.5-0.1-3.4c0.9-1,2.4-1,3.4-0.1
							C314.4,519,314.5,520.5,313.6,521.5z"/>
					</g>
					<g>
						<path class="st2" d="M313.6,521.5c-0.9,1-2.4,1.1-3.4,0.1c-1-0.9-1-2.5-0.1-3.4c0.9-1,2.4-1,3.4-0.1
							C314.4,519,314.5,520.5,313.6,521.5z"/>
						<path class="st2" d="M327.9,533.5c-0.8,1-2.3,1.2-3.4,0.4s-1.2-2.4-0.4-3.4c0.8-1,2.3-1.2,3.4-0.4
							C328.5,530.9,328.7,532.4,327.9,533.5z"/>
					</g>
					<g>
						<path class="st2" d="M327.9,533.5c-0.8,1-2.3,1.2-3.4,0.4s-1.2-2.4-0.4-3.4c0.8-1,2.3-1.2,3.4-0.4
							C328.5,530.9,328.7,532.4,327.9,533.5z"/>
						<path class="st2" d="M343.2,544.2c-0.7,1.1-2.2,1.4-3.3,0.7c-1.1-0.7-1.5-2.2-0.7-3.3c0.7-1.1,2.2-1.4,3.3-0.7
							C343.6,541.6,343.9,543.1,343.2,544.2z"/>
					</g>
					<g>
						<path class="st2" d="M343.2,544.2c-0.7,1.1-2.2,1.4-3.3,0.7c-1.1-0.7-1.5-2.2-0.7-3.3c0.7-1.1,2.2-1.4,3.3-0.7
							C343.6,541.6,343.9,543.1,343.2,544.2z"/>
						<path class="st2" d="M359.4,553.5c-0.6,1.2-2.1,1.6-3.3,1c-1.2-0.6-1.6-2.1-1-3.2c0.6-1.2,2.1-1.6,3.3-1
							C359.6,550.9,360,552.4,359.4,553.5z"/>
					</g>
					<g>
						<path class="st2" d="M359.4,553.5c-0.6,1.2-2.1,1.6-3.3,1c-1.2-0.6-1.6-2.1-1-3.2c0.6-1.2,2.1-1.6,3.3-1
							C359.6,550.9,360,552.4,359.4,553.5z"/>
						<path class="st2" d="M376.2,561.6c-0.5,1.2-1.9,1.8-3.2,1.3c-1.2-0.5-1.8-2-1.2-3.2c0.6-1.2,2-1.7,3.2-1.2
							C376.2,559,376.8,560.4,376.2,561.6z"/>
					</g>
					<g>
						<path class="st2" d="M376.2,561.6c-0.5,1.2-1.9,1.8-3.2,1.3c-1.2-0.5-1.8-2-1.2-3.2c0.6-1.2,2-1.7,3.2-1.2
							C376.2,559,376.8,560.4,376.2,561.6z"/>
						<path class="st2" d="M393.7,568.4c-0.4,1.3-1.8,1.9-3.1,1.4c-1.3-0.5-1.9-1.8-1.5-3.1c0.5-1.2,1.8-1.9,3.1-1.4
							C393.4,565.7,394.1,567.1,393.7,568.4z"/>
					</g>
					<g>
						<path class="st2" d="M393.7,568.4c-0.4,1.3-1.8,1.9-3.1,1.4c-1.3-0.5-1.9-1.8-1.5-3.1c0.5-1.2,1.8-1.9,3.1-1.4
							C393.4,565.7,394.1,567.1,393.7,568.4z"/>
						<path class="st2" d="M411.5,573.7c-0.3,1.3-1.7,2-3,1.7c-1.3-0.4-2.1-1.7-1.7-2.9c0.4-1.3,1.7-2,3-1.7
							C411.1,571.1,411.9,572.5,411.5,573.7z"/>
					</g>
					<g>
						<path class="st2" d="M411.5,573.7c-0.3,1.3-1.7,2-3,1.7c-1.3-0.4-2.1-1.7-1.7-2.9c0.4-1.3,1.7-2,3-1.7
							C411.1,571.1,411.9,572.5,411.5,573.7z"/>
						<path class="st2" d="M429.8,577.8c-0.2,1.3-1.5,2.1-2.8,1.9c-1.3-0.3-2.2-1.5-1.9-2.8c0.3-1.3,1.5-2.1,2.8-1.9
							C429.1,575.3,430,576.5,429.8,577.8z"/>
					</g>
					<g>
						<path class="st2" d="M429.8,577.8c-0.2,1.3-1.5,2.1-2.8,1.9c-1.3-0.3-2.2-1.5-1.9-2.8c0.3-1.3,1.5-2.1,2.8-1.9
							C429.1,575.3,430,576.5,429.8,577.8z"/>
						<path class="st2" d="M448.2,580.6c-0.2,1.3-1.4,2.3-2.7,2.1c-1.3-0.1-2.3-1.4-2.1-2.7c0.2-1.3,1.4-2.2,2.7-2.1
							C447.4,578.1,448.4,579.3,448.2,580.6z"/>
					</g>
					<g>
						<path class="st2" d="M448.2,580.6c-0.2,1.3-1.4,2.3-2.7,2.1c-1.3-0.1-2.3-1.4-2.1-2.7c0.2-1.3,1.4-2.2,2.7-2.1
							C447.4,578.1,448.4,579.3,448.2,580.6z"/>
						<path class="st2" d="M466.8,582.1c-0.1,1.3-1.2,2.4-2.5,2.3c-1.3-0.1-2.4-1.2-2.3-2.6c0.1-1.3,1.2-2.3,2.5-2.2
							C465.8,579.8,466.9,580.8,466.8,582.1z"/>
					</g>
					<g>
						<path class="st2" d="M466.8,582.1c-0.1,1.3-1.2,2.4-2.5,2.3c-1.3-0.1-2.4-1.2-2.3-2.6c0.1-1.3,1.2-2.3,2.5-2.2
							C465.8,579.8,466.9,580.8,466.8,582.1z"/>
						<path class="st2" d="M485.5,582.4c0,1.3-1,2.4-2.4,2.4c-1.3,0-2.4-1.1-2.4-2.4c0-1.3,1.1-2.4,2.4-2.4
							C484.3,580,485.4,581.1,485.5,582.4z"/>
					</g>
					<g>
						<path class="st2" d="M485.5,582.4c0,1.3-1,2.4-2.4,2.4c-1.3,0-2.4-1.1-2.4-2.4c0-1.3,1.1-2.4,2.4-2.4
							C484.3,580,485.4,581.1,485.5,582.4z"/>
						<path class="st2" d="M504.1,581.3c0.1,1.3-0.9,2.5-2.2,2.6c-1.3,0.1-2.5-0.9-2.6-2.2s0.9-2.5,2.2-2.6
							C502.8,579.1,504,580,504.1,581.3z"/>
					</g>
					<g>
						<path class="st2" d="M504.1,581.3c0.1,1.3-0.9,2.5-2.2,2.6c-1.3,0.1-2.5-0.9-2.6-2.2s0.9-2.5,2.2-2.6
							C502.8,579.1,504,580,504.1,581.3z"/>
						<path class="st2" d="M522.6,579c0.2,1.3-0.7,2.5-2,2.7s-2.6-0.7-2.7-2c-0.2-1.3,0.7-2.5,2-2.7
							C521.2,576.9,522.4,577.7,522.6,579z"/>
					</g>
					<g>
						<path class="st2" d="M522.6,579c0.2,1.3-0.7,2.5-2,2.7s-2.6-0.7-2.7-2c-0.2-1.3,0.7-2.5,2-2.7
							C521.2,576.9,522.4,577.7,522.6,579z"/>
						<path class="st2" d="M540.9,575.5c0.3,1.3-0.5,2.6-1.8,2.9c-1.3,0.3-2.6-0.6-2.9-1.8c-0.3-1.3,0.6-2.5,1.8-2.8
							C539.3,573.4,540.6,574.2,540.9,575.5z"/>
					</g>
					<g>
						<path class="st2" d="M540.9,575.5c0.3,1.3-0.5,2.6-1.8,2.9c-1.3,0.3-2.6-0.6-2.9-1.8c-0.3-1.3,0.6-2.5,1.8-2.8
							C539.3,573.4,540.6,574.2,540.9,575.5z"/>
						<path class="st2" d="M558.9,570.6c0.4,1.3-0.3,2.6-1.6,3s-2.6-0.4-3-1.6c-0.4-1.3,0.4-2.6,1.6-3
							C557.2,568.6,558.5,569.3,558.9,570.6z"/>
					</g>
					<g>
						<path class="st2" d="M558.9,570.6c0.4,1.3-0.3,2.6-1.6,3s-2.6-0.4-3-1.6c-0.4-1.3,0.4-2.6,1.6-3
							C557.2,568.6,558.5,569.3,558.9,570.6z"/>
						<path class="st2" d="M576.5,564.3c0.5,1.2-0.1,2.6-1.4,3.1c-1.3,0.5-2.7-0.1-3.1-1.4c-0.5-1.2,0.2-2.6,1.4-3.1
							C574.7,562.5,576,563.1,576.5,564.3z"/>
					</g>
					<g>
						<path class="st2" d="M576.5,564.3c0.5,1.2-0.1,2.6-1.4,3.1c-1.3,0.5-2.7-0.1-3.1-1.4c-0.5-1.2,0.2-2.6,1.4-3.1
							C574.7,562.5,576,563.1,576.5,564.3z"/>
						<path class="st2" d="M593.6,556.7c0.6,1.2,0.1,2.6-1.1,3.2c-1.2,0.6-2.7,0.1-3.2-1.1c-0.6-1.2,0-2.6,1.1-3.2
							C591.6,555.1,593,555.6,593.6,556.7z"/>
					</g>
					<g>
						<path class="st2" d="M593.6,556.7c0.6,1.2,0.1,2.6-1.1,3.2c-1.2,0.6-2.7,0.1-3.2-1.1c-0.6-1.2,0-2.6,1.1-3.2
							C591.6,555.1,593,555.6,593.6,556.7z"/>
						<path class="st2" d="M610,547.8c0.7,1.1,0.3,2.6-0.9,3.3s-2.6,0.3-3.3-0.8s-0.3-2.6,0.9-3.3
							C607.8,546.3,609.3,546.6,610,547.8z"/>
					</g>
					<g>
						<path class="st2" d="M610,547.8c0.7,1.1,0.3,2.6-0.9,3.3s-2.6,0.3-3.3-0.8s-0.3-2.6,0.9-3.3
							C607.8,546.3,609.3,546.6,610,547.8z"/>
						<path class="st2" d="M625.6,537.4c0.8,1.1,0.5,2.6-0.6,3.4c-1.1,0.8-2.6,0.6-3.4-0.5c-0.7-1.1-0.5-2.6,0.6-3.4
							C623.3,536.1,624.8,536.3,625.6,537.4z"/>
					</g>
					<g>
						<path class="st2" d="M625.6,537.4c0.8,1.1,0.5,2.6-0.6,3.4c-1.1,0.8-2.6,0.6-3.4-0.5c-0.7-1.1-0.5-2.6,0.6-3.4
							C623.3,536.1,624.8,536.3,625.6,537.4z"/>
						<path class="st2" d="M640.1,525.6c0.9,1,0.8,2.5-0.2,3.4s-2.6,0.7-3.4-0.3c-0.9-1-0.7-2.5,0.3-3.4
							C637.7,524.6,639.2,524.7,640.1,525.6z"/>
					</g>
					<g>
						<path class="st2" d="M640.1,525.6c0.9,1,0.8,2.5-0.2,3.4s-2.6,0.7-3.4-0.3c-0.9-1-0.7-2.5,0.3-3.4
							C637.7,524.6,639.2,524.7,640.1,525.6z"/>
						<path class="st2" d="M653.5,512.5c1,0.9,1.1,2.5,0.1,3.4c-1,1-2.5,1-3.4,0.1s-1-2.4,0-3.4C651,511.7,652.5,511.6,653.5,512.5z
							"/>
					</g>
					<g>
						<path class="st2" d="M653.5,512.5c1,0.9,1.1,2.5,0.1,3.4c-1,1-2.5,1-3.4,0.1s-1-2.4,0-3.4C651,511.7,652.5,511.6,653.5,512.5z
							"/>
						<path class="st2" d="M665.5,498.1c1.1,0.8,1.3,2.3,0.4,3.4c-0.8,1.1-2.4,1.3-3.4,0.4c-1-0.8-1.2-2.3-0.4-3.3
							C662.9,497.6,664.4,497.4,665.5,498.1z"/>
					</g>
					<g>
						<path class="st2" d="M665.5,498.1c1.1,0.8,1.3,2.3,0.4,3.4c-0.8,1.1-2.4,1.3-3.4,0.4c-1-0.8-1.2-2.3-0.4-3.3
							C662.9,497.6,664.4,497.4,665.5,498.1z"/>
						<path class="st2" d="M675.9,482.5c1.1,0.7,1.5,2.1,0.8,3.3c-0.7,1.2-2.2,1.5-3.3,0.8s-1.5-2.2-0.8-3.3
							C673.2,482.2,674.7,481.9,675.9,482.5z"/>
					</g>
					<g>
						<path class="st2" d="M675.9,482.5c1.1,0.7,1.5,2.1,0.8,3.3c-0.7,1.2-2.2,1.5-3.3,0.8s-1.5-2.2-0.8-3.3
							C673.2,482.2,674.7,481.9,675.9,482.5z"/>
						<path class="st2" d="M684.5,465.9c1.2,0.5,1.7,2,1.1,3.2c-0.6,1.2-2,1.8-3.2,1.2c-1.2-0.6-1.7-2-1.1-3.2
							S683.3,465.3,684.5,465.9z"/>
					</g>
					<g>
						<path class="st2" d="M684.5,465.9c1.2,0.5,1.7,2,1.1,3.2c-0.6,1.2-2,1.8-3.2,1.2c-1.2-0.6-1.7-2-1.1-3.2
							S683.3,465.3,684.5,465.9z"/>
						<path class="st2" d="M691.3,448.4c1.3,0.4,1.9,1.8,1.5,3.1c-0.4,1.3-1.8,2-3,1.5s-1.9-1.8-1.5-3.1
							C688.7,448.7,690.1,448,691.3,448.4z"/>
					</g>
					<g>
						<path class="st2" d="M691.3,448.4c1.3,0.4,1.9,1.8,1.5,3.1c-0.4,1.3-1.8,2-3,1.5s-1.9-1.8-1.5-3.1
							C688.7,448.7,690.1,448,691.3,448.4z"/>
						<path class="st2" d="M696.3,430.4c1.3,0.3,2.1,1.6,1.8,2.9s-1.7,2.1-2.9,1.8c-1.3-0.3-2-1.6-1.7-2.9
							C693.8,430.9,695,430.1,696.3,430.4z"/>
					</g>
					<g>
						<path class="st2" d="M696.3,430.4c1.3,0.3,2.1,1.6,1.8,2.9s-1.7,2.1-2.9,1.8c-1.3-0.3-2-1.6-1.7-2.9
							C693.8,430.9,695,430.1,696.3,430.4z"/>
						<path class="st2" d="M699.5,412c1.3,0.2,2.2,1.4,2,2.7c-0.2,1.3-1.4,2.3-2.7,2.1c-1.3-0.2-2.2-1.4-2-2.7
							C697,412.7,698.2,411.8,699.5,412z"/>
					</g>
					<g>
						<path class="st2" d="M699.5,412c1.3,0.2,2.2,1.4,2,2.7c-0.2,1.3-1.4,2.3-2.7,2.1c-1.3-0.2-2.2-1.4-2-2.7
							C697,412.7,698.2,411.8,699.5,412z"/>
						<path class="st2" d="M700.7,393.2c1.3,0,2.4,1.1,2.4,2.5s-1.1,2.4-2.4,2.4c-1.3,0-2.4-1.2-2.4-2.5
							C698.3,394.3,699.4,393.2,700.7,393.2z"/>
					</g>
					<g>
						<path class="st2" d="M700.7,393.2c1.3,0,2.4,1.1,2.4,2.5s-1.1,2.4-2.4,2.4c-1.3,0-2.4-1.2-2.4-2.5
							C698.3,394.3,699.4,393.2,700.7,393.2z"/>
						<path class="st2" d="M699.5,374.5c1.3-0.2,2.5,0.8,2.7,2.1c0.2,1.4-0.8,2.6-2.1,2.7s-2.4-0.8-2.6-2.1
							C697.3,375.8,698.2,374.6,699.5,374.5z"/>
					</g>
					<g>
						<path class="st2" d="M699.5,374.5c1.3-0.2,2.5,0.8,2.7,2.1c0.2,1.4-0.8,2.6-2.1,2.7s-2.4-0.8-2.6-2.1
							C697.3,375.8,698.2,374.6,699.5,374.5z"/>
						<path class="st2" d="M695.8,356c1.3-0.4,2.6,0.4,2.9,1.8c0.4,1.3-0.4,2.6-1.7,3c-1.3,0.3-2.6-0.5-2.9-1.8
							C693.8,357.7,694.5,356.4,695.8,356z"/>
					</g>
					<g>
						<path class="st2" d="M695.8,356c1.3-0.4,2.6,0.4,2.9,1.8c0.4,1.3-0.4,2.6-1.7,3c-1.3,0.3-2.6-0.5-2.9-1.8
							C693.8,357.7,694.5,356.4,695.8,356z"/>
						<path class="st2" d="M689.5,338.3c1.2-0.5,2.6,0.1,3.1,1.3c0.5,1.3,0,2.7-1.3,3.2c-1.2,0.5-2.6-0.1-3.1-1.3
							C687.8,340.2,688.3,338.8,689.5,338.3z"/>
					</g>
					<g>
						<path class="st2" d="M689.5,338.3c1.2-0.5,2.6,0.1,3.1,1.3c0.5,1.3,0,2.7-1.3,3.2c-1.2,0.5-2.6-0.1-3.1-1.3
							C687.8,340.2,688.3,338.8,689.5,338.3z"/>
						<path class="st2" d="M680.8,321.6c1.1-0.7,2.6-0.3,3.3,0.9c0.7,1.2,0.3,2.7-0.8,3.3c-1.1,0.6-2.6,0.3-3.3-0.9
							C679.3,323.8,679.7,322.3,680.8,321.6z"/>
					</g>
					<g>
						<path class="st2" d="M680.8,321.6c1.1-0.7,2.6-0.3,3.3,0.9c0.7,1.2,0.3,2.7-0.8,3.3c-1.1,0.6-2.6,0.3-3.3-0.9
							C679.3,323.8,679.7,322.3,680.8,321.6z"/>
						<path class="st2" d="M669.8,306.3c1-0.8,2.5-0.7,3.4,0.4s0.7,2.6-0.4,3.4c-1.1,0.8-2.5,0.6-3.4-0.4
							C668.7,308.7,668.8,307.2,669.8,306.3z"/>
					</g>
					<g>
						<path class="st2" d="M669.8,306.3c1-0.8,2.5-0.7,3.4,0.4s0.7,2.6-0.4,3.4c-1.1,0.8-2.5,0.6-3.4-0.4
							C668.7,308.7,668.8,307.2,669.8,306.3z"/>
						<path class="st2" d="M657,292.6c0.9-1,2.4-1,3.4,0s1,2.5,0.1,3.4s-2.5,0.9-3.4,0C656.1,295.1,656.1,293.6,657,292.6z"/>
					</g>
					<g>
						<path class="st2" d="M657,292.6c0.9-1,2.4-1,3.4,0s1,2.5,0.1,3.4s-2.5,0.9-3.4,0C656.1,295.1,656.1,293.6,657,292.6z"/>
						<path class="st2" d="M642.6,280.6c0.8-1.1,2.3-1.3,3.4-0.5c1.1,0.8,1.3,2.4,0.5,3.4s-2.3,1.2-3.4,0.4
							C642,283.2,641.8,281.7,642.6,280.6z"/>
					</g>
					<g>
						<path class="st2" d="M642.6,280.6c0.8-1.1,2.3-1.3,3.4-0.5c1.1,0.8,1.3,2.4,0.5,3.4s-2.3,1.2-3.4,0.4
							C642,283.2,641.8,281.7,642.6,280.6z"/>
						<path class="st2" d="M626.8,270.4c0.6-1.1,2.1-1.5,3.3-0.8s1.6,2.2,0.9,3.3c-0.7,1.1-2.2,1.5-3.3,0.8
							C626.6,273,626.2,271.6,626.8,270.4z"/>
					</g>
					<g>
						<path class="st2" d="M626.8,270.4c0.6-1.1,2.1-1.5,3.3-0.8s1.6,2.2,0.9,3.3c-0.7,1.1-2.2,1.5-3.3,0.8
							C626.6,273,626.2,271.6,626.8,270.4z"/>
						<path class="st2" d="M610,262.1c0.5-1.2,1.9-1.8,3.2-1.2c1.2,0.6,1.8,2,1.2,3.2s-2,1.7-3.2,1.2
							C610.1,264.7,609.5,263.3,610,262.1z"/>
					</g>
					<g>
						<path class="st2" d="M610,262.1c0.5-1.2,1.9-1.8,3.2-1.2c1.2,0.6,1.8,2,1.2,3.2s-2,1.7-3.2,1.2
							C610.1,264.7,609.5,263.3,610,262.1z"/>
						<path class="st2" d="M592.3,255.8c0.4-1.3,1.7-2,3-1.6s2,1.8,1.6,3c-0.4,1.3-1.8,2-3,1.6C592.7,258.4,591.9,257.1,592.3,255.8
							z"/>
					</g>
					<g>
						<path class="st2" d="M592.3,255.8c0.4-1.3,1.7-2,3-1.6s2,1.8,1.6,3c-0.4,1.3-1.8,2-3,1.6C592.7,258.4,591.9,257.1,592.3,255.8
							z"/>
						<path class="st2" d="M573.9,251.8c0.2-1.3,1.4-2.2,2.8-2c1.4,0.2,2.3,1.5,2,2.8c-0.2,1.3-1.5,2.2-2.8,1.9
							C574.7,254.3,573.8,253.1,573.9,251.8z"/>
					</g>
					<g>
						<path class="st2" d="M573.9,251.8c0.2-1.3,1.4-2.2,2.8-2c1.4,0.2,2.3,1.5,2,2.8c-0.2,1.3-1.5,2.2-2.8,1.9
							C574.7,254.3,573.8,253.1,573.9,251.8z"/>
						<path class="st2" d="M555.1,250.5c0-1.3,1.1-2.4,2.5-2.4s2.5,1.1,2.4,2.4c0,1.3-1.1,2.4-2.5,2.3
							C556.2,252.9,555.2,251.9,555.1,250.5z"/>
					</g>
					<g>
						<path class="st2" d="M555.1,250.5c0-1.3,1.1-2.4,2.5-2.4s2.5,1.1,2.4,2.4c0,1.3-1.1,2.4-2.5,2.3
							C556.2,252.9,555.2,251.9,555.1,250.5z"/>
						<path class="st2" d="M536.3,252.7c-0.3-1.3,0.6-2.6,1.9-2.9c1.4-0.3,2.7,0.6,2.9,1.9c0.2,1.3-0.7,2.5-2,2.8
							C537.9,254.8,536.6,254,536.3,252.7z"/>
					</g>
					<g>
						<path class="st2" d="M536.3,252.7c-0.3-1.3,0.6-2.6,1.9-2.9c1.4-0.3,2.7,0.6,2.9,1.9c0.2,1.3-0.7,2.5-2,2.8
							C537.9,254.8,536.6,254,536.3,252.7z"/>
						<path class="st2" d="M518.5,259.6c-0.7-1.1-0.2-2.6,1.1-3.3c1.3-0.6,2.8-0.2,3.3,1c0.6,1.2,0,2.6-1.1,3.2
							C520.6,261.1,519.1,260.7,518.5,259.6z"/>
					</g>
					<g>
						<path class="st2" d="M518.5,259.6c-0.7-1.1-0.2-2.6,1.1-3.3c1.3-0.6,2.8-0.2,3.3,1c0.6,1.2,0,2.6-1.1,3.2
							C520.6,261.1,519.1,260.7,518.5,259.6z"/>
						<path class="st2" d="M504,272.4c-1.1-0.8-1.2-2.3-0.3-3.5c0.9-1.2,2.6-1.3,3.5-0.4c1,0.9,1,2.4,0.2,3.4
							C506.6,272.9,505,273.1,504,272.4z"/>
					</g>
					<g>
						<path class="st2" d="M504,272.4c-1.1-0.8-1.2-2.3-0.3-3.5c0.9-1.2,2.6-1.3,3.5-0.4c1,0.9,1,2.4,0.2,3.4
							C506.6,272.9,505,273.1,504,272.4z"/>
						<path class="st2" d="M496,290c-1.3-0.3-2-1.6-1.7-3.1c0.2-0.7,0.6-1.3,1.2-1.6c0.6-0.3,1.2-0.4,1.9-0.2
							c0.6,0.2,1.1,0.7,1.4,1.2c0.3,0.6,0.4,1.2,0.2,1.8C498.7,289.5,497.3,290.3,496,290z"/>
					</g>
					<g>
						<path class="st2" d="M496,290c-1.3-0.3-2-1.6-1.7-3.1c0.2-0.7,0.6-1.3,1.2-1.6c0.6-0.3,1.2-0.4,1.9-0.2
							c0.6,0.2,1.1,0.7,1.4,1.2c0.3,0.6,0.4,1.2,0.2,1.8C498.7,289.5,497.3,290.3,496,290z"/>
						<path class="st2" d="M494.8,309.1c-1.3,0.2-2.5-0.9-2.6-2.4c-0.2-1.5,1-2.6,2.3-2.7c1.3,0,2.3,1.1,2.5,2.4
							C497,307.8,496.1,309,494.8,309.1z"/>
					</g>
					<g>
						<path class="st2" d="M494.8,309.1c-1.3,0.2-2.5-0.9-2.6-2.4c-0.2-1.5,1-2.6,2.3-2.7c1.3,0,2.3,1.1,2.5,2.4
							C497,307.8,496.1,309,494.8,309.1z"/>
						<path class="st2" d="M501.3,327.4c-1.1,0.7-2.6,0.3-3.4-1c-0.7-1.3-0.3-2.9,0.9-3.4c1.2-0.6,2.6-0.1,3.3,1.1
							C502.8,325.2,502.4,326.7,501.3,327.4z"/>
					</g>
					<g>
						<path class="st2" d="M501.3,327.4c-1.1,0.7-2.6,0.3-3.4-1c-0.7-1.3-0.3-2.9,0.9-3.4c1.2-0.6,2.6-0.1,3.3,1.1
							C502.8,325.2,502.4,326.7,501.3,327.4z"/>
						<path class="st2" d="M515.2,340.9c-0.7,1.1-2.3,1.4-3.4,0.5c-1.2-0.8-1.4-2.4-0.6-3.4s2.3-1.2,3.4-0.4
							C515.6,338.3,515.9,339.8,515.2,340.9z"/>
					</g>
					<g>
						<path class="st2" d="M515.2,340.9c-0.7,1.1-2.3,1.4-3.4,0.5c-1.2-0.8-1.4-2.4-0.6-3.4s2.3-1.2,3.4-0.4
							C515.6,338.3,515.9,339.8,515.2,340.9z"/>
						<path class="st2" d="M532.5,348.9c-0.4,1.3-1.8,2-3.1,1.5c-1.3-0.4-2-1.9-1.5-3.1s1.8-1.8,3.1-1.4
							C532.2,346.3,532.9,347.6,532.5,348.9z"/>
					</g>
					<g>
						<path class="st2" d="M532.5,348.9c-0.4,1.3-1.8,2-3.1,1.5c-1.3-0.4-2-1.9-1.5-3.1s1.8-1.8,3.1-1.4
							C532.2,346.3,532.9,347.6,532.5,348.9z"/>
						<path class="st2" d="M551.1,352.5c-0.1,1.3-1.3,2.3-2.7,2.1c-1.4-0.1-2.3-1.4-2.2-2.7c0.2-1.3,1.4-2.2,2.7-2.1
							C550.2,350,551.2,351.2,551.1,352.5z"/>
					</g>
					<g>
						<path class="st2" d="M551.1,352.5c-0.1,1.3-1.3,2.3-2.7,2.1c-1.4-0.1-2.3-1.4-2.2-2.7c0.2-1.3,1.4-2.2,2.7-2.1
							C550.2,350,551.2,351.2,551.1,352.5z"/>
						<path class="st2" d="M570.1,351.9c0.2,1.3-0.7,2.6-2.1,2.7c-1.4,0.2-2.6-0.7-2.8-2.1c-0.1-1.3,0.8-2.5,2.1-2.7
							C568.7,349.7,569.9,350.6,570.1,351.9z"/>
					</g>
					<g>
						<path class="st2" d="M570.1,351.9c0.2,1.3-0.7,2.6-2.1,2.7c-1.4,0.2-2.6-0.7-2.8-2.1c-0.1-1.3,0.8-2.5,2.1-2.7
							C568.7,349.7,569.9,350.6,570.1,351.9z"/>
						<path class="st2" d="M588.4,347.2c0.4,1.2-0.3,2.6-1.6,3s-2.7-0.3-3-1.6c-0.4-1.3,0.4-2.6,1.6-3
							C586.6,345.3,588,346,588.4,347.2z"/>
					</g>
					<g>
						<path class="st2" d="M588.4,347.2c0.4,1.2-0.3,2.6-1.6,3s-2.7-0.3-3-1.6c-0.4-1.3,0.4-2.6,1.6-3
							C586.6,345.3,588,346,588.4,347.2z"/>
						<path class="st2" d="M605.8,340.1c0.6,1.2,0,2.6-1.2,3.2s-2.7,0-3.2-1.2s0-2.6,1.2-3.2C603.8,338.4,605.2,338.9,605.8,340.1z"
							/>
					</g>
					<g>
						<path class="st2" d="M605.8,340.1c0.6,1.2,0,2.6-1.2,3.2s-2.7,0-3.2-1.2s0-2.6,1.2-3.2C603.8,338.4,605.2,338.9,605.8,340.1z"
							/>
						<path class="st2" d="M622.1,330.8c0.7,1.1,0.4,2.6-0.8,3.3c-1.2,0.7-2.7,0.4-3.3-0.8c-0.7-1.1-0.3-2.6,0.8-3.3
							C619.9,329.4,621.4,329.7,622.1,330.8z"/>
					</g>
					<g>
						<path class="st2" d="M622.1,330.8c0.7,1.1,0.4,2.6-0.8,3.3c-1.2,0.7-2.7,0.4-3.3-0.8c-0.7-1.1-0.3-2.6,0.8-3.3
							C619.9,329.4,621.4,329.7,622.1,330.8z"/>
						<path class="st2" d="M637.1,319.4c0.9,1,0.8,2.5-0.3,3.4c-1,0.9-2.6,0.8-3.4-0.2c-0.8-1-0.7-2.5,0.3-3.4
							C634.7,318.3,636.2,318.4,637.1,319.4z"/>
					</g>
					<g>
						<path class="st2" d="M637.1,319.4c0.9,1,0.8,2.5-0.3,3.4c-1,0.9-2.6,0.8-3.4-0.2c-0.8-1-0.7-2.5,0.3-3.4
							C634.7,318.3,636.2,318.4,637.1,319.4z"/>
						<path class="st2" d="M650.1,305.7c1,0.8,1.2,2.4,0.3,3.4c-0.9,1.1-2.4,1.2-3.4,0.3c-1-0.9-1.1-2.4-0.3-3.4
							C647.6,305.1,649,304.9,650.1,305.7z"/>
					</g>
					<g>
						<path class="st2" d="M650.1,305.7c1,0.8,1.2,2.4,0.3,3.4c-0.9,1.1-2.4,1.2-3.4,0.3c-1-0.9-1.1-2.4-0.3-3.4
							C647.6,305.1,649,304.9,650.1,305.7z"/>
						<path class="st2" d="M660.1,289.6c1.2,0.6,1.6,2,1,3.3c-0.3,0.6-0.8,1.1-1.4,1.3c-0.6,0.2-1.3,0.1-1.8-0.2
							c-0.6-0.3-1-0.8-1.1-1.4c-0.2-0.6-0.1-1.3,0.2-1.8C657.5,289.5,659,289.1,660.1,289.6z"/>
					</g>
					<g>
						<path class="st2" d="M660.1,289.6c1.2,0.6,1.6,2,1,3.3c-0.3,0.6-0.8,1.1-1.4,1.3c-0.6,0.2-1.3,0.1-1.8-0.2
							c-0.6-0.3-1-0.8-1.1-1.4c-0.2-0.6-0.1-1.3,0.2-1.8C657.5,289.5,659,289.1,660.1,289.6z"/>
						<path class="st2" d="M666.4,271.7c1.3,0.3,2.1,1.6,1.7,3c-0.4,1.4-1.7,2.2-2.9,1.8c-1.3-0.4-2-1.7-1.7-3
							S665.2,271.4,666.4,271.7z"/>
					</g>
					<g>
						<path class="st2" d="M666.4,271.7c1.3,0.3,2.1,1.6,1.7,3c-0.4,1.4-1.7,2.2-2.9,1.8c-1.3-0.4-2-1.7-1.7-3
							S665.2,271.4,666.4,271.7z"/>
						<path class="st2" d="M668.3,252.8c1.3,0,2.5,1.1,2.4,2.5c0,1.4-1.2,2.5-2.5,2.4c-1.3-0.1-2.3-1.2-2.3-2.5
							C666,253.9,667,252.8,668.3,252.8z"/>
					</g>
					<g>
						<path class="st2" d="M668.3,252.8c1.3,0,2.5,1.1,2.4,2.5c0,1.4-1.2,2.5-2.5,2.4c-1.3-0.1-2.3-1.2-2.3-2.5
							C666,253.9,667,252.8,668.3,252.8z"/>
						<path class="st2" d="M665.2,233.9c1.3-0.4,2.6,0.4,3,1.7c0.4,1.4-0.4,2.8-1.7,3c-1.3,0.3-2.6-0.5-2.9-1.8
							C663.3,235.7,664,234.3,665.2,233.9z"/>
					</g>
					<g>
						<path class="st2" d="M665.2,233.9c1.3-0.4,2.6,0.4,3,1.7c0.4,1.4-0.4,2.8-1.7,3c-1.3,0.3-2.6-0.5-2.9-1.8
							C663.3,235.7,664,234.3,665.2,233.9z"/>
						<path class="st2" d="M656.9,216.8c1.1-0.7,2.6-0.4,3.3,0.8c0.4,0.6,0.5,1.3,0.4,1.9c-0.2,0.6-0.5,1.2-1.1,1.5
							s-1.2,0.4-1.8,0.2s-1.2-0.5-1.5-1.1C655.5,219,655.8,217.5,656.9,216.8z"/>
					</g>
					<g>
						<path class="st2" d="M656.9,216.8c1.1-0.7,2.6-0.4,3.3,0.8c0.4,0.6,0.5,1.3,0.4,1.9c-0.2,0.6-0.5,1.2-1.1,1.5
							s-1.2,0.4-1.8,0.2s-1.2-0.5-1.5-1.1C655.5,219,655.8,217.5,656.9,216.8z"/>
						<path class="st2" d="M644.4,202.4c0.9-1,2.4-1,3.4,0s1,2.5,0.1,3.4s-2.5,0.9-3.4,0S643.5,203.4,644.4,202.4z"/>
					</g>
					<g>
						<path class="st2" d="M644.4,202.4c0.9-1,2.4-1,3.4,0s1,2.5,0.1,3.4s-2.5,0.9-3.4,0S643.5,203.4,644.4,202.4z"/>
						<path class="st2" d="M629.3,191c0.7-1.1,2.2-1.4,3.4-0.7c1.2,0.8,1.5,2.3,0.7,3.4c-0.8,1.1-2.2,1.3-3.3,0.6
							C629,193.6,628.6,192.2,629.3,191z"/>
					</g>
					<g>
						<path class="st2" d="M629.3,191c0.7-1.1,2.2-1.4,3.4-0.7c1.2,0.8,1.5,2.3,0.7,3.4c-0.8,1.1-2.2,1.3-3.3,0.6
							C629,193.6,628.6,192.2,629.3,191z"/>
						<path class="st2" d="M612.6,182.4c0.5-1.2,2-1.7,3.2-1.2c1.3,0.6,1.8,2,1.2,3.2s-2,1.7-3.2,1.2
							C612.6,185,612.1,183.6,612.6,182.4z"/>
					</g>
					<g>
						<path class="st2" d="M612.6,182.4c0.5-1.2,2-1.7,3.2-1.2c1.3,0.6,1.8,2,1.2,3.2s-2,1.7-3.2,1.2
							C612.6,185,612.1,183.6,612.6,182.4z"/>
						<path class="st2" d="M594.9,176c0.4-1.3,1.7-2,3-1.6s2,1.7,1.6,3c-0.4,1.2-1.8,1.9-3,1.6C595.3,178.6,594.6,177.3,594.9,176z"
							/>
					</g>
					<g>
						<path class="st2" d="M594.9,176c0.4-1.3,1.7-2,3-1.6s2,1.7,1.6,3c-0.4,1.2-1.8,1.9-3,1.6C595.3,178.6,594.6,177.3,594.9,176z"
							/>
						<path class="st2" d="M576.8,171.5c0.3-1.3,1.5-2.1,2.9-1.9c1.3,0.3,2.2,1.6,1.9,2.9c-0.3,1.3-1.6,2.1-2.8,1.8
							C577.4,174.1,576.5,172.8,576.8,171.5z"/>
					</g>
					<g>
						<path class="st2" d="M576.8,171.5c0.3-1.3,1.5-2.1,2.9-1.9c1.3,0.3,2.2,1.6,1.9,2.9c-0.3,1.3-1.6,2.1-2.8,1.8
							C577.4,174.1,576.5,172.8,576.8,171.5z"/>
						<path class="st2" d="M558.3,168.6c0.2-1.3,1.4-2.2,2.7-2.1c1.3,0.2,2.3,1.4,2.1,2.7s-1.4,2.2-2.7,2.1
							C559.1,171.1,558.2,169.9,558.3,168.6z"/>
					</g>
					<g>
						<path class="st2" d="M558.3,168.6c0.2-1.3,1.4-2.2,2.7-2.1c1.3,0.2,2.3,1.4,2.1,2.7s-1.4,2.2-2.7,2.1
							C559.1,171.1,558.2,169.9,558.3,168.6z"/>
						<path class="st2" d="M539.7,167.1c0.1-1.3,1.2-2.4,2.5-2.3c1.3,0.1,2.4,1.2,2.3,2.5c-0.1,1.3-1.2,2.3-2.5,2.2
							C540.7,169.5,539.7,168.4,539.7,167.1z"/>
					</g>
					<g>
						<path class="st2" d="M539.7,167.1c0.1-1.3,1.2-2.4,2.5-2.3c1.3,0.1,2.4,1.2,2.3,2.5c-0.1,1.3-1.2,2.3-2.5,2.2
							C540.7,169.5,539.7,168.4,539.7,167.1z"/>
						<path class="st2" d="M521.1,166.7c0-1.3,1.1-2.4,2.4-2.4c1.3,0,2.4,1.1,2.4,2.4c0,1.3-1.1,2.4-2.4,2.4
							C522.2,169.1,521.1,168,521.1,166.7z"/>
					</g>
				</g>
			</g>
		</g>
		<rect x="388.4" y="639" class="st2" width="30" height="161"/>
		<rect x="349.3" y="639" class="st2" width="10.2" height="161"/>
		<rect x="444.6" y="639" class="st2" width="11.1" height="161"/>
		<text transform="matrix(1 0 0 1 284.3857 169)" class="st2 st7 st8">contact us</text>
		<g>
			<polygon class="st9" points="278.2,540.6 403.4,476.5 528.5,540.6 403.4,609.5 			"/>
			<rect x="296.4" y="427.7" class="st2" width="214" height="192.7"/>
			<rect x="315.1" y="451" class="st1" width="18.2" height="14.5"/>
			<rect x="336.8" y="451" class="st6" width="49.9" height="14.5"/>
			<rect x="442.1" y="545" class="st6" width="49.9" height="14.5"/>
			<rect x="333.3" y="479" class="st10" width="158.7" height="4.5"/>
			<rect x="315.1" y="489.7" class="st10" width="176.9" height="4.5"/>
			<rect x="315.1" y="500.3" class="st10" width="176.9" height="4.5"/>
			<rect x="315.1" y="511" class="st10" width="176.9" height="4.5"/>
			<rect x="315.1" y="521.7" class="st10" width="176.9" height="4.5"/>
			<polygon class="st10" points="403.4,594.2 528.5,540.6 528.5,639 278.2,639 278.2,540.6 			"/>
		</g>
		<g>
			<polygon class="st2" points="549,427.7 549,478.3 639,478.3 653.7,492.4 653.7,427.7 			"/>
			<rect x="564.3" y="443.7" class="st10" width="74" height="4.5"/>
			<rect x="564.3" y="456" class="st10" width="74" height="4.5"/>
		</g>
		<rect x="140.2" y="598.1" class="st1" width="18.2" height="14.5"/>
		<g>
			<path class="st3" d="M173.4,731.3H88.6c-2.8,0-5-2.2-5-5V574c0-2.8,2.2-5,5-5h84.8c2.8,0,5,2.2,5,5v152.4
				C178.4,729.1,176.2,731.3,173.4,731.3z"/>
			<path class="st1" d="M88.6,702.3c-0.6,0-1-0.4-1-1V574c0-0.6,0.4-1,1-1h84.8c0.6,0,1,0.4,1,1v127.4c0,0.6-0.4,1-1,1H88.6V702.3z"
				/>
			<path class="st0" d="M138,715.7c0,4-3.3,7.3-7.3,7.3c-4.1,0-7.3-3.3-7.3-7.3s3.3-7.3,7.3-7.3C134.7,708.3,138,711.6,138,715.7z"
				/>
			<polygon class="st4" points="87.6,665.5 174.4,605.4 174.4,571.2 87.6,629.5 			"/>
			<polygon class="st4" points="87.6,701.3 174.4,641 174.4,618.4 87.6,676.6 			"/>
			<rect x="100.4" y="592" class="st2" width="23" height="23"/>
			<rect x="100.4" y="622.5" class="st2" width="61.1" height="23"/>
		</g>
		<g>
			<polygon class="st2" points="254,540.6 254,591.3 163.9,591.3 149.3,605.4 149.3,540.6 			"/>
			<rect x="164.6" y="556.6" class="st10" width="74" height="4.5"/>
			<rect x="164.6" y="569" class="st10" width="74" height="4.5"/>
		</g>
		<g>
			<rect x="486.6" y="675.3" class="st11" width="102.8" height="56.5"/>
			<polygon class="st11" points="589.4,646 589.4,676.7 567.8,676.7 			"/>
			<path class="st2" d="M525.3,703.5c0,1.8-1.4,3.2-3.2,3.2s-3.2-1.4-3.2-3.2s1.4-3.2,3.2-3.2C523.9,700.3,525.3,701.8,525.3,703.5z
				"/>
			<path class="st2" d="M541.2,703.5c0,1.8-1.4,3.2-3.2,3.2s-3.2-1.4-3.2-3.2s1.4-3.2,3.2-3.2S541.2,701.8,541.2,703.5z"/>
			<path class="st2" d="M557,703.5c0,1.8-1.4,3.2-3.2,3.2s-3.2-1.4-3.2-3.2s1.4-3.2,3.2-3.2S557,701.8,557,703.5z"/>
		</g>
		<g>
			<polygon class="st2" points="262.6,119.1 232.8,148.9 232.8,142.9 259.6,116.1 			"/>
			<polygon class="st2" points="262.6,192.4 259.6,195.4 232.8,168.5 232.8,162.5 			"/>
			<rect x="232.8" y="153.9" class="st2" width="28.5" height="4.3"/>
			<path class="st2" d="M276.1,302.1l-19.3-24.9c-3.4-4.4-10.3-6.2-15.4-4.1l-9.9,4.1c-2.6,1-6.3,0.4-8.3-1.5
				c-8.8-8.8-31.1-34.9-36.8-78.7c-0.4-2.7,1.6-5.4,4.4-5.8l13-2.3c5.4-1,9.3-6.2,8.6-11.6l-4.4-35.5c-0.7-5.5-5.7-9.5-11.2-9
				l-20.4,1.9c-5.5,0.5-11.8,5-14.1,10l-5.1,11.2c-1.1,2.5-2.1,6.8-2.1,9.6c0.5,21.1,6.7,104.1,72.3,156.4c2.2,1.7,6.1,3.5,8.8,4.1
				l13.1,2.8c2.7,0.6,6.7-0.3,9-1.9l15.6-11.1C278.6,312.6,279.5,306.5,276.1,302.1z"/>
			
				<rect x="123.8" y="247.4" transform="matrix(0.8668 -0.4987 0.4987 0.8668 -118.9171 110.181)" class="st12" width="46" height="60.5"/>
			<polygon class="st13" points="156.5,316.2 0,399 0,307.7 118.8,244.9 			"/>
			<path class="st12" d="M226.6,242.3c3,4.9,1.4,11.3-3.5,14.3L172.7,287c-4.9,3-11.3,1.4-14.3-3.5l0,0c-3-4.9-1.4-11.3,3.5-14.3
				l50.4-30.4C217.3,235.8,223.7,237.3,226.6,242.3L226.6,242.3z"/>
			<path class="st12" d="M229.8,256.8c2.6,4.4,1.2,10-3.1,12.7l-44.7,27c-4.4,2.6-10,1.2-12.7-3.1l0,0c-2.6-4.4-1.2-10,3.1-12.7
				l44.7-27C221.5,251,227.2,252.4,229.8,256.8L229.8,256.8z"/>
			<path class="st12" d="M218.3,224c3,4.9,1.4,11.3-3.5,14.3l-50.4,30.4c-4.9,3-11.3,1.4-14.3-3.5l0,0c-3-4.9-1.4-11.3,3.5-14.3
				l50.4-30.4C208.9,217.6,215.3,219.1,218.3,224L218.3,224z"/>
			<path class="st12" d="M210.4,206.1c3,4.9,1.4,11.3-3.5,14.3l-50.4,30.4c-4.9,3-11.3,1.4-14.3-3.5l0,0c-3-4.9-1.4-11.3,3.5-14.3
				l50.4-30.4C201,199.6,207.4,201.2,210.4,206.1L210.4,206.1z"/>
			<polygon class="st12" points="141.6,237.7 141.9,237.2 160.2,204.4 164.8,221.5 			"/>
			<polygon class="st2" points="121.9,250.9 128.5,247.5 161.7,307.5 153.8,311.2 			"/>
			<path class="st2" d="M249,334.1c0,2.8-2.3,5.1-5.1,5.1l0,0c-2.8,0-5.1-2.3-5.1-5.1v-7.3c0-2.8,2.3-5.1,5.1-5.1l0,0
				c2.8,0,5.1,2.3,5.1,5.1V334.1z"/>
		</g>
	</g>
</g>
<g id="Layer_2_1_">
</g>
</svg>
