<?xml version="1.0" encoding="utf-8"?>
<!-- Generator: Adobe Illustrator 22.1.0, SVG Export Plug-In . SVG Version: 6.00 Build 0)  -->
<svg version="1.1" xmlns="http://www.w3.org/2000/svg" xmlns:xlink="http://www.w3.org/1999/xlink" x="0px" y="0px"
	 viewBox="0 0 4834 3473" style="enable-background:new 0 0 4834 3473;" xml:space="preserve">
<style type="text/css">
	.st0{fill:#FFFFFF;}
	.st1{fill:#CECECE;}
	.st2{fill:#E0E0E0;}
	.st3{fill:#EDEDED;}
	.st4{fill:#939393;}
	.st5{fill:#9E9E9E;}
	.st6{opacity:8.000000e-02;fill:#020202;}
	.st7{fill:#777777;}
	.st8{fill:#BFBFBF;}
	.st9{fill:#E6E7E9;}
	.st10{fill:#B8B9BB;}
	.st11{fill:#FEFCFE;}
	.st12{fill:#42210B;}
	.st13{fill:#6B3E1F;}
	.st14{fill:#3A4349;}
	.st15{fill:#1B1F21;}
	.st16{fill:#475059;}
	.st17{fill:#512D10;}
	.st18{fill:#2D3538;}
	.st19{fill:#EAEAEA;}
	.st20{fill:#B2B2B2;}
	.st21{fill:#848484;}
	.st22{fill:#3F4D50;}
	.st23{opacity:0.26;fill:#020202;}
	.st24{fill:#EDBE85;}
	.st25{fill:#FFF2E6;}
	.st26{fill:#E2E2E2;}
	.st27{fill:#31373A;}
	.st28{enable-background:new    ;}
	.st29{clip-path:url(#SVGID_2_);}
</style>
<g id="Layer_4">
</g>
<g id="Layer_5">
	
		<rect x="517.6" y="2570" transform="matrix(-0.3696 0.9292 -0.9292 -0.3696 3184.8945 3147.8535)" class="st0" width="14" height="168.7"/>
	
		<rect x="442.9" y="2620.2" transform="matrix(0.3695 -0.9292 0.9292 0.3695 -2155.2312 2072.7859)" class="st1" width="14" height="9"/>
	<path class="st0" d="M442.2,2643l14.7-36.8c0.4-1-0.1-2.1-1.1-2.5l-43.8-17.4c-1-0.4-2.1,0.1-2.5,1.1l-14.7,36.8
		c-0.4,1,0.1,2.1,1.1,2.5l43.8,17.4C440.7,2644.5,441.8,2644,442.2,2643z"/>
	<g>
		<path class="st0" d="M396.9,2633.1l20-50.3c2.1-5.4-0.5-11.5-5.9-13.7l-88.1-35c-5.4-2.1-11.5,0.5-13.7,5.9l-20,50.3
			c-2.1,5.4,0.5,11.5,5.9,13.7l88.1,35C388.7,2641.1,394.8,2638.5,396.9,2633.1z"/>
		<path class="st2" d="M387.1,2641.7c-1.5,0-3.1-0.3-4.6-0.9l-88.1-35c-3.1-1.2-5.5-3.6-6.9-6.7c-1.3-3.1-1.4-6.5-0.1-9.6l20-50.3
			c1.2-3.1,3.6-5.5,6.7-6.9c3.1-1.3,6.5-1.4,9.6-0.1l88.1,35c6.4,2.5,9.6,9.8,7,16.2l-20,50.3
			C396.8,2638.8,392.1,2641.7,387.1,2641.7z M319.1,2535.4c-1.1,0-2.3,0.2-3.4,0.7c-2.1,0.9-3.7,2.6-4.5,4.7l-20,50.3
			c-0.8,2.1-0.8,4.4,0.1,6.5c0.9,2.1,2.6,3.7,4.7,4.5l88.1,35c4.4,1.7,9.3-0.4,11.1-4.8l20-50.3c1.7-4.4-0.4-9.3-4.8-11.1l-88.1-35
			C321.2,2535.6,320.1,2535.4,319.1,2535.4z"/>
	</g>
	<path class="st3" d="M-360.8,2110.5l-132,331.9c-9.7,24.3,2.2,51.9,26.5,61.6l653.1,259.8c24.3,9.7,51.9-2.2,61.6-26.5l132-331.9
		c9.7-24.3-2.2-51.9-26.5-61.6l-653.1-259.8C-323.6,2074.3-351.1,2086.1-360.8,2110.5z"/>
	
		<rect x="-268" y="2113.7" transform="matrix(0.3695 -0.9292 0.9292 0.3695 -2287.1611 1477.2982)" class="st4" width="426.2" height="621"/>
	<path class="st5" d="M288.7,2496.6l-43.9,110.4c-1.4,3.4,0.3,7.3,3.7,8.7l0,0c3.4,1.4,7.3-0.3,8.7-3.7l43.9-110.4
		c1.4-3.4-0.3-7.3-3.7-8.7l0,0C293.9,2491.5,290,2493.1,288.7,2496.6z"/>
	<path class="st6" d="M354.1,2343.6l-653.1-259.8c-24.3-9.7-51.9,2.4-61.6,26.7l-18,45.2L302.6,2601l77.8-195.7
		C390.1,2380.9,378.4,2353.3,354.1,2343.6z"/>
	
		<rect x="353.1" y="2563.2" transform="matrix(0.3695 -0.9292 0.9292 0.3695 -2178.5002 1966.715)" class="st2" width="14.1" height="51.2"/>
	<path class="st0" d="M-116.3,3000.2c15.6-27.5,39-49.4,62-69c12.4-10.6,25.7-21.3,40-30.7c1-17.6,4.9-35.9,11.7-54.4
		c11.4-30.8,29.7-59,46.1-82.5c14.9-21.4,33-45.4,58.6-58.6c25.2-13,57.6-15.2,91.2-6.2c18.1,4.9,36.2,13.3,53.7,21.5
		c11,5.2,21.4,10,31.8,14.1c45.1,17.5,91.7,35.5,140,42.7c37.4,5.5,91.9,6.4,139.3-21c24.4-14.1,44.1-33.8,63.6-55.4l-30.7-12.4
		l5.2-13l35.4,14.3c1.2-1.3,2.4-2.7,3.6-4.1c18.7-21.1,38-43,60.8-60.4c11.6-8.9,29.5-20.6,50.3-20.4c22.9,0.3,44.5,16.1,52.5,38.5
		c7.5,20.9,2.7,46-12.2,63.8c-13.9,16.6-35.8,26.7-58.8,27.1c-22.6,0.3-44-8.3-62.8-16l-29.4-11.9c-20.8,23.2-42.9,46.1-70.4,62
		c-50.9,29.4-108.8,28.6-148.3,22.7c-49.9-7.4-97.2-25.7-143-43.5c-10.8-4.2-21.9-9.4-32.7-14.4c-16.9-7.9-34.4-16.1-51.4-20.7
		c-30.2-8.1-59-6.3-81.2,5.1c-22.7,11.8-38.9,33.2-53.5,54.2c-16.7,23.9-33.6,50.1-44.4,79.3c-5.1,13.8-8.4,27.4-10,40.6
		c3.7-2,7.5-4,11.4-5.7c19.4-9,49.2-18.3,80.9-11.4c29.4,6.4,54.1,27.1,62.8,52.8c8,23.4,2.8,50.7-13.2,69.6
		c-21.4,25.1-60.5,33.3-93.1,19.4c-28.8-12.3-51.8-40.9-60-74.8c-1.9-7.8-3.1-15.8-3.5-24.1c-10.9,7.7-21.2,16.1-31,24.4
		c-22,18.7-44.4,39.6-58.9,65.2c-15.6,27.5-19.4,57.2-10.5,81.4c1.4,3.8,3.1,7.5,4.9,11.5c2.8,6.1,5.7,12.5,7.5,19.4
		c3,11.7,2.2,27.6-9,37.2l-9.1-10.6c6.3-5.4,6.4-15.8,4.5-23.1c-1.5-5.7-4-11.2-6.7-17c-1.8-4-3.8-8.2-5.4-12.5
		c-8.4-23-7.2-49.8,3.2-75.9C-122.3,3011.6-119.5,3005.8-116.3,3000.2z M142.4,2931.8c-7.2-21.1-27.9-38.2-52.6-43.6
		c-27.9-6.1-54.5,2.3-72,10.4c-6.3,2.9-12.4,6.2-18.3,9.8c0,10.3,1.1,20.3,3.4,29.8c7.2,29.7,27.1,54.6,51.9,65.2
		c26.7,11.4,59.8,4.6,77-15.6c4-4.7,7.1-10,9.4-15.7C146.2,2959.4,146.9,2944.9,142.4,2931.8z M785.6,2648
		c-6-16.7-22.6-29-39.5-29.2c-12.5-0.1-25.7,5.4-41.6,17.5c-21.8,16.6-40.6,37.9-58.8,58.5c-0.1,0.1-0.2,0.2-0.3,0.3l24.8,10
		c17.6,7.1,37.6,15.2,57.4,15c18.9-0.3,37-8.5,48.2-22c3.7-4.4,6.6-9.4,8.7-14.6C789.1,2672.1,789.6,2659.3,785.6,2648z"/>
	<path class="st0" d="M-8,3323.4c-42.9-9.2-73.4-23.4-95.9-44.5c-28-26.3-40.6-64.6-32-96.6c-3,2.3-6,4.5-9,6.6
		c-57,40.9-123.2,71-191.4,87.1l-3.2-13.6c66.5-15.7,131-45,186.5-84.9c18.4-13.2,38.1-28.9,38.1-47.7l14-0.7
		c1.7,15.5-4.7,25.5-10.9,35.2c-3.5,5.5-7.2,11.2-9.5,18.2c-10.5,32.1,6,66.4,27.1,86.2c20.6,19.4,49,32.4,89.3,41.1L-8,3323.4z"/>
	
		<ellipse transform="matrix(0.9292 -0.3697 0.3697 0.9292 -1228.0485 63.7593)" class="st7" cx="-447.7" cy="3235.9" rx="61.4" ry="12.8"/>
	<path class="st0" d="M-497,3249.7c-12.8,4-20.4,26.5-7.3,35.4c17.8,12.1,37,21.1,41.2,22.9l-23.7,9.4c-6.5,2.6-9.4,10.3-6.7,17.1
		l0.5,1.3c2.7,6.8,10,10.3,16.5,7.7l167.1-66.5l-10.4-26.1l-69.3,27.6c1.6-5.3,10.1-33.3,12.6-40.6c3.4-9.9-1.1-17.5-1.1-17.5
		c-1.6-2.8-3.6-4.9-5.6-6.4c-5.2-4-12.5-5.9-17.8-2.5C-417.7,3222.4-482.8,3245.3-497,3249.7z"/>
	<path class="st8" d="M-251.7,3230.6l5.8,14.6c1.3,3.2-0.3,6.9-3.5,8.2l-78.1,31.1l-10.5-26.4l78.1-31.1
		C-256.7,3225.8-253,3227.4-251.7,3230.6z"/>
	
		<ellipse transform="matrix(0.3697 -0.9292 0.9292 0.3697 -2975.4575 2210.2671)" class="st7" cx="141.4" cy="3298.3" rx="12.8" ry="61.4"/>
	<path class="st0" d="M190.7,3312c12.8,4,20.4,26.5,7.3,35.4c-17.8,12.1-37,21.1-41.2,22.9l23.7,9.4c6.5,2.6,9.4,10.3,6.7,17.1
		l-0.5,1.3c-2.7,6.8-10,10.3-16.5,7.7L3,3339.4l10.4-26.1l69.3,27.6c-1.6-5.3-10.1-33.3-12.6-40.6c-3.4-9.9,1.1-17.5,1.1-17.5
		c1.6-2.8,3.6-4.9,5.6-6.4c5.2-4,12.5-5.9,17.8-2.5C111.4,3284.7,176.5,3307.6,190.7,3312z"/>
	<path class="st8" d="M-54.5,3292.9l-5.8,14.6c-1.3,3.2,0.3,6.9,3.5,8.2l78.1,31.1l10.5-26.4l-78.1-31.1
		C-49.6,3288.1-53.3,3289.7-54.5,3292.9z"/>
</g>
<g id="Layer_6">
	<g>
		<path class="st9" d="M1758.8,2849.5c0,19.2-1.4,38.1-4.1,56.5c-27.4,188.1-189.3,332.4-384.8,332.4c-5.7,0-11.2-0.1-16.8-0.4
			c-207-8.8-372.2-179.4-372.2-388.5c0-214.8,174.2-388.9,389-388.9C1584.7,2460.6,1758.8,2634.7,1758.8,2849.5z"/>
		<path class="st0" d="M1369.9,2449.4c-220.6,0-400.1,179.4-400.1,400.1c0,215.1,168.1,390.6,382.9,399.7c4.2,0.1,8.3,0.3,12.5,0.3
			l-11.4-11.4l-11.7-11.8c-197.2-14.2-350-177.6-350-376.7c0-208.3,169.5-377.8,377.8-377.8c208.3,0,377.8,169.5,377.8,377.8
			c0,15.1-0.9,30.4-2.8,45.4l10,10l9.7,9.7c0.4-2.3,0.7-4.6,1.1-7c2.8-19.3,4.2-38.8,4.2-58.1
			C1770,2628.9,1590.6,2449.4,1369.9,2449.4z"/>
	</g>
	<path class="st5" d="M1764.6,2914.6c-31.3,191.4-199.8,335-394.7,335c-1.6,0-3.2,0-4.8-0.1l-11.4-11.4l-11.7-11.8
		c3.8,0.3,7.7,0.5,11.5,0.7c5.4,0.2,10.9,0.4,16.4,0.4c186.4,0,347-138.8,373.8-322.9c0.4-3.1,0.9-6.3,1.2-9.4l10,10L1764.6,2914.6z
		"/>
	<path class="st10" d="M1744.9,2894.9c-0.3,3.1-0.7,6.3-1.2,9.4c-26.8,184.1-187.5,322.9-373.8,322.9c-5.5,0-10.9-0.1-16.4-0.4
		c-3.9-0.1-7.7-0.4-11.5-0.7l-342.3-345.6l552.8-177.6L1744.9,2894.9z"/>
	<path class="st11" d="M1012.1,2880.7h135c0.2,0,0.4-0.2,0.4-0.4v-54.9c0-2.9-2.4-5.3-5.3-5.3h-129.4c-16.9,0-30.6,13.8-30.6,30.6v0
		C982.2,2867.2,995.6,2880.7,1012.1,2880.7z"/>
	
		<ellipse transform="matrix(0.7071 -0.7071 0.7071 0.7071 -1613.6566 1803.2643)" class="st11" cx="1369.9" cy="2849.5" rx="233" ry="233"/>
	<path class="st12" d="M1562.2,2849.5c0,106.2-86.1,192.3-192.2,192.3c-60.3,0-114-27.7-149.3-71.1c-27-33-43-75.2-43-121.2
		c0-106.2,86.1-192.3,192.3-192.3c74.8,0,139.6,42.7,171.3,105.2C1554.7,2788.5,1562.2,2818.1,1562.2,2849.5z"/>
	<path class="st13" d="M1562.2,2849.5c0,106.2-86.1,192.3-192.2,192.3c-60.3,0-114-27.7-149.3-71.1c-13.4-26.2-20.9-55.8-20.9-87.1
		c0-106.2,86.1-192.3,192.2-192.3c60.3,0,114,27.7,149.3,71.1C1554.7,2788.5,1562.2,2818.1,1562.2,2849.5z"/>
</g>
<g id="Layer_2">
	<path class="st14" d="M3474.2,790.5c-7.8,24.8-296.9,300-572.4,534.9c-285.6,243.5-1003,632.9-1003,632.9
		C1403.5,2156.3,601.1,2251,601.1,2251l-508.7-10.8l9.8-862.5l1319.7,30.8c214.9-139.9,770.9-285.1,922.3-344.4
		c24.7-9.7,38.7-15.1,38.7-15.1c74.8-64.1,171.1-67.9,223.8-97.3c71.7-39.9,141.4-68.4,202.1-123.7c57.7-52.6,145.5-81.9,208.2-121
		c92.7-57.7,156.1-115.9,192.5-132.6c12.1-5.5,18.8-8.4,18.8-8.4C3484.8,573.1,3474.2,790.5,3474.2,790.5z"/>
	<path class="st15" d="M3209.5,574.4C2952,833,2028,1628.3,2028,1628.3l-10.2-343.3c24.7-9.7,383.3-251,383.3-251
		c96.9-51,242.2-130.9,295.9-162c104.1-60.3,276.9-158.1,351-202S3209.5,574.4,3209.5,574.4z"/>
	<path class="st16" d="M3838.8,1833.2l-285.1-49.6c0,0-713.5-172.9-991.5-204.1c0,0-673.5-84.7-907-104.8
		c0,0-1294.4-59.4-1483.1-73.6L61.5,865.4L565,614.1c0,0,561.1,96.6,1135.8,207.6c456.9,88.3,922.5,185.7,1121.5,250.9l519.8,172.7
		c56,18.6,299,107.8,361.5,145.7c40.3,24.4,89,20.2,141,96c0,0,102.9,58.4,169,166.8c0,0,55.6-13.9,58,23.9
		C4073.9,1715.5,3973.2,1833.2,3838.8,1833.2z"/>
	<path class="st15" d="M4136.3,268c0,216.6-223.1,309.5-338.2,343c-50.7,14.8-99.3,36.2-144.2,64.1l-142,88.2
		c0,0-10.6-207-238.8-228.2l393.3-329l86.6-72.4c63.3-55.5,167.3-108,247.4-81.8c37.6,12.3,73.8,34.5,99.4,73.3v0
		C4122.1,158.8,4136.3,205,4136.3,268z"/>
	<path class="st17" d="M-119.1,2295.4c0,0,268.4,51.6,280.3-10.5C295,1587,175.7,572.2,175.7,572.2L-173.4,599L-119.1,2295.4z"/>
	<path class="st18" d="M3844.6,1487c-615.9-327.3-2167.1-579.5-2167.1-579.5l23.2-85.8c456.9,88.3,922.5,185.7,1121.5,250.9
		l519.8,172.7c56,18.6,293.7,96.4,359,129.4C3759.6,1404.3,3830.7,1457.7,3844.6,1487z"/>
	<path class="st19" d="M302.6,2129.7V735.1c0-40.8,33.1-73.9,73.9-73.9h930c40.8,0,73.9,33.1,73.9,73.9v1394.6
		c0,40.8-33.1,73.9-73.9,73.9h-930C335.7,2203.6,302.6,2170.5,302.6,2129.7z"/>
	<path class="st20" d="M760.5,2076.2V781.9c0-15.4,12.5-27.9,27.9-27.9h497c15.4,0,27.9,12.5,27.9,27.9v1294.4
		c0,15.4-12.5,27.9-27.9,27.9h-497C773,2104.2,760.5,2091.7,760.5,2076.2z"/>
	<path class="st8" d="M348.4,1666.2v-464.6c0-10.6,8.6-19.2,19.2-19.2h326.9c10.6,0,19.2,8.6,19.2,19.2v464.6
		c0,10.6-8.6,19.2-19.2,19.2H367.6C357,1685.4,348.4,1676.8,348.4,1666.2z"/>
	<g>
		<path class="st0" d="M1234.6,849.2v-55.7c0-7.8,6.3-14.1,14.1-14.1h23.1c7.8,0,14.1,6.3,14.1,14.1v55.7c0,7.8-6.3,14.1-14.1,14.1
			h-23.1C1240.9,863.2,1234.6,856.9,1234.6,849.2z"/>
		<path class="st0" d="M1234.6,943v-55.7c0-7.8,6.3-14.1,14.1-14.1h23.1c7.8,0,14.1,6.3,14.1,14.1V943c0,7.8-6.3,14.1-14.1,14.1
			h-23.1C1240.9,957.1,1234.6,950.8,1234.6,943z"/>
		<path class="st0" d="M1234.6,1036.9v-55.7c0-7.8,6.3-14.1,14.1-14.1h23.1c7.8,0,14.1,6.3,14.1,14.1v55.7c0,7.8-6.3,14.1-14.1,14.1
			h-23.1C1240.9,1050.9,1234.6,1044.6,1234.6,1036.9z"/>
		<path class="st0" d="M1234.6,1130.7v-55.7c0-7.8,6.3-14.1,14.1-14.1h23.1c7.8,0,14.1,6.3,14.1,14.1v55.7c0,7.8-6.3,14.1-14.1,14.1
			h-23.1C1240.9,1144.8,1234.6,1138.5,1234.6,1130.7z"/>
		<path class="st0" d="M1234.6,1224.6v-55.7c0-7.8,6.3-14.1,14.1-14.1h23.1c7.8,0,14.1,6.3,14.1,14.1v55.7c0,7.8-6.3,14.1-14.1,14.1
			h-23.1C1240.9,1238.6,1234.6,1232.4,1234.6,1224.6z"/>
		<path class="st0" d="M1234.6,1318.5v-55.7c0-7.8,6.3-14.1,14.1-14.1h23.1c7.8,0,14.1,6.3,14.1,14.1v55.7c0,7.8-6.3,14.1-14.1,14.1
			h-23.1C1240.9,1332.5,1234.6,1326.2,1234.6,1318.5z"/>
		<path class="st0" d="M1234.6,1412.3v-55.7c0-7.8,6.3-14.1,14.1-14.1h23.1c7.8,0,14.1,6.3,14.1,14.1v55.7c0,7.8-6.3,14.1-14.1,14.1
			h-23.1C1240.9,1426.4,1234.6,1420.1,1234.6,1412.3z"/>
		<path class="st0" d="M1234.6,1506.2v-55.7c0-7.8,6.3-14.1,14.1-14.1h23.1c7.8,0,14.1,6.3,14.1,14.1v55.7c0,7.8-6.3,14.1-14.1,14.1
			h-23.1C1240.9,1520.2,1234.6,1513.9,1234.6,1506.2z"/>
		<path class="st0" d="M1234.6,1600v-55.7c0-7.8,6.3-14.1,14.1-14.1h23.1c7.8,0,14.1,6.3,14.1,14.1v55.7c0,7.8-6.3,14.1-14.1,14.1
			h-23.1C1240.9,1614.1,1234.6,1607.8,1234.6,1600z"/>
		<path class="st0" d="M1234.6,1693.9v-55.7c0-7.8,6.3-14.1,14.1-14.1h23.1c7.8,0,14.1,6.3,14.1,14.1v55.7c0,7.8-6.3,14.1-14.1,14.1
			h-23.1C1240.9,1707.9,1234.6,1701.6,1234.6,1693.9z"/>
		<path class="st0" d="M1234.6,1787.7v-55.7c0-7.8,6.3-14.1,14.1-14.1h23.1c7.8,0,14.1,6.3,14.1,14.1v55.7c0,7.8-6.3,14.1-14.1,14.1
			h-23.1C1240.9,1801.8,1234.6,1795.5,1234.6,1787.7z"/>
		<path class="st0" d="M1234.6,1881.6v-55.7c0-7.8,6.3-14.1,14.1-14.1h23.1c7.8,0,14.1,6.3,14.1,14.1v55.7c0,7.8-6.3,14.1-14.1,14.1
			h-23.1C1240.9,1895.7,1234.6,1889.4,1234.6,1881.6z"/>
		<path class="st0" d="M1234.6,1975.5v-55.7c0-7.8,6.3-14.1,14.1-14.1h23.1c7.8,0,14.1,6.3,14.1,14.1v55.7c0,7.8-6.3,14.1-14.1,14.1
			h-23.1C1240.9,1989.5,1234.6,1983.2,1234.6,1975.5z"/>
		<path class="st0" d="M1234.6,2069.3v-55.7c0-7.8,6.3-14.1,14.1-14.1h23.1c7.8,0,14.1,6.3,14.1,14.1v55.7c0,7.8-6.3,14.1-14.1,14.1
			h-23.1C1240.9,2083.4,1234.6,2077.1,1234.6,2069.3z"/>
		<path class="st0" d="M1151,855.2v-69.7c0-1.7,1.4-3.1,3.1-3.1h69.7c1.7,0,3.1,1.4,3.1,3.1v69.7c0,1.7-1.4,3.1-3.1,3.1h-69.7
			C1152.4,858.4,1151,857,1151,855.2z"/>
		<path class="st0" d="M1063,993v-69.7c0-1.7,1.4-3.1,3.1-3.1h69.7c1.7,0,3.1,1.4,3.1,3.1V993c0,1.7-1.4,3.1-3.1,3.1h-69.7
			C1064.5,996.1,1063,994.7,1063,993z"/>
		<path class="st0" d="M975.1,1013.3v-69.7c0-1.7,1.4-3.1,3.1-3.1h69.7c1.7,0,3.1,1.4,3.1,3.1v69.7c0,1.7-1.4,3.1-3.1,3.1h-69.7
			C976.5,1016.4,975.1,1015,975.1,1013.3z"/>
		<path class="st0" d="M887.2,1060.5v-69.7c0-1.7,1.4-3.1,3.1-3.1H960c1.7,0,3.1,1.4,3.1,3.1v69.7c0,1.7-1.4,3.1-3.1,3.1h-69.7
			C888.6,1063.7,887.2,1062.3,887.2,1060.5z"/>
		<path class="st0" d="M789.6,855v-69.3c0-1.8,1.5-3.3,3.3-3.3h79c1.8,0,3.3,1.5,3.3,3.3V855c0,1.8-1.5,3.3-3.3,3.3h-79
			C791.1,858.4,789.6,856.9,789.6,855z"/>
		<path class="st0" d="M789.6,947.5v-69.3c0-1.8,1.5-3.3,3.3-3.3h79c1.8,0,3.3,1.5,3.3,3.3v69.3c0,1.8-1.5,3.3-3.3,3.3h-79
			C791.1,950.9,789.6,949.4,789.6,947.5z"/>
		<path class="st0" d="M789.6,1037.3V968c0-1.8,1.5-3.3,3.3-3.3h79c1.8,0,3.3,1.5,3.3,3.3v69.3c0,1.8-1.5,3.3-3.3,3.3h-79
			C791.1,1040.6,789.6,1039.1,789.6,1037.3z"/>
		<path class="st0" d="M789.6,1150.3v-91.4c0-2.1,1.7-3.8,3.8-3.8h78c2.1,0,3.8,1.7,3.8,3.8v91.4c0,2.1-1.7,3.8-3.8,3.8h-78
			C791.3,1154.1,789.6,1152.4,789.6,1150.3z"/>
		<path class="st0" d="M789.6,1712.6v-91.4c0-2.1,1.7-3.8,3.8-3.8h78c2.1,0,3.8,1.7,3.8,3.8v91.4c0,2.1-1.7,3.8-3.8,3.8h-78
			C791.3,1716.5,789.6,1714.7,789.6,1712.6z"/>
		<path class="st0" d="M789.6,1805.2v-68.3c0-1.8,1.5-3.3,3.3-3.3h79c1.8,0,3.3,1.5,3.3,3.3v68.3c0,1.8-1.5,3.3-3.3,3.3h-79
			C791,1808.5,789.6,1807,789.6,1805.2z"/>
		<path class="st0" d="M789.6,1598.4v-421.8c0-4.4,3.6-8,8-8h69.6c4.4,0,8,3.6,8,8v421.8c0,4.4-3.6,8-8,8h-69.6
			C793.1,1606.4,789.6,1602.9,789.6,1598.4z"/>
		<path class="st0" d="M887.2,1151v-69.7c0-1.7,1.4-3.1,3.1-3.1H960c1.7,0,3.1,1.4,3.1,3.1v69.7c0,1.7-1.4,3.1-3.1,3.1h-69.7
			C888.6,1154.1,887.2,1152.7,887.2,1151z"/>
		<path class="st0" d="M887.2,1241.5v-69.7c0-1.7,1.4-3.1,3.1-3.1H960c1.7,0,3.1,1.4,3.1,3.1v69.7c0,1.7-1.4,3.1-3.1,3.1h-69.7
			C888.6,1244.6,887.2,1243.2,887.2,1241.5z"/>
		<path class="st0" d="M887.2,1331.9v-69.7c0-1.7,1.4-3.1,3.1-3.1H960c1.7,0,3.1,1.4,3.1,3.1v69.7c0,1.7-1.4,3.1-3.1,3.1h-69.7
			C888.6,1335.1,887.2,1333.7,887.2,1331.9z"/>
		<path class="st0" d="M887.2,1422.4v-69.7c0-1.7,1.4-3.1,3.1-3.1H960c1.7,0,3.1,1.4,3.1,3.1v69.7c0,1.7-1.4,3.1-3.1,3.1h-69.7
			C888.6,1425.5,887.2,1424.1,887.2,1422.4z"/>
		<path class="st0" d="M887.2,1512.8v-69.7c0-1.7,1.4-3.1,3.1-3.1H960c1.7,0,3.1,1.4,3.1,3.1v69.7c0,1.7-1.4,3.1-3.1,3.1h-69.7
			C888.6,1516,887.2,1514.6,887.2,1512.8z"/>
		<path class="st0" d="M887.2,1603.3v-69.7c0-1.7,1.4-3.1,3.1-3.1H960c1.7,0,3.1,1.4,3.1,3.1v69.7c0,1.7-1.4,3.1-3.1,3.1h-69.7
			C888.6,1606.4,887.2,1605,887.2,1603.3z"/>
		<path class="st0" d="M887.2,1693.8v-69.7c0-1.7,1.4-3.1,3.1-3.1H960c1.7,0,3.1,1.4,3.1,3.1v69.7c0,1.7-1.4,3.1-3.1,3.1h-69.7
			C888.6,1696.9,887.2,1695.5,887.2,1693.8z"/>
		<path class="st0" d="M887.2,1784.2v-69.7c0-1.7,1.4-3.1,3.1-3.1H960c1.7,0,3.1,1.4,3.1,3.1v69.7c0,1.7-1.4,3.1-3.1,3.1h-69.7
			C888.6,1787.4,887.2,1786,887.2,1784.2z"/>
		<path class="st0" d="M788.3,1886.9v-53c0-6.7,5.5-12.2,12.2-12.2h19.7c6.7,0,12.2,5.5,12.2,12.2v53c0,6.7-5.5,12.2-12.2,12.2
			h-19.7C793.7,1899,788.3,1893.6,788.3,1886.9z"/>
		<path class="st0" d="M788.3,1977.6v-53c0-6.7,5.5-12.2,12.2-12.2h19.7c6.7,0,12.2,5.5,12.2,12.2v53c0,6.7-5.5,12.2-12.2,12.2
			h-19.7C793.7,1989.8,788.3,1984.3,788.3,1977.6z"/>
		<path class="st0" d="M837.7,1977.6v-53c0-6.7,5.5-12.2,12.2-12.2h19.7c6.7,0,12.2,5.5,12.2,12.2v53c0,6.7-5.5,12.2-12.2,12.2
			h-19.7C843.2,1989.8,837.7,1984.3,837.7,1977.6z"/>
		<path class="st0" d="M788.3,2068.3v-53c0-6.7,5.5-12.2,12.2-12.2h19.7c6.7,0,12.2,5.5,12.2,12.2v53c0,6.7-5.5,12.2-12.2,12.2
			h-19.7C793.7,2080.5,788.3,2075.1,788.3,2068.3z"/>
		<path class="st0" d="M975.1,1104.6v-69.7c0-1.7,1.4-3.1,3.1-3.1h69.7c1.7,0,3.1,1.4,3.1,3.1v69.7c0,1.7-1.4,3.1-3.1,3.1h-69.7
			C976.5,1107.7,975.1,1106.3,975.1,1104.6z"/>
		<path class="st0" d="M975.1,1195.9v-69.7c0-1.7,1.4-3.1,3.1-3.1h69.7c1.7,0,3.1,1.4,3.1,3.1v69.7c0,1.7-1.4,3.1-3.1,3.1h-69.7
			C976.5,1199,975.1,1197.6,975.1,1195.9z"/>
		<path class="st0" d="M975.1,1287.2v-69.7c0-1.7,1.4-3.1,3.1-3.1h69.7c1.7,0,3.1,1.4,3.1,3.1v69.7c0,1.7-1.4,3.1-3.1,3.1h-69.7
			C976.5,1290.3,975.1,1288.9,975.1,1287.2z"/>
		<path class="st0" d="M975.1,1377.9v-69.7c0-1.7,1.4-3.1,3.1-3.1h69.7c1.7,0,3.1,1.4,3.1,3.1v69.7c0,1.7-1.4,3.1-3.1,3.1h-69.7
			C976.5,1381,975.1,1379.6,975.1,1377.9z"/>
		<path class="st0" d="M975.1,1469.2v-69.7c0-1.7,1.4-3.1,3.1-3.1h69.7c1.7,0,3.1,1.4,3.1,3.1v69.7c0,1.7-1.4,3.1-3.1,3.1h-69.7
			C976.5,1472.3,975.1,1470.9,975.1,1469.2z"/>
		<path class="st0" d="M975.1,1556.6v-69.7c0-1.7,1.4-3.1,3.1-3.1h69.7c1.7,0,3.1,1.4,3.1,3.1v69.7c0,1.7-1.4,3.1-3.1,3.1h-69.7
			C976.5,1559.7,975.1,1558.3,975.1,1556.6z"/>
		<path class="st0" d="M975.1,1647v-69.7c0-1.7,1.4-3.1,3.1-3.1h69.7c1.7,0,3.1,1.4,3.1,3.1v69.7c0,1.7-1.4,3.1-3.1,3.1h-69.7
			C976.5,1650.2,975.1,1648.8,975.1,1647z"/>
		<path class="st0" d="M975.1,1737.5v-69.7c0-1.7,1.4-3.1,3.1-3.1h69.7c1.7,0,3.1,1.4,3.1,3.1v69.7c0,1.7-1.4,3.1-3.1,3.1h-69.7
			C976.5,1740.6,975.1,1739.2,975.1,1737.5z"/>
		<path class="st0" d="M975.1,1827.4v-69.7c0-1.7,1.4-3.1,3.1-3.1h69.7c1.7,0,3.1,1.4,3.1,3.1v69.7c0,1.7-1.4,3.1-3.1,3.1h-69.7
			C976.5,1830.6,975.1,1829.1,975.1,1827.4z"/>
		<path class="st0" d="M975.1,1917.3v-69.7c0-1.7,1.4-3.1,3.1-3.1h69.7c1.7,0,3.1,1.4,3.1,3.1v69.7c0,1.7-1.4,3.1-3.1,3.1h-69.7
			C976.5,1920.5,975.1,1919,975.1,1917.3z"/>
		<path class="st0" d="M887.2,1873.8v-69.7c0-1.7,1.4-3.1,3.1-3.1H960c1.7,0,3.1,1.4,3.1,3.1v69.7c0,1.7-1.4,3.1-3.1,3.1h-69.7
			C888.6,1876.9,887.2,1875.5,887.2,1873.8z"/>
		<path class="st0" d="M975.1,2076.6v-134.5c0-2.4,1.9-4.3,4.3-4.3h67.3c2.4,0,4.3,1.9,4.3,4.3v134.5c0,2.4-1.9,4.3-4.3,4.3h-67.3
			C977,2080.9,975.1,2079,975.1,2076.6z"/>
		<path class="st0" d="M887.2,2075.9v-180.4c0-2.7,2.2-5,5-5h66c2.7,0,5,2.2,5,5v180.4c0,2.7-2.2,5-5,5h-66
			C889.4,2080.9,887.2,2078.7,887.2,2075.9z"/>
		<path class="st0" d="M975.1,922.7v-136c0-2.4,1.9-4.3,4.3-4.3h67.3c2.4,0,4.3,1.9,4.3,4.3v136c0,2.4-1.9,4.3-4.3,4.3h-67.3
			C977,927.1,975.1,925.1,975.1,922.7z"/>
		<path class="st0" d="M887.2,969v-183c0-2.8,2.2-5,5-5h65.9c2.8,0,5,2.2,5,5v183c0,2.8-2.2,5-5,5h-65.9
			C889.4,974,887.2,971.7,887.2,969z"/>
		<path class="st0" d="M1063,1083.8v-69.7c0-1.7,1.4-3.1,3.1-3.1h69.7c1.7,0,3.1,1.4,3.1,3.1v69.7c0,1.7-1.4,3.1-3.1,3.1h-69.7
			C1064.5,1086.9,1063,1085.5,1063,1083.8z"/>
		<path class="st0" d="M1063,1174.1v-69.7c0-1.7,1.4-3.1,3.1-3.1h69.7c1.7,0,3.1,1.4,3.1,3.1v69.7c0,1.7-1.4,3.1-3.1,3.1h-69.7
			C1064.5,1177.2,1063,1175.8,1063,1174.1z"/>
		<path class="st0" d="M1063,1264.9v-69.7c0-1.7,1.4-3.1,3.1-3.1h69.7c1.7,0,3.1,1.4,3.1,3.1v69.7c0,1.7-1.4,3.1-3.1,3.1h-69.7
			C1064.5,1268.1,1063,1266.6,1063,1264.9z"/>
		<path class="st0" d="M1063,1355.7v-69.7c0-1.7,1.4-3.1,3.1-3.1h69.7c1.7,0,3.1,1.4,3.1,3.1v69.7c0,1.7-1.4,3.1-3.1,3.1h-69.7
			C1064.5,1358.9,1063,1357.5,1063,1355.7z"/>
		<path class="st0" d="M1063,1446v-69.7c0-1.7,1.4-3.1,3.1-3.1h69.7c1.7,0,3.1,1.4,3.1,3.1v69.7c0,1.7-1.4,3.1-3.1,3.1h-69.7
			C1064.5,1449.2,1063,1447.8,1063,1446z"/>
		<path class="st0" d="M1063,1534.2v-69.7c0-1.7,1.4-3.1,3.1-3.1h69.7c1.7,0,3.1,1.4,3.1,3.1v69.7c0,1.7-1.4,3.1-3.1,3.1h-69.7
			C1064.5,1537.4,1063,1536,1063,1534.2z"/>
		<path class="st0" d="M1063,1625.8v-69.7c0-1.7,1.4-3.1,3.1-3.1h69.7c1.7,0,3.1,1.4,3.1,3.1v69.7c0,1.7-1.4,3.1-3.1,3.1h-69.7
			C1064.5,1629,1063,1627.6,1063,1625.8z"/>
		<path class="st0" d="M1063,1716.3v-69.7c0-1.7,1.4-3.1,3.1-3.1h69.7c1.7,0,3.1,1.4,3.1,3.1v69.7c0,1.7-1.4,3.1-3.1,3.1h-69.7
			C1064.5,1719.4,1063,1718,1063,1716.3z"/>
		<path class="st0" d="M1063,1805.3v-69.7c0-1.7,1.4-3.1,3.1-3.1h69.7c1.7,0,3.1,1.4,3.1,3.1v69.7c0,1.7-1.4,3.1-3.1,3.1h-69.7
			C1064.5,1808.4,1063,1807,1063,1805.3z"/>
		<path class="st0" d="M1063,1898v-69.7c0-1.7,1.4-3.1,3.1-3.1h69.7c1.7,0,3.1,1.4,3.1,3.1v69.7c0,1.7-1.4,3.1-3.1,3.1h-69.7
			C1064.5,1901.1,1063,1899.7,1063,1898z"/>
		<path class="st0" d="M1063,1986.6v-69.7c0-1.7,1.4-3.1,3.1-3.1h69.7c1.7,0,3.1,1.4,3.1,3.1v69.7c0,1.7-1.4,3.1-3.1,3.1h-69.7
			C1064.5,1989.7,1063,1988.3,1063,1986.6z"/>
		<path class="st0" d="M1063,2077.8v-69.7c0-1.7,1.4-3.1,3.1-3.1h69.7c1.7,0,3.1,1.4,3.1,3.1v69.7c0,1.7-1.4,3.1-3.1,3.1h-69.7
			C1064.5,2080.9,1063,2079.5,1063,2077.8z"/>
		<path class="st0" d="M1151,947.4v-69.7c0-1.7,1.4-3.1,3.1-3.1h69.7c1.7,0,3.1,1.4,3.1,3.1v69.7c0,1.7-1.4,3.1-3.1,3.1h-69.7
			C1152.4,950.5,1151,949.1,1151,947.4z"/>
		<path class="st0" d="M1151,1036.7v-69.7c0-1.7,1.4-3.1,3.1-3.1h69.7c1.7,0,3.1,1.4,3.1,3.1v69.7c0,1.7-1.4,3.1-3.1,3.1h-69.7
			C1152.4,1039.9,1151,1038.4,1151,1036.7z"/>
		<path class="st0" d="M1151,1128.3v-69.7c0-1.7,1.4-3.1,3.1-3.1h69.7c1.7,0,3.1,1.4,3.1,3.1v69.7c0,1.7-1.4,3.1-3.1,3.1h-69.7
			C1152.4,1131.4,1151,1130,1151,1128.3z"/>
		<path class="st0" d="M1151,1217.6v-69.7c0-1.7,1.4-3.1,3.1-3.1h69.7c1.7,0,3.1,1.4,3.1,3.1v69.7c0,1.7-1.4,3.1-3.1,3.1h-69.7
			C1152.4,1220.7,1151,1219.3,1151,1217.6z"/>
		<path class="st0" d="M1151,1309.7V1240c0-1.7,1.4-3.1,3.1-3.1h69.7c1.7,0,3.1,1.4,3.1,3.1v69.7c0,1.7-1.4,3.1-3.1,3.1h-69.7
			C1152.4,1312.8,1151,1311.4,1151,1309.7z"/>
		<path class="st0" d="M1151,1398.2v-69.7c0-1.7,1.4-3.1,3.1-3.1h69.7c1.7,0,3.1,1.4,3.1,3.1v69.7c0,1.7-1.4,3.1-3.1,3.1h-69.7
			C1152.4,1401.3,1151,1399.9,1151,1398.2z"/>
		<path class="st0" d="M1151,1490.1v-69.7c0-1.7,1.4-3.1,3.1-3.1h69.7c1.7,0,3.1,1.4,3.1,3.1v69.7c0,1.7-1.4,3.1-3.1,3.1h-69.7
			C1152.4,1493.3,1151,1491.9,1151,1490.1z"/>
		<path class="st0" d="M1151,1579.5v-69.7c0-1.7,1.4-3.1,3.1-3.1h69.7c1.7,0,3.1,1.4,3.1,3.1v69.7c0,1.7-1.4,3.1-3.1,3.1h-69.7
			C1152.4,1582.6,1151,1581.2,1151,1579.5z"/>
		<path class="st0" d="M1151,1671.2v-69.7c0-1.7,1.4-3.1,3.1-3.1h69.7c1.7,0,3.1,1.4,3.1,3.1v69.7c0,1.7-1.4,3.1-3.1,3.1h-69.7
			C1152.4,1674.4,1151,1673,1151,1671.2z"/>
		<path class="st0" d="M1151,1762.8v-69.7c0-1.7,1.4-3.1,3.1-3.1h69.7c1.7,0,3.1,1.4,3.1,3.1v69.7c0,1.7-1.4,3.1-3.1,3.1h-69.7
			C1152.4,1766,1151,1764.6,1151,1762.8z"/>
		<path class="st0" d="M1151,1853.5v-69.7c0-1.7,1.4-3.1,3.1-3.1h69.7c1.7,0,3.1,1.4,3.1,3.1v69.7c0,1.7-1.4,3.1-3.1,3.1h-69.7
			C1152.4,1856.6,1151,1855.2,1151,1853.5z"/>
		<path class="st0" d="M1151,1940.6v-69.7c0-1.7,1.4-3.1,3.1-3.1h69.7c1.7,0,3.1,1.4,3.1,3.1v69.7c0,1.7-1.4,3.1-3.1,3.1h-69.7
			C1152.4,1943.7,1151,1942.3,1151,1940.6z"/>
		<path class="st0" d="M1151,2071.2V1967c0-4.8,3.9-8.7,8.7-8.7h58.5c4.8,0,8.7,3.9,8.7,8.7v104.2c0,4.8-3.9,8.7-8.7,8.7h-58.5
			C1154.9,2079.9,1151,2076,1151,2071.2z"/>
		<path class="st0" d="M1063,895.3V791.2c0-4.8,3.9-8.7,8.7-8.7h58.5c4.8,0,8.7,3.9,8.7,8.7v104.2c0,4.8-3.9,8.7-8.7,8.7h-58.5
			C1067,904.1,1063,900.2,1063,895.3z"/>
	</g>
	<path class="st21" d="M1357.9,2033.2V827.1c0-4.1,3.3-7.5,7.5-7.5h17.5c4.1,0,7.5,3.3,7.5,7.5v1206.1c0,4.1-3.3,7.5-7.5,7.5h-17.5
		C1361.2,2040.7,1357.9,2037.3,1357.9,2033.2z"/>
	<path class="st19" d="M1390.3,2160.8V699.5c0-13.4,8.3-26,20.3-30.6l595.2-229.6c6.1-2.4,12,1.5,12,7.9v1962.8
		c0,7.3-6.8,11.8-13.9,9.1l-592.2-225.9C1399.2,2188.2,1390.3,2175,1390.3,2160.8z"/>
	<path class="st21" d="M2018.6,2423l-0.8-1985.5c0,0,13.6,10.6,19.8,17.4c6.2,6.8,15.8,24,15.8,24v1897.9c0,0-12.2,19.3-15.8,23.9
		C2034,2405.1,2018.6,2423,2018.6,2423z"/>
	<polygon class="st22" points="1455,2158 1455,707.4 1983,517.6 1983,2346.7 	"/>
	<path class="st8" d="M1357.9,2033.2V827c0-4.1,3.3-7.4,7.4-7.4h4.6v1221.1h-4.6C1361.2,2040.7,1357.9,2037.3,1357.9,2033.2z"/>
	<path class="st13" d="M-666.4,2529.5V272.7l241.9,36l315.1,125.5c0,3.7,62.8,105.4,118.4,292.8c50.7,171.1,95.3,413.6,80.5,718.2
		c0,0,20.7,316.8-160.1,894.5L-666.4,2529.5z"/>
	<path class="st23" d="M211.5,2030.9l19.8-5.1c0,0-1.7-55.3,21.5-78.2c0,0,187.5-195.1,221.2-224.6c0,0,64.5-14.8,55.6,52.5
		c0,0,2.9,12.2-11.2,29.6l-70.2,78.2l319.6-94.6c10.3-3.1,21.3-3.5,31.7-0.8c13.7,3.4,29.3,12.6,35.2,35.5c0,0,3.6,12.4-5,28.2
		c-7.4,13.6-20.3,18.1-35.1,22.5l-250,85.3l285.3-78.9c15.8-4.6,45.1-10.4,58.8-1.2c11.7,7.9,21.5,25.5,21.5,43.9
		c0,0-2.4,32-40.8,47l-273,85.1l225.7-56.9c18.2-5,61.9-14.6,75.1,3.6c3.5,4.9,5.6,12.1,6.9,19.1c0,0,11.3,24-21.4,45.2
		c-5.7,3.7-22.8,10.1-29.2,12l-245.3,80.5l168.2-43.6c17.5-5.1,38.5-5.1,49.6,9.4c3.7,4.8,6.5,10.5,7.4,17.2c0,0,8.9,36.6-36.6,51.3
		l-300.1,78.7l-68.7,14.2c-18.3,3.8-37,4.9-55.5,3.1c-13-1.3-27.2-4.1-40.4-9.8c0,0-26.5-10.3-28.9-17.2l-25.5,8.1L211.5,2030.9z"/>
	<path class="st24" d="M213,2041.1l19.8-5.1c0,0-1.7-55.3,21.5-78.2c0,0,187.5-195.1,221.2-224.6c0,0,64.5-14.8,55.6,52.5
		c0,0,2.9,12.2-11.2,29.6l-70.2,78.2l319.6-94.6c10.3-3.1,21.3-3.5,31.7-0.8c13.7,3.4,29.3,12.6,35.2,35.5c0,0,3.6,12.4-5,28.2
		c-7.4,13.6-20.3,18.1-35.1,22.5l-250,85.3l285.3-78.9c15.8-4.6,45.1-10.4,58.8-1.2c11.7,7.9,21.5,25.5,21.5,43.9
		c0,0-2.4,32-40.8,47l-273,85.1l225.7-56.9c18.2-5,61.9-14.6,75.1,3.6c3.5,4.9,5.6,12.1,6.9,19.1c0,0,11.3,24-21.4,45.2
		c-5.7,3.7-22.8,10.1-29.2,12L609.6,2169l168.2-43.6c17.5-5.1,38.5-5.1,49.6,9.4c3.7,4.8,6.5,10.5,7.4,17.2c0,0,8.9,36.6-36.6,51.3
		l-300.1,78.7l-68.7,14.2c-18.3,3.8-37,4.9-55.5,3.1c-13-1.3-27.2-4.1-40.4-9.8c0,0-26.5-10.3-28.9-17.2l-25.5,8.1L213,2041.1z"/>
	
		<rect x="228.2" y="1999.6" transform="matrix(0.9564 -0.2919 0.2919 0.9564 -619.6655 165.8112)" class="st0" width="35.1" height="319.3"/>
	<path class="st13" d="M282.2,2317.8l-43.4,10.9c0,0-367.4,103.7-674.1,180.4c-99.6,24.9-184.5,44.5-231.2,53.3l0.1-406.9
		c153.1-6.7,644.7-110.3,644.7-110.3l203.8-51.9l22,70.4L282.2,2317.8z"/>
	<path class="st0" d="M155.1,2311.6c4.8,5.8,4.1,14.4-1.7,19.2c-5.8,4.8-14.4,4.1-19.2-1.7c-4.8-5.8-4.1-14.4,1.7-19.2
		S150.2,2305.8,155.1,2311.6z"/>
	<path class="st0" d="M112.6,2324.1c4.8,5.8,4.1,14.4-1.7,19.2c-5.8,4.8-14.4,4.1-19.2-1.7c-4.8-5.8-4.1-14.4,1.7-19.2
		C99.2,2317.5,107.8,2318.3,112.6,2324.1z"/>
	
		<ellipse transform="matrix(0.8434 -0.5372 0.5372 0.8434 -1250.2863 398.7831)" class="st0" cx="59" cy="2344.5" rx="13.6" ry="13.6"/>
	<path class="st25" d="M749.2,1826.4l15.1,51.2c1.3,4.4,5.9,6.8,10.3,5.5l27.8-8.9c0,0,21.7-8.4,16.9-37.4c0,0-4.9-24.2-28.7-28.7
		c0,0-9.7-1.1-26.9,5.6l-9,2.6C750.5,1817.5,748,1822.1,749.2,1826.4z"/>
	<path class="st25" d="M824.7,1916.7l14.5,49c1.2,4.2,5.7,6.5,9.8,5.2l26.7-8.5c0,0,20.7-8,16.2-35.8c0,0-4.7-23.2-27.5-27.4
		c0,0-9.2-1-25.7,5.3l-8.6,2.5C825.8,1908.2,823.5,1912.6,824.7,1916.7z"/>
	<path class="st25" d="M833.6,2026.6l10.6,42.7c0.9,3.6,4.6,5.8,8.3,4.9l23.3-6.3c0,0,18.2-6.1,15.3-30.2c0,0-3.1-20.1-22.6-24.7
		c0,0-7.9-1.3-22.4,3.6l-7.5,1.8C835,2019.3,832.8,2023,833.6,2026.6z"/>
	<path class="st25" d="M764.3,2148.2l10.3,41.8c0.9,3.6,4.5,5.7,8.1,4.8l22.7-6.1c0,0,17.8-5.9,15-29.5c0,0-3.1-19.7-22.1-24.1
		c0,0-7.7-1.2-21.9,3.5l-7.3,1.8C765.6,2141.1,763.4,2144.7,764.3,2148.2z"/>
	<path class="st25" d="M456.2,1770.2l24.2,21.8c2.1,1.9,5.6,1.1,7.8-1.6l14.2-17.6c0,0,10.6-14.6-0.8-28.7c0,0-10.1-11.3-25.8-3
		c0,0-6.1,3.8-14.6,15.4l-4.7,5.6C454.3,1764.7,454.2,1768.4,456.2,1770.2z"/>
	<path class="st23" d="M363.8,804l18.7,4.9c0,0-1.6,52.4,20.4,74.1c0,0,177.6,184.8,209.5,212.7c0,0,61.1,14,52.7-49.7
		c0,0,2.8-11.5-10.6-28.1L588,943.8l302.7,89.6c9.8,2.9,20.2,3.3,30.1,0.8c13-3.3,27.7-11.9,33.3-33.6c0,0,3.4-11.8-4.8-26.7
		c-7-12.9-19.2-17.1-33.3-21.4l-236.8-80.8l270.2,74.8c15,4.4,42.7,9.9,55.7,1.2c11.1-7.4,20.4-24.2,20.3-41.6
		c0,0-2.3-30.3-38.6-44.5l-258.5-80.6l213.8,53.9c17.2,4.7,58.6,13.9,71.2-3.4c3.4-4.6,5.3-11.5,6.6-18.1c0,0,10.7-22.8-20.3-42.8
		c-5.4-3.5-21.5-9.5-27.7-11.4l-232.4-76.2l159.3,41.3c16.6,4.8,36.5,4.8,47-8.9c3.5-4.5,6.1-9.9,7-16.3c0,0,8.5-34.7-34.6-48.6
		l-284.2-74.5l-65.1-13.4c-17.3-3.6-35-4.7-52.6-2.9c-12.3,1.2-25.8,3.9-38.2,9.3c0,0-25.1,9.7-27.4,16.3l-24.1-7.6L363.8,804z"/>
	<path class="st24" d="M372.1,799.3l18.7,4.9c0,0-1.6,52.4,20.4,74.1c0,0,177.6,184.8,209.5,212.7c0,0,61.1,14,52.7-49.7
		c0,0,2.8-11.5-10.6-28.1l-66.5-74.1l302.7,89.6c9.8,2.9,20.2,3.3,30.1,0.8c13-3.3,27.7-11.9,33.3-33.6c0,0,3.4-11.8-4.8-26.7
		c-7-12.9-19.2-17.1-33.3-21.4L687.6,867l270.2,74.8c15,4.4,42.7,9.9,55.7,1.2c11.1-7.4,20.4-24.2,20.3-41.6c0,0-2.3-30.3-38.6-44.5
		l-258.5-80.6l213.8,53.9c17.2,4.7,58.6,13.9,71.2-3.4c3.4-4.6,5.3-11.5,6.6-18.1c0,0,10.7-22.8-20.3-42.8
		c-5.4-3.5-21.5-9.5-27.7-11.4l-232.4-76.2l159.3,41.3c16.6,4.8,36.5,4.8,47-8.9c3.5-4.5,6.1-9.9,7-16.3c0,0,8.5-34.7-34.6-48.6
		l-284.2-74.5l-65.1-13.4c-17.3-3.6-35-4.7-52.6-2.9c-12.3,1.2-25.8,3.9-38.2,9.3c0,0-25.1,9.7-27.4,16.3l-24.1-7.6L372.1,799.3z"/>
	
		<rect x="377.3" y="530.9" transform="matrix(0.9631 0.2692 -0.2692 0.9631 200.4839 -80.8104)" class="st0" width="35.1" height="319.3"/>
	<path class="st13" d="M332.3,842.9l-71.6-18.2L15.9,762.6V762c-12.3-2.8-24.8-5.6-37.6-8.5c-219.5-49.1-491.6-103.6-644.7-110.3
		l-0.1-423.7c46.7,8.9,134.1,27.1,233.4,53.2C-248.7,321-19.9,399.3,153.9,449l278,70.5L332.3,842.9z"/>
	<path class="st0" d="M320,562.3c4.8-5.8,4.1-14.4-1.7-19.2c-5.8-4.8-14.4-4.1-19.2,1.7c-4.8,5.8-4.1,14.4,1.7,19.2
		C306.6,568.8,315.2,568,320,562.3z"/>
	<path class="st0" d="M277.6,549.8c4.8-5.8,4.1-14.4-1.7-19.2c-5.8-4.8-14.4-4.1-19.2,1.7c-4.8,5.8-4.1,14.4,1.7,19.2
		C264.2,556.3,272.8,555.5,277.6,549.8z"/>
	<path class="st0" d="M234.5,538.1c4.8-5.8,4.1-14.4-1.7-19.2c-5.8-4.8-14.4-4.1-19.2,1.7c-4.8,5.8-4.1,14.4,1.7,19.2
		C221,544.7,229.6,543.9,234.5,538.1z"/>
	<path class="st25" d="M880,1002.6l14.3-48.5c1.2-4.1,5.6-6.5,9.7-5.2l26.4,8.4c0,0,20.5,7.9,16,35.5c0,0-4.7,22.9-27.2,27.2
		c0,0-9.1,1-25.5-5.3l-8.5-2.5C881.2,1011,878.8,1006.7,880,1002.6z"/>
	<path class="st25" d="M951.5,917.1l13.7-46.4c1.2-4,5.4-6.2,9.3-4.9l25.2,8c0,0,19.6,7.6,15.3,33.9c0,0-4.5,21.9-26,26
		c0,0-8.8,1-24.4-5l-8.2-2.4C952.6,925.1,950.3,921,951.5,917.1z"/>
	<path class="st25" d="M960,813l10-40.5c0.9-3.5,4.4-5.5,7.8-4.6l22,5.9c0,0,17.2,5.7,14.5,28.6c0,0-3,19-21.4,23.4
		c0,0-7.5,1.2-21.2-3.4l-7.1-1.7C961.2,819.9,959.1,816.5,960,813z"/>
	<path class="st25" d="M894.3,697.8l9.8-39.6c0.8-3.4,4.3-5.4,7.6-4.5l21.5,5.8c0,0,16.8,5.6,14.2,28c0,0-2.9,18.6-20.9,22.9
		c0,0-7.3,1.2-20.7-3.3l-6.9-1.7C895.5,704.5,893.5,701.2,894.3,697.8z"/>
	<path class="st25" d="M602.5,1055.9l22.9-20.6c2-1.8,5.3-1.1,7.4,1.5l13.5,16.7c0,0,10.1,13.8-0.8,27.1c0,0-9.5,10.7-24.4,2.8
		c0,0-5.8-3.6-13.8-14.6l-4.4-5.3C600.7,1061.1,600.5,1057.6,602.5,1055.9z"/>
	<path class="st12" d="M332.3,842.9c-14.8-5.2-39.5-11.3-71.6-18.2L15.9,762.6V762c-12.3-2.8-24.8-5.6-37.6-8.5
		c-219.5-49.1-491.6-103.6-644.7-110.3v-139L68.5,685.8c0,0,72,20.4,164.1,34.4c91.7,13.9,157.2-64.1,157.2-64.1L332.3,842.9z"/>
	<path class="st12" d="M227.7,2139c0,0-41-29.2-99.5-36.3s-128,8.7-128,8.7L-666.4,2267v-111.5c153.1-6.7,644.7-110.3,644.7-110.3
		l203.8-51.9L227.7,2139z"/>
	<path class="st26" d="M3209.5,574.4l52.9-51.6c21.2-20.7,53.1-25.7,79.6-12.4c55.3,27.8,146.3,84.9,192.6,176.9
		c16.4,32.6,6,72.4-24.3,92.8l-51.9,35C3458.3,815.1,3419.9,666.3,3209.5,574.4z"/>
	<path class="st15" d="M4789.3,1567.9c-1.8,26.6-9.6,51.3-20.7,73.6c-0.3,0.7-0.6,1.3-1,2c-38.1,75.1-148.8,111.5-232.8,117
		l-34.8,3.1l-8.9,0.8l-579.5,51.6c146.3-176.4,7.5-330.2,7.5-330.2l162.8-38.1c51.5-12,100.9-31.2,147.3-56.6
		c105-57.7,328.5-149.8,481.6,3.4c3.7,3.7,7.2,7.4,10.6,11c29.2,31.5,47.6,62.1,57.8,91.2C4788,1521.6,4790.8,1545.5,4789.3,1567.9z
		"/>
	<path class="st26" d="M3838.8,1833.2l73.9-0.9c29.6-0.4,55.7-19.4,65-47.5c19.5-58.7,43.4-163.4,11.1-261.2
		c-11.5-34.7-47-55.4-82.8-48.5l-62.4,10.1C3843.7,1485.2,3919.8,1617.2,3838.8,1833.2z"/>
	<path class="st26" d="M3861.9,476.8c0,0-33.8-46.9-74.2-91.3c-28.1-30.9-83.8-82.5-83.8-82.5c-5.3-5.8-6.3-13.6-2.2-17.2l3.7-3.4
		c4.1-3.7,11-1.2,16.9,3.8c0,0,36.8,31.1,83.7,82.6c50.2,55.2,74.3,91.2,74.3,91.2c5.3,8.1,6.3,13.6,2.2,17.2l-3.7,3.4
		C3874.7,484.4,3867.1,482.6,3861.9,476.8z"/>
	<path class="st26" d="M3909.1,435.3c0,0-33.8-46.9-74.2-91.3c-28.1-30.9-83.8-82.5-83.8-82.5c-5.3-5.8-6.3-13.6-2.2-17.2l3.7-3.4
		c4.1-3.7,11-1.2,16.9,3.8c0,0,36.8,31.1,83.7,82.6c50.2,55.2,74.3,91.2,74.3,91.2c5.3,8.1,6.3,13.6,2.2,17.2l-3.7,3.4
		C3922,442.9,3914.4,441.1,3909.1,435.3z"/>
	<path class="st26" d="M3958,395.9c0,0-33.8-46.9-74.2-91.3c-28.1-30.9-83.8-82.5-83.8-82.5c-5.3-5.8-6.3-13.6-2.2-17.2l3.7-3.4
		c4.1-3.7,11-1.2,16.9,3.8c0,0,36.8,31.1,83.7,82.6c50.2,55.2,74.3,91.2,74.3,91.2c5.3,8.1,6.3,13.6,2.2,17.2l-3.7,3.4
		C3970.9,403.4,3963.3,401.7,3958,395.9z"/>
	<path class="st26" d="M4416.9,1686.4c0,0-0.3-57.8-7.4-117.4c-4.9-41.5-20.3-115.8-20.3-115.8c-0.9-7.8,2.8-14.7,8.2-15.3l4.9-0.6
		c5.4-0.6,9.6,5.4,11.6,13c0,0,12,46.7,20.2,115.9c8.8,74.1,7.5,117.4,7.5,117.4c-0.4,9.7-2.8,14.7-8.2,15.3l-4.9,0.6
		C4423,1700,4417.8,1694.2,4416.9,1686.4z"/>
	<path class="st26" d="M4479.4,1680c0,0-0.3-57.8-7.4-117.4c-4.9-41.5-20.3-115.8-20.3-115.8c-0.9-7.8,2.8-14.7,8.2-15.3l4.9-0.6
		c5.4-0.6,9.6,5.4,11.6,13c0,0,12,46.7,20.2,115.9c8.8,74.1,7.5,117.4,7.5,117.4c-0.4,9.7-2.8,14.7-8.2,15.3l-4.9,0.6
		C4485.6,1693.6,4480.3,1687.8,4479.4,1680z"/>
	<path class="st26" d="M4542.1,1676.3c0,0-0.3-57.8-7.4-117.4c-4.9-41.5-20.3-115.8-20.3-115.8c-0.9-7.8,2.8-14.7,8.2-15.3l4.9-0.6
		c5.4-0.6,9.6,5.4,11.6,13c0,0,12,46.7,20.2,115.9c8.8,74.1,7.5,117.4,7.5,117.4c-0.4,9.7-2.8,14.7-8.2,15.3l-4.9,0.6
		C4548.3,1689.9,4543.1,1684.1,4542.1,1676.3z"/>
	<path class="st27" d="M4099.8,125.1L4099.8,125.1c-137.2-64.8-433.4,81-433.4,81l86.6-72.4c63.3-55.5,167.3-108,247.4-81.8
		C4038,64.1,4074.3,86.3,4099.8,125.1z"/>
	<path class="st27" d="M4491.1,1764.4l8.9-0.8C4497.1,1763.9,4494.1,1764.2,4491.1,1764.4z"/>
	<path class="st27" d="M4789.3,1567.9c-2.5,33.8-13.4,58.4-20.7,73.6c-0.3,0.7-0.6,1.3-1,2c-38.1,75.1-148.8,111.5-232.8,117
		l-34.8,3.1c189.9-21.8,218.5-351.1,221.4-358c29.2,31.5,47.6,62.1,57.8,91.2C4788,1521.6,4790.8,1545.5,4789.3,1567.9z"/>
	<g>
		<g>
			<g class="st28">
				<defs>
					<polygon id="SVGID_1_" class="st28" points="1684.1,1784.4 1673.7,866.1 1793.8,759.5 1807.8,1887.5 					"/>
				</defs>
				<clipPath id="SVGID_2_">
					<use xlink:href="#SVGID_1_"  style="overflow:visible;"/>
				</clipPath>
				<g class="st29">
					<g>
						<g>
							<g>
								<polyline class="st0" points="1787.5,765.1 1673.7,867.8 1675.2,963.3 1685.6,955.9 1684.4,881 1788,792 1787.5,765.1 
																	"/>
								<polyline class="st0" points="1790.1,911.1 1675.6,988.1 1676,1010.3 1790.6,938.1 1790.1,911.1 								"/>
								<path class="st0" d="M1791.5,985.4l-114.9,63.8l0.3,21l43.7-22.6c4.6-2.4,9-4.7,13.2-6.9c4.3-2.3,8.4-4.5,12.4-6.7
									c4-2.3,8-4.5,11.9-6.8c4-2.3,8-4.7,12.1-7.2l0.2,0.8c-3.5,4.4-7,8.9-10.4,13.6c-3.4,4.6-6.8,9.4-10.2,14.2
									c-3.3,4.8-6.7,9.6-9.9,14.4c-3.2,4.8-6.4,9.6-9.6,14.4l-51.9,79.1l0.4,22.6l115.6-35.9l-0.5-25.6l-53.9,18.9
									c-4.6,1.6-8.8,3.1-12.8,4.6c-4,1.5-7.7,2.9-11.4,4.4c-3.6,1.5-7.1,2.9-10.5,4.5c-3.4,1.5-6.7,3.1-10.1,4.8l-0.2-0.5
									c2.6-3,5.2-6.2,7.8-9.6c2.7-3.4,5.4-7,8.2-10.7c2.8-3.8,5.8-7.8,8.8-12.1c3-4.3,6.2-8.9,9.5-13.7l62.8-93.2L1791.5,985.4"/>
								<path class="st0" d="M1795.2,1190.7l-115.9,27.4l0.4,22.4l39-7.6l12.6,15.7l-50.4,65.7l0.4,26.6l60.1-76.1l56.3,69.4
									l-0.6-34l-50.2-56.5c-1-1.1-2-2.1-3.1-3.2c-1-1.1-2.1-2.2-3.2-3.2c-1.1-1.1-2.2-2.2-3.3-3.2c-1.1-1.1-2.2-2.1-3.4-3.2l0-0.9
									l61.6-12L1795.2,1190.7"/>
								<path class="st0" d="M1760.7,1457.2c-4.3-0.8-8-2.7-11.2-5.6c-3.2-2.8-5.9-6.5-8.1-11.1c-2.2-4.5-3.9-9.8-5-15.9
									c-1.2-6-1.8-12.8-1.9-20.2c0-2.1,0-4,0-5.9c0-1.9,0.1-3.7,0.1-5.4c0.1-1.7,0.2-3.3,0.3-4.8c0.1-1.5,0.3-2.9,0.5-4.3
									l48.8,3.3c0.2,1.2,0.4,2.6,0.6,4.3c0.2,1.7,0.4,3.6,0.6,5.8c0.2,2.2,0.3,4.5,0.4,7.1c0.1,2.6,0.2,5.3,0.3,8.3
									c0.1,7.4-0.3,14.1-1.3,20c-1,5.8-2.5,10.8-4.6,14.7c-2.1,3.9-4.7,6.7-7.9,8.4c-3.2,1.7-6.8,2.2-11,1.4c0,0-0.1,0-0.1,0
									c0,0-0.1,0-0.1,0C1760.9,1457.3,1760.9,1457.3,1760.7,1457.2C1760.8,1457.3,1760.8,1457.3,1760.7,1457.2 M1796.6,1360.9
									l-115-2.9l0.4,22.5l41.4,2.8c-0.2,1.4-0.3,2.8-0.4,4.3c-0.1,1.5-0.2,3.1-0.2,4.7c0,1.6-0.1,3.3-0.1,5c0,1.7,0,3.5,0,5.3
									c0.1,5.9,0.5,11.7,1.1,17.3c0.6,5.6,1.5,10.9,2.6,16c1.1,5.1,2.5,9.9,4.1,14.4c1.6,4.5,3.5,8.6,5.7,12.3
									c1.5,2.7,3.2,5.1,5,7.3c1.8,2.2,3.8,4.2,5.9,5.9c2.1,1.7,4.4,3.2,6.9,4.4c2.5,1.2,5.1,2.2,7.9,2.8c0,0,0.1,0,0.1,0
									c0,0,0.1,0,0.1,0c0,0,0.1,0,0.1,0c0,0,0.1,0,0.1,0c2.8,0.6,5.6,0.8,8.1,0.6c2.6-0.2,5.1-0.9,7.4-1.9c2.3-1,4.5-2.5,6.5-4.3
									c2-1.8,3.8-4,5.4-6.6c1.8-2.8,3.4-6,4.8-9.8c1.4-3.8,2.5-8.1,3.4-12.9c0.9-4.8,1.6-10.1,2-15.9c0.4-5.8,0.6-12.1,0.4-18.9
									c-0.1-5.5-0.3-10.8-0.5-15.7c-0.2-5-0.5-9.6-0.9-14c-0.3-4.4-0.7-8.5-1.1-12.3C1797.4,1367.8,1797,1364.2,1796.6,1360.9"/>
								<path class="st0" d="M1728.6,1601l-1-57.1l34.9,31.5c1.9,1.7,3.9,3.4,5.9,5c2,1.7,4,3.3,6,4.9c2,1.6,4,3.2,6,4.8
									c2,1.6,4.1,3.2,6.1,4.7l0,0.6c-2,0-3.9,0-5.9,0c-2,0-3.9,0-5.9,0.1c-2,0.1-4,0.2-6,0.3c-2,0.1-4,0.4-6.1,0.6L1728.6,1601
									 M1683.6,1482.7l0.4,23.4l32.5,28.9l1.1,66l-32,4.3l0.4,24.3l117-10.8l-0.6-33.4L1683.6,1482.7"/>
								<path class="st0" d="M1804.8,1723.6l-118.5-68.1l0.3,21.4l45,27.6c4.8,2.9,9.3,5.7,13.6,8.3c4.4,2.6,8.6,5.1,12.7,7.5
									c4.2,2.4,8.2,4.7,12.3,6.9c4.1,2.3,8.2,4.4,12.5,6.6l0.2,1.1c-3.6,0.4-7.2,0.9-10.8,1.6c-3.5,0.7-7.1,1.5-10.6,2.4
									c-3.5,0.9-6.9,1.9-10.3,3c-3.3,1.1-6.6,2.2-9.9,3.4l-53.5,19.5l0.4,23.1l119.3,97.4l-0.5-26.3l-55.7-43.3
									c-4.7-3.7-9.1-7-13.2-10.2c-4.1-3.1-8-6-11.7-8.7c-3.7-2.7-7.3-5.2-10.8-7.6c-3.5-2.4-6.9-4.6-10.4-6.8l-0.2-0.7
									c2.6-0.1,5.3-0.3,8.1-0.6c2.8-0.3,5.6-0.7,8.5-1.3c2.9-0.6,5.9-1.2,9.1-2c3.1-0.8,6.4-1.8,9.7-2.9l64.8-21.3L1804.8,1723.6"
									/>
							</g>
						</g>
					</g>
				</g>
			</g>
		</g>
	</g>
</g>
</svg>
