<svg xmlns="http://www.w3.org/2000/svg" xmlns:xlink="http://www.w3.org/1999/xlink" viewBox="0 0 453.42 280.98"><defs><style>.cls-1{isolation:isolate;}.cls-2{fill:url(#radial-gradient);}.cls-3{fill:url(#radial-gradient-2);}.cls-4{fill:url(#radial-gradient-3);}.cls-5{fill:url(#radial-gradient-4);}.cls-6{fill:url(#radial-gradient-5);}.cls-7{fill:url(#radial-gradient-6);}.cls-8{fill:url(#radial-gradient-7);}.cls-9{fill:url(#radial-gradient-8);}.cls-10{fill:url(#radial-gradient-9);}.cls-11{fill:url(#radial-gradient-10);}.cls-12{fill:url(#radial-gradient-11);}.cls-13{fill:url(#radial-gradient-12);}.cls-14{fill:url(#radial-gradient-13);}.cls-15{fill:url(#radial-gradient-14);}.cls-16{fill:url(#radial-gradient-15);}.cls-17{fill:url(#radial-gradient-16);}.cls-18{fill:url(#radial-gradient-17);}.cls-19{fill:url(#radial-gradient-18);}.cls-20{fill:url(#radial-gradient-19);}.cls-21{fill:url(#radial-gradient-20);}.cls-22{fill:url(#radial-gradient-21);}.cls-23{fill:url(#radial-gradient-22);}.cls-24{fill:url(#radial-gradient-23);}.cls-25{fill:url(#radial-gradient-24);}.cls-26{fill:url(#radial-gradient-25);}.cls-27{fill:url(#radial-gradient-26);}.cls-28{fill:url(#radial-gradient-27);}.cls-29{fill:url(#radial-gradient-28);}.cls-30{fill:url(#radial-gradient-29);}.cls-31{fill:url(#radial-gradient-30);}.cls-32{fill:url(#radial-gradient-31);}.cls-33{fill:url(#radial-gradient-32);}.cls-34{fill:url(#radial-gradient-33);}.cls-35{fill:url(#radial-gradient-34);}.cls-36{fill:url(#radial-gradient-35);}.cls-37{fill:url(#radial-gradient-36);}.cls-38{fill:url(#radial-gradient-37);}.cls-39{fill:url(#radial-gradient-38);}.cls-40{fill:url(#radial-gradient-39);}.cls-41{fill:url(#radial-gradient-40);}.cls-42{fill:url(#radial-gradient-41);}.cls-43{fill:url(#radial-gradient-42);}.cls-44{fill:url(#radial-gradient-43);}.cls-45{fill:url(#radial-gradient-44);}.cls-46{fill:url(#radial-gradient-45);}.cls-47{fill:none;stroke:#fff;stroke-linecap:round;stroke-miterlimit:10;stroke-dasharray:5;}.cls-48{fill:#b5d8eb;mix-blend-mode:multiply;}.cls-49{fill:#ff4249;}.cls-50{fill:#d43338;}.cls-51{fill:#fff;}.cls-52{fill:#dee6e8;}.cls-53{font-size:3.92px;}.cls-53,.cls-57,.cls-58{fill:#636675;}.cls-53,.cls-57{font-family:Montserrat-Bold, Montserrat Bold;font-weight:700;}.cls-54{letter-spacing:-0.01em;}.cls-55{letter-spacing:0em;}.cls-56{letter-spacing:-0.01em;}.cls-57{font-size:4.29px;}.cls-59{fill:url(#linear-gradient);}.cls-60{fill:#edeffa;}.cls-61{fill:url(#linear-gradient-2);}.cls-62{fill:url(#linear-gradient-3);}.cls-63{fill:url(#linear-gradient-4);}.cls-64{fill:url(#linear-gradient-5);}</style><radialGradient id="radial-gradient" cx="100.67" cy="24.48" r="478.65" gradientUnits="userSpaceOnUse"><stop offset="0" stop-color="#daff8a"/><stop offset="0.35" stop-color="#afe573"/><stop offset="0.78" stop-color="#80c85a"/><stop offset="1" stop-color="#6ebd50"/></radialGradient><radialGradient id="radial-gradient-2" cx="100.67" cy="24.48" r="478.61" xlink:href="#radial-gradient"/><radialGradient id="radial-gradient-3" cx="100.67" cy="24.48" r="478.59" xlink:href="#radial-gradient"/><radialGradient id="radial-gradient-4" cx="100.67" cy="24.48" r="478.59" xlink:href="#radial-gradient"/><radialGradient id="radial-gradient-5" cx="100.67" cy="24.48" r="478.6" xlink:href="#radial-gradient"/><radialGradient id="radial-gradient-6" cx="100.67" cy="24.48" r="478.59" xlink:href="#radial-gradient"/><radialGradient id="radial-gradient-7" cx="100.67" cy="24.48" r="478.59" xlink:href="#radial-gradient"/><radialGradient id="radial-gradient-8" cx="100.66" cy="24.48" r="478.6" xlink:href="#radial-gradient"/><radialGradient id="radial-gradient-9" cx="100.67" cy="24.48" r="478.59" xlink:href="#radial-gradient"/><radialGradient id="radial-gradient-10" cx="100.67" cy="24.48" r="478.6" xlink:href="#radial-gradient"/><radialGradient id="radial-gradient-11" cx="100.68" cy="24.48" r="478.59" xlink:href="#radial-gradient"/><radialGradient id="radial-gradient-12" cx="100.67" cy="24.49" r="478.59" xlink:href="#radial-gradient"/><radialGradient id="radial-gradient-13" cx="100.67" cy="24.48" r="478.59" xlink:href="#radial-gradient"/><radialGradient id="radial-gradient-14" cx="100.67" cy="24.48" r="478.6" xlink:href="#radial-gradient"/><radialGradient id="radial-gradient-15" cx="100.67" cy="24.49" r="478.59" xlink:href="#radial-gradient"/><radialGradient id="radial-gradient-16" cx="100.67" cy="24.49" r="478.59" xlink:href="#radial-gradient"/><radialGradient id="radial-gradient-17" cx="100.67" cy="24.48" r="478.59" xlink:href="#radial-gradient"/><radialGradient id="radial-gradient-18" cx="100.67" cy="24.48" r="478.6" xlink:href="#radial-gradient"/><radialGradient id="radial-gradient-19" cx="100.67" cy="24.48" r="478.59" xlink:href="#radial-gradient"/><radialGradient id="radial-gradient-20" cx="100.67" cy="24.49" r="478.59" xlink:href="#radial-gradient"/><radialGradient id="radial-gradient-21" cx="100.67" cy="24.49" r="478.59" xlink:href="#radial-gradient"/><radialGradient id="radial-gradient-22" cx="100.67" cy="24.48" r="478.59" xlink:href="#radial-gradient"/><radialGradient id="radial-gradient-23" cx="100.67" cy="24.48" r="478.59" xlink:href="#radial-gradient"/><radialGradient id="radial-gradient-24" cx="100.67" cy="24.48" r="478.59" xlink:href="#radial-gradient"/><radialGradient id="radial-gradient-25" cx="128.79" cy="180.36" r="478.59" xlink:href="#radial-gradient"/><radialGradient id="radial-gradient-26" cx="100.67" cy="24.49" r="478.59" xlink:href="#radial-gradient"/><radialGradient id="radial-gradient-27" cx="100.67" cy="24.48" r="478.59" xlink:href="#radial-gradient"/><radialGradient id="radial-gradient-28" cx="100.66" cy="24.49" r="478.6" xlink:href="#radial-gradient"/><radialGradient id="radial-gradient-29" cx="100.67" cy="24.48" r="478.59" xlink:href="#radial-gradient"/><radialGradient id="radial-gradient-30" cx="100.67" cy="24.49" r="478.59" xlink:href="#radial-gradient"/><radialGradient id="radial-gradient-31" cx="100.67" cy="24.49" r="478.58" xlink:href="#radial-gradient"/><radialGradient id="radial-gradient-32" cx="100.67" cy="24.49" r="478.59" xlink:href="#radial-gradient"/><radialGradient id="radial-gradient-33" cx="100.67" cy="24.49" r="478.59" xlink:href="#radial-gradient"/><radialGradient id="radial-gradient-34" cx="100.67" cy="24.49" r="478.59" xlink:href="#radial-gradient"/><radialGradient id="radial-gradient-35" cx="100.67" cy="24.48" r="478.6" xlink:href="#radial-gradient"/><radialGradient id="radial-gradient-36" cx="100.67" cy="24.48" r="478.6" xlink:href="#radial-gradient"/><radialGradient id="radial-gradient-37" cx="100.67" cy="24.49" r="478.58" xlink:href="#radial-gradient"/><radialGradient id="radial-gradient-38" cx="100.67" cy="24.48" r="478.59" xlink:href="#radial-gradient"/><radialGradient id="radial-gradient-39" cx="100.67" cy="24.49" r="478.59" xlink:href="#radial-gradient"/><radialGradient id="radial-gradient-40" cx="100.67" cy="24.49" r="478.59" xlink:href="#radial-gradient"/><radialGradient id="radial-gradient-41" cx="100.67" cy="24.49" r="478.59" xlink:href="#radial-gradient"/><radialGradient id="radial-gradient-42" cx="100.67" cy="24.48" r="478.59" xlink:href="#radial-gradient"/><radialGradient id="radial-gradient-43" cx="100.67" cy="24.49" r="478.59" xlink:href="#radial-gradient"/><radialGradient id="radial-gradient-44" cx="100.67" cy="24.49" r="478.59" xlink:href="#radial-gradient"/><radialGradient id="radial-gradient-45" cx="100.67" cy="24.49" r="478.59" xlink:href="#radial-gradient"/><linearGradient id="linear-gradient" x1="373.16" y1="51.56" x2="377.53" y2="62.02" gradientUnits="userSpaceOnUse"><stop offset="0" stop-color="#ffdb24"/><stop offset="1" stop-color="#ff981a"/></linearGradient><linearGradient id="linear-gradient-2" x1="113.82" y1="19.69" x2="118.2" y2="30.16" xlink:href="#linear-gradient"/><linearGradient id="linear-gradient-3" x1="147.12" y1="128.37" x2="151.49" y2="138.83" xlink:href="#linear-gradient"/><linearGradient id="linear-gradient-4" x1="431.01" y1="201.74" x2="435.38" y2="212.2" xlink:href="#linear-gradient"/><linearGradient id="linear-gradient-5" x1="301.1" y1="124.5" x2="305.47" y2="134.96" xlink:href="#linear-gradient"/></defs><title>page1SVG</title><g class="cls-1"><g id="OBJECTS"><polygon class="cls-2" points="83.31 99.51 84.3 99.72 85.57 98.53 88.71 99.2 88.96 98.54 85.64 96.03 82.72 95.41 82.23 96.71 82.52 97.67 79.38 97 79.09 97.77 82.92 98.59 83.31 99.51"/><polygon class="cls-3" points="74.2 94.06 80.98 95.5 81.32 94.62 74.1 87.54 70.71 86.82 65.96 87.52 65.63 88.39 70 88.72 73.16 89.39 76.41 92.44 74.44 93.43 74.2 94.06"/><polygon class="cls-4" points="105.83 9.18 112.52 9.76 118.13 10.95 118.46 10.06 114.99 8.15 112.8 9.16 110.91 8.76 108.68 5.85 100.79 5.41 100.49 6.21 106.48 7.48 105.83 9.18"/><polygon class="cls-5" points="115.14 12.71 114.75 13.72 116 15.76 121.69 14.58 122.25 13.11 117.76 12.16 115.14 12.71"/><polygon class="cls-6" points="136.2 11.96 135.75 13.13 148.44 15.83 175.1 14.13 175.4 13.33 151.04 8.15 136.53 7.73 135.83 9.57 141.08 12.08 140.12 12.79 136.2 11.96"/><polygon class="cls-7" points="149.79 26.04 150.37 24.52 140.14 17.59 131.56 15.76 127.11 17.14 126.33 19.19 137.49 21.56 140.61 25.44 140.1 26.78 130.11 28.22 129.74 29.18 134.91 30.28 137.44 33.84 140.78 35.14 145.07 33.13 143.59 29.76 145.29 29.46 147.46 31.83 152.49 30.82 152.94 29.64 147.91 25.64 149.79 26.04"/><polygon class="cls-8" points="324.71 164.71 323.6 167.65 323.32 171.13 324.42 171.36 326.54 170.06 326.88 169.17 325.2 164.81 324.71 164.71"/><polygon class="cls-9" points="360.22 192.19 359.59 192.47 359.35 193.09 359.97 193.22 360.71 194.87 361.29 194.99 361.71 193.88 360.89 192.33 360.22 192.19"/><polygon class="cls-10" points="365.58 201.96 364.62 202.67 361.77 201.84 361.45 200.85 358.13 199.51 356.95 200.37 356.33 200.24 356.14 200.73 357.25 200.97 358.04 201.51 357.83 202.06 360.68 203.54 361.42 203.3 363.05 203.99 363.97 204.91 367.24 205.83 368.16 205.83 369.98 207.07 370.38 206.97 369.99 206.26 370.42 205.44 369.75 204.93 368.97 205.01 367.82 204.77 367.84 203.32 365.98 202.05 365.58 201.96"/><polygon class="cls-11" points="385.15 209.29 379.21 208.37 378.58 208.88 378.47 209.17 382.24 209.98 385.01 209.68 385.15 209.29"/><polygon class="cls-12" points="393.52 201.96 392.59 202.33 392.41 202.79 393.02 203.28 393.94 203.47 394.44 203.21 394.6 202.8 394.05 202.08 393.52 201.96"/><polygon class="cls-13" points="395.12 155.15 395.05 158.22 395.61 158.34 396.86 156.99 398.38 153 397.13 152.74 395.12 155.15"/><polygon class="cls-14" points="392.11 184.11 393.4 182.96 395.35 183.38 395.75 184.35 395.29 184.89 394.9 185.91 396.78 187.16 397.38 187.28 397.8 186.16 397.43 185.56 398.44 184.75 398.76 186.29 399.28 186.4 400.07 184.32 399.58 180.7 399.1 180.59 398.33 181.72 395.82 182.77 395.47 181.78 394.5 181.57 394.17 182.36 392.97 182.49 391.65 184.01 392.11 184.11"/><polygon class="cls-15" points="395.8 178.06 394.11 179.41 393.9 179.96 394.82 180.16 395.35 181.02 395.89 181.13 396.31 180 395.92 179.16 396.44 178.19 395.8 178.06"/><polygon class="cls-16" points="393.38 178.04 393.85 178.14 395.78 177.62 395.93 177.22 394.7 175.96 394.2 175.85 394.31 176.55 393.79 176.94 393.38 178.04"/><polygon class="cls-17" points="398.35 175.55 399.45 178.23 400.08 178.36 400.19 176.43 398.8 175.64 398.35 175.55"/><polygon class="cls-18" points="384.95 180.04 385.41 180.13 390.13 177.28 390.5 176.32 390.12 175.94 384.95 180.04"/><polygon class="cls-19" points="381.61 265.91 380.71 265.72 377.95 269.73 379.27 270.01 384.36 268.29 385.78 267.48 385.97 267 382.56 266.8 381.61 265.91"/><polygon class="cls-20" points="182.2 38.47 189.7 36.21 191.82 36.66 201.02 36.52 211.72 30.8 212.03 29.79 209.87 29.33 210.28 28.25 222.15 26.76 222.49 25.87 210.76 21.77 178.37 14.88 158.28 16.39 157.75 17.81 169.26 21.18 167.63 25.46 170.62 26.92 169.82 29.03 167.94 30.85 163.74 29.96 162.91 32.16 162.09 40.51 165.79 43.98 167.21 44.27 178.83 37.76 182.2 38.47"/><polygon class="cls-21" points="210.64 44.45 208.39 42.87 203.05 41.73 201.21 42.28 198.61 41.73 198.21 42.78 201.03 45.57 204.29 46.27 210.19 45.65 210.64 44.45"/><polygon class="cls-22" points="212.49 63.54 213.42 63.34 213.56 61.87 211.92 61.26 210.43 60.94 209.71 61.69 210.21 62.09 209.43 62.51 207.55 62.11 207.06 63.41 208.26 63.97 208.11 64.35 205.45 65.54 205.18 66.26 211.52 66.1 212.49 63.54"/><polygon class="cls-23" points="222.75 67.6 221.13 66.49 219.83 63.82 219.21 61.61 217.13 61.16 217.37 60.84 218.84 61.15 220.78 59.55 220.96 59.06 217.82 58.59 219.38 57.86 219.52 57.36 216.86 56.8 214.36 59.04 215.53 61.22 214.31 62.35 214.13 62.82 216.27 63.27 216.66 65.46 213.95 65.78 214.63 66.42 212.5 67.11 212.31 67.6 215.58 68.3 215.23 68.76 213.85 68.47 210.8 69.72 210.99 70.27 214.8 69.61 219.61 70.63 221.46 70.2 221.63 69.75 220.5 69.51 222.33 68.72 222.75 67.6"/><polygon class="cls-24" points="424.64 116.17 419.15 107.96 418.18 107.75 424.11 122.25 425.39 122.52 423.36 116.81 424.32 117.02 424.64 116.17"/><polygon class="cls-25" points="394.24 164.56 392.88 168.15 392.4 168.58 393.33 172.79 395.95 173.35 397.85 175.32 398.21 175.05 396.65 171.74 394.54 171.29 394.8 169.7 395.21 168.61 396.1 168.8 396.82 166.9 396 164.37 394.94 164.15 394.24 164.56"/><path class="cls-26" d="M479.09,252.89l1.52-4-7.68-4.56-25.53-5.42-3.35-3.59-23.51-7.15-1.58-.33-.75,2L409.62,228l-9.89-5.73-16.86-3.58.46-1.2,2.19-.44.45-1.19-13.56-4.94-3-.63-26.86,3-.83-1.8-3.23-.69-4.09,4-13.52-2.87-19.29,3.41-5.4-4.82,1-.35,6.52,3.25,3.23-.61.56-1.48-21-8.92-5.85-1.14L267.14,209l-6.71,1.48-1.58,4.16,1.82,2.26,2.05.43,3-.87.69-.79,1.69,5.16-.72,1.9,2.1.45,1.12-1,1.54.32,1.16-1.44.8-2.12,3.35-.84.27-.72-2.05-1.71.92-2.42,5.63-2,.51-1.35,2.52-.11,2,1-.28.75-5.83,2.15-.22,3.62,2.93,1.47,6.43.22,3.31-1,2.33,2.11-.32.83-4.6-1-2,.8-5.17-1.1-1.06,1,1.6,1.14-.41,1.8-1.34-.29L281.52,222l-2.34.74L278,225.77l-9-.07-4.77-1-1.19-2.19,1.77-1.58.81-2.15-.76-.16-3.33,2-.58,1.54,1.67,2.49-5.84-1.25L245,229.2l-5.33-1.13-.41,1.09,3.74,4-1.63,4.29L236,236.28l-.94-1-4.49-1-1.67,1.49-1.68,4.42-1.89,2.18,3.73,5.05,1.63.35,5.68,0,4-3.11.87-2.28,5.43-.86.36-.95,2.37-1.19,1.88,1,1.5.32,3.88-1.36,1.66,1.3-.28,1.63,2.82,3.49,2,1,1.55,1.65.33,1.74-1.39,1.34,1,.21,2.62-2.17-1-.79.86-.63,1.66,1.16.36-.71-1.42-1.53-2.77-1-1.37-2.64v-1.65l-1.8-1.93.54-1.42,2.16.06,6.92,8.3-.95,2.51,2.2,3.6,4.06,2.11.92-.46-2.2-4.17,2.42-.27,3.07.66.68,6.58,2.87,2.15,1.15.24.45-1.18,3.14,2.17,1.65.35,1.6-1.07,1.66,1.09-5.08,8.11-3-.64-.65-.93-2.1-.45-2.51.75-10-5.57L268.8,262l-3.89,3.82-11.4-7.93.61-1.61,1.23-1.23-.31-3.5-1.95-.42-25.83-.74-17.84,10.36L197.2,279l9,20,9.47,2,8.88-1.65,9.54,6.57-4.45,5.93-1,2.66,4.26,8.51-4.33,11.39-3.42,2.23-1.9,5,2.16,30.43,9,1.92,24.25-14.33,2.5-6.59,10.2-3.86L275.29,339l-.27-5.06,2-5.19,22.11-10.16,8.54-11.41-1.57-.33-11.72-.39-8.74-33.85,2.06.44,8.82,30.4,2,.41,27-8.93,1.13-3-5.73-6.49-1.16-.25-5.23,2.24-4.32-10.86,2-.8,6,7.59,2.15-.65,3.46.73.4,3,13.48,2.87,5.25,9.9,2.84.6-1.15,9.19,2.73,12.9,2.4.51,8-11.61,11.55-5.65.68-1.79,5.86-.5,1.21.26.74,3.56,2.07,3.65-.38,4.89,2,.43,1.84-1.49,1.45,6.76-3.18,8.38,2.56,4.11v6.06l3,3.38.87.19-.06-3.64,1.15-3-2.61-4-1.17-.24-1.56-3.69,2.62-6.91,2.42.51,4.69,6.51-1,2.57.95.2,7.63-3.2,2.77-7.32-5.12-6.92,4.57-3.26,2.7.58,1.22.8,10.7-1,9.17-9.78.81-2.14-5.36-8.31,4.77-3.09-3.82-.81-1.1.26-3.16-3.76,5-2.37,1.51,1-.91,1,1,1.45,3-.76,2.16,1.43-.75,2,1.24.93,1.66.58.85,5.93,1,.21,3.62-1.08.45-1.2L434,285l2.82-1.42,1-2.52,1.87-.54,3,.64,5.16-8.4-2.37-8.62-9.85-4.49,3.51-5.44,3-.88,12.08,2.57,1.78-.78.8-2.09,3,.64,2.6,2,.89-2.34,2.14,1.68-1.86,4.92-1.65-.35-.8,2.1,8,12,.95.2,3.3-8.71-5.84-4.81.89-2.34,6.9,1.47L481,256.5l.57-1.5Zm-175.61,2.37-4.31-.92-4.22-2.8-3.69-.79-3.1,1-2.78-.81-1.82-2.41,6.08-5.81,2.64,1.14-.44,1.16,1.24.67-.66,1.74.86.19,3.47-.87.22-.58-1.66-.94.3-.81,6.33-.47-.17.47-3.53,1.92v.62l6.28,5.58Zm17.9,11.58-2.53-.54-4-2.9,1.51-4-3.57-7.27.84-2.2,6.57-1.7,2.14,1.26-.82,2.17-2.43-.52-.62,1.65,3.91,4.39Z" transform="translate(-28.12 -155.87)"/><polygon class="cls-27" points="358.39 189.06 358.14 188.25 357.64 188.14 355.36 184.41 354.76 184.29 354.4 184.53 351.03 178.36 349.35 178 348.15 177.07 347.41 176.91 347.12 177.68 349.65 183.27 350.95 184.28 351.05 187.11 351.91 188.33 352.34 192.91 355.7 199.09 356.29 199.22 356.56 198.53 357.08 198.64 357.13 199.4 357.6 199.5 359.98 195.16 359.77 193.54 358.57 193.28 358.64 191.03 357.5 189.6 357.61 189.31 358.39 189.06"/><polygon class="cls-28" points="383.6 182.3 379.78 185.05 379.12 184.91 374.84 187.23 372.49 187.49 371.18 189.12 370.19 188.91 369.37 187.75 368.62 187.59 367.07 190.26 367.22 196.21 369.53 196.7 369.17 197.66 369.89 197.81 371.76 197.41 373.71 198.56 373.29 199.66 373.82 199.78 376.72 198.77 377.67 196.26 380.5 195.2 381.38 192.87 383.27 193.28 383.49 192.71 382.57 188.18 382.74 187.72 385.31 187.21 385.45 186.83 384.97 186.04 386.41 186.35 386.66 185.69 384.29 182.45 383.6 182.3"/><polygon class="cls-29" points="398.43 196.18 398.25 195.78 398.97 195.34 399.47 194 397.88 195.47 397.86 196.22 397.53 197.09 397.58 198.98 398.04 199.08 398.18 197.39 398.39 196.83 399.53 197.42 399.64 197.37 399.14 196.26 399.94 196.02 400.23 195.27 399.81 195.18 398.43 196.18"/><polygon class="cls-30" points="388.12 193.04 386.54 193.08 384.24 196 383.52 195.85 382.05 198.29 381.32 198.65 380.79 200.04 381.81 200.26 380.7 203.18 380.84 203.9 382.32 204.21 382.62 203.41 383.27 199.66 384.52 199.35 384.82 199.86 384.12 200.82 384.39 203.06 385.12 203.22 386.91 202.66 387.1 202.17 386.36 201.31 386.77 200.24 385.94 198.43 388.78 197.48 389.85 197.71 390.14 196.94 389.57 196.81 387.87 196.95 387.02 196.77 385.78 197.45 385.2 197.22 384.78 196.07 386.62 194.3 390.53 195.13 390.85 195.66 392.39 195.99 394.47 194.16 394.19 193.76 391.95 194.78 388.45 194.03 388.12 193.04"/><polygon class="cls-31" points="398.65 202.76 396.56 202.31 395.79 202.77 395.61 203.24 398.94 203.94 399.87 204.99 400.24 204.9 399.94 203.22 398.91 203 398.65 202.76"/><polygon class="cls-32" points="390.61 211.13 390.71 210.73 387.58 210.07 383.77 212.12 383.73 212.77 387.67 211.6 390.61 211.13"/><polygon class="cls-33" points="407.56 214.31 408.64 214.54 410.18 214.18 410.54 213.23 409.35 212.98 407.74 213.82 407.56 214.31"/><polygon class="cls-34" points="407.83 201.96 408.11 201.22 406.09 199.76 405.3 199.6 403.75 200.07 402.92 199.89 402.13 200.81 402.02 201.1 403.43 201.41 403.7 202.7 406.05 203.2 405.82 203.79 403.01 203.19 402.84 203.62 403.74 204.59 403.42 205.78 403.97 205.89 405.17 205.02 406.92 207.31 410.61 209.67 411.21 213.07 410.59 214.7 412.01 215 412.87 217.07 416.19 217.78 417.36 217.31 417.69 216.47 419.26 215.77 421.46 216.24 423.21 220.68 426.89 222.5 428.06 222.03 425.74 219.22 424.47 215.22 426.19 215.59 426.22 214.7 423.32 212.1 422.5 209.31 413.95 203.57 413.19 203.41 407.98 205.64 407.3 205.5 406.64 203.78 407.21 202.29 407.83 201.96"/><polygon class="cls-35" points="416.21 245.35 412.75 233.82 415.22 227.3 412.95 226.04 415.18 220.16 413.69 219.85 405.27 229.82 403.94 229.54 398.94 223.95 399.39 222.77 402.9 220.92 403.17 220.22 399.46 218.09 396.76 217.52 389.75 220.16 389.1 221.89 387.65 221.59 386.32 219.42 385.81 219.31 370.83 226.46 356.9 227.63 352.3 234.68 349 243.36 345.51 246.43 346.44 248.63 359.57 248.86 372.45 247.8 376.83 248.73 376.33 254.56 377.27 254.76 383.55 252.33 383.3 252.97 377.99 256.09 380.51 256.62 378.98 260.67 382.35 262.79 387.57 263.9 394.58 262.8 409.61 255.06 416.21 245.35"/><polygon class="cls-36" points="142.47 52.41 131.95 56.1 131.52 57.22 137.99 58.6 136.98 59.24 137.53 59.9 140.91 59.45 142.14 56.21 141.66 55.45 139.61 55.01 142.87 53.33 142.47 52.41"/><polygon class="cls-37" points="117.29 59.98 116.68 61.59 117.36 61.73 120.16 60.62 127.13 60.05 127.41 59.36 123.01 58.42 117.29 59.98"/><polygon class="cls-38" points="95.34 10.38 99.37 12.92 99.1 13.63 92.11 12.15 91.78 13.23 96.52 15.63 103.31 15.89 109.42 17.19 110.07 15.47 108.97 14.83 111.6 12.5 113.77 11.96 113.4 11.31 109.22 10.42 106.2 13.22 100.15 8.21 93 6.68 86.12 8.45 87.75 10.45 95.34 10.38"/><polygon class="cls-39" points="140.55 37.55 139.57 37.34 133.88 39.73 132.64 38.5 134.38 35.61 131.94 32.83 125.53 31.47 122.96 34.91 120.08 35.81 118.47 40.06 111.93 41.07 108.67 45.7 105.95 45.12 106.96 42.48 109.77 39.37 110.13 38.42 98.41 33.26 99.35 30.75 120.37 25.14 130.67 24.71 131.9 21.51 121.61 19.32 122.03 16.95 122.45 16.86 128.63 15.53 129.57 15.21 124.36 14.1 121.68 15.98 119.77 15.58 112.33 20.3 96.97 17.03 83.46 10.56 67.36 7.13 49.63 0.81 45.84 0 28.43 1.33 28.05 2.33 30.52 3.95 30.27 4.63 27.4 4.79 26.54 3.78 19.23 3.64 18.73 4.97 22.75 6.39 25.92 6.59 18.97 8.05 17.68 7.11 16.66 6.9 9.21 8.64 8.41 10.74 13.18 11.75 12.69 13.04 13.61 13.6 16.5 13.57 0 17.17 22.57 15.54 23.16 13.98 30.87 13.47 40.26 17.86 39.33 31.64 37.69 35.96 24.32 46.84 21.16 55.16 22.41 57.74 25.49 59.7 23.95 65.72 24.9 68.89 24.31 69.38 22.31 68.96 22.04 69.67 25.13 72.22 24.34 75.13 25.92 78.06 26.96 78.28 27.14 64.7 27.83 62.89 29.45 64.49 29.44 83.47 32.2 88.22 40.88 94.06 42.44 94.39 43.89 93.71 44.74 93.89 48.12 98.99 52.91 101.2 58.11 111.39 61.2 112.05 63.28 110.71 64.29 110.93 65.21 115.36 63.69 119.37 54.52 125.93 53.6 128.36 54.33 129.54 54 130.39 51.56 131.72 50.59 134.29 55.77 151.93 62.76 158.75 51.06 189.57 51.29 216.5 61.7 223.43 63.94 222.23 59.76 215.91 66.07 199.27 80 194.63 81.08 191.79 94.19 183.16 96.18 177.91 110.35 175.09 115.76 160.84 125.8 155.05 127.88 149.59 105.83 134.77 106.95 127.63 101.78 124.04 97.94 123.23 91.35 113.5 78.19 110.7 79.26 107.89 76.94 107.4 67.67 111.47 64.79 108.91 63.48 108.63 60.77 110.34 59.54 110.08 58.01 105.37 60.98 101.14 62.03 98.38 54.32 95.79 61.36 88.57 61.86 87.23 56.8 86.15 51.1 90.93 46.21 89.89 44.5 84.05 51.6 74.53 57.66 72.16 74.6 75.76 74.97 78.17 72.96 79.93 73.95 84.36 75.13 84.61 77.37 81.44 79.37 74.83 93.59 69.68 95.1 66.76 108.79 62.68 110.68 59.68 122.68 58.07 125.2 51.42 133.73 53.23 142.34 52.01 143.38 49.25 139.56 44.55 140.55 37.55"/><polygon class="cls-40" points="256.87 193.29 249.76 194.77 247.6 200.46 244.35 202.56 243.4 205.05 243.53 209.66 246.99 210.4 260.43 195.45 260.87 189.79 259.59 189.52 256.87 193.29"/><polygon class="cls-41" points="412.37 140.15 412.14 140.76 414.73 141.31 417.99 140.51 419.05 140.74 419.58 143.01 420.29 143.16 421.54 141.2 423.98 141.72 427 140.11 426.94 136.06 427.45 136.17 427.76 133.84 424.95 130.78 424.58 130.97 424.27 136.03 421.68 137.74 420.74 137.54 419.69 139.47 415.28 138.54 412.37 140.15"/><polygon class="cls-42" points="431.18 128.29 429.26 126.18 427.23 125.75 424.3 123.06 423.84 122.96 424.91 126.35 424.64 127.07 423.76 126.89 422.82 127.83 423.97 130.09 424.96 130.3 425.14 129.82 423.83 128.26 423.97 127.9 425.73 128.28 428.38 130.06 428.92 129.84 428.72 128.85 430.97 128.84 431.18 128.29"/><polygon class="cls-43" points="410.98 142.91 412.01 145.78 413.03 146 414.21 142.88 412.72 141.33 411.67 141.11 410.98 142.91"/><polygon class="cls-44" points="403.19 279.67 404.94 280.98 411.99 280.5 413.98 278.73 423.13 276.61 423.89 274.47 423.43 274.38 403.19 279.67"/><polygon class="cls-45" points="436.2 267.21 435.5 266.29 434.52 266.08 433.07 269.88 433.91 269.87 435.93 267.92 436.2 267.21"/><polygon class="cls-46" points="434.34 271.56 435.29 270.31 435.45 269.88 429.54 272.86 427.71 272.8 427.33 273.8 428.07 274.51 425 276.11 425.16 276.88 432.05 275.06 432.37 274.22 435.36 274.06 437.76 272.56 437.99 271.96 435.11 272.52 434.34 271.56"/><path class="cls-47" d="M89.35,215.77A282.32,282.32,0,0,1,333.18,244" transform="translate(-28.12 -155.87)"/><path class="cls-47" d="M124,323.91A247.37,247.37,0,0,1,269.76,320" transform="translate(-28.12 -155.87)"/><path class="cls-47" d="M352.59,253.44a153.39,153.39,0,0,1,50.64,131.61" transform="translate(-28.12 -155.87)"/><path class="cls-47" d="M86.64,219a350.34,350.34,0,0,1,177.42,91.85" transform="translate(-28.12 -155.87)"/><path class="cls-47" d="M127.82,316a256.92,256.92,0,0,1,205.36-69" transform="translate(-28.12 -155.87)"/><path class="cls-47" d="M398.05,392.21A273.16,273.16,0,0,0,95.23,216.81" transform="translate(-28.12 -155.87)"/><path class="cls-47" d="M341.83,251.28a86.35,86.35,0,0,1-60,66.93" transform="translate(-28.12 -155.87)"/><path class="cls-47" d="M396.79,396.58a455,455,0,0,0-277.45-68.73" transform="translate(-28.12 -155.87)"/><path class="cls-48" d="M357.17,242c1-1.4-2-2.53-6.66-2.53s-9.3,1.13-10.31,2.53c-.79,1.11.91,2.05,4,2.4l1.21,2.17,4.37-2.17C353.31,244.08,356.37,243.14,357.17,242Z" transform="translate(-28.12 -155.87)"/><path class="cls-49" d="M353.86,231.31a8.48,8.48,0,1,0-11.26,8l2.78,7.29,2.79-7.29A8.47,8.47,0,0,0,353.86,231.31Z" transform="translate(-28.12 -155.87)"/><path class="cls-50" d="M348.17,239.31a8.48,8.48,0,0,0-2.79-16.48V246.6Z" transform="translate(-28.12 -155.87)"/><path class="cls-51" d="M348.94,231.31a3.56,3.56,0,1,1-3.56-3.56A3.56,3.56,0,0,1,348.94,231.31Z" transform="translate(-28.12 -155.87)"/><path class="cls-52" d="M348.94,231.31a3.56,3.56,0,0,0-3.56-3.56v7.12A3.56,3.56,0,0,0,348.94,231.31Z" transform="translate(-28.12 -155.87)"/><path class="cls-51" d="M413.92,201.91H354.59a2,2,0,0,0-2,2v12.71a2,2,0,0,0,2,2h.64v3.72c0,1.1.69,1.41,1.52.7l5.16-4.42h52a2,2,0,0,0,2-2V203.91A2,2,0,0,0,413.92,201.91Z" transform="translate(-28.12 -155.87)"/><text class="cls-53" transform="translate(328.5 52.58)">Name of <tspan class="cls-54" x="14.66" y="0">C</tspan><tspan class="cls-55" x="16.89" y="0">ompa</tspan><tspan class="cls-56" x="26.44" y="0">n</tspan><tspan x="28.56" y="0">y</tspan></text><text class="cls-57" transform="translate(378.93 56.53)">4.5</text><rect class="cls-58" x="328.5" y="55.16" width="26.67" height="0.75"/><rect class="cls-58" x="328.5" y="56.8" width="33.77" height="0.75"/><rect class="cls-58" x="328.5" y="58.43" width="31.36" height="0.75"/><polygon class="cls-59" points="374.23 51.64 375.16 53.41 377.13 53.75 375.74 55.18 376.02 57.15 374.23 56.27 372.44 57.15 372.73 55.18 371.34 53.75 373.3 53.41 374.23 51.64"/><path class="cls-60" d="M396.91,215.82a.12.12,0,0,1-.12.12h0a.13.13,0,0,1-.13-.12v-11.1a.12.12,0,0,1,.13-.12h0a.12.12,0,0,1,.12.12Z" transform="translate(-28.12 -155.87)"/><path class="cls-48" d="M97.83,210.17c1-1.4-2-2.53-6.65-2.53s-9.3,1.13-10.31,2.53c-.8,1.11.9,2,4,2.39l1.22,2.18,4.36-2.18C94,212.21,97,211.28,97.83,210.17Z" transform="translate(-28.12 -155.87)"/><path class="cls-49" d="M94.53,199.44a8.48,8.48,0,1,0-11.27,8l2.79,7.29,2.79-7.29A8.49,8.49,0,0,0,94.53,199.44Z" transform="translate(-28.12 -155.87)"/><path class="cls-50" d="M88.84,207.45A8.48,8.48,0,0,0,86.05,191v23.78Z" transform="translate(-28.12 -155.87)"/><path class="cls-51" d="M89.61,199.44a3.56,3.56,0,1,1-3.56-3.56A3.56,3.56,0,0,1,89.61,199.44Z" transform="translate(-28.12 -155.87)"/><path class="cls-52" d="M89.61,199.44a3.57,3.57,0,0,0-3.56-3.56V203A3.56,3.56,0,0,0,89.61,199.44Z" transform="translate(-28.12 -155.87)"/><path class="cls-51" d="M154.59,170.05H95.26a2,2,0,0,0-2,2v12.71a2,2,0,0,0,2,2h.64v3.71c0,1.1.68,1.42,1.52.7l5.15-4.41h52a2,2,0,0,0,2-2V172.05A2,2,0,0,0,154.59,170.05Z" transform="translate(-28.12 -155.87)"/><text class="cls-53" transform="translate(69.16 20.72)">Name of <tspan class="cls-54" x="14.66" y="0">C</tspan><tspan class="cls-55" x="16.89" y="0">ompa</tspan><tspan class="cls-56" x="26.44" y="0">n</tspan><tspan x="28.56" y="0">y</tspan></text><text class="cls-57" transform="translate(119.59 24.66)">3.7</text><rect class="cls-58" x="69.16" y="23.29" width="26.67" height="0.75"/><rect class="cls-58" x="69.16" y="24.93" width="33.77" height="0.75"/><rect class="cls-58" x="69.16" y="26.56" width="31.36" height="0.75"/><polygon class="cls-61" points="114.9 19.78 115.83 21.54 117.79 21.88 116.4 23.31 116.69 25.29 114.9 24.41 113.11 25.29 113.39 23.31 112 21.88 113.97 21.54 114.9 19.78"/><path class="cls-60" d="M137.58,184a.12.12,0,0,1-.13.12h0a.12.12,0,0,1-.12-.12V172.86a.12.12,0,0,1,.12-.13h0a.13.13,0,0,1,.13.13Z" transform="translate(-28.12 -155.87)"/><path class="cls-48" d="M131.12,318.84c1-1.4-2-2.53-6.65-2.53s-9.3,1.13-10.31,2.53c-.8,1.11.9,2.05,4,2.39l1.21,2.18,4.36-2.18C127.26,320.89,130.32,320,131.12,318.84Z" transform="translate(-28.12 -155.87)"/><path class="cls-49" d="M127.82,308.12a8.48,8.48,0,1,0-11.27,8l2.79,7.29,2.79-7.29A8.47,8.47,0,0,0,127.82,308.12Z" transform="translate(-28.12 -155.87)"/><path class="cls-50" d="M122.13,316.12a8.48,8.48,0,0,0-2.79-16.48v23.77Z" transform="translate(-28.12 -155.87)"/><path class="cls-51" d="M122.9,308.12a3.56,3.56,0,1,1-3.56-3.56A3.57,3.57,0,0,1,122.9,308.12Z" transform="translate(-28.12 -155.87)"/><path class="cls-52" d="M122.9,308.12a3.56,3.56,0,0,0-3.56-3.56v7.12A3.57,3.57,0,0,0,122.9,308.12Z" transform="translate(-28.12 -155.87)"/><path class="cls-51" d="M187.88,278.72H128.55a2,2,0,0,0-2,2v12.71a2,2,0,0,0,2,2h.64v3.72c0,1.1.68,1.41,1.52.7l5.15-4.42h52a2,2,0,0,0,2-2V280.72A2,2,0,0,0,187.88,278.72Z" transform="translate(-28.12 -155.87)"/><text class="cls-53" transform="translate(102.45 129.39)">Name of <tspan class="cls-54" x="14.66" y="0">C</tspan><tspan class="cls-55" x="16.89" y="0">ompa</tspan><tspan class="cls-56" x="26.44" y="0">n</tspan><tspan x="28.56" y="0">y</tspan></text><text class="cls-57" transform="translate(152.88 133.34)">4.0</text><rect class="cls-58" x="102.45" y="131.97" width="26.67" height="0.75"/><rect class="cls-58" x="102.45" y="133.6" width="33.77" height="0.75"/><rect class="cls-58" x="102.45" y="135.24" width="31.36" height="0.75"/><polygon class="cls-62" points="148.19 128.45 149.12 130.22 151.09 130.56 149.69 131.99 149.98 133.96 148.19 133.08 146.4 133.96 146.68 131.99 145.29 130.56 147.26 130.22 148.19 128.45"/><path class="cls-60" d="M170.87,292.62a.13.13,0,0,1-.13.13h0a.12.12,0,0,1-.12-.13V281.53a.12.12,0,0,1,.12-.12h0a.12.12,0,0,1,.13.12Z" transform="translate(-28.12 -155.87)"/><path class="cls-48" d="M415,392.21c1-1.4-2-2.53-6.65-2.53s-9.3,1.13-10.31,2.53c-.8,1.11.91,2.05,4,2.39l1.21,2.18,4.36-2.18C411.15,394.26,414.21,393.32,415,392.21Z" transform="translate(-28.12 -155.87)"/><path class="cls-49" d="M411.71,381.49a8.48,8.48,0,1,0-11.26,8l2.78,7.29,2.79-7.29A8.49,8.49,0,0,0,411.71,381.49Z" transform="translate(-28.12 -155.87)"/><path class="cls-50" d="M406,389.49A8.48,8.48,0,0,0,403.23,373v23.77Z" transform="translate(-28.12 -155.87)"/><path class="cls-51" d="M406.79,381.49a3.56,3.56,0,1,1-3.56-3.56A3.56,3.56,0,0,1,406.79,381.49Z" transform="translate(-28.12 -155.87)"/><path class="cls-52" d="M406.79,381.49a3.56,3.56,0,0,0-3.56-3.56v7.12A3.56,3.56,0,0,0,406.79,381.49Z" transform="translate(-28.12 -155.87)"/><path class="cls-51" d="M471.77,352.09H412.44a2,2,0,0,0-2,2V366.8a2,2,0,0,0,2,2h.64v3.71c0,1.1.69,1.42,1.52.7l5.15-4.41h52a2,2,0,0,0,2-2V354.09A2,2,0,0,0,471.77,352.09Z" transform="translate(-28.12 -155.87)"/><text class="cls-53" transform="translate(386.34 202.76)">Name of <tspan class="cls-54" x="14.66" y="0">C</tspan><tspan class="cls-55" x="16.89" y="0">ompa</tspan><tspan class="cls-56" x="26.44" y="0">n</tspan><tspan x="28.56" y="0">y</tspan></text><text class="cls-57" transform="translate(436.77 206.7)">5.0</text><rect class="cls-58" x="386.34" y="205.34" width="26.67" height="0.75"/><rect class="cls-58" x="386.34" y="206.97" width="33.77" height="0.75"/><rect class="cls-58" x="386.34" y="208.61" width="31.36" height="0.75"/><polygon class="cls-63" points="432.08 201.82 433.01 203.59 434.98 203.92 433.59 205.35 433.87 207.33 432.08 206.45 430.29 207.33 430.58 205.35 429.19 203.92 431.15 203.59 432.08 201.82"/><path class="cls-60" d="M454.76,366a.13.13,0,0,1-.13.13h0a.13.13,0,0,1-.12-.13V354.9a.13.13,0,0,1,.12-.13h0a.13.13,0,0,1,.13.13Z" transform="translate(-28.12 -155.87)"/><path class="cls-48" d="M285.1,315c1-1.4-2-2.54-6.65-2.54s-9.3,1.14-10.31,2.54c-.8,1.1.91,2,4,2.39l1.21,2.17,4.36-2.17C281.24,317,284.3,316.08,285.1,315Z" transform="translate(-28.12 -155.87)"/><path class="cls-49" d="M281.8,304.25a8.48,8.48,0,1,0-11.26,8l2.78,7.29,2.79-7.29A8.47,8.47,0,0,0,281.8,304.25Z" transform="translate(-28.12 -155.87)"/><path class="cls-50" d="M276.11,312.25a8.48,8.48,0,0,0-2.79-16.48v23.77Z" transform="translate(-28.12 -155.87)"/><path class="cls-51" d="M276.88,304.25a3.56,3.56,0,1,1-3.56-3.56A3.56,3.56,0,0,1,276.88,304.25Z" transform="translate(-28.12 -155.87)"/><path class="cls-52" d="M276.88,304.25a3.56,3.56,0,0,0-3.56-3.56v7.12A3.56,3.56,0,0,0,276.88,304.25Z" transform="translate(-28.12 -155.87)"/><path class="cls-51" d="M341.86,274.85H282.53a2,2,0,0,0-2,2v12.72a2,2,0,0,0,2,2h.64v3.71c0,1.1.69,1.41,1.52.7l5.15-4.41h52a2,2,0,0,0,2-2V276.85A2,2,0,0,0,341.86,274.85Z" transform="translate(-28.12 -155.87)"/><text class="cls-53" transform="translate(256.43 125.53)">Name of <tspan class="cls-54" x="14.66" y="0">C</tspan><tspan class="cls-55" x="16.89" y="0">ompa</tspan><tspan class="cls-56" x="26.44" y="0">n</tspan><tspan x="28.56" y="0">y</tspan></text><text class="cls-57" transform="translate(306.86 129.47)">2.9</text><rect class="cls-58" x="256.43" y="128.1" width="26.67" height="0.75"/><rect class="cls-58" x="256.43" y="129.74" width="33.77" height="0.75"/><rect class="cls-58" x="256.43" y="131.37" width="31.36" height="0.75"/><polygon class="cls-64" points="302.17 124.58 303.1 126.35 305.07 126.69 303.68 128.12 303.96 130.09 302.17 129.21 300.38 130.09 300.67 128.12 299.27 126.69 301.24 126.35 302.17 124.58"/><path class="cls-60" d="M324.85,288.76a.12.12,0,0,1-.13.12h0a.12.12,0,0,1-.12-.12v-11.1a.12.12,0,0,1,.12-.12h0a.12.12,0,0,1,.13.12Z" transform="translate(-28.12 -155.87)"/></g></g></svg>