<?xml version="1.0" encoding="utf-8"?>
<!-- Generator: Adobe Illustrator 22.1.0, SVG Export Plug-In . SVG Version: 6.00 Build 0)  -->
<svg version="1.1" id="Layer_1" xmlns="http://www.w3.org/2000/svg" xmlns:xlink="http://www.w3.org/1999/xlink" x="0px" y="0px"
	 viewBox="0 0 5000 5000" style="enable-background:new 0 0 5000 5000;" xml:space="preserve">
<style type="text/css">
	.st0{fill:#14949A;}
	.st1{fill:#535253;}
	.st2{fill:#676767;}
	.st3{fill:none;}
	.st4{fill:#2E2E2E;}
	.st5{fill:#261B1A;}
	.st6{fill:#494848;}
	.st7{fill:#E2A23A;}
	.st8{fill:#FFD00F;}
	.st9{fill:#416079;}
	.st10{fill:#2C445D;}
	.st11{fill:#F38020;}
	.st12{fill:#EEB31F;}
	.st13{fill:#F7CB6B;}
	.st14{fill:#E93859;}
	.st15{fill:#BB3548;}
	.st16{fill:#DBDAD9;}
	.st17{fill:#FFFFFF;}
	.st18{fill:#E6C536;}
	.st19{fill:#CDAF2F;}
	.st20{fill:#82CFD0;}
	.st21{fill:#A5DBE2;}
	.st22{fill:#154F69;}
	.st23{fill:#0D3344;}
	.st24{fill:#DFEDF9;}
	.st25{fill:#CB2627;}
	.st26{fill:#E7ECEC;}
	.st27{fill:#D9E1E3;}
	.st28{fill:#E7EBEA;}
	.st29{fill:#BE2626;}
	.st30{fill:#92D1D7;}
	.st31{fill:#FFF8F6;}
	.st32{fill:#35495E;}
	.st33{fill:#C1B49F;}
	.st34{fill:#DA4643;}
	.st35{fill:#D0C2A7;}
	.st36{fill:#DFDAC3;}
	.st37{fill:#EEE7D8;}
	.st38{fill:#FFFFF9;}
	.st39{fill:#00A4A1;}
	.st40{fill:#D7DBDF;}
	.st41{fill:#505251;}
	.st42{fill:#25364B;}
	.st43{fill:#C9E8EA;}
	.st44{fill:#B4D5D6;}
	.st45{fill:#BCBDBF;}
	.st46{fill:#F37820;}
	.st47{fill:#ECF6F8;}
	.st48{fill:#4E596A;}
	.st49{fill:#2E3C51;}
	.st50{fill:#E3A625;}
	.st51{fill:#CD962A;}
	.st52{fill:#179BB9;}
	.st53{fill:#FFD062;}
	.st54{fill:#63BAC8;}
	.st55{fill:#599CB3;}
	.st56{fill:#EE803F;}
	.st57{fill:#D86E38;}
	.st58{fill-rule:evenodd;clip-rule:evenodd;fill:#A4A2A2;}
	.st59{fill:#CAC9C7;}
	.st60{fill:#A3832F;}
	.st61{fill:#F4E5A9;}
	.st62{fill:#B4E1E5;}
	.st63{fill:#264C6A;}
	.st64{fill:#FFFCF4;}
	.st65{fill:#898286;}
	.st66{fill:#EAA79F;}
	.st67{fill:#83CEEC;}
	.st68{fill:#C8DB58;}
	.st69{fill:#F1BA59;}
	.st70{fill:#BFBFBF;}
	.st71{fill:#0D1C2D;}
	.st72{fill:#C6D8DD;}
	.st73{fill:#F05727;}
	.st74{fill:#1D4051;}
	.st75{fill:#1E4D6C;}
	.st76{fill:#7CCDD4;}
	.st77{fill:#DEF1F3;}
	.st78{fill:#BEBBBB;}
	.st79{fill:#CDCCCB;}
</style>
<path class="st0" d="M4644.8,4001.7c-0.6-26.3-22.1-47.4-48.5-47.4h-277.9c21.3-15.2,40.6-33.9,57.3-55.6
	c39.3-51.2,61-116.1,61-182.9V1906.6c0-75.3-26.7-146.4-75.2-200.1c-24-26.6-52.1-47.5-83.5-62.2c-32.9-15.4-67.8-23.2-103.9-23.2
	H2868.7c6.2-62.1,9.3-125.9,9.3-190.4c0-128-19.6-257.1-58.4-383.8c-35.4-115.9-86.6-226.5-144.1-311.4
	c-26.3-38.8-52.4-70.1-77.5-92.9c-31.5-28.6-60-42.5-87.3-42.5c-27.2,0-55.8,13.9-87.3,42.5c-25.1,22.8-51.2,54.1-77.5,92.9
	c-57.5,84.9-108.7,195.5-144.1,311.4c-38.7,126.6-58.4,255.8-58.4,383.8c0,64.5,3.1,128.3,9.3,190.4h-1263
	c-76.2,0-148.5,35.8-198.4,98.3c-41.5,51.9-64.3,118.3-64.3,187.2v1809.2c0,75.3,26.7,146.3,75.2,200c13.2,14.6,27.5,27.4,43,38.5
	H467.5c-26.8,0-48.5,21.7-48.5,48.5v1.5c0,55.7,10.2,110,29.5,157c37.5,91.4,104.7,146,179.6,146h3807.5
	c74.9,0,142.1-54.6,179.7-146c19.3-47.1,29.6-101.4,29.6-157C4644.9,4003.4,4644.9,4002.6,4644.8,4001.7z"/>
<g>
	<g>
		<path class="st1" d="M4107.2,3128.3l61.7-147.7l16.9-40.4l84.3-201.6l16.9-40.4l61.7-147.7c8-19.1-1-41.2-20.2-49.2l-171.4-71.6
			c-75.4,66-148.4,169.8-201.1,296c-52.8,126.2-75.4,251-69.4,351.1l171.4,71.6C4077.2,3156.5,4099.2,3147.5,4107.2,3128.3z"/>
		<path class="st2" d="M4157.2,2429.7l-8.3-3.5c-75.4,66-148.4,169.8-201.1,296c-52.8,126.2-75.4,251-69.4,351.1l8.3,3.5
			c-6-100.1,16.6-224.9,69.4-351.1C4008.9,2599.5,4081.8,2495.8,4157.2,2429.7z"/>
	</g>
	<g>
		
			<rect x="4154.3" y="2815.8" transform="matrix(0.3857 -0.9226 0.9226 0.3857 -14.383 5686.9707)" class="st3" width="218.5" height="77"/>
		<path class="st4" d="M4341.2,2768.4l-84.3,201.6l-71.1-29.7l-16.9,40.4l76.9,32.1c19.1,8,41.2-1,49.2-20.2l89.1-213.1
			c8-19.1-1-41.2-20.2-49.2l-76.9-32.1l-16.9,40.4L4341.2,2768.4z"/>
	</g>
	<path class="st1" d="M4148.9,2426.3l-201.4-84.2c-19.1-8-41.2,1-49.2,20.2L3656.8,2940c-8,19.1,1,41.2,20.2,49.2l201.4,84.2
		c-6-100.1,16.6-224.9,69.4-351.1C4000.5,2596.1,4073.5,2492.3,4148.9,2426.3z"/>
	<path class="st5" d="M4004,2546.6c-19.2-8-28.2-30-20.2-49.2l11.9-28.4c8-19.1,30-28.2,49.2-20.2l78.3,32.7
		c19.1,8,28.2,30,20.2,49.2l-11.9,28.4c-8,19.1-30,28.2-49.2,20.2L4004,2546.6z"/>
	
		<rect x="4191.9" y="2459" transform="matrix(0.3857 -0.9226 0.9226 0.3857 212.7609 5469.5889)" class="st5" width="43.4" height="232.1"/>
	<path class="st6" d="M4021,2536c-13.9-5.8-20.6-21.2-15.1-34.5l8.2-19.6c5.5-13.2,21.3-19.2,35.1-13.4l56.7,23.7
		c13.9,5.8,20.6,21.2,15.1,34.4l-8.2,19.6c-5.5,13.2-21.3,19.2-35.1,13.4L4021,2536z"/>
	<g>
		<path class="st5" d="M3820,2986.5c-19.1-8-28.2-30-20.2-49.2l11.9-28.4c8-19.1,30-28.2,49.2-20.2l78.3,32.7
			c19.1,8,28.2,30,20.2,49.2l-11.9,28.4c-8,19.1-30,28.2-49.2,20.2L3820,2986.5z"/>
		
			<rect x="4008" y="2898.9" transform="matrix(0.3857 -0.9226 0.9226 0.3857 -306.2161 5569.9043)" class="st5" width="43.4" height="232.1"/>
		<path class="st6" d="M3837.1,2975.9c-13.9-5.8-20.6-21.2-15.1-34.4l8.2-19.6c5.5-13.2,21.3-19.2,35.1-13.4l56.7,23.7
			c13.9,5.8,20.6,21.2,15.1,34.4l-8.2,19.6c-5.5,13.2-21.3,19.2-35.1,13.4L3837.1,2975.9z"/>
	</g>
</g>
<g>
	<g>
		<path class="st3" d="M4334.3,1347.5l-22.7-66.2c-30.5,16.8-106.3,66.4-133.4,156.1c31.6-31.9,72.9-59.2,121.5-77.8
			C4301.4,1358.9,4316.9,1353.5,4334.3,1347.5z"/>
		<path class="st3" d="M4427.1,1724.9c-50.4,15.6-100.6,19.6-145.7,13.8c76.5,54.1,166.7,46.8,201.1,41.3l-22.7-66.2
			C4443.2,1719.4,4428.7,1724.4,4427.1,1724.9z"/>
		<path class="st7" d="M4510.9,1796c1.7-3.2,2.1-7,0.9-10.4l-27.5-80.2c14.4-4.9,26.1-8.9,27.5-9.4l-62.8-183.2l-519.1,178
			l31.8,92.7c3.7,10.9,15.6,16.7,26.5,13c10.9-3.7,16.7-15.6,13-26.5l-11.1-32.5c1.5,0.1,3.1-0.1,4.6-0.6c6-2.1,9.2-8.6,7.2-14.7
			l-7.5-21.9l138-47.3c20.4,33.6,54.3,58.6,96.3,73.2c108.9,114.3,272.1,76.6,274.1,76.1C4506.2,1801.5,4509.2,1799.2,4510.9,1796z
			 M4281.5,1738.6c45.1,5.9,95.3,1.8,145.7-13.8c1.5-0.5,16.1-5.4,32.7-11.1l22.7,66.2C4448.2,1785.4,4358,1792.8,4281.5,1738.6z"/>
		<path class="st8" d="M4386.2,1329.6c-1.6,0.5-13.2,4.6-27.5,9.5l-27.5-80.2c-1.2-3.4-3.7-6.2-7.1-7.7c-3.3-1.4-7.1-1.4-10.4,0.1
			c-1.9,0.8-153.8,71.2-169.7,228.3c-24.2,37.3-35.7,77.9-31.1,116.9l-138,47.3l-7.5-21.9c-2.1-6-8.6-9.2-14.7-7.2
			c-1.5,0.5-2.9,1.3-4,2.3l-11.1-32.5c-3.7-10.9-15.6-16.7-26.5-13c-10.9,3.7-16.7,15.6-13,26.5l31.8,92.7l519.1-178L4386.2,1329.6z
			 M4311.6,1281.3l22.7,66.2c-17.4,6-32.8,11.4-34.7,12.1c-48.5,18.6-89.9,46-121.5,77.8C4205.3,1347.7,4281,1298.1,4311.6,1281.3z"
			/>
	</g>
	
		<rect x="3824.1" y="1549.2" transform="matrix(0.9459 -0.3244 0.3244 0.9459 -343.5303 1352.1593)" class="st9" width="120.2" height="314.7"/>
	
		<rect x="3784.7" y="1561.2" transform="matrix(0.9459 -0.3244 0.3244 0.9459 -356.3458 1328.4563)" class="st10" width="43.7" height="343.9"/>
	<path class="st7" d="M3914.4,1794.8c-18.4,6.3-38.4-3.5-44.7-21.9l-37.7-110c-6.3-18.4,3.5-38.4,21.9-44.7l0,0
		c18.4-6.3,38.4,3.5,44.7,21.9l37.7,110C3942.6,1768.5,3932.8,1788.5,3914.4,1794.8L3914.4,1794.8z"/>
</g>
<g>
	<path class="st11" d="M3858.1,2198.7c-66.6,0-156.4-94.5-156.4-94.5s89.8-94.5,156.4-94.5s84.9,42.3,84.9,94.5
		C3943.1,2156.4,3924.8,2198.7,3858.1,2198.7z"/>
	<path class="st12" d="M3871.3,2169.5c-46,0-107.9-65.2-107.9-65.2s61.9-65.2,107.9-65.2c46,0,58.6,29.2,58.6,65.2
		C3929.9,2140.3,3917.3,2169.5,3871.3,2169.5z"/>
	<path class="st13" d="M3893.3,2142c-26.6,0-62.5-37.8-62.5-37.8s35.9-37.8,62.5-37.8c26.6,0,34,16.9,34,37.8
		C3927.3,2125.1,3920,2142,3893.3,2142z"/>
	<g>
		<g>
			<path class="st14" d="M4096.6,2027.1c0,0-68.2-130.1-216.1-130.1c0,0-16.3,8.1,3.3,21.1c19.5,13,73.1,24.4,73.1,107.4
				L4096.6,2027.1z"/>
			<path class="st15" d="M4096.6,2180.7c0,0-68.2,130.1-216.1,130.1c0,0-16.3-8.1,3.3-21.1c19.5-13,73.1-24.4,73.1-107.4
				L4096.6,2180.7z"/>
		</g>
		<g>
			<path class="st16" d="M4240.3,2248.4c60.5,0,117.5-10.2,167.4-25.5v-119h-50.6c0,44-35.7,79.7-79.6,79.7
				c-44,0-79.6-35.7-79.6-79.7h-255.9v77.9C4004.8,2221.8,4115,2248.4,4240.3,2248.4z"/>
			<path class="st17" d="M4277.4,2024.2c44,0,79.6,35.7,79.6,79.7h50.6v-119c-49.8-15.3-106.8-25.5-167.4-25.5
				c-125.3,0-235.4,26.5-298.4,66.6v77.9h255.9C4197.8,2059.9,4233.5,2024.2,4277.4,2024.2z"/>
			<path class="st18" d="M3941.7,2027.2c0-2-1.6-3.6-3.6-3.6h-17c-2,0-3.6,1.6-3.6,3.6v76.8h24.3V2027.2z"/>
			<path class="st19" d="M3941.7,2180.6v-76.7h-24.3v76.7c0,2,1.6,3.6,3.6,3.6h17C3940,2184.2,3941.7,2182.6,3941.7,2180.6z"/>
			<path class="st19" d="M4277.4,2158.5c-30.1,0-54.6-24.5-54.6-54.6h-25.1c0,44,35.7,79.7,79.6,79.7c44,0,79.6-35.7,79.6-79.7H4332
				C4332,2134.1,4307.6,2158.5,4277.4,2158.5z"/>
			<path class="st18" d="M4277.4,2024.2c-44,0-79.6,35.7-79.6,79.7h25.1c0-30.2,24.4-54.6,54.6-54.6c30.1,0,54.6,24.5,54.6,54.6
				h25.1C4357.1,2059.9,4321.4,2024.2,4277.4,2024.2z"/>
			<path class="st20" d="M4277.4,2158.5c30.1,0,54.6-24.5,54.6-54.6h-109.1C4222.9,2134.1,4247.3,2158.5,4277.4,2158.5z"/>
			<path class="st21" d="M4277.4,2049.3c-30.1,0-54.6,24.5-54.6,54.6H4332C4332,2073.8,4307.6,2049.3,4277.4,2049.3z"/>
		</g>
	</g>
	<g>
		<path class="st15" d="M4594.4,2103.9h-186.8v119C4518.8,2188.9,4594.4,2129.9,4594.4,2103.9z"/>
		<path class="st14" d="M4594.4,2103.9c0-26-75.6-85-186.8-119v119H4594.4L4594.4,2103.9z"/>
		<path class="st15" d="M4056.1,2108.9c0.1-0.4,0.2-0.8,0.2-1.3v-0.1v-3.6h-182.4v4.1v0.1c0,2.3,1.9,4.1,4.1,4.1h5.5l8,0.2
			l146.7,11.5C4053.1,2124,4055.5,2111.5,4056.1,2108.9z"/>
		<path class="st14" d="M4056.3,2099.8v-0.1c0-0.4-0.1-0.9-0.2-1.3c-0.2-0.7-0.5-1.5-1-2.3c-1.5-4.5-5.4-12.2-17.1-12.2l-146.8,11.5
			l-7.4,0.1h-5.5c-1.7,0-3.2,1.1-3.8,2.6c-0.3,0.6-0.5,1.3-0.5,2v0.1v3.6h182.4V2099.8z"/>
	</g>
</g>
<g>
	<path class="st17" d="M3249.6,3174.5c0.2,1.6,55.1,303,55.1,303l-124.5,35.4l-17.3-321.6c0,0-0.1-3.1-0.3-4.6
		c-3.4-24,13.4-46.2,37.4-49.6C3224,3133.7,3246.2,3150.4,3249.6,3174.5z"/>
	<g>
		<g>
			<polygon class="st16" points="3507.3,3523.8 3507.3,3523.8 3499.9,3521.2 3473.8,3420.9 3791.9,3179.5 3858.1,3434.5 			"/>
			<polygon class="st17" points="3924.3,3689.5 3528.1,3629.9 3502,3529.6 3507.3,3523.8 3858.1,3434.5 			"/>
		</g>
		<g>
			<g>
				<path class="st22" d="M3530.8,3622.4c3.7,14.1-3.1,28-15.1,31.1l-314.7,80.1c-12,3.1-24.7-5.9-28.3-20l-27.4-105.5l358.1-91.1
					L3530.8,3622.4z"/>
				<path class="st23" d="M3145.4,3608l-27.3-105.3c-3.7-14.1,3.1-28,15.1-31.1l314.7-80.1c12-3.1,24.7,5.9,28.3,20l27.3,105.3
					L3145.4,3608z"/>
			</g>
			<path class="st17" d="M3405,3628.8c-3.4-12.9-15-21.1-26-18.4l-86.8,22.1c-11,2.8-17.2,15.6-13.8,28.5l0,0
				c3.4,12.9,15,21.2,26,18.4l86.8-22.1C3402.2,3654.5,3408.4,3641.7,3405,3628.8L3405,3628.8z"/>
		</g>
		<path class="st23" d="M3817.5,3181.8c-2.8-10.8-12.5-17.7-21.7-15.3l0,0c-9.2,2.3-14.4,13-11.5,23.8l128.1,493.5
			c2.8,10.8,12.5,17.7,21.7,15.4l0,0c9.2-2.3,14.4-13,11.5-23.8L3817.5,3181.8z"/>
		<g>
			<g>
				<path class="st16" d="M3066.5,3628.2c-11.5-44.3,9.1-88.1,46.3-100.1l43,165.7C3117.3,3701,3077.9,3672.5,3066.5,3628.2z"/>
			</g>
		</g>
		<g>
			<path class="st16" d="M4016.6,3566.4c0.7,7-1.9,11.8-6,10.7l-64.5-17.6c-4-1.1-7.9-7.7-8.6-14.7c-0.6-5.8,1.1-10.1,4-10.8
				c0.6-0.2,1.3-0.2,2,0l64.5,17.6C4012.1,3552.8,4015.9,3559.4,4016.6,3566.4z"/>
			<path class="st16" d="M3931.8,3239.9c-2.8-6.5-7.5-9.4-10.5-6.6l-47.9,46.2c-3,2.9-3.2,10.5-0.4,17c2.3,5.3,5.9,8.3,8.7,7.6
				c0.6-0.2,1.2-0.5,1.7-1l47.9-46.2C3934.5,3254.1,3934.6,3246.4,3931.8,3239.9z"/>
			<path class="st16" d="M3981.1,3415.1l-62.8,16c-3.6,0.9-8.1-4-9.9-11.1c-1.8-7.1-0.4-13.5,3.3-14.5l62.8-16
				c3.7-0.9,8.1,4,9.9,11.1C3986.3,3407.7,3984.8,3414.1,3981.1,3415.1z"/>
		</g>
	</g>
</g>
<g>
	<g>
		<g>
			<path class="st10" d="M1623.6,2998.5c5.3-3.1,12.1-1.4,15.2,3.9l31,52.8c3.1,5.3,1.3,12.1-4,15.2l-19.2,11.3
				c-5.3,3.1-12.1,1.3-15.2-4l-31-52.8c-3.1-5.3-1.3-12.1,4-15.2L1623.6,2998.5z"/>
			<path class="st10" d="M1317.5,2477.7c5.3-3.1,12.1-1.3,15.2,3.9l31,52.8c3.1,5.3,1.3,12.1-4,15.2l-19.2,11.3
				c-5.3,3.1-12.1,1.3-15.2-4l-31-52.8c-3.1-5.3-1.3-12.1,4-15.2L1317.5,2477.7z"/>
		</g>
		<g>
			<g>
				<polygon class="st10" points="1123.7,3141.3 1161.5,3205.6 1056.9,3280.3 1026.8,3229.2 				"/>
				<polygon class="st10" points="991.8,2917 954.1,2852.7 837.9,2907.7 867.9,2958.8 				"/>
			</g>
		</g>
		<g>
			<path class="st9" d="M1035.8,3263.8l-194-330c-16.9-28.8-5.1-67.1,26.5-85.7l1.7-1c1.2-2,2.5-4,4-6c7.7-10.6,7.1-17.5,0.9-27.8
				c-37.2-62.3-73.7-124.9-110.5-187.4c-2.7-4.6-6.3-8.8-9.6-13.5c-57.8,32.8-91.3,78.6-93.2,146.2c-2.1,73,20.4,139.5,55.3,200.9
				c79.2,139.6,160.6,277.9,243.9,415.1c36.1,59.5,86.3,106.8,149.3,139.4c59,30.5,112.3,17,165-17.7
				c-42.5-72.3-84.5-143.7-126.2-214.7c-9.9,1.5-19,2.1-27.3,1.9C1090.3,3300.5,1052.3,3292,1035.8,3263.8z"/>
			<path class="st10" d="M768.9,2606.7c41.5,70.6,83.1,141.3,125.3,213.2c52.2-23.5,54-29.2,26.3-76.4
				c-24.9-42.4-49.8-84.8-74.8-127.2C823.5,2578.7,802.3,2576,768.9,2606.7z"/>
			<path class="st10" d="M1161.9,3274.6c41.8,71.2,83.7,142.4,125.5,213.4c46.5-20.5,51-33.5,26.8-74.7
				c-24.2-41.2-48.4-82.4-72.7-123.6C1220.1,3253.4,1199.1,3249.3,1161.9,3274.6z"/>
		</g>
		<path class="st24" d="M1105.4,3001.2c47.1,80.2,150.4,107,230.5,59.8c80.2-47.1,107-150.4,59.8-230.5
			c-47.1-80.2-150.4-107-230.5-59.8C1085,2817.7,1058.2,2921,1105.4,3001.2z M1346.2,2859.6c31.2,53.2,13.5,121.6-39.7,152.8
			c-53.2,31.2-121.6,13.5-152.8-39.7c-31.2-53.1-13.5-121.6,39.7-152.8C1246.6,2788.7,1315,2806.4,1346.2,2859.6z"/>
		<path class="st9" d="M958.6,2779.1l-32.8,87.1l87.5,148.8l35.3,60l87.5,148.8l92,13.7l304.2-59.3l139.2-81.8l-373.8-636
			l-139.2,81.8L958.6,2779.1z M1395.7,2830.5c47.1,80.2,20.3,183.4-59.8,230.5c-80.2,47.1-183.4,20.3-230.5-59.8
			c-47.1-80.2-20.3-183.4,59.8-230.5C1245.3,2723.5,1348.6,2750.3,1395.7,2830.5z"/>
		<path class="st10" d="M1154.3,2972.4c31.2,53.2,99.7,70.9,152.8,39.7c53.1-31.2,70.9-99.7,39.7-152.8
			c-31.2-53.1-99.7-70.9-152.8-39.7C1140.8,2850.8,1123.1,2919.2,1154.3,2972.4z"/>
		<g>
			<g>
				<path class="st10" d="M1118.8,2966.2c11.1-6.5,25.4-2.8,32,8.3c6.5,11.1,2.8,25.4-8.3,32c-11.1,6.5-25.4,2.8-32-8.3
					C1104,2987,1107.7,2972.7,1118.8,2966.2z"/>
				<path class="st10" d="M1358.6,2825.2c11.1-6.5,25.4-2.8,31.9,8.3c6.5,11.1,2.8,25.4-8.3,32c-11.1,6.5-25.4,2.8-32-8.3
					C1343.8,2846,1347.5,2831.7,1358.6,2825.2z"/>
			</g>
		</g>
		<g>
			<g>
				<path class="st10" d="M1200.2,2784.1c6.5,11.1,2.8,25.4-8.3,32c-11.1,6.5-25.4,2.8-32-8.3c-6.5-11.1-2.8-25.4,8.3-32
					C1179.4,2769.2,1193.7,2773,1200.2,2784.1z"/>
				<path class="st10" d="M1341.2,3023.9c6.5,11.1,2.8,25.4-8.3,32c-11.1,6.5-25.4,2.8-32-8.3c-6.5-11.1-2.8-25.4,8.3-32
					C1320.3,3009.1,1334.6,3012.8,1341.2,3023.9z"/>
			</g>
		</g>
		<g>
			<g>
				<path class="st10" d="M1121.8,2858.3c12.5,3.2,20,16,16.7,28.5c-3.2,12.5-16,20-28.5,16.7c-12.5-3.2-20-16-16.7-28.5
					C1096.6,2862.5,1109.3,2855,1121.8,2858.3z"/>
				<path class="st10" d="M1391.1,2928.2c12.5,3.2,20,16,16.7,28.5c-3.2,12.5-16,20-28.5,16.7c-12.5-3.2-20-16-16.7-28.5
					C1365.8,2932.4,1378.6,2924.9,1391.1,2928.2z"/>
			</g>
		</g>
		<g>
			<g>
				<path class="st10" d="M1308.1,2787c-3.2,12.5-16,20-28.5,16.7c-12.5-3.2-20-16-16.7-28.5c3.2-12.5,16-20,28.5-16.7
					C1303.9,2761.8,1311.3,2774.6,1308.1,2787z"/>
				<path class="st10" d="M1238.2,3056.3c-3.2,12.5-16,20-28.5,16.7c-12.5-3.2-20-16-16.7-28.5c3.2-12.5,16-20,28.5-16.7
					C1234,3031.1,1241.5,3043.8,1238.2,3056.3z"/>
			</g>
		</g>
		<g>
			<g>
				<path class="st10" d="M1152.3,2814.6c10.4,7.6,12.6,22.2,5,32.6c-7.6,10.4-22.2,12.6-32.6,5c-10.4-7.6-12.6-22.3-5-32.6
					C1127.3,2809.2,1141.9,2807,1152.3,2814.6z"/>
				<path class="st10" d="M1376.5,2979.4c10.4,7.6,12.6,22.2,5,32.6c-7.6,10.4-22.3,12.6-32.6,5c-10.4-7.6-12.6-22.2-5-32.6
					C1351.5,2974,1366.1,2971.7,1376.5,2979.4z"/>
			</g>
		</g>
		<g>
			<g>
				<path class="st10" d="M1351.8,2817.6c-7.6,10.4-22.2,12.6-32.6,5c-10.4-7.6-12.6-22.2-5-32.6c7.6-10.4,22.3-12.6,32.6-5
					C1357.2,2792.5,1359.4,2807.2,1351.8,2817.6z"/>
				<path class="st10" d="M1187,3041.7c-7.6,10.4-22.3,12.6-32.6,5c-10.4-7.6-12.6-22.2-5-32.6c7.6-10.4,22.2-12.6,32.6-5
					C1192.4,3016.7,1194.6,3031.3,1187,3041.7z"/>
			</g>
		</g>
		<g>
			<g>
				<path class="st10" d="M1246.9,3056.8c-1.8-12.8,7.1-24.6,19.9-26.4c12.8-1.8,24.6,7.1,26.4,19.9c1.8,12.8-7.1,24.6-19.9,26.4
					C1260.5,3078.5,1248.7,3069.6,1246.9,3056.8z"/>
				<path class="st10" d="M1208,2781.3c-1.8-12.8,7.1-24.6,19.9-26.4c12.8-1.8,24.6,7.1,26.4,19.9c1.8,12.8-7.1,24.6-19.9,26.4
					C1221.7,2803,1209.8,2794.1,1208,2781.3z"/>
			</g>
		</g>
		<g>
			<g>
				<path class="st10" d="M1109.6,2912.1c12.8-1.8,24.6,7.1,26.4,19.9c1.8,12.8-7.1,24.6-19.9,26.4c-12.8,1.8-24.6-7.1-26.4-19.9
					C1087.9,2925.7,1096.8,2913.9,1109.6,2912.1z"/>
				<path class="st10" d="M1385,2873.3c12.8-1.8,24.6,7.1,26.4,19.9c1.8,12.8-7.1,24.6-19.9,26.4c-12.8,1.8-24.6-7.1-26.4-19.9
					C1363.4,2886.9,1372.3,2875.1,1385,2873.3z"/>
			</g>
		</g>
	</g>
	<path class="st24" d="M1206.8,2841.5c40.6-23.9,92.8-10.3,116.7,30.3c23.9,40.6,10.3,92.8-30.3,116.7
		c-40.6,23.9-92.8,10.3-116.7-30.3C1152.6,2917.7,1166.2,2865.4,1206.8,2841.5z"/>
</g>
<g>
	<g>
		<path class="st25" d="M2070.7,3575.3c-2.6,4.8-5.3,9.5-8.2,14.1c-1.8-7.4-4-14.7-6.7-21.9c-5.7-15.2-13.3-30.1-22.3-44.5
			c58.1-122.2,44.5-197.5,29.4-233.6c26,50.3,70.9,166.7,8.5,284.8C2071.2,3574.4,2070.9,3574.9,2070.7,3575.3z"/>
		<path class="st26" d="M1711.6,3705.2c0,0,203.6,41,308.9-156.5c0.2-0.4,0.5-0.8,0.7-1.3c4.4-8.4,8.5-16.6,12.3-24.6
			c9,14.4,16.6,29.3,22.3,44.5c2.7,7.3,5,14.6,6.7,21.9C1973.8,3730.5,1765.1,3726.1,1711.6,3705.2z"/>
		<path class="st27" d="M2062.5,3589.4c1.4,6.1,2.6,12.2,3.3,18.3c-80.3,120.6-220.4,153.2-360.5,114.4l-119,225.3l19.6,10.4
			c15.9,8.4,22,28.2,13.6,44.1c-8.4,16-28.2,22-44.1,13.6l-84.2-44.5l-84.3-44.5c-15.9-8.4-22.1-28.1-13.6-44.1
			c8.4-15.9,28.2-22,44.1-13.6l19.7,10.4l119-225.3c-115.5-97.7-167.2-238.9-101.5-378.6c0.6,3.1,1.7,7.5,3.6,12.6
			c-85.9,199,114,372.2,114,372.2l-120.8,228.6c0,0-52-29.8-61.8-11.2c0,0-18,27.7,0.5,37.5c18.5,9.8,96.2,50.8,96.2,50.8
			l149.7-283.3c0,0-122.4-154.4-73.7-312.5c3,0.7,6.1,1.4,9.3,2c36.2,7.1,72.2,7.8,106.8,6.6c71.6-2.5,137-13,185.1,9.7
			c49.4,23.3,112.2,74.4,150.1,134.7c-3.8,8-7.9,16.2-12.3,24.6c-0.2,0.4-0.5,0.8-0.7,1.3c-105.3,197.5-308.9,156.5-308.9,156.5
			C1765.1,3726.1,1973.8,3730.5,2062.5,3589.4z"/>
		<path class="st26" d="M1656,3682.4l-149.7,283.3c0,0-77.7-41-96.2-50.8c-18.5-9.8-0.5-37.5-0.5-37.5c9.8-18.5,61.8,11.2,61.8,11.2
			l120.8-228.6c0,0-199.9-173.2-114-372.2c8.6,23.9,33.4,65.3,104,82.1C1533.6,3528,1656,3682.4,1656,3682.4z"/>
	</g>
	<g>
		<path class="st28" d="M2062.9,3289.3c-8.5-16.5-15-25.9-15-25.9S2055.5,3271.7,2062.9,3289.3z"/>
	</g>
	<g>
		<path class="st26" d="M1946,3157.1c0,0-0.9,0-2.6,0c-2.4-1.4-4.7-2.8-7.1-4.2C1942.6,3155.5,1946,3157.1,1946,3157.1z"/>
		<g>
			<path class="st29" d="M2081.7,3581.1c-5,9.3-10.3,18.1-15.9,26.5c-0.7-6.1-1.8-12.2-3.3-18.3c2.9-4.5,5.6-9.2,8.2-14.1
				c0.2-0.4,0.5-0.8,0.7-1.3c62.4-118.1,17.5-234.5-8.5-284.8c-7.3-17.5-15-25.9-15-25.9s6.5,9.4,15,25.9
				c15.1,36.2,28.7,111.5-29.4,233.6c-37.8-60.3-100.7-111.4-150.1-134.7c-48.1-22.7-113.5-12.2-185.1-9.7
				c-34.6,1.2-70.6,0.6-106.8-6.6c-3.2-0.6-6.3-1.3-9.3-2c4.5-14.4,10.3-28.9,17.9-43.3c0.2-0.3,0.3-0.6,0.5-0.9
				c85.6-161.9,315.9-168.4,342.8-168.6c152.5,91.2,224,262.4,139.8,421.7C2082.8,3579.6,2082.2,3580.3,2081.7,3581.1z"/>
			<path class="st30" d="M1488,3267.3C1488,3267.4,1488,3267.4,1488,3267.3c-3.6,6.9-6.9,13.7-9.8,20.4c-1.9-5.2-3-9.5-3.6-12.6
				c1.8-3.9,3.8-7.8,5.8-11.8c0.4-0.8,0.7-1.7,1.1-2.5c87.8-166.2,275.8-202.9,442-115.1c1,0.5,1.9,1.1,2.9,1.7
				c3.4,1.8,6.7,3.7,10,5.5C1881.7,3130.6,1611,3034.6,1488,3267.3z"/>
		</g>
		<path class="st25" d="M1600.6,3325.7c-0.2,0.3-0.3,0.6-0.5,0.9c-7.5,14.4-13.4,28.9-17.9,43.3c-70.6-16.9-95.4-58.2-104-82.1
			c2.9-6.8,6.2-13.6,9.8-20.4c0,0,0,0,0,0c123-232.7,393.7-136.7,448.3-114.4c2.4,1.4,4.8,2.8,7.1,4.2
			C1916.5,3157.3,1686.2,3163.8,1600.6,3325.7z"/>
	</g>
	<path class="st31" d="M1881.7,3233.5c10.8-20.4,3-45.8-17.5-56.6c-20.4-10.8-45.8-3-56.6,17.5c-10.8,20.4-3,45.8,17.5,56.6
		C1845.6,3261.7,1870.9,3253.9,1881.7,3233.5z"/>
	<path class="st31" d="M1708.1,3265.9c-10.1,19-33.7,26.3-52.7,16.3c-19-10.1-26.3-33.7-16.3-52.7s33.7-26.3,52.7-16.3
		C1710.9,3223.2,1718.2,3246.8,1708.1,3265.9z M1696.4,3259.7c6.6-12.6,1.8-28.2-10.8-34.9c-12.6-6.6-28.2-1.8-34.9,10.8
		c-6.6,12.6-1.8,28.2,10.8,34.9C1674.1,3277.1,1689.8,3272.3,1696.4,3259.7z"/>
	<g>
		<path class="st25" d="M1495.7,3860.3c-0.4,0.7-0.7,1.4-1,2.1c-5.1-10.4-5.4-23,0.5-34.1c9.7-18.3,32.3-25.3,50.6-15.6
			c8.4,4.5,14.5,11.7,17.6,20C1537.5,3824.4,1508.8,3835.5,1495.7,3860.3z"/>
		<path class="st29" d="M1561.4,3863.3c-9.7,18.3-32.4,25.3-50.7,15.6c-7.3-3.8-12.7-9.7-16.1-16.6c0.3-0.7,0.7-1.4,1-2.1
			c13.1-24.8,41.9-35.9,67.7-27.7C1567,3842.3,1566.6,3853.5,1561.4,3863.3z"/>
	</g>
	<g>
		<path class="st25" d="M1651.6,3576.2c-1.8,3.4-3.3,6.9-4.5,10.5c-7.6-15.2-8.1-33.7,0.5-49.8c14-26.5,46.9-36.6,73.4-22.6
			c12.5,6.6,21.3,17.3,25.7,29.7C1711.7,3527.9,1669.8,3541.8,1651.6,3576.2z"/>
		<path class="st29" d="M1743.6,3587.6c-14,26.5-46.9,36.6-73.4,22.6c-10.4-5.5-18.2-13.8-23.1-23.6c1.2-3.6,2.7-7,4.5-10.5
			c18.2-34.5,60-48.4,95-32.3C1751.6,3557.8,1751,3573.6,1743.6,3587.6z"/>
	</g>
</g>
<g>
	<g>
		<path class="st32" d="M3043.1,3885.8h-917.7v-560h424c7-8.8,20-14.7,34.9-14.7c14.9,0,27.9,5.9,34.9,14.7h423.9V3885.8z"/>
		<rect x="2146.3" y="3347" class="st33" width="875.9" height="529.1"/>
		<path class="st34" d="M2662.7,3378.6c0,0,11.1-63.9-8.3-106.9l38.9,27.8l26.4-29.2c0,0,16.7,48.6,4.2,111.1L2662.7,3378.6z"/>
		<path class="st35" d="M2146.3,3886.5v-541.1c0,0,210.7,80.7,435.2,1.4v539.6C2581.5,3886.4,2334.6,3911.9,2146.3,3886.5z"/>
		<path class="st36" d="M2160.9,3895.5v-541.1c0,0,236.8,79.2,420.7-7.5l0.6,539.5C2582.2,3886.4,2238.6,3931.4,2160.9,3895.5z"/>
		<path class="st37" d="M2199.7,3962.8l1.5-538.1c0,0,260.8,21,380.4-77.7l-0.2,539.4C2581.3,3886.4,2380.6,3991.2,2199.7,3962.8z"
			/>
		<path class="st38" d="M2281.1,4007.5V3462c0,0,170.4,23.9,300.4-115.1l1.4,540.8C2582.9,3887.6,2475.4,4022.5,2281.1,4007.5z"/>
	</g>
	<g>
		<path class="st35" d="M3017.1,3884V3343c0,0-213,83.1-435.7,3.9l2.2,537.2C2583.7,3884,2828.8,3909.4,3017.1,3884z"/>
		<path class="st36" d="M3004.1,3893V3352c0,0-238.8,81.6-422.6-5l1.1,537.1C2582.6,3884.1,2926.4,3928.9,3004.1,3893z"/>
		<path class="st37" d="M2963.3,3960.9l-1.5-538.1c0,0-260.7,22.7-380.3-75.9l0.6,539.3C2582.2,3886.2,2782.4,3989.3,2963.3,3960.9z
			"/>
	</g>
</g>
<g>
	<g>
		<g>
			
				<rect x="3596.7" y="396.3" transform="matrix(0.5485 -0.8362 0.8362 0.5485 1038.8627 3395.9038)" class="st39" width="134.3" height="679.4"/>
			
				<rect x="3336.5" y="609.4" transform="matrix(0.5485 -0.8362 0.8362 0.5485 797.6348 3375.2522)" class="st17" width="375.3" height="679.4"/>
		</g>
		<g>
			<g>
				
					<rect x="3322.9" y="667.9" transform="matrix(0.5485 -0.8362 0.8362 0.5485 929.7233 3120.678)" class="st40" width="63.1" height="63.1"/>
				
					<rect x="3782.6" y="969.5" transform="matrix(0.5485 -0.8362 0.8362 0.5485 885.1728 3641.2627)" class="st40" width="63.1" height="63.1"/>
				
					<rect x="3414.8" y="728.2" transform="matrix(0.5485 -0.8362 0.8362 0.5485 920.8307 3224.8142)" class="st40" width="63.1" height="63.1"/>
				
					<rect x="3506.8" y="788.5" transform="matrix(0.5485 -0.8362 0.8362 0.5485 911.8875 3328.8923)" class="st40" width="63.1" height="63.1"/>
				
					<rect x="3598.7" y="848.8" transform="matrix(0.5485 -0.8362 0.8362 0.5485 902.9781 3433.01)" class="st40" width="63.1" height="63.1"/>
				
					<rect x="3690.6" y="909.1" transform="matrix(0.5485 -0.8362 0.8362 0.5485 894.0781 3537.1377)" class="st39" width="63.1" height="63.1"/>
			</g>
		</g>
		<g>
			<g>
				
					<rect x="3259.9" y="764" transform="matrix(0.5485 -0.8362 0.8362 0.5485 820.9688 3111.3975)" class="st40" width="63.1" height="63.1"/>
				
					<rect x="3719.6" y="1065.5" transform="matrix(0.5485 -0.8362 0.8362 0.5485 776.4003 3631.9651)" class="st40" width="63.1" height="63.1"/>
				
					<rect x="3351.8" y="824.3" transform="matrix(0.5485 -0.8362 0.8362 0.5485 811.9916 3215.4426)" class="st40" width="63.1" height="63.1"/>
				
					<rect x="3443.7" y="884.6" transform="matrix(0.5485 -0.8362 0.8362 0.5485 803.1406 3319.6208)" class="st40" width="63.1" height="63.1"/>
				
					<rect x="3535.7" y="944.9" transform="matrix(0.5485 -0.8362 0.8362 0.5485 794.2379 3423.7471)" class="st39" width="63.1" height="63.1"/>
				
					<rect x="3627.6" y="1005.2" transform="matrix(0.5485 -0.8362 0.8362 0.5485 785.2877 3527.8193)" class="st39" width="63.1" height="63.1"/>
			</g>
		</g>
		<g>
			<g>
				
					<rect x="3198.3" y="857.8" transform="matrix(0.5485 -0.8362 0.8362 0.5485 714.7076 3102.2815)" class="st40" width="63.1" height="63.1"/>
				
					<rect x="3658" y="1159.4" transform="matrix(0.5485 -0.8362 0.8362 0.5485 670.1692 3622.8853)" class="st40" width="63.1" height="63.1"/>
				
					<rect x="3290.3" y="918.1" transform="matrix(0.5485 -0.8362 0.8362 0.5485 705.7903 3206.3918)" class="st40" width="63.1" height="63.1"/>
				
					<rect x="3382.2" y="978.4" transform="matrix(0.5485 -0.8362 0.8362 0.5485 696.8963 3310.5242)" class="st40" width="63.1" height="63.1"/>
				
					<rect x="3474.1" y="1038.7" transform="matrix(0.5485 -0.8362 0.8362 0.5485 687.9454 3414.5928)" class="st40" width="63.1" height="63.1"/>
				
					<rect x="3566.1" y="1099" transform="matrix(0.5485 -0.8362 0.8362 0.5485 679.0067 3518.6765)" class="st40" width="63.1" height="63.1"/>
			</g>
		</g>
	</g>
	<g>
		<g>
			<path class="st41" d="M3513.4,633.8c-10.8,16.5-33,21.1-49.5,10.3c-16.5-10.8-21.1-33-10.3-49.5c10.8-16.5,33-21.1,49.5-10.3
				C3519.6,595.2,3524.2,617.3,3513.4,633.8z"/>
			<path class="st40" d="M3509.1,626.3c-5.7,8.6-17.3,11-25.9,5.4l-15.6-10.3c-8.6-5.7-11-17.3-5.4-25.9l53-80.7
				c5.7-8.6,17.3-11,25.9-5.4l15.6,10.2c8.6,5.7,11,17.3,5.4,25.9L3509.1,626.3z"/>
		</g>
		<g>
			<path class="st41" d="M3877.2,872.5c-10.8,16.5-33,21.1-49.5,10.3c-16.5-10.8-21.1-33-10.3-49.5c10.8-16.5,33-21.1,49.5-10.3
				C3883.4,833.9,3888,856,3877.2,872.5z"/>
			<path class="st40" d="M3873,865c-5.7,8.6-17.2,11-25.9,5.4l-15.6-10.3c-8.6-5.7-11-17.3-5.4-25.9l53-80.7
				c5.7-8.6,17.3-11,25.9-5.4l15.6,10.3c8.6,5.7,11,17.2,5.4,25.9L3873,865z"/>
		</g>
	</g>
</g>
<g>
	<g>
		<g>
			<g>
				<polygon class="st42" points="1196.8,1260.9 1176.4,1300.9 1097.8,1260.6 1118.2,1220.7 				"/>
				<g>
					<path class="st42" d="M828.9,1355c112.5,57.6,250.6,13.1,308.2-99.4c57.6-112.5,13.1-250.5-99.5-308.2
						c-112.5-57.6-250.5-13.1-308.2,99.4C671.9,1159.4,716.4,1297.3,828.9,1355z M764.5,1064.7c47.8-93.3,162.1-130.1,255.3-82.4
						c93.2,47.7,130.1,162,82.4,255.3c-47.7,93.3-162.1,130.1-255.3,82.4C753.6,1272.3,716.7,1158,764.5,1064.7z"/>
					<path class="st43" d="M1019.8,982.3c93.2,47.7,130.1,162,82.4,255.3l-337.7-172.9C812.2,971.5,926.5,934.6,1019.8,982.3z"/>
					<path class="st44" d="M764.5,1064.7l337.7,172.9c-47.7,93.3-162.1,130.1-255.3,82.4C753.6,1272.3,716.7,1158,764.5,1064.7z"/>
				</g>
			</g>
			<path class="st17" d="M1070.1,1105.1c6.4-1.6,10.6-8,9.3-14.6c-0.4-2.3-11.4-57.3-63.7-84.2c-72.6-37.3-135.8-3.8-138.5-2.3
				c-6.1,3.3-8.4,11-5,17.1c3.3,6.1,11,8.4,17.1,5c2.2-1.2,54.4-28.5,114.8,2.6c41.4,21.3,50.3,66,50.4,66.5
				c1.3,6.9,7.9,11.3,14.7,10.1C1069.6,1105.2,1069.9,1105.2,1070.1,1105.1z"/>
			<path class="st45" d="M744.2,1198.2c-26.5-104.8,37.2-211.7,142-238.2c104.8-26.5,211.7,37.1,238.2,142
				c26.5,104.8-37.1,211.7-142,238.2C877.7,1366.7,770.8,1303,744.2,1198.2z M753.2,1195.9c25.3,99.9,127.1,160.6,227,135.3
				c99.9-25.3,160.6-127.2,135.3-227.1c-25.3-99.9-127.2-160.6-227.1-135.3C788.6,994.2,727.9,1096,753.2,1195.9z"/>
		</g>
	</g>
	<g>
		<path class="st46" d="M1243.3,1246.4c-3.2-1.4-5-2.3-5-2.3s-9-2.1-20.7-0.6c-17.9,1.9-34.5,12.3-43.4,29.5c0,0,0,0,0,0
			c0,0,0,0,0,0c-8.9,17.2-7.8,36.8,1,52.5c5.6,10.5,12.5,16.6,12.5,16.6s2.6,1.5,7.2,4.2c0.1-0.4,0.1-0.8,0.3-1.2L1243.3,1246.4z"/>
		<path class="st46" d="M1477.8,1354.1c-2-1.6-4.3-3.1-6.9-4.4c-0.7-0.4-1.3-0.8-2-1.1c-0.6-0.3-1.3-0.5-2-0.8
			c-1.5-0.7-3.1-1.5-4.6-2.1c-34.7-15.6-141.8-64.1-194.3-88l-48.5,99.5c-0.5,1-1.3,1.8-2,2.6c50.4,29.5,150,87.6,182.4,106.7
			c1.4,0.9,2.9,1.7,4.4,2.6c0.6,0.3,1.2,0.8,1.8,1.1c0.7,0.4,1.4,0.6,2.1,0.9c2.6,1.3,5.1,2.4,7.6,3.1c19.8,6.7,41.2,3.8,58.2-6.9
			c0.2-0.1,0.4-0.2,0.5-0.3c3-1.9,5.9-4.2,8.6-6.6c0.3-0.3,0.6-0.6,1-0.9c2.6-2.4,5.1-5.1,7.3-8c0.3-0.3,0.5-0.7,0.7-1
			c2.3-3,4.3-6.2,6.1-9.6c0,0,0,0,0,0c0,0,0,0,0,0c1.8-3.4,3.2-7,4.3-10.6c0.1-0.4,0.3-0.8,0.4-1.2c1.1-3.5,1.8-7,2.3-10.6
			c0.1-0.4,0.1-0.9,0.2-1.3c0.4-3.6,0.6-7.3,0.4-10.9c0-0.2,0-0.4,0-0.6C1504.7,1385.5,1494.7,1366.4,1477.8,1354.1z"/>
		<path class="st42" d="M1268.1,1257.7c-11.1-5-19.8-9-24.8-11.2l-48.1,98.8c-0.2,0.4-0.2,0.8-0.3,1.2c5.2,3.1,13.1,7.7,22.8,13.3
			c0.7-0.8,1.5-1.6,2-2.6L1268.1,1257.7z"/>
	</g>
</g>
<g>
	<path class="st47" d="M1487.6,777c0,0,12.6-90,12-121.8c-0.6-31.8-22.1-59.2-22.1-59.2l-79.7-99.9l-137.5,89.6l-0.3-0.4l-1.8,1.8
		l-2.1,1.4l0.3,0.4L1138.4,703l79.7,99.9c0,0,22,27,52.9,34.7c30.9,7.7,121.4,15.4,121.4,15.4s26.9,2.3,60.7,42.3
		c31.5,41.8,27.7,68.5,27.7,68.5s-12.6,90-12,121.8c0.6,31.8,22.1,59.2,22.1,59.2l79.7,99.9l137.5-89.6l0.3,0.4l1.8-1.8l2.1-1.4
		l-0.3-0.4l117.9-114.2l-79.7-99.9c0,0-22-27-52.9-34.7c-30.9-7.7-121.4-15.4-121.4-15.4s-26.9-2.3-60.7-42.3
		C1483.8,803.7,1487.6,777,1487.6,777z"/>
	<g>
		<path class="st48" d="M1109,684.7c-4.2,3.4-4.1,10.6,0.3,16.1l13.4,16.8c4.4,5.5,11.4,7.3,15.6,3.9l138.8-110.7l-29.3-36.8
			L1109,684.7z"/>
		<path class="st49" d="M1415.5,484l-13.4-16.8c-4.4-5.5-11.4-7.3-15.6-3.9L1247.8,574l29.3,36.8l138.7-110.7
			C1420.1,496.8,1419.9,489.5,1415.5,484z"/>
		<path class="st49" d="M1859.3,1056.1c4.2-3.4,4.1-10.6-0.3-16.1l-13.4-16.8c-4.4-5.5-11.4-7.3-15.6-3.9L1691.2,1130l29.3,36.8
			L1859.3,1056.1z"/>
		<path class="st48" d="M1552.8,1256.8l13.4,16.8c4.4,5.5,11.4,7.3,15.6,3.9l138.8-110.7l-29.3-36.8l-138.8,110.7
			C1548.2,1244.1,1548.4,1251.3,1552.8,1256.8z"/>
	</g>
	<g>
		<g>
			<path class="st50" d="M1220.2,756.5c5.7,6.5,41.8,46.4,89.8,52.9c53.4,7.2,133.4,9.9,133.4,9.9L1326,672.1L1220.2,756.5z"/>
		</g>
		<g>
			<path class="st51" d="M1431.8,587.7c5.1,7,35.9,51.1,31.6,99.3c-4.8,53.7-20,132.3-20,132.3L1326,672.1L1431.8,587.7z"/>
		</g>
	</g>
	<g>
		<g>
			<path class="st51" d="M1764.2,1004.5c-5.7-6.5-41.8-46.4-89.8-52.8c-53.4-7.2-133.4-9.9-133.4-9.9l117.4,147.1L1764.2,1004.5z"/>
		</g>
		<g>
			<path class="st50" d="M1552.6,1173.3c-5.1-7-35.9-51-31.6-99.3c4.8-53.7,20-132.3,20-132.3l117.4,147.1L1552.6,1173.3z"/>
		</g>
	</g>
	<g>
		<path class="st51" d="M1461.4,835.1c-1.9-2.4-4.9-3.1-6.7-1.7l6.8,8.5C1463.3,840.5,1463.2,837.4,1461.4,835.1z"/>
		<path class="st50" d="M1454.8,840.3c1.9,2.4,4.9,3.1,6.7,1.7l-6.8-8.5C1452.9,834.8,1453,837.9,1454.8,840.3z"/>
		<path class="st50" d="M1484.9,878c1.9,2.4,4.9,3.1,6.7,1.7l-6.8-8.5C1483,872.6,1483.1,875.6,1484.9,878z"/>
		<path class="st51" d="M1491.5,872.8c-1.9-2.4-4.9-3.1-6.7-1.7l6.8,8.5C1493.4,878.2,1493.3,875.2,1491.5,872.8z"/>
		<path class="st51" d="M1521.6,910.5c-1.9-2.4-4.9-3.1-6.7-1.7l6.8,8.5C1523.5,916,1523.4,912.9,1521.6,910.5z"/>
		<path class="st50" d="M1515,915.7c1.9,2.4,4.9,3.1,6.7,1.7l-6.8-8.5C1513.1,910.3,1513.2,913.4,1515,915.7z"/>
	</g>
</g>
<g>
	<g>
		<path class="st52" d="M809.5,1603.9c-5.9,9.8-9.6,20.9-9.6,32.8v781.2c0,15.8,6.1,30.1,16.1,41.9l303.2-396.1l0.4-1.4l0.9,1.4
			l26.6-34.7l-27.9-35.2l-0.9,1.4l-0.4-1.4L809.5,1603.9z"/>
		<path class="st52" d="M817.2,2459.8c0,0-366.3-378.5-366.3-434.1c0-55.6,359.8-421.8,359.8-421.8L817.2,2459.8z"/>
		<g>
			<rect x="713.5" y="1746.8" class="st17" width="642.3" height="550.5"/>
			<rect x="769.2" y="1785.7" class="st53" width="28.7" height="472.7"/>
			<rect x="900.8" y="1785.7" class="st53" width="28.7" height="472.7"/>
			<rect x="835" y="1785.7" class="st53" width="28.7" height="472.7"/>
			<rect x="966.6" y="1785.7" class="st53" width="28.7" height="472.7"/>
			<rect x="1028.2" y="1785.7" class="st53" width="28.7" height="472.7"/>
			<rect x="1094" y="1785.7" class="st53" width="28.7" height="472.7"/>
		</g>
		<g>
			<polygon class="st54" points="1103.4,2085.8 1094.3,2097.8 1103.4,2085.9 			"/>
			<polygon class="st55" points="1009.2,2208.9 1009.3,2208.9 1094.3,2097.8 			"/>
			<path class="st56" d="M1103.4,2085.8L1103.4,2085.8l-9.1,11.9l-85,111.1l-192,250.9c14.5,17.1,37.5,28.3,63.6,28.3h433.8
				c22.7,0,43.1-8.4,57.6-21.9l-195-311.8l-56.8-90.8L1103.4,2085.8z"/>
			<path class="st56" d="M810.8,1603.9l230.6,291.5l0,0l48.8,61.6l24.8,31.4l4.1,5.2l70.3-110.4l185.7-291.6
				c-14.6-15.2-36.2-25.1-60.6-25.1H880.8C850.3,1566.5,824.2,1581.8,810.8,1603.9z"/>
			<path class="st57" d="M1189.5,1883.2l-70.3,110.4l-4.1-5.2c0.2,0.3,18.1,29.1,18.1,43.4c0,14.3-29.5,53.7-29.7,54l17-22.2
				l56.8,90.8l195,311.8c13.6-12.6,22.1-29.5,22.1-48.2v-781.2c0-17.2-7.3-32.8-19.1-45L1189.5,1883.2z"/>
		</g>
	</g>
</g>
<g>
	<g>
		<g>
			<polygon class="st58" points="2070.9,705.9 1901,771.2 1944.5,884.5 1947,883.5 1978.4,897.5 2016.1,887.5 2017.9,892.3 
				2038.6,881.6 2061.1,875.7 2059.3,870.9 2093.9,853.1 2107.9,821.7 2114.4,819.2 			"/>
			<g>
				<g>
					<path class="st59" d="M2112.1,735.6c4.3,11.1-1.3,23.5-12.4,27.8L1914,834.8c-11.1,4.3-23.5-1.3-27.8-12.4l0,0
						c-4.3-11.1,1.3-23.5,12.3-27.8l185.7-71.4C2095.4,719,2107.8,724.6,2112.1,735.6L2112.1,735.6z"/>
					<path class="st59" d="M2133.6,791.5c4.3,11.1-1.3,23.5-12.4,27.8l-185.7,71.4c-11.1,4.3-23.5-1.3-27.7-12.3l0,0
						c-4.3-11.1,1.3-23.5,12.3-27.8l185.8-71.4C2116.9,774.9,2129.3,780.5,2133.6,791.5L2133.6,791.5z"/>
					<path class="st59" d="M2104.6,861.2c4.3,11.1-1.3,23.5-12.4,27.8l-88.5,34c-11.1,4.3-23.5-1.3-27.8-12.3l0,0
						c-4.3-11.1,1.3-23.5,12.4-27.8l88.5-34C2087.9,844.6,2100.3,850.2,2104.6,861.2L2104.6,861.2z"/>
				</g>
				<path class="st8" d="M1769.4,181.2C1769.4,181.2,1769.4,181.2,1769.4,181.2c-128,49.2-192.9,191.4-144.6,317
					c24.8,64.5,79.2,124.8,145.6,161.2l2.9,1.8c8.9,5.3,87.1,52.9,105.2,100.2c3.3,8.7,12.2,13.7,21.1,12.6l0.2,0.6l35.3-13.6
					l5.7-2.2l5.8-2.2l32.3-12.4l6-2.3l9.4-3.6l22.8-8.8l5.8-2.2l27.7-10.7l7.5-2.9l-0.5-1.2l15.2-6.1c5.8-5.5,7.7-14,4.8-21.4
					c-16.1-41.8,2.6-118.7,11.1-144.8c0.4-1.3,0.6-2.6,0.7-3.1l0.6-3c23.7-71.1,23.4-150.9-0.9-214.1
					C2040.9,194.1,1897.5,132,1769.4,181.2z"/>
			</g>
			<path class="st60" d="M1988.1,480.4c-0.7-2.1-5.7-14.7-17.2-20.1c-6.8-3.2-14.3-3.2-22.4-0.1c-10.6,4.1-17.8,10.8-21.3,19.9
				c-6.7,17.4,2.7,37.3,3.9,39.8l1.2,3.1l-24.4,9.4l-5.8,2.2l-24.4,9.4l-1.2-3.1c-0.8-2.7-7.2-23.7-23.8-32.2
				c-8.7-4.4-18.5-4.6-29.1-0.5c-8.1,3.1-13.7,8.2-16.6,15.1c-4.9,11.7-0.1,24.4,0.7,26.5c0.6,1.9,3.9,11.3,13.3,16
				c7.2,3.6,15.9,3.5,25.8-0.3l25.8-9.9l76.7,199.6l8.3-3.2l-76.7-199.6l24.4-9.4l5.8-2.2l24.4-9.4l76.7,199.6l8.3-3.2l-76.7-199.6
				l25.8-9.9c9.9-3.8,16.4-9.6,19.4-17.1C1992.7,491.4,1988.9,482.2,1988.1,480.4z M1867.9,543.4l1.4,3.8l-25.8,9.9
				c-7.4,2.9-13.7,3.1-18.5,0.7c-6.7-3.3-8.9-10.7-8.9-10.8l-0.1-0.3l-0.1-0.3c0-0.1-4.5-10.9-0.7-19.8c2-4.6,5.7-7.9,11.5-10.2
				c8.2-3.1,15.5-3.1,21.9,0.1C1862.4,523.7,1867.8,543.3,1867.9,543.4z M1980.6,498c-2,5-6.8,9-14.2,11.9l-25.8,9.9l-1.5-3.8
				c-0.1-0.2-9.2-18.4-3.6-32.8c2.6-6.6,8-11.6,16.1-14.7c5.8-2.2,10.8-2.3,15.4-0.2c8.8,4.1,12.7,15.1,12.7,15.2l0.1,0.3l0.1,0.3
				C1980,484.1,1983.3,491.1,1980.6,498z"/>
		</g>
	</g>
	<path class="st61" d="M1740.4,570.4c-3.8,1.3-8,0.8-11.5-1.7c-0.8-0.6-20.8-15.1-41.4-42.3c-27.3-35.9-42.9-77.4-45.2-119.8
		c-1.3-24.2,3.1-48.2,13.1-71.3c7.9-18.2,19.2-35.9,33.7-52.5c24.5-28.1,49.6-43.5,50.6-44.1c6-3.7,13.8-1.8,17.5,4.2
		c3.7,6,1.8,13.8-4.2,17.5c-0.4,0.3-23.3,14.5-45.2,39.7c-28.6,33-42.1,68.4-40.1,105.2c4.9,90.4,75.4,142.3,76.1,142.8
		c5.7,4.1,7,12.1,2.9,17.8C1745,568.1,1742.8,569.6,1740.4,570.4z"/>
</g>
<g>
	<g>
		<path class="st62" d="M4274,931.8l3-2l-12.4-19l-3,2c-15.2-13.9-38.4-16-55.9-4.6l-34.3,22.4c-17.5,11.4-24.9,33.5-18.3,53
			l-269.1,175.7l12.4,19l269.1-175.6c15.2,13.9,38.4,16.1,55.9,4.6l34.3-22.4C4273.3,973.4,4280.6,951.3,4274,931.8z M4243.4,965.9
			l-34.3,22.4c-9.1,6-21.3,4.7-29-3.1c-2.2-2.2-3.9-4.9-5.1-7.8c-4-10.1-0.3-21.8,8.9-27.8l34.3-22.4c9.1-6,21.3-4.7,29,3.1
			c1.1,1.1,2.1,2.3,3,3.7c0.9,1.3,1.6,2.7,2.2,4.2C4256.2,948.2,4252.5,959.9,4243.4,965.9z"/>
		<path class="st62" d="M4184.2,1372.8l267.9-174.8l-12.4-19l-267.9,174.8c-15.2-13.9-38.4-16-55.9-4.6l-34.3,22.4
			c-17.5,11.4-24.9,33.5-18.3,53l-4.3,2.8l12.4,19l4.3-2.8c15.2,13.9,38.4,16,55.9,4.6l34.3-22.4
			C4183.5,1414.4,4190.8,1392.3,4184.2,1372.8z M4153.6,1406.9l-34.3,22.4c-9.1,6-21.3,4.7-29-3.1c-2.2-2.2-4-4.9-5.1-7.8
			c-4-10.1-0.3-21.8,8.9-27.8l34.3-22.4c9.1-6,21.3-4.7,29,3.1c1.1,1.1,2.1,2.3,3,3.7c0.9,1.3,1.6,2.7,2.2,4.2
			C4166.4,1389.2,4162.7,1400.9,4153.6,1406.9z"/>
		<path class="st62" d="M4228.5,1152.8l136.1-88.8l-12.4-19l-136.1,88.8c-15.2-13.9-38.4-16-55.9-4.6l-34.3,22.4
			c-17.5,11.4-24.9,33.5-18.3,53l-136.1,88.8l12.4,19l136.1-88.8c15.2,13.9,38.4,16.1,55.9,4.6l34.3-22.4
			C4227.7,1194.4,4235.1,1172.2,4228.5,1152.8z M4197.8,1186.8l-34.3,22.4c-9.1,6-21.3,4.7-29-3.1c-2.2-2.2-4-4.9-5.1-7.8
			c-4-10.1-0.3-21.8,8.9-27.8l34.3-22.4c9.1-6,21.3-4.7,29,3.1c1.1,1.1,2.1,2.3,3,3.7c0.9,1.3,1.6,2.7,2.2,4.2
			C4210.7,1169.2,4207,1180.8,4197.8,1186.8z"/>
	</g>
</g>
<g>
	
		<rect x="2132.4" y="274.9" transform="matrix(0.7173 -0.6967 0.6967 0.7173 297.5439 2012.4474)" class="st63" width="993.1" height="729.3"/>
	<g>
		
			<rect x="2196.2" y="347.3" transform="matrix(0.7173 -0.6967 0.6967 0.7173 285.2944 2007.0559)" class="st64" width="840.1" height="609.3"/>
		<g>
			
				<rect x="2385" y="543.2" transform="matrix(0.7173 -0.6967 0.6967 0.7173 207.0617 1858.5889)" class="st65" width="18.2" height="261.8"/>
			
				<rect x="2364.7" y="562.9" transform="matrix(0.7173 -0.6967 0.6967 0.7173 187.5932 1850.026)" class="st65" width="18.2" height="261.8"/>
			
				<rect x="2344.4" y="582.6" transform="matrix(0.7173 -0.6967 0.6967 0.7173 168.1259 1841.4545)" class="st65" width="18.3" height="261.8"/>
			
				<rect x="2324.1" y="602.3" transform="matrix(0.7173 -0.6967 0.6967 0.7173 148.6651 1832.8951)" class="st65" width="18.2" height="261.8"/>
			
				<rect x="2303.8" y="622" transform="matrix(0.7173 -0.6967 0.6967 0.7173 129.2024 1824.3303)" class="st65" width="18.2" height="261.8"/>
			
				<rect x="2283.6" y="641.7" transform="matrix(0.7173 -0.6967 0.6967 0.7173 109.7341 1815.7588)" class="st65" width="18.2" height="261.8"/>
			
				<rect x="2263.3" y="661.4" transform="matrix(0.7173 -0.6967 0.6967 0.7173 90.2704 1807.1953)" class="st65" width="18.2" height="261.8"/>
			
				<rect x="2243" y="681.1" transform="matrix(0.7173 -0.6967 0.6967 0.7173 70.8054 1798.6295)" class="st65" width="18.3" height="261.8"/>
		</g>
		<g>
			
				<rect x="2587.2" y="751.4" transform="matrix(0.7173 -0.6967 0.6967 0.7173 119.155 2058.3555)" class="st65" width="18.2" height="261.8"/>
			
				<rect x="2566.9" y="771.1" transform="matrix(0.7173 -0.6967 0.6967 0.7173 99.6846 2049.7891)" class="st65" width="18.2" height="261.8"/>
			
				<rect x="2546.7" y="790.8" transform="matrix(0.7173 -0.6967 0.6967 0.7173 80.2189 2041.2203)" class="st65" width="18.3" height="261.8"/>
			
				<rect x="2526.4" y="810.5" transform="matrix(0.7173 -0.6967 0.6967 0.7173 60.7549 2032.6547)" class="st65" width="18.2" height="261.8"/>
			
				<rect x="2506.1" y="830.2" transform="matrix(0.7173 -0.6967 0.6967 0.7173 41.2923 2024.0901)" class="st65" width="18.2" height="261.8"/>
			
				<rect x="2485.8" y="849.9" transform="matrix(0.7173 -0.6967 0.6967 0.7173 21.8267 2015.5239)" class="st65" width="18.2" height="261.8"/>
			
				<rect x="2465.5" y="869.7" transform="matrix(0.7173 -0.6967 0.6967 0.7173 2.3593 2006.952)" class="st65" width="18.2" height="261.8"/>
		</g>
		
			<rect x="2375.5" y="499" transform="matrix(0.7173 -0.6967 0.6967 0.7173 312.9153 1817.4387)" class="st66" width="41.7" height="48.2"/>
		
			<rect x="2332" y="541.2" transform="matrix(0.7173 -0.6967 0.6967 0.7173 271.1871 1799.0757)" class="st67" width="41.7" height="48.2"/>
		
			<rect x="2572" y="701.2" transform="matrix(0.7173 -0.6967 0.6967 0.7173 227.5163 2011.5)" class="st68" width="41.7" height="48.2"/>
		
			<rect x="2528.4" y="743.5" transform="matrix(0.7173 -0.6967 0.6967 0.7173 185.7794 1993.12)" class="st69" width="41.7" height="48.2"/>
		
			<rect x="2442.1" y="551.5" transform="matrix(0.7173 -0.6967 0.6967 0.7173 288.6994 1871.234)" class="st70" width="16.9" height="56.6"/>
		
			<rect x="2398.3" y="594.6" transform="matrix(0.7173 -0.6967 0.6967 0.7173 246.1247 1852.4984)" class="st70" width="15.6" height="56.6"/>
		
			<rect x="2634.5" y="749.6" transform="matrix(0.7173 -0.6967 0.6967 0.7173 205.0437 2061.3274)" class="st70" width="16.9" height="56.7"/>
		
			<rect x="2590.8" y="792.7" transform="matrix(0.7173 -0.6967 0.6967 0.7173 162.4597 2042.5901)" class="st70" width="15.6" height="56.7"/>
		<g>
			
				<rect x="2724.1" y="270.2" transform="matrix(0.7173 -0.6967 0.6967 0.7173 393.5079 2058.0986)" class="st65" width="18.2" height="547.8"/>
			
				<rect x="2703.8" y="289.9" transform="matrix(0.7173 -0.6967 0.6967 0.7173 374.0371 2049.5313)" class="st65" width="18.2" height="547.8"/>
			
				<rect x="2683.5" y="309.6" transform="matrix(0.7173 -0.6967 0.6967 0.7173 354.5731 2040.9652)" class="st65" width="18.2" height="547.8"/>
			
				<rect x="2663.2" y="329.3" transform="matrix(0.7173 -0.6967 0.6967 0.7173 335.1068 2032.3976)" class="st65" width="18.2" height="547.8"/>
			
				<rect x="2642.9" y="349" transform="matrix(0.7173 -0.6967 0.6967 0.7173 315.6454 2023.8334)" class="st65" width="18.2" height="547.8"/>
			
				<rect x="2622.7" y="368.7" transform="matrix(0.7173 -0.6967 0.6967 0.7173 296.1812 2015.2703)" class="st65" width="18.2" height="547.8"/>
			
				<rect x="2602.4" y="388.4" transform="matrix(0.7173 -0.6967 0.6967 0.7173 276.7171 2006.7047)" class="st65" width="18.2" height="547.8"/>
		</g>
		<g>
			<g>
				<g>
					<g>
						
							<rect x="2881.9" y="355.1" transform="matrix(0.7173 -0.6967 0.6967 0.7173 487.7133 2175.4485)" class="st65" width="86.1" height="263.2"/>
					</g>
				</g>
			</g>
			
				<rect x="2861" y="409.3" transform="matrix(0.7173 -0.6967 0.6967 0.7173 436.7709 2153.0286)" class="st70" width="21.7" height="257.9"/>
			
				<rect x="2813.7" y="455.2" transform="matrix(0.7173 -0.6967 0.6967 0.7173 391.4042 2133.0647)" class="st70" width="21.7" height="257.9"/>
			
				<rect x="2837.4" y="432.2" transform="matrix(0.7173 -0.6967 0.6967 0.7173 414.0921 2143.0535)" class="st70" width="21.7" height="257.9"/>
		</g>
		<g>
			<g>
				
					<rect x="2752.3" y="176.2" transform="matrix(0.7173 -0.6967 0.6967 0.7173 582.319 2005.7595)" class="st70" width="21.7" height="218.1"/>
				
					<rect x="2705" y="222.1" transform="matrix(0.7173 -0.6967 0.6967 0.7173 536.9467 1985.7882)" class="st70" width="21.7" height="218.1"/>
				
					<rect x="2728.6" y="199.1" transform="matrix(0.7173 -0.6967 0.6967 0.7173 559.6296 1995.7697)" class="st70" width="21.7" height="218.1"/>
			</g>
			<g>
				
					<rect x="2680.8" y="245.6" transform="matrix(0.7173 -0.6967 0.6967 0.7173 513.7876 1975.5944)" class="st70" width="21.7" height="218.1"/>
				
					<rect x="2633.5" y="291.5" transform="matrix(0.7173 -0.6967 0.6967 0.7173 468.4225 1955.6306)" class="st70" width="21.7" height="218.1"/>
				
					<rect x="2657.2" y="268.5" transform="matrix(0.7173 -0.6967 0.6967 0.7173 491.1074 1965.6158)" class="st70" width="21.7" height="218.1"/>
			</g>
		</g>
	</g>
	<path class="st17" d="M3042.4,465.1l-227-233.8c-4.6-4.7-4.5-12.3,0.2-16.9l39.3-38.2c4.7-4.6,12.3-4.5,16.9,0.2l227,233.8
		c4.6,4.7,4.5,12.3-0.2,16.9l-39.3,38.2C3054.6,469.9,3047,469.8,3042.4,465.1z M2865.8,182.3c-1.4-1.4-3.6-1.4-5-0.1l-39.3,38.2
		c-1.4,1.4-1.4,3.6-0.1,5l227,233.8c1.4,1.4,3.6,1.4,5,0.1l39.3-38.2c1.4-1.4,1.4-3.6,0.1-5L2865.8,182.3z"/>
	<path class="st71" d="M2863.9,229.6c1.7,12.2,1.7,24.5-0.1,36.7L3009,415.6c12.2-1.4,24.5-1.1,36.6,1c9.1,9,23.8,9.1,33,0.1
		l16.9-16.5c9.4-9.1,9.6-24,0.5-33.4l-181-186.3c-9.1-9.4-24-9.6-33.4-0.5l-16.9,16.5C2855.5,205.5,2855.2,220.2,2863.9,229.6z"/>
</g>
<g>
	<path class="st49" d="M1096.5,2033.7c0,785.8,637,1422.9,1422.8,1422.9c785.8,0,1422.8-637,1422.8-1422.9
		c0-785.8-637-1422.8-1422.8-1422.8C1733.5,610.9,1096.5,1247.9,1096.5,2033.7z"/>
	<path class="st72" d="M1534.8,1274.1c-6.1,54.4-9.3,109.6-9.3,165.6c0,815.7,661.2,1476.9,1476.9,1476.9
		c163.3,0,320.5-26.6,467.4-75.6c-228.4,269.6-569.4,440.7-950.4,440.7c-687.7,0-1245.3-557.5-1245.3-1245.3
		C1274.1,1749.3,1371.4,1484.8,1534.8,1274.1z"/>
	<path class="st17" d="M1525.5,1439.7c0-56,3.2-111.2,9.3-165.6c227.8-293.7,584.1-482.8,984.6-482.8
		c687.7,0,1245.3,557.5,1245.3,1245.2c0,306.8-110.9,587.5-294.9,804.5c-146.9,49-304.1,75.6-467.4,75.6
		C2186.7,2916.6,1525.5,2255.4,1525.5,1439.7z"/>
	<g>
		<g>
			<path class="st49" d="M2419.6,936.7c0,55.1,44.7,99.8,99.8,99.8c55.1,0,99.8-44.7,99.8-99.8c0-55.1-44.7-99.8-99.8-99.8
				C2464.2,837,2419.6,881.7,2419.6,936.7z"/>
			<path class="st49" d="M2419.6,3136.3c0,55.1,44.7,99.8,99.8,99.8c55.1,0,99.8-44.7,99.8-99.8c0-55.1-44.7-99.8-99.8-99.8
				C2464.2,3036.5,2419.6,3081.2,2419.6,3136.3z"/>
		</g>
	</g>
	<g>
		<g>
			<path class="st49" d="M1419.6,2136.3c55.1,0,99.8-44.7,99.8-99.8c0-55.1-44.6-99.7-99.8-99.7c-55.1,0-99.8,44.6-99.8,99.7
				C1319.8,2091.6,1364.5,2136.3,1419.6,2136.3z"/>
			<path class="st49" d="M3619.1,2136.3c55,0,99.7-44.7,99.7-99.8c0-55.1-44.7-99.8-99.7-99.8c-55.1,0-99.8,44.7-99.8,99.8
				C3519.3,2091.6,3564,2136.3,3619.1,2136.3z"/>
		</g>
	</g>
	<path class="st73" d="M2979,1113.3c0,34.2,27.8,61.9,61.9,61.9c34.2,0,61.9-27.7,61.9-61.9c0-34.2-27.7-61.9-61.9-61.9
		C3006.8,1051.3,2979,1079,2979,1113.3z"/>
	<path class="st73" d="M3378.1,1553.6c0,34.2,27.7,61.9,61.9,61.9c34.2,0,61.9-27.7,61.9-61.9c0-34.2-27.7-61.9-61.9-61.9
		C3405.9,1491.7,3378.1,1519.4,3378.1,1553.6z"/>
	<path class="st73" d="M1547.9,2482.5c0,34.2,27.7,61.9,61.9,61.9c34.2,0,61.9-27.8,61.9-61.9c0-34.2-27.8-61.9-61.9-61.9
		C1575.6,2420.5,1547.9,2448.3,1547.9,2482.5z"/>
	<path class="st73" d="M1947,2922.8c0,34.2,27.7,61.9,61.9,61.9c34.2,0,61.9-27.7,61.9-61.9c0-34.2-27.7-61.9-61.9-61.9
		C1974.7,2860.9,1947,2888.6,1947,2922.8z"/>
	<path class="st73" d="M3412.5,2427.4c-34.2,0-61.9,27.7-61.9,61.9c0,34.2,27.7,61.9,61.9,61.9c34.2,0,61.9-27.7,61.9-61.9
		C3474.4,2455.2,3446.7,2427.4,3412.5,2427.4z"/>
	<path class="st73" d="M2972.2,2826.5c-34.2,0-61.9,27.7-61.9,61.9c0,34.2,27.8,61.9,61.9,61.9c34.2,0,61.9-27.7,61.9-61.9
		C3034.1,2854.2,3006.3,2826.5,2972.2,2826.5z"/>
	<path class="st73" d="M2043.3,996.3c-34.2,0-61.9,27.7-61.9,61.9c0,34.2,27.7,61.9,61.9,61.9c34.2,0,61.9-27.7,61.9-61.9
		C2105.2,1024,2077.5,996.3,2043.3,996.3z"/>
	<path class="st73" d="M1603,1395.4c-34.2,0-62,27.7-62,61.9c0,34.2,27.7,61.9,62,61.9c34.2,0,61.9-27.7,61.9-61.9
		C1664.9,1423.1,1637.1,1395.4,1603,1395.4z"/>
	<path class="st49" d="M2027.2,2773.3l419.2-694.8c-4.3-10.4-6.7-21.7-6.7-33.7v-6c0-48.6,39.4-87.9,88-87.9c48.5,0,88,39.4,88,87.9
		v6c0,48.6-39.4,88-88,88c-5.7,0-11.2-0.6-16.5-1.6l-413,684.4c-11.7,19.6-37,26-56.6,14.3
		C2021.9,2818.3,2015.5,2792.9,2027.2,2773.3z"/>
	<path class="st73" d="M2384.1,2038.4c0,74.1,60.1,134.2,134.2,134.2c74.1,0,134.2-60.1,134.2-134.2c0-57.2-35.8-105.9-86.2-125.2
		c0-0.7,0.2-1.4,0.2-2.1v-527.2c0-26.6-21.5-48.1-48.1-48.1c-26.6,0-48.2,21.6-48.2,48.1v527.2c0,0.7,0.2,1.4,0.2,2.1
		C2419.9,1932.6,2384.1,1981.3,2384.1,2038.4z M2449.5,2038.4c0-38,30.8-68.8,68.8-68.8c38,0,68.8,30.8,68.8,68.8
		c0,38-30.8,68.8-68.8,68.8C2480.3,2107.3,2449.5,2076.4,2449.5,2038.4z"/>
</g>
<g>
	<g>
		<path class="st74" d="M4596.4,4004.3c0-0.5,0-1,0-1.5H467.5c0,0.5,0,1,0,1.5c0,51.1,9.5,98.7,25.9,138.6h4077
			C4586.8,4103,4596.4,4055.4,4596.4,4004.3z"/>
		<path class="st75" d="M493.4,4142.9c28.6,69.8,78.3,115.9,134.8,115.9h3807.5c56.5,0,106.1-46.1,134.8-115.9H493.4z"/>
	</g>
	<path class="st76" d="M855.6,1827.2V2546v535v714.1h3352.7v-420.8v-272.5V1827.2H855.6z"/>
	<path class="st77" d="M1928.8,4130.8c0,33,26.7,59.7,59.7,59.7h1086.9c33,0,59.8-26.7,59.8-59.7l0,0c0-33-26.7-59.7-59.8-59.7
		H1988.5C1955.5,4071,1928.8,4097.8,1928.8,4130.8L1928.8,4130.8z"/>
	<path class="st78" d="M2472.2,1747.9c0,33,26.7,59.7,59.8,59.7c32.9,0,59.7-26.7,59.7-59.7c0-33-26.7-59.7-59.7-59.7
		C2498.9,1688.2,2472.2,1714.9,2472.2,1747.9z"/>
	<g>
		<polygon class="st3" points="855.6,1827.2 855.6,3795.1 4208.3,3795.1 4208.3,3793.3 861.2,1827.2 		"/>
		<path class="st74" d="M4208.3,1827.2v1966.1l129.1,75.8c31.8-41.3,50.9-94.8,50.9-153.3V1906.6c0-130.9-95.9-236.9-214.1-236.9
			H889.8c-63.9,0-121.3,31-160.5,80.1l131.9,77.5H4208.3z"/>
		<path class="st75" d="M4208.3,3793.3v1.9H855.6v-1968h5.6l-131.9-77.5c-33.4,41.8-53.7,96.7-53.7,156.9v1809.2
			c0,130.8,95.9,236.9,214.2,236.9h3284.3c65.4,0,123.9-32.5,163.2-83.6L4208.3,3793.3z"/>
	</g>
	<g>
		<g>
			<path class="st79" d="M3463.6,3321.3l99.6,42.5c0,0,91.6-74.4,203.2-58.5c91.8,13.1,143.4,58.4,175.3,138.1l263.4,146.7
				l2.2,203.9l-1296-42.5l-324-260.3l196.5-201.8L3463.6,3321.3z"/>
			<g>
				<path class="st79" d="M2586,3187.1c8.2,21.4,17,43,26.4,64.8l0.2,0c2.6-0.2,5.2-0.3,7.8-0.4c2.9-0.1,5.8-0.1,8.7-0.1
					c3.7,0,7.4,0.2,11.1,0.4c1.2,0.1,2.4,0.2,3.6,0.3c2.4,0.2,4.9,0.4,7.2,0.7c1.5,0.2,2.9,0.4,4.3,0.6c2.1,0.3,4.3,0.6,6.4,0.9
					c1.5,0.3,3,0.6,4.5,0.9c2,0.4,4,0.8,6,1.2c1.6,0.3,3.1,0.8,4.6,1.1c1.9,0.5,3.8,0.9,5.7,1.5c1.6,0.4,3.1,0.9,4.6,1.4
					c1.8,0.6,3.7,1.1,5.5,1.7c1.5,0.5,3.1,1.1,4.6,1.6c1.8,0.6,3.5,1.3,5.3,2c1.5,0.6,3.1,1.2,4.6,1.9c1.7,0.7,3.4,1.4,5.1,2.2
					c1.5,0.7,3,1.4,4.5,2.1c1.6,0.8,3.3,1.6,4.9,2.4c1.5,0.8,2.9,1.5,4.4,2.3c1.6,0.9,3.2,1.8,4.7,2.7c1.4,0.8,2.8,1.7,4.3,2.5
					c1.6,1,3.1,1.9,4.6,2.9c1.4,0.9,2.7,1.8,4.1,2.7c1.5,1,3,2.1,4.5,3.1c1.3,0.9,2.6,1.9,3.9,2.9c1.5,1.1,2.9,2.3,4.4,3.4
					c1.2,1,2.5,2,3.7,3c1.5,1.2,2.9,2.5,4.3,3.7c1.2,1,2.3,2,3.4,3.1c1.5,1.3,2.9,2.7,4.3,4.1c1,1,2.1,2,3.1,3.1
					c1.5,1.5,2.9,3,4.3,4.6c0.7,0.8,1.5,1.5,2.2,2.3c0.2,0.2,0.4,0.4,0.6,0.6c1.1,1.2,2.1,2.4,3.1,3.6c1.1,1.3,2.2,2.6,3.3,3.9
					c1,1.2,1.9,2.4,2.9,3.7c1.1,1.4,2.1,2.7,3.1,4.1c0.9,1.2,1.8,2.5,2.7,3.8c1,1.4,2,2.8,3,4.3c0.9,1.3,1.7,2.6,2.5,3.9
					c0.9,1.5,1.9,3,2.8,4.5c0.8,1.3,1.5,2.6,2.3,4c0.9,1.5,1.7,3.1,2.6,4.6c0.4,0.7,0.8,1.5,1.2,2.2h751.4c0,0,0.6-32.8-20.5-62.7
					c-0.9-0.9-1.8-1.9-2.5-2.7c-0.6-0.6-1.2-1.2-1.8-1.9c-1.8-1.8-3.6-3.5-5.5-5.2c-0.2-0.2-0.5-0.5-0.7-0.7
					c-2.2-1.9-4.4-3.8-6.6-5.6c-0.5-0.4-0.9-0.7-1.4-1.1c-1.8-1.4-3.6-2.7-5.4-4c-0.8-0.6-1.7-1.1-2.5-1.7c-1.5-1-3-2-4.6-3
					c-1-0.6-2-1.2-3-1.8c-1.4-0.9-2.9-1.7-4.3-2.5c-1.1-0.6-2.2-1.2-3.2-1.7c-1.4-0.7-2.8-1.5-4.3-2.2c-1.1-0.5-2.3-1.1-3.4-1.6
					c-1.4-0.6-2.8-1.3-4.3-1.9c-1.2-0.5-2.4-1-3.6-1.4c-1.4-0.6-2.9-1.1-4.3-1.6c-1.2-0.4-2.5-0.9-3.7-1.3c-1.5-0.5-2.9-0.9-4.4-1.3
					c-1.2-0.4-2.5-0.7-3.8-1.1c-1.5-0.4-3-0.7-4.5-1.1c-1.7-0.3-3.2-0.6-4.7-1c-1.2-0.2-2.5-0.5-3.7-0.7c-1.2-0.2-2.4-0.4-3.7-0.6
					c-1.7-0.3-3.4-0.4-5.1-0.6c-1.1-0.1-2.2-0.3-3.3-0.4c-2.2-0.2-4.4-0.3-6.6-0.4c-0.6,0-1.3-0.1-1.9-0.1c-2.8-0.1-5.7-0.1-8.5,0
					c-3.1,0.1-6.2,0.2-9.3,0.5c-15.9,1.3-31.9,5.2-47.4,11.9c-5,2.2-9.8,4.6-14.5,7.2c5-19.3,3.9-40.2-4.6-59.9
					c-1.2-2.7-2.5-5.3-3.9-7.9c-0.4-0.8-0.9-1.5-1.4-2.3c-1-1.7-2.1-3.4-3.2-5.1c-0.6-0.8-1.1-1.7-1.7-2.5c-1.1-1.6-2.3-3.1-3.5-4.5
					c-0.6-0.7-1.2-1.5-1.8-2.2c-1.5-1.7-3.1-3.4-4.8-5c-0.3-0.3-0.6-0.7-1-1c-2-1.9-4-3.7-6.2-5.4c-0.7-0.5-1.3-1-2-1.5
					c-1.5-1.2-3.1-2.3-4.7-3.3c-0.8-0.6-1.7-1.1-2.5-1.6c-1.6-1-3.1-1.9-4.8-2.7c-0.8-0.4-1.6-0.9-2.5-1.3c-2.1-1-4.2-2-6.4-2.9
					c-0.4-0.1-0.7-0.3-1.1-0.5c-2.5-1-5.1-1.9-7.6-2.6c-0.8-0.2-1.6-0.4-2.4-0.6c-1.9-0.5-3.7-1-5.6-1.3c-0.9-0.2-1.9-0.4-2.8-0.5
					c-1.9-0.3-3.7-0.6-5.6-0.8c-0.9-0.1-1.7-0.2-2.6-0.3c-2.5-0.2-5.1-0.3-7.7-0.3c-0.2,0-0.4,0-0.5,0c-2.8,0-5.5,0.2-8.3,0.5
					c-0.8,0.1-1.7,0.2-2.5,0.3c-2,0.3-3.9,0.5-5.9,0.9c-1,0.2-1.9,0.4-2.9,0.6c-1.9,0.4-3.9,0.9-5.8,1.5c-0.9,0.3-1.7,0.5-2.6,0.8
					c-2.7,0.9-5.5,1.9-8.2,3c-0.3,0.1-0.5,0.2-0.8,0.4c-2,0.9-3.9,1.8-5.7,2.8c-0.6,0.3-1.3,0.7-1.9,1c-1.5,0.8-2.9,1.6-4.3,2.5
					c-0.6,0.4-1.2,0.8-1.8,1.2c-1.5,1-2.9,2-4.4,3.1c-0.4,0.3-0.8,0.6-1.3,0.9c-1.8,1.4-3.5,2.8-5.1,4.3c-0.5,0.4-0.9,0.8-1.3,1.3
					c-1.2,1.2-2.5,2.4-3.6,3.6c-0.5,0.5-1,1.1-1.5,1.6c-1.1,1.2-2.2,2.5-3.2,3.7c-0.4,0.5-0.8,1-1.2,1.5c-1.4,1.8-2.7,3.6-4,5.5
					c-0.1,0.2-0.2,0.4-0.4,0.6c-1.1,1.7-2.2,3.4-3.2,5.2c-0.3,0.6-0.6,1.1-0.9,1.7c-0.8,1.5-1.6,3-2.3,4.5c-0.3,0.6-0.6,1.1-0.8,1.7
					c-0.9,2-1.8,4-2.5,6.1c0,0,0,0.1,0,0.1c-0.8,2.1-1.5,4.3-2.1,6.5c-0.2,0.5-0.3,1.1-0.4,1.6c-0.5,1.7-0.9,3.4-1.2,5.1
					c-0.2,1.1-0.5,2.2-0.7,3.4c-42.5-33.8-101.7-43.7-155-20.7c-10.5,4.5-20.1,10.1-29,16.5l-18.1-2.5c-2.4-8.3-5.3-16.5-8.8-24.7
					c-1.3-3-2.7-6-4.1-8.9c-0.4-0.9-0.9-1.8-1.4-2.7c-1-2-2.1-4-3.1-6c-0.6-1-1.1-2-1.7-3c-1.1-1.9-2.2-3.7-3.3-5.6
					c-0.6-1-1.2-1.9-1.7-2.8c-1.3-2-2.5-3.9-3.8-5.8c-0.5-0.7-1-1.4-1.5-2.2c-1.8-2.6-3.7-5.2-5.6-7.7c-0.2-0.2-0.3-0.4-0.5-0.6
					c-1.8-2.3-3.6-4.5-5.5-6.8c-0.6-0.8-1.3-1.5-1.9-2.2c-1.2-1.4-2.5-2.8-3.7-4.2c-3.1-3.4-6.3-6.7-9.7-9.9
					c-0.6-0.6-1.3-1.2-1.9-1.7c-3-2.8-6.1-5.5-9.3-8.2c-0.7-0.5-1.3-1.1-2-1.6c-3.6-2.9-7.2-5.6-10.9-8.2c-0.9-0.6-1.7-1.2-2.6-1.8
					c-3.7-2.5-7.4-4.9-11.2-7.2c-0.2-0.1-0.4-0.3-0.7-0.4c-4-2.3-8.1-4.5-12.2-6.6c-0.9-0.5-1.9-0.9-2.8-1.4
					c-4.1-2-8.3-3.9-12.5-5.6c-0.6-0.2-1.2-0.5-1.8-0.7c-3.9-1.5-7.8-2.9-11.8-4.3c-0.8-0.3-1.7-0.6-2.5-0.8
					c-4.4-1.4-8.8-2.6-13.2-3.7c-0.9-0.2-1.8-0.4-2.7-0.6c-4.2-1-8.4-1.8-12.7-2.5c-0.5-0.1-0.9-0.2-1.4-0.3
					c-4.6-0.7-9.2-1.2-13.9-1.7c-1-0.1-2-0.2-3-0.2c-4.7-0.3-9.4-0.6-14.1-0.6c-0.3,0-0.7,0-1,0c-4.5,0-9,0.2-13.5,0.4
					c-1,0.1-1.9,0.1-2.9,0.2c-4.7,0.4-9.3,0.9-14,1.5c-0.8,0.1-1.7,0.3-2.5,0.4c-4.3,0.7-8.6,1.5-12.9,2.4c-0.7,0.2-1.4,0.3-2.1,0.4
					c-4.7,1.1-9.3,2.4-13.9,3.8c-1,0.3-2,0.6-3,1c-4.7,1.5-9.4,3.2-14.1,5.1c-42.1-74.8-79.8-490.3-100.5-626.5l-115,17.5
					C2480.6,2505.4,2505.4,2977.4,2586,3187.1z"/>
				<path class="st17" d="M2810.7,3361.6c-0.8-1.6-1.7-3.1-2.6-4.6c-0.8-1.3-1.5-2.6-2.3-4c-0.9-1.5-1.8-3-2.8-4.5
					c-0.8-1.3-1.7-2.6-2.5-3.9c-1-1.4-2-2.9-3-4.3c-0.9-1.3-1.8-2.5-2.7-3.8c-1-1.4-2.1-2.7-3.1-4.1c-1-1.2-1.9-2.5-2.9-3.7
					c-1.1-1.3-2.2-2.6-3.3-3.9c-1-1.2-2.1-2.4-3.1-3.6c-0.9-1-1.8-2-2.8-3c-1.4-1.5-2.8-3.1-4.3-4.6c-1-1-2.1-2-3.1-3.1
					c-1.4-1.4-2.8-2.7-4.3-4.1c-1.1-1-2.3-2-3.4-3.1c-1.4-1.3-2.9-2.5-4.3-3.7c-1.2-1-2.5-2-3.7-3c-1.5-1.2-2.9-2.3-4.4-3.4
					c-1.3-1-2.6-1.9-3.9-2.9c-1.5-1.1-3-2.1-4.5-3.1c-1.4-0.9-2.7-1.8-4.1-2.7c-1.5-1-3.1-2-4.6-2.9c-1.4-0.9-2.8-1.7-4.3-2.5
					c-1.6-0.9-3.1-1.8-4.7-2.7c-1.5-0.8-2.9-1.6-4.4-2.3c-1.6-0.8-3.3-1.6-4.9-2.4c-1.5-0.7-3-1.4-4.5-2.1c-1.7-0.8-3.4-1.5-5.1-2.2
					c-1.5-0.6-3-1.3-4.6-1.9c-1.7-0.7-3.5-1.3-5.3-2c-1.5-0.6-3.1-1.1-4.6-1.6c-1.8-0.6-3.6-1.2-5.5-1.7c-1.5-0.5-3.1-0.9-4.6-1.4
					c-1.9-0.5-3.8-1-5.7-1.5c-1.5-0.4-3.1-0.8-4.6-1.1c-2-0.4-4-0.8-6-1.2c-1.5-0.3-3-0.6-4.5-0.9c-2.1-0.4-4.3-0.6-6.4-0.9
					c-1.4-0.2-2.9-0.4-4.3-0.6c-2.4-0.3-4.8-0.5-7.2-0.7c-1.2-0.1-2.4-0.2-3.6-0.3c-3.7-0.2-7.3-0.4-11.1-0.4c-2.9,0-5.8,0-8.7,0.1
					c-2.6,0.1-5.2,0.2-7.8,0.4l-0.2,0c-9.4-21.8-18.2-43.4-26.4-64.8c-80.6-209.7-82.1-698.2-85.1-722.5l103.8-3.4l-202,6.6
					c0,0-50.5,469.9-108.4,629.8c-11.5,31.9-24.2,63.7-38.2,94c-57.2-50.5-144.5-51.2-202.5,1.2c-13.7,12.4-24.6,26.7-32.8,42.2
					c-53.9-25.6-120.1-17.9-167.2,24.5c-2.3,2.1-4.5,4.2-6.6,6.4c-4-11.1-10.1-21.6-18.5-30.8c-34.4-38.1-93.3-41.1-131.4-6.7
					c-20,18-30.2,42.8-30.6,67.7c-53-22.8-116.6-14.4-162.2,26.8c-13.3,12-24,25.8-32,40.8h1339.5
					C2811.4,3363.1,2811,3362.3,2810.7,3361.6z"/>
			</g>
			<path class="st79" d="M2117.5,3247.5c-1.9-0.6-3.8-1.4-5.8-2c-2-0.5-3.8-1.1-5.8-1.3l-2.9-0.5l-2.9-0.2c-1.9-0.2-3.9,0-5.8,0
				c-1.9,0.1-3.8,0.4-5.7,0.6c-1.9,0.5-3.7,0.7-5.5,1.3c-1.8,0.6-3.6,1.1-5.3,1.9c-1.8,0.6-3.4,1.5-5,2.4c-1.6,0.8-3.1,2-4.7,2.9
				c-1.4,1.2-2.9,2.2-4.2,3.5c-1.3,1.3-2.7,2.4-3.8,3.9c-0.6,0.7-1.2,1.3-1.8,2l-1.5,2.2c-1.1,1.4-1.8,3.1-2.8,4.6l-0.3,0.6l0,0
				c0.1-0.1-0.1,0.2,0.1-0.2l0,0l0,0.1l-0.1,0.2l-0.2,0.3l-0.6,1.4c-0.4,0.9-1,1.9-1.1,2.6c-0.5,1.6-1.1,3.1-1.5,4.8
				c-0.5,1.7-0.7,3.4-1.1,5.1l-2.1,10.2l-9-6.3c-1.8-1.3-3.6-2.7-5.5-3.9l-2.9-1.7l-1.4-0.9l-0.4-0.2l0,0c-0.3-0.2,0.4,0.2,0.3,0.2
				l0,0l-0.1,0l-0.2-0.1l-0.8-0.4l-3.4-1.6l-1.7-0.8l-1.5-0.5c-2-0.7-3.8-1.5-6.1-2l-3.2-0.9c-1.1-0.3-2.2-0.4-3.3-0.6
				c-1.1-0.2-2.2-0.4-3.3-0.5l-3.3-0.3c-2.2-0.3-4.4-0.1-6.6-0.1c-2.2,0-4.4,0.4-6.6,0.6c-2.2,0.4-4.4,0.8-6.5,1.3
				c-2.1,0.7-4.3,1.1-6.3,2c-2.1,0.8-4.2,1.5-6.1,2.6l-3,1.5c-1,0.5-1.9,1.2-2.8,1.7c-1.9,1.1-3.7,2.4-5.5,3.8
				c-1.9,1.2-3.4,2.9-5.1,4.3c-1.7,1.5-3.1,3.2-4.7,4.8c-1.4,1.7-2.7,3.6-4.2,5.3l-3.8,4.8l-4.9-2.6c-1.4-0.8-2.8-1.7-4.3-2.3
				c-1.4-0.8-3-1.3-4.5-1.9c-1.6-0.5-3.1-1-4.7-1.4c-1.6-0.4-3.2-0.6-4.9-0.9c-1.7-0.1-3.3-0.4-5-0.3c-1.7-0.1-3.3,0-5,0.1
				c-1.7,0.2-3.4,0.3-5,0.7c-1.7,0.3-3.3,0.8-5,1.2c-1.6,0.6-3.3,1.1-4.8,1.8c-1.6,0.6-3.1,1.4-4.7,2.2c-0.8,0.4-1.5,0.9-2.3,1.3
				l-1.4,0.4l-0.4-0.2l0,0c0.1-0.1-0.2,0.2,0.1-0.1l0,0l0.2,0.4l-0.1,0.4l-0.5,0.5l-4.4,3.5c-1.4,1.2-2.4,2.5-3.7,3.7
				c-0.6,0.6-1.3,1.2-1.8,1.9l-1.6,2.2c-1,1.5-2.4,2.9-3.1,4.5l-2.7,4.9c0.5-1.8,1-3.6,1.5-5.5c0.4-1.9,1.4-3.5,2.1-5.3l1.2-2.6
				c0.4-0.9,1-1.7,1.6-2.5c1.1-1.6,2.1-3.4,3.4-4.9l3.8-4.1l0.5-0.5l0.2-0.3l0.1-0.1l-0.3-0.4l-0.1-0.5l0.1-0.1l1.4-0.6
				c0.8-0.6,1.6-1.2,2.4-1.7c1.6-1.2,3.3-2.3,5-3.3c1.7-1.1,3.6-1.9,5.4-2.8c1.9-0.8,3.7-1.6,5.7-2.2c1.9-0.7,3.9-1.1,5.9-1.6
				c2-0.3,4-0.8,6.1-0.9c2-0.2,4.1-0.2,6.2-0.2c2.1,0.1,4.1,0.2,6.2,0.6c2.1,0.2,4.1,0.7,6.1,1.2c2,0.6,4,1.1,6,1.9
				c2,0.7,3.9,1.6,5.8,2.5l-8.7,2.2c1.5-2.3,3-4.6,4.6-6.8c1.8-2.1,3.4-4.3,5.3-6.3c2-1.9,3.8-4,6-5.6c2.1-1.8,4.2-3.5,6.6-5
				c1.2-0.7,2.3-1.5,3.5-2.2l3.6-1.9c2.4-1.4,5-2.3,7.5-3.4c2.5-1.1,5.2-1.7,7.9-2.5c2.7-0.6,5.4-1.2,8.1-1.7
				c2.7-0.3,5.5-0.7,8.3-0.7c2.8,0,5.5-0.2,8.3,0.2l4.1,0.4c1.4,0.2,2.7,0.5,4.1,0.7c1.4,0.3,2.7,0.5,4.1,0.8l4,1.2
				c2.6,0.7,5.3,1.9,8,2.9l2,0.8l1.6,0.9l3.3,1.8l0.8,0.4l0.7,0.4l0.4,0.3l1.7,1.1l3.4,2.3c2.2,1.6,4.2,3.5,6.4,5.2l-11.1,3.9
				c0.6-2.2,1-4.5,1.8-6.6c0.7-2.1,1.6-4.3,2.7-6.5c0.5-1.2,1-1.9,1.5-2.8l0.8-1.3l0.5-0.9l0.5-0.7c1.3-1.8,2.5-3.8,4-5.4l2.2-2.5
				c0.8-0.8,1.6-1.6,2.4-2.3c1.6-1.6,3.4-2.9,5.1-4.3c1.8-1.4,3.8-2.4,5.6-3.6c2-0.9,3.9-2,6-2.8c2.1-0.8,4.1-1.6,6.2-2
				c1.1-0.3,2.1-0.6,3.2-0.8l3.2-0.5c2.1-0.4,4.3-0.3,6.4-0.4c2.1,0.1,4.3,0.1,6.4,0.4c2.1,0.3,4.2,0.6,6.2,1.2l3,0.8l2.9,1.1
				c2,0.6,3.8,1.8,5.6,2.7C2114.2,3245.1,2115.8,3246.3,2117.5,3247.5z"/>
			<path class="st79" d="M2608.9,3339.5l-2.3-4.7c-0.9-1.5-1.8-2.9-2.7-4.4c-1-1.4-2.1-2.8-3.1-4.1c-1.1-1.3-2.3-2.5-3.4-3.8
				c-1.2-1.2-2.5-2.3-3.7-3.4c-1.3-1.1-2.7-2-4-3l-4.2-2.6l-4.4-2.2l-4.6-1.7l-4.7-1.3c-1.6-0.3-3.2-0.6-4.8-0.8
				c-1.6-0.1-3.2-0.3-4.8-0.4c-1.6,0-3.2,0-4.8,0.1c-1.6,0.2-3.2,0.3-4.7,0.5l-4.7,0.9l-4.5,1.4l-4.4,1.3l-2.1-4.5l-2.2-4.7
				c-0.8-1.5-1.7-3-2.5-4.5c-1.9-2.9-3.8-5.7-6-8.3l-0.8-1l0-0.2l0.1-0.2l0,0c0.1,0.1-0.3-0.1,0,0.3l-0.3-0.2l-0.5-0.5l-1.9-2
				c-1.3-1.3-2.6-2.8-3.8-3.7l-3.7-3.2l-4.2-2.9c-1.3-1-2.9-1.8-4.3-2.6c-1.5-0.9-2.9-1.7-4.5-2.3c-1.6-0.7-3.1-1.4-4.6-2l-4.8-1.6
				c-1.6-0.5-3.3-0.8-4.9-1.2c-1.6-0.5-3.3-0.7-5-0.9c-3.3-0.6-6.7-0.6-10.1-0.8c-3.4,0.2-6.8,0.2-10.1,0.8l-2.5,0.3l-2.5,0.6
				c-1.6,0.4-3.3,0.7-4.9,1.3l-4.8,1.6c-1.6,0.6-3.1,1.4-4.6,2c-1.6,0.6-3,1.5-4.5,2.3c-1.4,0.9-3,1.6-4.3,2.6l-4.2,2.9l-0.3,0.2
				l-0.1,0l0,0c-0.2,0.1,0.2-0.2,0.1-0.1l-0.1,0.1l-0.5,0.5l-1.1,0.9l-2.1,1.8c-1.1,1.2-2.3,2.2-3.5,3.4c-1.1,1.3-2.4,2.4-3.4,3.8
				c-1.1,1.3-2.2,2.6-3.1,4.1c-1,1.4-1.9,2.8-2.8,4.3c-1.8,2.9-3.4,6-4.8,9.2l-4,8.8l-5.3-7.4l-0.4-0.5l0.2-0.4l0.3-0.3l0,0
				c0.4,0.5,0.1,0.1,0.2,0.2l-0.1-0.1l-0.5,0l-1-0.9l-1.8-2c-0.6-0.7-1.2-1.2-1.7-1.7l-1.7-1.6c-1-1.1-2.5-2-3.7-3.1
				c-1.2-1.1-2.7-1.8-4-2.8c-1.3-0.9-2.8-1.6-4.3-2.4c-1.4-0.8-3-1.3-4.5-2c-1.5-0.6-3.1-1-4.7-1.5c-1.6-0.4-3.2-0.7-4.9-1.1
				c-1.6-0.3-3.3-0.4-5-0.6c-1.7-0.1-3.4-0.1-5.1-0.2l-5.1,0.4l-5.1,0.8l-5,1.3l-4.9,1.8l-4.8,2.3l-4.6,2.7l4-3.6l4.4-3.2
				c1.5-0.9,3.2-1.8,4.7-2.7c1.6-0.8,3.3-1.5,5-2.2c1.7-0.6,3.5-1.2,5.3-1.7l5.5-1.1c1.9-0.2,3.7-0.4,5.6-0.6c1.9,0,3.8-0.1,5.6,0
				c1.9,0.2,3.8,0.3,5.6,0.6c1.9,0.4,3.8,0.7,5.6,1.2c1.8,0.6,3.7,1,5.5,1.7c1.8,0.8,3.6,1.4,5.3,2.3c1.7,0.9,3.5,1.7,5.1,2.8
				c1.6,1.1,3.2,2.1,4.8,3.4l2.3,2c0.8,0.7,1.6,1.3,2.1,2l1.9,1.9l0.9,0.9l0.2,0.2l0.1,0.1l0.3,0.3l0.1,0.1l0.4,0.5l-9.3,1.4
				c1.3-3.8,2.8-7.5,4.7-11c0.9-1.8,1.9-3.5,3-5.2c1-1.7,2.2-3.4,3.4-5c1.1-1.7,2.5-3.1,3.8-4.7c1.3-1.6,2.9-3,4.3-4.6l1.9-2.1
				l0.9-1.1l0.5-0.5l0.1-0.1l0.5-0.1l0.4-0.1l4.9-3.7c1.6-1.3,3.4-2.2,5.1-3.3c1.7-1.1,3.5-2.1,5.3-2.9c1.8-0.9,3.7-1.8,5.5-2.6
				l5.7-2.1c1.9-0.7,3.9-1.1,5.9-1.6l3-0.7l3-0.4c4-0.7,8.1-0.9,12.2-1c4.1,0.2,8.1,0.3,12.2,1c2,0.3,4,0.6,6,1.2
				c2,0.5,4,0.9,5.9,1.6l5.7,2.1c1.9,0.8,3.7,1.7,5.5,2.6c1.9,0.8,3.6,1.9,5.3,2.9c1.7,1.1,3.5,2,5.1,3.3l4.8,3.7l4.6,4.3
				c1.7,1.5,2.7,2.9,3.9,4.3l1.8,2.1l0.5,0.5l0.2,0.3l0.2,0.3l0,0l0.1,0.1l0.1,0.2l0.9,1.2c2.4,3.2,4.5,6.7,6.4,10.2
				c0.9,1.8,1.8,3.6,2.6,5.4l2.1,5.6l-6.6-3.2l5.6-1.3c1.9-0.3,3.8-0.5,5.7-0.7c1.9-0.1,3.8-0.1,5.7-0.1c1.9,0.1,3.8,0.3,5.7,0.5
				c1.9,0.3,3.7,0.7,5.6,1c1.8,0.5,3.6,1,5.4,1.6c1.8,0.7,3.5,1.4,5.2,2.1c1.7,0.8,3.3,1.7,4.9,2.6l4.6,3.1c1.4,1.2,2.9,2.3,4.3,3.5
				c1.3,1.3,2.6,2.6,3.9,3.9c1.2,1.4,2.3,2.8,3.4,4.3c1,1.5,2,3,3,4.5c0.8,1.6,1.7,3.2,2.5,4.8c0.6,1.7,1.3,3.3,1.9,5L2608.9,3339.5
				z"/>
			<path class="st17" d="M1562.1,3353.1l-89.8,10.7c0,0-303.9-183.1-616.6,112.6l-0.1,318.8h3352.6c0,0-80.6-224.2-351.5-224.2
				c-270.9,0-292.1,85-292.1,85s-100.9-276.2-371.8-154c0,0-106.2-233.7-382.1-140.3C2810.7,3361.6,1668.3,3289.4,1562.1,3353.1z"/>
			<path class="st79" d="M1543.9,3483.3c-2.7-0.7-5.3-1.8-7.9-2.4c-2.7-0.5-5.2-1.2-7.9-1.5l-4-0.5l-4-0.1c-2.6-0.2-5.3,0.2-7.9,0.3
				c-2.6,0.2-5.2,0.7-7.7,1.1c-2.5,0.7-5,1.1-7.4,2.1c-2.4,0.9-4.8,1.7-7.1,2.8c-2.4,0.9-4.5,2.3-6.7,3.5c-2.2,1.2-4.1,2.8-6.2,4.2
				c-1.8,1.7-3.9,3.1-5.5,5c-1.7,1.8-3.5,3.5-4.9,5.4c-0.7,1-1.6,1.9-2.3,2.9l-2,3.1c-1.4,2-2.3,4.3-3.5,6.4l-0.4,0.8l0,0.1
				c0.1-0.1-0.2,0.3,0.1-0.3l0,0l0,0.1l-0.1,0.2l-0.2,0.5l-0.8,1.9c-0.5,1.2-1.2,2.7-1.4,3.7c-0.6,2.1-1.3,4.2-1.8,6.6
				c-0.6,2.3-0.8,4.7-1.2,7l-2.4,14l-12.5-8.1c-2.6-1.7-5.1-3.5-7.7-5l-4-2.2l-2-1.1l-0.5-0.3l-0.1,0c-0.4-0.2,0.5,0.2,0.4,0.2l0,0
				l-0.1-0.1l-0.3-0.1l-1.2-0.5l-4.7-2l-2.3-1l-2.1-0.6c-2.7-0.8-5.3-1.9-8.4-2.4l-4.4-1c-1.5-0.3-3-0.4-4.5-0.6
				c-1.5-0.2-3-0.5-4.5-0.5l-4.5-0.2c-3-0.3-6,0.1-9,0.2c-3,0.1-6,0.8-9,1.2c-2.9,0.6-5.9,1.3-8.8,2.1c-2.8,1.1-5.8,1.8-8.5,3.1
				c-2.8,1.2-5.6,2.3-8.2,3.8l-4,2.2c-1.3,0.8-2.5,1.7-3.8,2.5c-2.6,1.6-4.9,3.5-7.3,5.4c-2.5,1.8-4.5,4.1-6.7,6.2
				c-2.2,2.1-4,4.6-6.1,6.8c-1.9,2.4-3.5,5-5.4,7.5l-4.9,6.8l-6.8-3.3c-2-1-3.9-2.1-5.9-2.9c-2-1-4.1-1.6-6.2-2.4
				c-2.2-0.6-4.3-1.3-6.5-1.6c-2.2-0.5-4.4-0.7-6.7-1c-2.3-0.1-4.5-0.3-6.8-0.2c-2.3,0-4.5,0.2-6.8,0.4c-2.3,0.4-4.6,0.6-6.8,1.2
				c-2.3,0.4-4.4,1.2-6.7,1.9c-2.1,0.9-4.4,1.6-6.4,2.7c-2.2,0.9-4.2,2.1-6.3,3.3c-1,0.6-2,1.3-3,2l-1.9,0.6l-0.6-0.3l0,0
				c0.1-0.1-0.2,0.2,0.2-0.2l0,0l0.3,0.5l-0.2,0.5l-0.6,0.7l-5.7,5c-1.9,1.6-3.2,3.5-4.9,5.2c-0.8,0.9-1.7,1.7-2.4,2.7l-2.1,3.1
				c-1.3,2.1-3.1,4-4,6.3l-3.5,6.8c0.5-2.5,1.1-5,1.7-7.5c0.5-2.6,1.7-4.9,2.6-7.3l1.5-3.6c0.6-1.2,1.3-2.3,2-3.5
				c1.4-2.2,2.7-4.8,4.3-6.8l4.9-5.8l0.6-0.7l0.3-0.4l0.1-0.1l-0.4-0.5l-0.2-0.7l0.2-0.2l1.9-0.9c1-0.9,2.2-1.7,3.2-2.5
				c2.1-1.7,4.3-3.3,6.6-4.8c2.2-1.6,4.7-2.8,7.1-4.1c2.5-1.1,5-2.4,7.6-3.3c2.6-1.1,5.3-1.7,7.9-2.5c2.7-0.6,5.4-1.3,8.2-1.5
				c2.8-0.4,5.6-0.5,8.4-0.6c2.8,0.1,5.6,0.1,8.4,0.4c2.8,0.2,5.6,0.8,8.4,1.3c2.7,0.7,5.5,1.3,8.2,2.3c2.7,0.8,5.3,2,8,3.1
				l-11.8,3.4c1.9-3.1,3.8-6.4,5.9-9.5c2.3-2.9,4.3-6.1,6.9-8.8c2.6-2.7,5-5.6,7.8-8c2.8-2.5,5.6-5,8.7-7.1c1.5-1.1,3-2.2,4.6-3.2
				l4.9-2.8c3.2-2,6.6-3.5,10-5.1c3.4-1.6,7-2.6,10.6-3.9c3.6-1,7.3-1.9,10.9-2.7c3.7-0.5,7.4-1.3,11.2-1.4
				c3.8-0.1,7.5-0.5,11.3-0.2l5.6,0.3c1.9,0.1,3.7,0.5,5.6,0.7c1.9,0.3,3.7,0.5,5.6,0.9l5.5,1.4c3.6,0.8,7.3,2.2,11,3.6l2.8,1
				l2.3,1.1l4.6,2.2l1.1,0.6l1,0.5l0.6,0.4l2.4,1.5l4.8,2.9c3.1,2.1,6,4.5,8.9,6.7l-14.9,6c0.7-3,1.1-6.1,2.1-9.1c0.8-2.9,2-6,3.3-9
				c0.6-1.6,1.3-2.6,1.9-3.9l1-1.8l0.7-1.2l0.6-1c1.7-2.6,3.2-5.2,5.2-7.6l2.9-3.6c1-1.2,2.1-2.2,3.1-3.3c2.1-2.3,4.4-4.2,6.7-6.1
				c2.3-2,5-3.4,7.4-5.1c2.7-1.4,5.2-2.9,8-4.1c2.8-1.1,5.5-2.3,8.4-3.1c1.4-0.4,2.8-0.9,4.3-1.2l4.4-0.8c2.9-0.6,5.9-0.6,8.7-0.9
				c2.9,0,5.8-0.1,8.7,0.2c2.9,0.3,5.7,0.6,8.5,1.3l4.2,1l4,1.4c2.7,0.8,5.3,2.2,7.8,3.3C1539.2,3480.3,1541.5,3481.8,1543.9,3483.3
				z"/>
			<path class="st79" d="M2424.4,3682.3l-4-7.9c-1.5-2.5-3.1-5-4.6-7.4c-1.7-2.4-3.5-4.6-5.2-6.9c-1.9-2.2-3.9-4.3-5.8-6.4
				c-2-2-4.2-3.8-6.3-5.7c-2.2-1.8-4.5-3.4-6.7-5.1l-7.1-4.4l-7.5-3.7l-7.7-2.9l-7.9-2.2c-2.7-0.5-5.4-1-8.1-1.4
				c-2.7-0.2-5.4-0.5-8.1-0.6c-2.7,0.1-5.4,0-8.1,0.2c-2.7,0.3-5.4,0.5-8,0.8l-7.8,1.6l-7.6,2.3l-7.5,2.3l-3.6-7.7l-3.7-7.9
				c-1.4-2.6-2.9-5-4.3-7.6c-3.1-4.9-6.4-9.6-10.1-14l-1.3-1.7l0.1-0.4l0.1-0.3l0,0c0.1,0.2-0.6-0.2,0.1,0.5l-0.5-0.3l-0.9-0.8
				l-3.3-3.4c-2.2-2.2-4.4-4.7-6.5-6.3l-6.2-5.3l-7-4.9c-2.3-1.8-4.9-3-7.3-4.4c-2.5-1.4-4.9-2.9-7.6-3.9c-2.6-1.1-5.2-2.4-7.8-3.4
				l-8.1-2.7c-2.7-0.9-5.5-1.4-8.3-2.1c-2.7-0.8-5.6-1.2-8.4-1.6c-5.6-1.1-11.3-1.1-17-1.4c-5.7,0.3-11.4,0.3-17,1.3l-4.2,0.6
				l-4.1,1c-2.7,0.7-5.6,1.1-8.2,2.1l-8.1,2.7c-2.7,1-5.2,2.3-7.8,3.4c-2.7,1-5.1,2.5-7.6,4c-2.4,1.5-5.1,2.6-7.3,4.4l-7,5l-0.4,0.3
				l-0.1,0.1l-0.1,0c-0.3,0.2,0.3-0.3,0.2-0.2l-0.2,0.2l-0.9,0.8l-1.8,1.5l-3.6,3c-1.9,2-3.9,3.7-5.9,5.8c-1.9,2.1-4,4.1-5.7,6.4
				c-1.8,2.2-3.7,4.4-5.3,6.8c-1.7,2.3-3.3,4.8-4.8,7.2c-3.1,4.9-5.6,10.1-8,15.4l-6.7,14.9l-8.9-12.4l-0.6-0.9l0.4-0.7l0.5-0.6l0,0
				c0.7,0.8,0.2,0.2,0.3,0.4l-0.1-0.1l-0.9,0.1l-1.7-1.5l-3-3.3c-1-1.3-2-2-2.9-2.9l-2.8-2.7c-1.7-1.9-4.2-3.4-6.2-5.1
				c-2.1-1.8-4.5-3.1-6.7-4.7c-2.2-1.6-4.8-2.7-7.2-4c-2.4-1.3-5.1-2.2-7.6-3.3c-2.6-1-5.3-1.7-7.9-2.6c-2.7-0.7-5.5-1.1-8.2-1.8
				c-2.8-0.5-5.6-0.7-8.4-1.1c-2.8-0.1-5.7-0.2-8.5-0.3l-8.6,0.6l-8.5,1.4l-8.4,2.2l-8.2,3.1l-8,3.8l-7.7,4.6l6.7-6.1l7.4-5.4
				c2.6-1.6,5.3-3,8-4.6c2.8-1.3,5.6-2.5,8.5-3.8c2.9-1,5.9-2,8.9-2.9l9.2-1.9c3.1-0.3,6.3-0.7,9.4-1c3.1,0,6.3-0.2,9.5,0
				c3.2,0.3,6.4,0.5,9.5,1c3.1,0.7,6.3,1.1,9.4,2c3,1,6.2,1.7,9.2,2.9c3,1.3,6.1,2.3,8.9,3.8c2.8,1.6,5.9,2.9,8.5,4.7
				c2.7,1.9,5.5,3.5,8,5.7l3.9,3.3c1.3,1.1,2.6,2.2,3.6,3.3l3.1,3.2l1.6,1.6l0.4,0.4l0.1,0.1l0.4,0.5l0.2,0.2l0.8,0.9l-15.6,2.4
				c2.3-6.3,4.8-12.6,8-18.6c1.5-3,3.2-6,5.1-8.8c1.7-2.9,3.7-5.7,5.8-8.4c1.9-2.8,4.2-5.3,6.4-8c2.2-2.6,4.8-5.1,7.3-7.7l3.2-3.5
				l1.5-1.9l0.9-0.8l0.2-0.2l0.8-0.1l0.6-0.2l8.2-6.2c2.6-2.2,5.7-3.7,8.6-5.5c2.9-1.8,5.8-3.6,9-4.9c3.1-1.4,6.2-3,9.3-4.3l9.7-3.5
				c3.2-1.2,6.6-1.8,9.9-2.7l5-1.2l5.1-0.8c6.8-1.2,13.6-1.4,20.5-1.7c6.9,0.3,13.7,0.5,20.5,1.8c3.4,0.5,6.8,1,10.1,2
				c3.3,0.9,6.7,1.5,9.9,2.7l9.7,3.5c3.2,1.3,6.2,2.9,9.3,4.3c3.1,1.4,6.1,3.2,9,5c2.9,1.8,5.9,3.4,8.6,5.6l8.1,6.2l7.8,7.2
				c2.8,2.5,4.5,4.8,6.7,7.2l3.1,3.6l0.8,0.9l0.4,0.4l0.4,0.5l0.1,0.1l0.1,0.1l0.2,0.3l1.5,2.1c4.1,5.4,7.6,11.2,10.8,17.2
				c1.4,3.1,3,6.1,4.3,9.2l3.6,9.4l-11.1-5.4l9.5-2.1c3.2-0.5,6.4-0.8,9.6-1.2c3.2-0.2,6.4-0.2,9.6-0.2c3.2,0.1,6.4,0.5,9.6,0.8
				c3.2,0.5,6.3,1.2,9.4,1.7c3.1,0.8,6.1,1.8,9.1,2.6c3,1.1,5.9,2.3,8.8,3.5c2.8,1.4,5.6,2.9,8.3,4.4l7.8,5.2c2.4,2,4.9,3.9,7.2,5.9
				c2.2,2.2,4.4,4.3,6.5,6.5c2,2.4,3.9,4.7,5.8,7.2c1.7,2.6,3.4,5.1,5,7.7c1.4,2.7,2.9,5.3,4.2,8.1c1.1,2.8,2.2,5.6,3.2,8.4
				L2424.4,3682.3z"/>
			<path class="st79" d="M3308,3684.1l-4-7.9c-1.5-2.5-3.1-5-4.6-7.4c-1.7-2.4-3.5-4.6-5.2-6.9c-1.9-2.2-3.9-4.3-5.8-6.4
				c-2-2-4.2-3.8-6.3-5.7c-2.2-1.8-4.5-3.4-6.7-5.1l-7.1-4.4l-7.5-3.7l-7.7-2.9l-7.9-2.2c-2.7-0.5-5.4-1-8.1-1.4
				c-2.7-0.2-5.4-0.5-8.1-0.6c-2.7,0.1-5.4,0-8.1,0.2c-2.7,0.4-5.4,0.5-8,0.8l-7.8,1.6l-7.6,2.3l-7.5,2.3l-3.6-7.7l-3.7-7.9
				c-1.4-2.6-2.9-5-4.3-7.6c-3.1-4.9-6.4-9.6-10.1-14l-1.3-1.7l0.1-0.4l0.1-0.3l0,0c0.1,0.2-0.6-0.2,0.1,0.5l-0.5-0.3l-0.9-0.8
				l-3.3-3.4c-2.2-2.2-4.4-4.7-6.5-6.3l-6.2-5.3l-7-4.9c-2.3-1.8-4.9-3-7.3-4.4c-2.5-1.4-4.9-2.9-7.6-3.9c-2.6-1.1-5.2-2.4-7.8-3.4
				l-8.1-2.7c-2.7-0.9-5.5-1.4-8.3-2.1c-2.7-0.8-5.6-1.2-8.4-1.6c-5.6-1.1-11.3-1.1-17-1.4c-5.7,0.3-11.4,0.3-17,1.3l-4.2,0.6
				l-4.1,1c-2.7,0.7-5.6,1.1-8.2,2.1l-8.1,2.7c-2.7,1-5.2,2.3-7.8,3.4c-2.7,1-5.1,2.5-7.6,4c-2.4,1.5-5.1,2.6-7.3,4.4l-7,4.9
				l-0.4,0.3l-0.1,0.1l-0.1,0c-0.3,0.2,0.3-0.3,0.2-0.2l-0.2,0.2l-0.9,0.8l-1.8,1.5l-3.6,3c-1.9,2-3.9,3.7-5.9,5.8
				c-1.9,2.1-4,4.1-5.7,6.4c-1.8,2.2-3.7,4.4-5.2,6.8c-1.7,2.3-3.3,4.8-4.8,7.2c-3.1,4.9-5.6,10.1-8,15.4l-6.7,14.9l-8.9-12.4
				l-0.6-0.9l0.4-0.7l0.5-0.6l0,0c0.7,0.8,0.2,0.2,0.3,0.4l-0.1-0.1l-0.9,0.1l-1.7-1.5l-3-3.3c-1-1.3-2-2-2.9-2.9l-2.8-2.7
				c-1.8-1.9-4.2-3.4-6.2-5.1c-2.1-1.8-4.5-3.1-6.7-4.7c-2.2-1.6-4.8-2.7-7.2-4c-2.4-1.3-5.1-2.2-7.6-3.3c-2.6-1-5.3-1.7-7.9-2.6
				c-2.7-0.7-5.5-1.1-8.2-1.8c-2.8-0.5-5.6-0.7-8.4-1.1c-2.8-0.2-5.7-0.2-8.5-0.3l-8.6,0.6l-8.5,1.4l-8.4,2.2l-8.2,3.1l-8,3.8
				l-7.7,4.6l6.7-6.1l7.4-5.4c2.6-1.6,5.3-3,8-4.6c2.8-1.3,5.6-2.5,8.5-3.8c2.9-1,5.9-2,8.9-2.9l9.2-1.9c3.1-0.3,6.3-0.7,9.4-1
				c3.1,0,6.3-0.2,9.5,0c3.2,0.3,6.4,0.5,9.5,1c3.1,0.7,6.3,1.1,9.4,2c3,1,6.2,1.7,9.2,2.9c3,1.3,6.1,2.3,8.9,3.8
				c2.8,1.6,5.9,2.9,8.5,4.7c2.7,1.9,5.5,3.5,8,5.7l3.9,3.3c1.3,1.1,2.6,2.2,3.6,3.3l3.1,3.2l1.6,1.6l0.4,0.4l0.1,0.1l0.4,0.5
				l0.2,0.2l0.8,0.9l-15.6,2.4c2.3-6.3,4.8-12.6,8-18.6c1.5-3,3.2-6,5.1-8.8c1.7-2.9,3.7-5.7,5.8-8.4c1.9-2.8,4.2-5.3,6.4-8
				c2.2-2.6,4.8-5.1,7.3-7.7l3.2-3.5l1.5-1.9l0.9-0.8l0.2-0.2l0.8-0.1l0.6-0.2l8.2-6.1c2.6-2.2,5.7-3.7,8.6-5.6
				c2.9-1.8,5.8-3.6,9-4.9c3.1-1.4,6.2-3,9.3-4.3l9.7-3.5c3.2-1.2,6.6-1.8,9.9-2.7l5-1.2l5.1-0.8c6.8-1.2,13.6-1.4,20.5-1.7
				c6.8,0.3,13.7,0.5,20.5,1.8c3.4,0.5,6.8,1,10.1,2c3.3,0.9,6.7,1.5,9.9,2.7l9.7,3.5c3.2,1.3,6.2,2.9,9.3,4.3c3.1,1.4,6.1,3.2,9,5
				c2.9,1.8,5.9,3.4,8.6,5.6l8.1,6.2l7.8,7.2c2.8,2.5,4.5,4.8,6.7,7.2l3.1,3.6l0.8,0.9l0.4,0.4l0.4,0.5l0.1,0.1l0.1,0.1l0.2,0.3
				l1.5,2.1c4.1,5.4,7.6,11.2,10.8,17.2c1.4,3.1,3,6.1,4.3,9.2l3.6,9.4l-11.1-5.4l9.5-2.1c3.2-0.5,6.4-0.8,9.6-1.2
				c3.2-0.2,6.4-0.2,9.6-0.2c3.2,0.1,6.4,0.5,9.6,0.8c3.2,0.5,6.3,1.2,9.4,1.7c3.1,0.8,6.1,1.7,9.1,2.6c3,1.1,5.9,2.3,8.8,3.5
				c2.8,1.4,5.6,2.9,8.3,4.4l7.8,5.2c2.4,2,4.9,3.9,7.2,5.9c2.2,2.2,4.4,4.3,6.5,6.5c2,2.4,3.9,4.7,5.8,7.2c1.7,2.6,3.4,5.1,5,7.6
				c1.4,2.7,2.9,5.3,4.2,8.1c1.1,2.8,2.2,5.6,3.2,8.4L3308,3684.1z"/>
		</g>
		<g>
			<path class="st11" d="M2720,2274.7c0,147.2-208.5,345.4-208.5,345.4S2303,2421.9,2303,2274.7c0-147.2,93.3-187.6,208.5-187.6
				C2626.6,2087.1,2720,2127.5,2720,2274.7z"/>
			<path class="st12" d="M2655.4,2245.6c0,101.6-143.9,238.4-143.9,238.4s-143.9-136.8-143.9-238.4c0-101.6,64.4-129.5,143.9-129.5
				C2590.9,2116.1,2655.4,2144,2655.4,2245.6z"/>
			<path class="st13" d="M2594.8,2197c0,58.8-83.3,138.1-83.3,138.1s-83.4-79.2-83.4-138.1s37.3-75,83.4-75
				S2594.8,2138.1,2594.8,2197z"/>
			<g>
				<g>
					<path class="st14" d="M2341.4,1748.1c0,0-287.1,150.7-287.1,477.3c0,0,17.9,35.9,46.6-7.2c28.7-43.1,53.8-161.5,236.9-161.5
						L2341.4,1748.1z"/>
					<path class="st15" d="M2680.1,1748.1c0,0,287.1,150.7,287.1,477.3c0,0-18,35.9-46.7-7.2c-28.7-43.1-53.8-161.5-236.9-161.5
						L2680.1,1748.1z"/>
				</g>
				<g>
					<path class="st77" d="M2829.5,1430.8c0-133.7-22.6-259.6-56.2-369.7h-262.5v111.7c97.1,0,175.9,78.7,175.9,175.9
						c0,97.1-78.7,175.9-175.9,175.9v565.2h171.8C2770.9,1950.7,2829.5,1707.5,2829.5,1430.8z"/>
					<path class="st77" d="M2334.9,1348.7c0-97.1,78.7-175.9,175.9-175.9v-111.7h-262.5c-33.7,110.1-56.2,236-56.2,369.7
						c0,276.7,58.6,519.9,146.9,659h171.8v-565.2C2413.6,1524.5,2334.9,1445.8,2334.9,1348.7z"/>
					<path class="st18" d="M2341.4,2090.3c-4.4,0-8,3.6-8,8v37.5c0,4.4,3.6,8,8,8h169.4v-53.6H2341.4z"/>
					<path class="st19" d="M2679.9,2090.3h-169.2v53.6h169.2c4.4,0,8.1-3.6,8.1-8v-37.5C2688,2093.8,2684.4,2090.3,2679.9,2090.3z"
						/>
					<path class="st19" d="M2631.2,1348.7c0,66.6-54,120.5-120.5,120.5v55.4c97.1,0,175.9-78.7,175.9-175.9
						c0-97.1-78.7-175.9-175.9-175.9v55.4C2577.3,1228.2,2631.2,1282.1,2631.2,1348.7z"/>
					<path class="st18" d="M2334.9,1348.7c0,97.1,78.7,175.9,175.9,175.9v-55.4c-66.6,0-120.5-54-120.5-120.5
						c0-66.6,53.9-120.5,120.5-120.5v-55.4C2413.6,1172.8,2334.9,1251.6,2334.9,1348.7z"/>
					<path class="st20" d="M2631.2,1348.7c0-66.6-54-120.5-120.5-120.5v241C2577.3,1469.2,2631.2,1415.2,2631.2,1348.7z"/>
					<path class="st21" d="M2390.2,1348.7c0,66.6,53.9,120.5,120.5,120.5v-241C2444.2,1228.2,2390.2,1282.1,2390.2,1348.7z"/>
				</g>
			</g>
			<g>
				<path class="st15" d="M2510.8,648.6v412.5h262.5C2698.2,815.6,2568.1,648.6,2510.8,648.6z"/>
				<path class="st14" d="M2510.8,648.6c-57.3,0-187.5,167-262.5,412.5h262.5V648.6L2510.8,648.6z"/>
				<path class="st15" d="M2521.8,1837.5c-0.9-0.3-1.8-0.4-2.8-0.4h-0.2h-8.1v402.8h9h0.2c5,0,9.2-4.1,9.2-9.1v-12.2l0.3-17.7
					l25.4-323.9C2554.9,1844,2527.4,1838.9,2521.8,1837.5z"/>
				<path class="st14" d="M2501.7,1837h-0.2c-1,0-1.9,0.2-2.8,0.4c-1.6,0.4-3.4,1.1-5.2,2.1c-10,3.3-27,12-27,37.7l25.4,324.2
					l0.3,16.4v12.2c0,3.8,2.4,7.1,5.7,8.5c1.3,0.7,2.8,1.1,4.4,1.1h0.2h8.1V1837H2501.7z"/>
			</g>
		</g>
	</g>
</g>
</svg>
