<?xml version="1.0" encoding="utf-8"?>
<!-- Generator: Adobe Illustrator 22.1.0, SVG Export Plug-In . SVG Version: 6.00 Build 0)  -->
<svg version="1.1" id="OBJECTS" xmlns="http://www.w3.org/2000/svg" xmlns:xlink="http://www.w3.org/1999/xlink" x="0px" y="0px"
	 viewBox="0 0 499.7 499.7" style="enable-background:new 0 0 499.7 499.7;" xml:space="preserve">
<style type="text/css">
	.st0{clip-path:url(#SVGID_2_);}
	.st1{fill:#FFFFFF;}
	.st2{fill:#FBC19D;}
	.st3{fill:#A77551;}
	.st4{fill:#3C3C3B;}
</style>
<g>
	<defs>
		<rect id="SVGID_1_" x="0" y="0" width="499.7" height="499.7"/>
	</defs>
	<clipPath id="SVGID_2_">
		<use xlink:href="#SVGID_1_"  style="overflow:visible;"/>
	</clipPath>
	<g class="st0">
		<g>
			<rect x="248.3" y="192.6" class="st1" width="3" height="30"/>
			<rect x="190.8" y="208" transform="matrix(0.866 -0.5 0.5 0.866 -85.7295 126.0449)" class="st1" width="3" height="30"/>
			<rect x="148.7" y="250.1" transform="matrix(0.5 -0.866 0.866 0.5 -154.4512 262.664)" class="st1" width="3" height="30"/>
			<rect x="119.8" y="321.1" class="st1" width="30" height="3"/>
			
				<rect x="135.2" y="378.6" transform="matrix(0.8661 -0.4999 0.4999 0.8661 -169.8934 126.018)" class="st1" width="30" height="3"/>
			<rect x="177.3" y="420.7" transform="matrix(0.5 -0.866 0.866 0.5 -269.451 377.6645)" class="st1" width="30" height="3"/>
			<rect x="248.3" y="422.6" class="st1" width="3" height="30"/>
			<rect x="292.3" y="221.5" transform="matrix(0.5 -0.866 0.866 0.5 -39.4505 377.6642)" class="st1" width="30" height="3"/>
			<rect x="334.4" y="263.6" transform="matrix(0.866 -0.5 0.5 0.866 -85.7297 210.23)" class="st1" width="30" height="3"/>
			<rect x="349.8" y="321.1" class="st1" width="30" height="3"/>
			
				<rect x="347.9" y="365.1" transform="matrix(0.4999 -0.8661 0.8661 0.4999 -154.4412 492.7066)" class="st1" width="3" height="30"/>
			<rect x="305.8" y="407.2" transform="matrix(0.866 -0.5 0.5 0.866 -169.9147 210.2299)" class="st1" width="3" height="30"/>
		</g>
		<g>
			<g>
				<rect x="261.3" y="175.5" transform="matrix(0.866 -0.5 0.5 0.866 -43.765 257.6193)" class="st2" width="395" height="70"/>
				<path class="st2" d="M270.9,265.9l-70.1,40.5l43,74.5l70.1-40.5c8.6-5,11.6-16,6.6-24.6l-25-43.3
					C290.5,263.9,279.5,260.9,270.9,265.9z"/>
			</g>
			<g>
				<rect x="5.8" y="13" transform="matrix(0.5 -0.866 0.866 0.5 -161.8602 140.6037)" class="st3" width="70" height="395"/>
				<path class="st3" d="M247.3,375.9l44.5-77.1l-61.5-35.5c-8.6-5-19.6-2-24.6,6.6l-26.5,45.9c-5,8.6-2,19.6,6.6,24.6L247.3,375.9z
					"/>
				<g>
					<path class="st3" d="M244.7,374.4l10-17.3l31.2,18c4.8,2.8,6.4,8.9,3.7,13.7l0,0c-2.8,4.8-8.9,6.4-13.7,3.7L244.7,374.4z"/>
					<path class="st3" d="M256.2,354.4l10-17.3l36.4,21c4.8,2.8,6.4,8.9,3.7,13.7l0,0c-2.8,4.8-8.9,6.4-13.7,3.7L256.2,354.4z"/>
					<path class="st3" d="M267.7,334.5l10-17.3l41.6,24c4.8,2.8,6.4,8.9,3.7,13.7l0,0c-2.8,4.8-8.9,6.4-13.7,3.7L267.7,334.5z"/>
					<path class="st3" d="M279.2,314.6l10-17.3l46.8,27c4.8,2.8,6.4,8.9,3.7,13.7l0,0c-2.8,4.8-8.9,6.4-13.7,3.7L279.2,314.6z"/>
				</g>
			</g>
			<g>
				
					<rect x="192" y="256.5" transform="matrix(0.9848 -0.1736 0.1736 0.9848 -42.9091 42.6048)" class="st3" width="60" height="20"/>
			</g>
			<g>
				<g>
					<rect x="-29.1" y="6.7" transform="matrix(0.5 -0.866 0.866 0.5 -161.8602 103.1032)" class="st1" width="75" height="370"/>
					<path class="st4" d="M139.1,290.3c-1.4,2.4-0.6,5.4,1.8,6.8c2.4,1.4,5.4,0.6,6.8-1.8c1.4-2.4,0.6-5.4-1.8-6.8
						C143.5,287.1,140.5,287.9,139.1,290.3z"/>
				</g>
				<rect x="-62" y="-10.8" transform="matrix(0.5 -0.866 0.866 0.5 -161.8601 68.1031)" class="st4" width="80" height="370"/>
			</g>
			<g>
				
					<rect x="267.6" y="236.5" transform="matrix(0.1736 -0.9848 0.9848 0.1736 -33.0445 493.6757)" class="st2" width="20" height="60"/>
				<path class="st2" d="M216.5,293.8l43.3-25l-10-17.3l-43.3,25c-4.8,2.8-6.4,8.9-3.7,13.7l0,0
					C205.6,294.9,211.8,296.6,216.5,293.8z"/>
			</g>
			<g>
				<path class="st2" d="M230.7,388.4l13-7.5c4.8-2.8,6.4-8.9,3.7-13.7l0,0c-2.8-4.8-8.9-6.4-13.7-3.7l-13,7.5
					c-4.8,2.8-6.4,8.9-3.7,13.7l0,0C219.8,389.5,225.9,391.1,230.7,388.4z"/>
				<path class="st2" d="M207.1,375.4l17.3-10c4.8-2.8,6.4-8.9,3.7-13.7l0,0c-2.8-4.8-8.9-6.4-13.7-3.7l-17.3,10
					c-4.8,2.8-6.4,8.9-3.7,13.7l0,0C196.2,376.6,202.3,378.2,207.1,375.4z"/>
				<path class="st2" d="M190.4,358.5l30.3-17.5c4.8-2.8,6.4-8.9,3.7-13.7l0,0c-2.8-4.8-8.9-6.4-13.7-3.7l-30.3,17.5
					c-4.8,2.8-6.4,8.9-3.7,13.7l0,0C179.5,359.7,185.6,361.3,190.4,358.5z"/>
				<path class="st2" d="M173.7,341.6l17.3-10c4.8-2.8,6.4-8.9,3.7-13.7l0,0c-2.8-4.8-8.9-6.4-13.7-3.7l-17.3,10
					c-4.8,2.8-6.4,8.9-3.7,13.7l0,0C162.8,342.7,168.9,344.4,173.7,341.6z"/>
			</g>
			<g>
				<rect x="306.3" y="154.2" transform="matrix(0.866 -0.5 0.5 0.866 -30.0388 271.3469)" class="st1" width="370" height="75"/>
				<path class="st4" d="M360.6,290.3c1.4,2.4,0.6,5.4-1.8,6.8c-2.4,1.4-5.4,0.6-6.8-1.8c-1.4-2.4-0.6-5.4,1.8-6.8
					C356.2,287.1,359.2,287.9,360.6,290.3z"/>
			</g>
			<rect x="336.6" y="134.2" transform="matrix(0.866 -0.5 0.5 0.866 -17.2279 284.1577)" class="st4" width="370" height="80"/>
		</g>
	</g>
</g>
</svg>
