<?xml version="1.0" encoding="utf-8"?>
<!-- Generator: Adobe Illustrator 22.1.0, SVG Export Plug-In . SVG Version: 6.00 Build 0)  -->
<svg version="1.1" id="Layer_1" xmlns="http://www.w3.org/2000/svg" xmlns:xlink="http://www.w3.org/1999/xlink" x="0px" y="0px"
	 viewBox="0 0 10043.3 10043.3" style="enable-background:new 0 0 10043.3 10043.3;" xml:space="preserve">
<style type="text/css">
	.st0{fill:none;stroke:#716F82;stroke-width:7;stroke-miterlimit:10;}
	.st1{fill:#072050;}
	.st2{fill:#747282;}
	.st3{fill:#2D2D3A;}
	.st4{fill:#FFFFFF;}
	.st5{fill:#A29FB0;}
	.st6{fill:#6E89C4;}
	.st7{fill:#EA5444;}
	.st8{fill:#FFC543;}
	.st9{fill:#A2CC3B;}
	.st10{fill:#313D6E;}
	.st11{fill:#678C6E;}
	.st12{opacity:0.55;fill:#C5CBED;}
	.st13{fill:#7C4B39;}
	.st14{fill:#FCBBA4;}
	.st15{fill:#FFC7B0;}
	.st16{fill:#081344;}
	.st17{opacity:0.2;fill:#081344;}
	.st18{fill:#716F82;}
	.st19{fill:#B1AEC1;}
	.st20{fill:#585668;}
	.st21{fill:#DDDDDD;}
	.st22{fill:#767684;}
	.st23{fill:#1F3468;}
	.st24{fill:#ABA9C4;}
	.st25{fill:#4A4960;}
	.st26{fill:#E79271;}
	.st27{fill:#A5483C;}
	.st28{fill:#84352F;}
	.st29{fill:#7F3954;}
	.st30{fill:#6E3856;}
	.st31{fill:#DF7D54;}
	.st32{fill:none;stroke:#081344;stroke-width:1.4933;stroke-linecap:round;stroke-miterlimit:10;}
	.st33{fill:#1C1C2D;}
	.st34{fill:#A0523A;}
	.st35{fill:#25253A;}
	.st36{fill:#9F293B;}
	.st37{fill:#F14747;}
	.st38{opacity:0.32;fill:#25253A;}
	.st39{fill:#ECEEF0;}
	.st40{opacity:0.55;fill:#CDD6F9;}
	.st41{fill:#FC4F42;}
	.st42{opacity:0.79;fill:#CE2D29;}
	.st43{fill:#6075B0;}
	.st44{fill:#794061;}
	.st45{fill:#072859;}
	.st46{fill:#F3885E;}
	.st47{fill:#FFBE62;}
	.st48{fill:#FBAF3D;}
	.st49{fill:#FFD72E;}
	.st50{fill:#F38154;}
	.st51{fill:#709B2C;}
	.st52{fill:#4C842F;}
	.st53{fill:none;stroke:#081344;stroke-width:4.5943;stroke-miterlimit:10;}
	.st54{fill:#517F38;}
	.st55{fill:#3B6837;}
	.st56{fill:#65B15B;}
	.st57{fill:#62324A;}
</style>
<line class="st0" x1="-49" y1="8150.2" x2="10004.3" y2="8150.2"/>
<g>
	
		<rect x="1406.1" y="2954.3" transform="matrix(-1 -1.224647e-16 1.224647e-16 -1 3664.4585 7741.8672)" class="st1" width="852.3" height="1833.2"/>
	<g>
		<path class="st2" d="M459.4,4144.2h2733V2276.5c0-4.8-3.9-8.7-8.7-8.7H468.1c-4.8,0-8.7,3.9-8.7,8.7V4144.2z"/>
		<path class="st2" d="M503.9,4418.4h2695.7c10.1,0,18.3-8.2,18.3-18.3V4092H485.6v308.1C485.6,4410.2,493.8,4418.4,503.9,4418.4z"
			/>
		<path class="st3" d="M3288.1,2379.5v1764.8l-670.7-10.7l-702-11.2l-221.7-3.6l-709.5-11.3l-429.2-6.8V2379.5
			c0-61.6,50-111.6,111.8-111.6h2509.4C3238.1,2267.8,3288.1,2317.9,3288.1,2379.5z"/>
		<path class="st4" d="M657.1,2429.5v1556.9c0,5.7,4.6,10.3,10.3,10.3h2508.3c5.7,0,10.3-4.6,10.3-10.3V2429.5
			c0-5.7-4.6-10.3-10.3-10.3H667.4C661.7,2419.1,657.1,2423.8,657.1,2429.5z"/>
		<path class="st5" d="M573.6,4418.4h2695.7c10.1,0,18.3-8.2,18.3-18.3V4092H555.3v308.1C555.3,4410.2,563.5,4418.4,573.6,4418.4z"
			/>
	</g>
	<path class="st5" d="M1384.6,4794.6H2527c35.1,0,63.5-28.4,63.5-63.5l0,0c0-35.1-28.4-63.5-63.5-63.5H1384.6
		c-35.1,0-63.5,28.4-63.5,63.5l0,0C1321.1,4766.2,1349.5,4794.6,1384.6,4794.6z"/>
	<g>
		<path class="st6" d="M3097.3,2693H788.1c-1.5,0-2.6-1.2-2.6-2.6v-193.6c0-1.5,1.2-2.6,2.6-2.6h2309.2c1.5,0,2.6,1.2,2.6,2.6v193.6
			C3099.9,2691.8,3098.7,2693,3097.3,2693z"/>
		<g>
			<g>
				<path class="st7" d="M960.8,2590.5c0,24-19,43.4-42.4,43.4s-42.4-19.4-42.4-43.4c0-24,19-43.4,42.4-43.4
					S960.8,2566.5,960.8,2590.5z"/>
			</g>
		</g>
		<g>
			<g>
				<ellipse class="st8" cx="1073" cy="2590.5" rx="42.4" ry="43.4"/>
			</g>
		</g>
		<g>
			<g>
				<ellipse class="st9" cx="1227.6" cy="2590.5" rx="42.4" ry="43.4"/>
			</g>
		</g>
		<path class="st10" d="M1569.6,3041.8H781.2c-0.9,0-1.6-0.7-1.6-1.6v-266.7c0-0.9,0.7-1.6,1.6-1.6h788.5c0.9,0,1.6,0.7,1.6,1.6
			v266.7C1571.2,3041.1,1570.5,3041.8,1569.6,3041.8z"/>
		<path class="st11" d="M2491.2,3382.6h-788.5c-0.9,0-1.6-0.7-1.6-1.6v-266.7c0-0.9,0.7-1.6,1.6-1.6h788.5c0.9,0,1.6,0.7,1.6,1.6
			v266.7C2492.8,3381.9,2492.1,3382.6,2491.2,3382.6z"/>
		<path class="st11" d="M3098.3,3041.8h-491.7c-0.9,0-1.6-0.7-1.6-1.6v-266.7c0-0.9,0.7-1.6,1.6-1.6h491.7c0.9,0,1.6,0.7,1.6,1.6
			v266.7C3099.9,3041.1,3099.2,3041.8,3098.3,3041.8z"/>
		<path class="st7" d="M3098.3,3388h-491.7c-0.9,0-1.6-0.7-1.6-1.6v-266.7c0-0.9,0.7-1.6,1.6-1.6h491.7c0.9,0,1.6,0.7,1.6,1.6v266.7
			C3099.9,3387.3,3099.2,3388,3098.3,3388z"/>
		<g>
			<rect x="1707.1" y="2988" class="st1" width="791.6" height="19.4"/>
			<rect x="1707.1" y="2919.2" class="st1" width="791.6" height="19.4"/>
			<rect x="1707.1" y="2850.3" class="st1" width="791.6" height="19.4"/>
			<rect x="1707.1" y="2781.5" class="st1" width="791.6" height="19.3"/>
		</g>
		<path class="st7" d="M1569.6,3718.1H781.2c-0.9,0-1.6-0.7-1.6-1.6v-266.7c0-0.9,0.7-1.6,1.6-1.6h788.5c0.9,0,1.6,0.7,1.6,1.6
			v266.7C1571.2,3717.4,1570.5,3718.1,1569.6,3718.1z"/>
		<g>
			<rect x="1707.1" y="3664.4" class="st1" width="791.6" height="19.3"/>
			<rect x="1707.1" y="3595.5" class="st1" width="791.6" height="19.3"/>
			<rect x="1707.1" y="3526.7" class="st1" width="791.6" height="19.4"/>
			<rect x="1707.1" y="3457.8" class="st1" width="791.6" height="19.4"/>
		</g>
		<g>
			<rect x="776.6" y="3318.2" class="st1" width="791.6" height="19.4"/>
			<rect x="776.6" y="3249.4" class="st1" width="791.6" height="19.4"/>
			<rect x="776.6" y="3180.5" class="st1" width="791.6" height="19.3"/>
			<rect x="776.6" y="3111.7" class="st1" width="791.6" height="19.3"/>
		</g>
	</g>
	<polygon class="st12" points="2762.2,2267.8 1915.4,4094.5 984.2,4094.5 1824.3,2267.8 	"/>
</g>
<g>
	<path class="st13" d="M3375.7,1358.6l175,108.3c126.8,78.4,172,241,104.3,373.9c-13.5,26.4-21.9,43.4-20.2,41.5
		c6.6-7.6-268-521.4-268-521.4"/>
	<path class="st14" d="M3059.7,3032.1h-369.1c-6.4,0-11.7-5.3-11.7-11.7v-704.1c0-6.4,5.3-11.7,11.7-11.7h369.1
		c6.4,0,11.7,5.3,11.7,11.7v704.1C3071.4,3026.8,3066.1,3032.1,3059.7,3032.1z"/>
	<path class="st13" d="M3631.8,1882.2c4.1,34.3-156.5,92.2-158.4,128.4l26.1,72.6c-197.2-71.5-23.2,37.5-23.2,37.7
		c-58.6,173.8-38.2,269.9-205.5,336c-83.4,32.9-174.8,48-270.1,41.3c-127.9-8.9-241.5,31-334.3-13.2c-19.2-8.9-37.2-21.6-54.5-38.6
		c-32.6-32.6-61.8-68.5-86.3-107.4c-9.4-15.4-18.6-30.8-27-46.9c-50.4-97.4-153.7-383.4-145.3-500.8c23.2-331.3,340.6-553.1,706-528
		c9.4,0.6,18.6,0.8,28.1,1.3c197.2,13.8,365.9,118.5,468.9,270.4c5.4,8.1,10.8,16.5,15.9,24.8c0,0.3,0,0.3,0,0.3
		c29.7,48.3,45.6,255,45.6,255C3624.5,1836.9,3629.1,1859.2,3631.8,1882.2z"/>
	<path class="st15" d="M3617,1988.2l-4.6,90.9l-7.8,150.8l-12.3,53.5c-1.1,23.7-13.1,148.6-17.4,171.3
		c-41.6,213.4-181.7,258.7-399.2,285.7c-6.5,1.1-13.2,1.6-19.7,1.9c-23.2,2.4-46.7,2.7-70.7,1.6c-23.2-1.1-45.9-4.1-68.3-8.4
		c-43.4-7.8-85.3-21.6-123.8-39.9c0,0-0.3,0-0.5-0.3c-96.1-45.3-175.1-119.5-226.4-210.5c-39.1-68.8-62.3-147-64.8-229.9
		c-0.3-5.7-0.3-11.3-0.3-17.3c-0.3-6.5,0-13.5,0.5-20.5v-3.5l0.5-16.5l2.4-42.9l7.3-148.1l0.3-1.4v-0.3l1.4-27.5l1.1-21.3l1.1-19.7
		l0.3-5.1c2.2-34.3,8.9-67.2,19.2-98.7c6.5-22.4,14.8-44,24.3-64.8c1.4-3.2,2.4-6.2,4-9.4c7.6-17,16.5-34,26.2-49.9
		c0-0.3,0-0.3,0-0.3c36.7-61.2,85.8-114.1,144.1-154.9c11.6-8.4,23.7-16.2,35.9-23.5c84.7-49.6,184.5-76.4,289.5-71
		c87.4,4.6,152,30.8,222.4,73.1c42.6,25.6,81.2,57.2,114.4,93.6c47.2,51.3,78,111.7,100.6,178.3c1.4,3.8,2.4,7.6,3.5,11.3
		c6.7,21.9,11.3,44.3,14,67.2C3618.4,1916.5,3618.9,1952.1,3617,1988.2z"/>
	<path class="st13" d="M3433.4,1537.4c106.7,293.9-174.2,270-187.2,405c-1.5,15.2-6.9,37.5-10.9,148.1l-21.5,69.2
		c-6.2,21.6-26.2,36.4-48.6,36.4c-28,0-50.7-22.7-50.7-50.7v-1.4l2.4-110.1l-54.8,145.2c-39.4,104.7-99.3,199.4-174.8,279.3
		c-62.9,66.1-136.5,122.2-218.3,164.9c0,0-342.7-203.7-342.7-668.9c0-37,2.2-75.5,6.7-115.8c4.3-36.2,10.2-69.9,18.4-101.5
		c141.9-577.9,852.1-380.7,920.3-355.1C3343.6,1408.9,3433.4,1537.4,3433.4,1537.4z"/>
	<path class="st15" d="M3677.5,2299.7c0.1,1-0.1,7.6-0.1,7.6c-0.9,31.8-28.5,57-96.7,55.1l9.5-248.2
		C3645.6,2198.7,3672.5,2247.7,3677.5,2299.7z"/>
	<path class="st13" d="M3640.4,1999.3h-151.8c-17.6,0-32-14.4-32-32l0,0c0-17.6,14.4-32,32-32h151.8c17.6,0,32,14.4,32,32v0
		C3672.4,1984.9,3658,1999.3,3640.4,1999.3z"/>
	<path class="st16" d="M3555.1,2113.6L3555.1,2113.6c-12.6,0-22.9-10.3-22.9-22.9V2057c0-12.6,10.3-22.9,22.9-22.9l0,0
		c12.6,0,22.9,10.3,22.9,22.9v33.7C3578,2103.3,3567.7,2113.6,3555.1,2113.6z"/>
	<path class="st17" d="M2887.4,2458.2c-62.9,66.1-136.5,122.2-218.3,164.9c0,0-342.7-203.7-342.7-668.9c0-37,2.2-75.5,6.7-115.8
		c4.3-36.2,10.2-69.9,18.4-101.5c15.1,88.5,55,222.6,157,388.3C2663.7,2377.3,2832.1,2442.8,2887.4,2458.2z"/>
	<path class="st13" d="M3579.5,2439.3l-4.5,173.7c0,148.1-175.4,207.6-305.5,193.5L3062,2784l20.9-179.8l56.6-344l-91.4-256.9
		l188.3,78.2l0,0.3c-14.2,204.1,132,369.1,336.5,359.7L3579.5,2439.3z"/>
	<path class="st14" d="M3102.1,1996.9c21,0.1,37.9,17.2,37.7,38.2l-0.9,129.2l-0.9,112.9l-44.4-0.3c-3.2-0.1-6.5-0.1-9.5-0.6
		c-74.2-5.6-132.8-70.5-132.4-144.7c0.1-38.5,16.5-71.2,42.5-96.7c23.3-22.7,54.8-35.7,89.5-37.6l0.2,0c4-0.6,7.5-0.7,11.5-0.5
		L3102.1,1996.9z"/>
	<g>
		
			<rect x="1769.5" y="5776.9" transform="matrix(-1 -1.224647e-16 1.224647e-16 -1 4732.623 11773.7969)" class="st16" width="1193.6" height="220.1"/>
		<line class="st10" x1="1362.4" y1="7829.9" x2="1362.4" y2="7914.3"/>
		
			<rect x="6333.6" y="5795.4" transform="matrix(-1 -1.224647e-16 1.224647e-16 -1 13760.5518 11810.9766)" class="st18" width="1093.4" height="220.1"/>
		<rect x="7251" y="5047" class="st18" width="248.7" height="3099.6"/>
		<rect x="6252.4" y="5028.4" class="st19" width="248.7" height="3118.2"/>
		<rect x="6252.4" y="4902.6" class="st18" width="248.7" height="1330.4"/>
		
			<rect x="369.8" y="5795.4" transform="matrix(-1 -1.224647e-16 1.224647e-16 -1 1832.936 11810.9766)" class="st18" width="1093.4" height="220.1"/>
		<rect x="1287.2" y="5047" class="st18" width="248.7" height="3099.6"/>
		<rect x="288.6" y="5028.4" class="st18" width="248.7" height="3118.2"/>
		<g>
			<rect x="4889.7" y="2965" class="st20" width="820.7" height="1765.4"/>
			<g>
				<g>
					<path class="st21" d="M6583.3,4150.5h-2698V2403.4c0-4.6,3.7-8.4,8.4-8.4H6575c4.6,0,8.4,3.7,8.4,8.4V4150.5z"/>
					<path class="st21" d="M6539.6,4414.5H3877.5c-9.7,0-17.6-7.9-17.6-17.6v-296.7h2697.3v296.7
						C6557.2,4406.6,6549.3,4414.5,6539.6,4414.5z"/>
					<path class="st22" d="M6490.4,2502.6v1648h-2698v-1648c0-59.4,48.2-107.5,107.6-107.5h2482.8
						C6442.1,2395.1,6490.4,2443.1,6490.4,2502.6z"/>
					<path class="st23" d="M6392.1,2499.2v1499.4c0,5.4-4.5,9.9-10.1,9.9H3900.5c-5.4,0-9.9-4.5-9.9-9.9V2499.2
						c0-5.5,4.5-9.9,9.9-9.9h2481.6C6387.6,2489.3,6392.1,2493.7,6392.1,2499.2z"/>
					<path class="st24" d="M6490.1,4100.2v87c0,91.3-53.8,170-131.3,206.1c-29.1,13.7-61.7,21.3-96,21.3H4020
						c-125.5,0-227.2-101.8-227.2-227.4v-87H6490.1z"/>
				</g>
				<g>
					<g>
						<rect x="4035.4" y="2674.5" class="st6" width="838.2" height="29"/>
						<rect x="5237.1" y="2674.5" class="st21" width="396.9" height="29"/>
						<rect x="5810" y="2674.5" class="st8" width="396.9" height="29"/>
						<rect x="5669.2" y="2674.5" class="st6" width="93.9" height="29"/>
						<rect x="4912.9" y="2674.5" class="st7" width="278.2" height="29"/>
					</g>
					<g>
						<rect x="4035.4" y="3417.3" class="st6" width="838.2" height="29"/>
						<rect x="5237.1" y="3417.3" class="st21" width="396.9" height="29"/>
						<rect x="5810" y="3417.3" class="st8" width="396.9" height="29"/>
						<rect x="5669.2" y="3417.3" class="st6" width="93.9" height="29"/>
						<rect x="4912.9" y="3417.3" class="st5" width="278.2" height="29"/>
					</g>
					<g>
						
							<rect x="5368.7" y="3169.7" transform="matrix(-1 -1.224647e-16 1.224647e-16 -1 11575.6338 6368.3291)" class="st6" width="838.2" height="29"/>
						
							<rect x="4608.4" y="3169.7" transform="matrix(-1 -1.224647e-16 1.224647e-16 -1 9613.6719 6368.3291)" class="st21" width="396.9" height="29"/>
						
							<rect x="4035.4" y="3169.7" transform="matrix(-1 -1.224647e-16 1.224647e-16 -1 8467.6875 6368.3291)" class="st8" width="396.9" height="29"/>
						
							<rect x="4479.2" y="3169.7" transform="matrix(-1 -1.224647e-16 1.224647e-16 -1 9052.2686 6368.3291)" class="st6" width="93.9" height="29"/>
						
							<rect x="5051.2" y="3169.7" transform="matrix(-1 -1.224647e-16 1.224647e-16 -1 10380.6611 6368.3291)" class="st5" width="278.2" height="29"/>
					</g>
					<g>
						<rect x="4035.4" y="2798.3" class="st7" width="314.3" height="29"/>
						<rect x="4975.1" y="2798.3" class="st6" width="134.9" height="29"/>
						<rect x="5548.1" y="2798.3" class="st21" width="658.8" height="29"/>
						<rect x="5145.4" y="2798.3" class="st6" width="355.8" height="29"/>
						<rect x="4389" y="2798.3" class="st6" width="540.1" height="29"/>
					</g>
					<g>
						<rect x="4035.4" y="3541" class="st6" width="314.3" height="29"/>
						<rect x="4975.1" y="3541" class="st6" width="134.9" height="29"/>
						<rect x="5548.1" y="3541" class="st6" width="658.8" height="29"/>
						<rect x="5145.4" y="3541" class="st6" width="355.8" height="29"/>
						<rect x="4389" y="3541" class="st6" width="540.1" height="29"/>
					</g>
					<g>
						<rect x="4035.4" y="3293.5" class="st7" width="314.3" height="29"/>
						<rect x="4975.1" y="3293.5" class="st6" width="134.9" height="29"/>
						<rect x="5548.1" y="3293.5" class="st21" width="658.8" height="29"/>
						<rect x="5145.4" y="3293.5" class="st6" width="355.8" height="29"/>
						<rect x="4389" y="3293.5" class="st6" width="540.1" height="29"/>
					</g>
					<g>
						<rect x="4035.4" y="2922.1" class="st21" width="314.3" height="29"/>
						<rect x="4389" y="2922.1" class="st6" width="540.1" height="29"/>
					</g>
					<g>
						
							<rect x="4614.8" y="3045.9" transform="matrix(-1 -1.224647e-16 1.224647e-16 -1 9543.9707 6120.7354)" class="st21" width="314.3" height="29"/>
						
							<rect x="4035.4" y="3045.9" transform="matrix(-1 -1.224647e-16 1.224647e-16 -1 8610.9365 6120.7354)" class="st6" width="540.1" height="29"/>
					</g>
				</g>
			</g>
			<path class="st25" d="M5747.8,4776.8H4534.9c-2.6,0-4.7-2.1-4.7-4.7v-112.8c0-2.6,2.1-4.7,4.7-4.7h1212.9c2.6,0,4.7,2.1,4.7,4.7
				v112.8C5752.6,4774.7,5750.4,4776.8,5747.8,4776.8z"/>
		</g>
		<path class="st26" d="M7712.3,5044.6H4243.4v-270c0-4.2,3.4-7.6,7.6-7.6h3453.6c4.2,0,7.6,3.4,7.6,7.6V5044.6z"/>
		<g>
			<path class="st27" d="M6701.1,4865.3v179.3H22.6v-179.3c0-54.3,44-98.4,98.2-98.4h6482C6657.2,4767,6701.1,4811.1,6701.1,4865.3z
				"/>
			<path class="st28" d="M4768.8,4767c-53,86.4-116.1,189.4-170.2,277.7H2964.7L2987,4767H4768.8z"/>
		</g>
		<g>
			
				<rect x="8059.3" y="5996" transform="matrix(-1 -7.510710e-07 7.510710e-07 -1 17834.918 14142.499)" class="st29" width="1716.2" height="2150.6"/>
			
				<rect x="7451.2" y="5996" transform="matrix(-1 -7.642572e-07 7.642572e-07 -1 16588.9453 14142.5049)" class="st30" width="1686.6" height="2150.6"/>
			<g>
				
					<rect x="7431.9" y="6157" transform="matrix(-1 -1.224647e-16 1.224647e-16 -1 16463.832 12895.7793)" class="st31" width="1599.9" height="581.8"/>
				
					<rect x="7431.9" y="6839.7" transform="matrix(-1 -1.224647e-16 1.224647e-16 -1 16463.832 14261.1973)" class="st31" width="1599.9" height="581.8"/>
				
					<rect x="7431.9" y="7522.4" transform="matrix(-1 -1.224647e-16 1.224647e-16 -1 16463.832 15668.9434)" class="st31" width="1599.9" height="624.1"/>
			</g>
			<g>
				<path class="st4" d="M7941,6479.1h400c17.1,0,31.2-14,31.2-31.2l0,0c0-17.1-14-31.2-31.2-31.2h-400c-17.1,0-31.2,14-31.2,31.2
					l0,0C7909.8,6465,7923.9,6479.1,7941,6479.1z"/>
				<path class="st4" d="M7925.4,7157h400c17.1,0,31.2-14,31.2-31.2l0,0c0-17.1-14-31.2-31.2-31.2h-400c-17.1,0-31.2,14-31.2,31.2
					l0,0C7894.3,7142.9,7908.3,7157,7925.4,7157z"/>
				<path class="st4" d="M7925.4,7834.9h400c17.1,0,31.2-14,31.2-31.2v0c0-17.1-14-31.2-31.2-31.2h-400c-17.1,0-31.2,14-31.2,31.2
					l0,0C7894.3,7820.8,7908.3,7834.9,7925.4,7834.9z"/>
			</g>
		</g>
		<g>
			<g>
				<path class="st29" d="M3538,8278l801.7,8.5c47.8,0.5,87-37.8,87.5-85.6l0,0c0.4-36.8-22.5-69.8-57.2-82.3L3974.8,7976l-433.6,6
					L3538,8278z"/>
				<path class="st16" d="M4355.5,8309l-811.6-2.6l0.2-58.2l869.7,2.8l0,0C4413.7,8283.1,4387.6,8309.1,4355.5,8309z"/>
			</g>
			<g>
				<line class="st32" x1="3964.6" y1="8093.2" x2="4059.1" y2="7992.9"/>
				<line class="st32" x1="4033.5" y1="8122.5" x2="4127.9" y2="8022.2"/>
				<line class="st32" x1="4099.4" y1="8161.7" x2="4205.8" y2="8047.9"/>
			</g>
			<g>
				<path class="st33" d="M3510.7,8014.7c46.5-782,34-1505-26.9-1651.4c-62.5-90.9-549.5-288-1036.2-309.2l227.8-497.3
					c638.4,32.1,1094.8,271.6,1254.4,545.4c67.4,115.6,125.9,348.6,94.3,1146c-16.5,417.6-36.9,744.8-36.9,744.8L3510.7,8014.7z"/>
			</g>
			<g>
				<path class="st34" d="M4251.8,8298l801.7,5.5c47.8,0.3,86.8-38.2,87.2-86l0,0c0.3-36.8-22.8-69.8-57.5-82.1l-395.7-141.1
					l-433.6,7.6L4251.8,8298z"/>
				<path class="st16" d="M5069.4,8325.9l-824.5,0.4l0-58.2l882.6-0.4l0,0C5127.5,8299.8,5101.5,8325.9,5069.4,8325.9z"/>
			</g>
			<g>
				<line class="st32" x1="4677.7" y1="8111.6" x2="4771.8" y2="8010.9"/>
				<line class="st32" x1="4746.7" y1="8140.6" x2="4840.8" y2="8039.9"/>
				<line class="st32" x1="4812.8" y1="8179.5" x2="4918.7" y2="8065.4"/>
			</g>
			<g>
				<path class="st33" d="M4222.9,8014.7c46.5-782,34-1505-26.9-1651.4c-62.5-90.9-549.5-288-1036.2-309.2l227.8-497.3
					c638.4,32.1,1094.8,271.6,1254.4,545.4c67.4,115.6,125.9,348.6,94.3,1146c-16.5,417.6-36.9,744.8-36.9,744.8L4222.9,8014.7z"/>
			</g>
			<path class="st33" d="M3536.8,5699.9c0,87.6-31.2,167.8-83,230.4c-66.2,80.3-166.7,131.5-279.1,131.5h-608.5
				c-18.1,0-35.8-1.3-53.1-4c-44.7-6.4-86.6-21.2-124.3-42.5c-6.7-3.7-13.3-7.7-19.6-11.9c-99.1-64.5-164.8-176.3-164.8-303.4
				l11.2-193.1l1310.7-11.4L3536.8,5699.9z"/>
			<g>
				<g>
					<g>
						<path class="st14" d="M3954.8,4668.7l313.6-50.1c22.9-3.7,38.6-25.4,35-48.3l0,0c-3.7-22.9-25.4-38.6-48.3-35l-313.6,50.1
							c-22.9,3.7-38.6,25.4-35,48.3l0,0C3910.2,4656.6,3931.9,4672.4,3954.8,4668.7z"/>
						<path class="st14" d="M4054.7,4753.5l251.8-40.3c22.9-3.7,38.6-25.4,35-48.3l0,0c-3.7-22.9-25.4-38.6-48.3-35l-251.8,40.3
							c-22.9,3.7-38.6,25.4-35,48.3l0,0C4010.1,4741.4,4031.8,4757.2,4054.7,4753.5z"/>
						<path class="st14" d="M3996.5,4863.5l298.1-47.6c22.9-3.7,38.6-25.4,35-48.3l0,0c-3.7-22.9-25.4-38.6-48.3-35l-298.1,47.6
							c-22.9,3.7-38.6,25.4-35,48.3l0,0C3951.9,4851.4,3973.6,4867.1,3996.5,4863.5z"/>
					</g>
					<path class="st14" d="M4090.2,4587.6c-3.4,0.4-41.8-0.1-83.5-0.8c-72-1.2-143.2,14.8-207.8,46.5l-123.7,60.8
						c0,0,70.8,210.2,80.6,212c238.5,43.1,320.3-65.2,320.3-65.2L4090.2,4587.6z"/>
				</g>
				<rect x="3799.7" y="4586.8" class="st4" width="105.9" height="344.1"/>
			</g>
			<g>
				<path class="st33" d="M3106,4968.2c-249.6,0-477.8-145.7-582.7-372.6l-5.2-11.2l-326.7-997.6l402.5-131.8l318.4,972.2
					c37.8,72.5,113.7,118.4,195.9,117.5l694-6.9l4.2,423.5l-694,6.9C3110.2,4968.2,3108.1,4968.2,3106,4968.2z"/>
			</g>
			<g>
				<g>
					<path class="st14" d="M5370.4,4556.8c-25.9-46.2-64.9-84.1-112.5-107.5c-0.4-0.2-0.8-0.4-1.1-0.6c-64.7-31.6-136-47.3-208-45.9
						l-137.8,2.7c0,0-34.9,299-33.1,289.3c3.6-19.4,337-14.4,489.7-11.1c33.1,0.7,54.4-34.8,38.2-63.7L5370.4,4556.8z"/>
				</g>
				<rect x="4827.6" y="4383" class="st4" width="131.5" height="352.4"/>
			</g>
			<g>
				<path class="st35" d="M4183.9,4775.7c-249.6,0-477.8-145.7-582.7-372.6l-470.4-1018l384.4-177.6l470.4,1018
					c36,77.9,113.8,127.8,200.4,126.8l694-6.9l4.2,423.5l-694,6.9C4188.1,4775.7,4186,4775.7,4183.9,4775.7z"/>
			</g>
			<path class="st35" d="M3649.1,3584.3l-7.8,888.9l-9.9,1131.8c0,0-24.4,27.3-97.1,65.5c-63.1,33.3-162.3,74.8-313.5,114
				c-176.1,45.7-424.2,52.8-636.2,47.6c-233.8-5.7-423.6-26.3-423.6-26.3l4.9-2221.6c0-312.6,226.3-572.6,524.1-625
				c35.8-6.2,72.6-9.4,110.3-9.4h214.5C3365,2949.8,3649.1,3234,3649.1,3584.3z"/>
			<g>
				<g>
					<rect x="2659.4" y="6501.1" class="st19" width="214.2" height="1229.3"/>
					<path class="st18" d="M2659.4,6570.4v269.1l214.2-78.1v-182.2C2820,6576.8,2716.9,6572.8,2659.4,6570.4z"/>
				</g>
				<path class="st3" d="M3425.3,6607.3H2143.1c-65.7,0-119.5-53.8-119.5-119.5l0,0c0-65.7,53.8-119.5,119.5-119.5h1282.2
					c65.7,0,119.5,53.8,119.5,119.5l0,0C3544.8,6553.6,3491.1,6607.3,3425.3,6607.3z"/>
				<g>
					<g>
						<path class="st3" d="M3674.1,8127.3h-134c0-150.9-130.2-273.6-290.3-273.6h-976c-160.1,0-290.3,122.7-290.3,273.6h-134
							c0-220.5,190.3-399.9,424.2-399.9h976C3483.8,7727.5,3674.1,7906.8,3674.1,8127.3z"/>
					</g>
					<rect x="2608.8" y="7538" class="st3" width="312.6" height="192.4"/>
				</g>
				<g>
					<ellipse class="st16" cx="1911.5" cy="8249.4" rx="111.3" ry="104.9"/>
					<path class="st1" d="M2072,8240.2h-304.5v-158.9c0-6.1,4.9-11,11-11H2061c6.1,0,11,4.9,11,11V8240.2z"/>
					<ellipse class="st16" cx="3613.4" cy="8249.4" rx="111.3" ry="104.9"/>
					<path class="st1" d="M3773.9,8240.2h-304.5v-158.9c0-6.1,4.9-11,11-11h282.5c6.1,0,11,4.9,11,11V8240.2z"/>
				</g>
				<rect x="2682.7" y="7766.5" class="st3" width="177.3" height="378.8"/>
				<g>
					<ellipse class="st16" cx="2775.1" cy="8249.4" rx="111.3" ry="104.9"/>
					<path class="st1" d="M2935.6,8240.2h-304.5v-158.9c0-6.1,4.9-11,11-11h282.5c6.1,0,11,4.9,11,11V8240.2z"/>
				</g>
			</g>
			<path class="st36" d="M1061.4,4188l286.8,2070.3c17.4,125.9,123.1,220.9,250.2,224.8l1046.6,12l-582-2603.2l-742.9-0.4
				C1161.7,3891.2,1039.7,4031.1,1061.4,4188z"/>
			<path class="st37" d="M4088.9,6495.1h-1871c-9.6,0-17.5-7.9-17.5-17.5v-416.1c0-9.6,7.9-17.5,17.5-17.5h1871
				c9.6,0,17.5,7.9,17.5,17.5v416.1C4106.4,6487.3,4098.5,6495.1,4088.9,6495.1z"/>
			<path class="st33" d="M2508.5,3517.4c-28.2,408.1,51.3,1880,75.9,2314.8c-233.8-5.7-423.6-26.3-423.6-26.3l4.9-2221.6
				c0-312.6,226.3-572.6,524.1-625C2689.9,2959.2,2541.7,3036.7,2508.5,3517.4z"/>
			<polygon class="st4" points="3238,2988.3 2583.5,2988.3 2583.5,2805.4 3238,2882.8 			"/>
			<path class="st37" d="M2181.5,6210.3l-304-2123.2c-13.5-94.6,57.5-182.4,157.8-195.2l0,0c100.3-12.8,193.5,54.2,207.1,148.8
				l304,2123.2c13.5,94.6-57.5,182.4-157.8,195.2l0,0C2288.3,6371.8,2236.3,6442.7,2181.5,6210.3z"/>
			<path class="st33" d="M3641.2,4473.2l-9.9,1131.8c0,0-24.4,27.3-97.1,65.5l-150.7-1705.8
				C3383.4,3964.7,3521.6,4309.9,3641.2,4473.2z"/>
		</g>
	</g>
	<path class="st38" d="M6486.2,3681.6l-74.9,418.5l-52.6,293.1c-29.1,13.7-61.7,21.3-96,21.3h-709
		c67.3-69.6,180.2-186.5,301.8-314.4c189.4-199,399.8-424.5,493.2-538.9L6486.2,3681.6z"/>
</g>
<g>
	<path class="st21" d="M6096.5,4763.9h1403.2c7.8-11.2,14-23.9,17.7-37.6L7831.4,3593c15.1-54-25.5-107.5-81.6-107.5H6515.2
		c-38,0-71.4,25.5-81.6,62.1L6096.5,4763.9z"/>
	<path class="st5" d="M7764.4,3552.6l-313.7,1132.3c-14.6,52.7-62.5,89.2-117.3,89.2H6016.8l351.1-1266.8c10.2-36.6,43.4-62,81.5-62
		h1233.5C7738.9,3445.2,7779.4,3498.6,7764.4,3552.6z"/>
	<path class="st23" d="M7695.1,3602.4l-256.4,923.3l-53.8,193.4H6078.8l53.6-193.4l268.2-965.3c9.4-33.9,40.4-57.4,75.6-57.4h1143.3
		C7671.3,3503.1,7709,3552.5,7695.1,3602.4z"/>
	<g>
		<g>
			<polygon class="st39" points="6925.7,3628.7 6523.7,3628.7 6532.6,3600.4 6934.6,3600.4 			"/>
			<polygon class="st7" points="7290.3,3628.7 7100,3628.7 7108.9,3600.4 7299.3,3600.4 			"/>
			<polygon class="st5" points="7565.2,3628.7 7374.8,3628.7 7383.8,3600.4 7574.1,3600.4 			"/>
			<polygon class="st6" points="7352.3,3628.7 7307.3,3628.7 7316.2,3600.4 7361.3,3600.4 			"/>
			<polygon class="st5" points="7077.9,3628.7 6944.5,3628.7 6953.5,3600.4 7086.9,3600.4 			"/>
		</g>
		<g>
			<polygon class="st21" points="6645.7,4111 6836.1,4111 6845,4082.8 6654.7,4082.8 			"/>
			<polygon class="st8" points="6370.9,4111 6561.3,4111 6570.2,4082.8 6379.9,4082.8 			"/>
			<polygon class="st6" points="6583.8,4111 6628.8,4111 6637.7,4082.8 6592.7,4082.8 			"/>
		</g>
		<g>
			<polygon class="st7" points="6636.2,3749.3 6485.5,3749.3 6494.4,3721 6645.2,3721 			"/>
			<polygon class="st6" points="7000.9,3749.3 6936.2,3749.3 6945.1,3721 7009.8,3721 			"/>
			<polygon class="st7" points="7527,3749.3 7211,3749.3 7219.9,3721 7535.9,3721 			"/>
			<polygon class="st6" points="7188.5,3749.3 7017.8,3749.3 7026.8,3721 7197.4,3721 			"/>
			<polygon class="st6" points="6914.1,3749.3 6655.1,3749.3 6664,3721 6923.1,3721 			"/>
		</g>
		<g>
			<polygon class="st10" points="6407.1,4472.8 6256.4,4472.8 6265.3,4444.6 6416.1,4444.6 			"/>
		</g>
		<g>
			<polygon class="st21" points="6598,3869.9 6447.3,3869.9 6456.2,3841.6 6607,3841.6 			"/>
			<polygon class="st21" points="6844.1,3869.9 6693.3,3869.9 6702.3,3841.6 6853,3841.6 			"/>
			<polygon class="st6" points="7446.9,3869.9 7187.9,3869.9 7196.8,3841.6 7455.9,3841.6 			"/>
		</g>
		<g>
			<polygon class="st6" points="6409.1,3990.4 6668.2,3990.4 6677.1,3962.2 6418.1,3962.2 			"/>
		</g>
	</g>
	<polygon class="st5" points="7455.8,4525.7 7400.6,4719.1 6061.7,4719.1 6116.7,4525.7 	"/>
	<g>
		<path class="st5" d="M6734.7,4777.1H5130.8c-37.5,0-68.2-30.7-68.2-68.2l0,0c0-37.5,30.7-68.2,68.2-68.2h1603.9
			c37.5,0,68.2,30.7,68.2,68.2l0,0C6802.9,4746.4,6772.2,4777.1,6734.7,4777.1z"/>
	</g>
	<polygon class="st40" points="7365.3,3445.2 7338.9,3503.1 6872,4525.7 6823.8,4631.1 6319.4,4631.1 6367.6,4525.7 6834.5,3503.1 
		6860.9,3445.2 	"/>
	<polygon class="st40" points="5881.8,2489.3 5187.9,4008.5 4446,4008.5 5139.9,2489.3 	"/>
	<g>
		<g>
			<path class="st21" d="M7342.7,4772.9h-928.3c-37.5,0-68.2-30.7-68.2-68.2l0,0c0-37.5,30.7-68.2,68.2-68.2h928.3
				c37.5,0,68.2,30.7,68.2,68.2l0,0C7410.9,4742.2,7380.2,4772.9,7342.7,4772.9z"/>
		</g>
		<g>
			<rect x="6876.6" y="4681.8" class="st16" width="132.6" height="39.8"/>
			<rect x="6740.7" y="4681.8" class="st16" width="96.1" height="39.8"/>
		</g>
	</g>
</g>
<g>
	<g>
		<path class="st41" d="M6036.4,4220.7v555.4h-463.9v-555.4c0-24.4,19.9-44.4,44.4-44.4h375.2
			C6016.5,4176.4,6036.4,4196.3,6036.4,4220.7z"/>
		<g>
			<path class="st7" d="M5578.2,4681.1c-6.1-3.5-148.5-86.9-161.2-233c-4.8-55.7,16.2-90.2,34.8-109.4
				c51-52.6,135.7-49.6,145.2-49.1l-3.7,67.8c-17.2-0.8-67.8,2.7-92.8,28.7c-12.7,13.3-17.9,31.6-15.8,56.1
				c9.7,111.2,126.2,179.3,127.4,180L5578.2,4681.1z"/>
		</g>
	</g>
	<path class="st7" d="M5819.6,4776.1h-247.1v-555.4c0-24.4,19.9-44.4,44.4-44.4h14.9c0.7,29,8.6,250.5,70.8,410.1
		C5756.7,4725.4,5804.9,4766.4,5819.6,4776.1z"/>
	<path class="st42" d="M5417,4448c11.3,131.5,127.9,212.3,155.5,229.5v98.7h247.1c-14.7-9.7-62.9-50.7-117-189.6
		c-62.2-159.6-70.2-381.1-70.8-410.1h-14.9c-24.4,0-44.4,19.9-44.4,44.4v69c-31.2,2.3-84.4,11.5-120.6,48.9
		C5433.3,4357.9,5412.2,4392.3,5417,4448z M5500.5,4386c18.1-18.6,49.6-25.8,72-27.8V4593c-35.1-29.9-81.7-82.1-87.8-151
		C5482.6,4417.6,5487.6,4399.3,5500.5,4386z"/>
</g>
<g>
	<g>
		
			<rect x="677.1" y="3734.3" transform="matrix(0.9847 0.1743 -0.1743 0.9847 725.6985 -59.8645)" class="st43" width="53.4" height="736.5"/>
		
			<rect x="711.8" y="3720.1" transform="matrix(0.9847 0.1743 -0.1743 0.9847 679.137 -72.6395)" class="st43" width="82.7" height="221.5"/>
	</g>
	<g>
		<polygon class="st44" points="578.2,4562.4 525,4557.9 586.6,3824 618.8,3777.1 639.8,3828.5 		"/>
	</g>
	<g>
		<polygon class="st45" points="504.3,4599.9 451.9,4610.1 311.2,3887.2 329.4,3833.3 363.6,3877 		"/>
	</g>
	<g>
		<polygon class="st46" points="622.1,4768.1 394,4768.1 319.2,4164.2 696.9,4164.2 		"/>
		<polygon class="st47" points="708.1,4768.1 480,4768.1 446.3,4164.2 782.9,4164.2 		"/>
	</g>
</g>
<g>
	<g>
		<path class="st37" d="M7749.8,5678.1v332.3h1160.5c72,0,133.6-46,156.6-110.3c6.2-17.4,9.6-36.2,9.6-55.9
			c0-45.7-18.6-87.3-48.6-117.5c-30.2-30.1-71.8-48.6-117.6-48.6H7749.8z"/>
		<path class="st42" d="M8009.5,5900.1v110.3h900.7c72,0,133.6-46,156.6-110.3H8009.5z"/>
		<path class="st36" d="M7501.6,5678l0,332.4l760.9,0c91.7,0,166.2-74.5,166.2-166.2c0-45.8-18.6-87.4-48.6-117.6
			c-30.2-30-71.8-48.6-117.6-48.6L7501.6,5678z"/>
		<path class="st4" d="M7501.6,5735l0,213.1l716.1,0c58.9,0,106.6-47.7,106.6-106.6c0-29.4-12-56-31.2-75.4
			c-19.4-19.2-46-31.2-75.4-31.2L7501.6,5735z"/>
	</g>
	<g>
		<path class="st48" d="M7727.3,5017.4v332.4l1160.5,0c91.7,0,166.2-74.5,166.2-166.2c0-45.8-18.6-87.4-48.6-117.6
			c-30.2-30-71.8-48.6-117.6-48.6L7727.3,5017.4z"/>
		<path class="st49" d="M7990.4,5128.4v-110.3h900.8c72,0,133.6,46,156.6,110.3H7990.4z"/>
		<path class="st50" d="M7501.6,5017.4v332.4l760.9,0c91.7,0,166.2-74.5,166.2-166.2c0-45.8-18.6-87.4-48.6-117.6
			c-30.2-30-71.8-48.6-117.6-48.6L7501.6,5017.4z"/>
		<path class="st4" d="M7501.6,5074.4v213.1l716.1,0c58.9,0,106.6-47.7,106.6-106.6c0-29.4-12-56-31.2-75.4
			c-19.4-19.2-46-31.2-75.4-31.2L7501.6,5074.4z"/>
	</g>
	<g>
		<path class="st9" d="M7667.4,5351.8v332.5h1160.5c91.7,0,166.1-74.5,166.1-166.2c0-28.2-7-54.8-19.4-78.1
			c-7.8-14.5-17.7-27.9-29.2-39.5c-30.2-30.1-71.8-48.6-117.5-48.6H7667.4z"/>
		<path class="st51" d="M7698.1,5351.8v88.2h1276.5c-7.8-14.5-17.7-27.9-29.2-39.5c-30.2-30.1-71.8-48.6-117.5-48.6H7698.1z"/>
		<path class="st51" d="M7698.1,5684.4v-88.2l1276.5,0c-7.8,14.5-17.7,27.9-29.2,39.5c-30.2,30.1-71.8,48.6-117.5,48.6
			L7698.1,5684.4z"/>
		<path class="st52" d="M7363.6,5351.8v332.4l696.5,0c91.7,0,166.2-74.5,166.2-166.2c0-45.8-18.6-87.4-48.6-117.6
			c-30.2-30-71.8-48.6-117.6-48.6L7363.6,5351.8z"/>
		<path class="st4" d="M7363.6,5408.8v213.1l651.6,0c58.9,0,106.6-47.7,106.6-106.6c0-29.4-12-56-31.2-75.4
			c-19.4-19.2-46-31.2-75.4-31.2L7363.6,5408.8z"/>
	</g>
</g>
<g>
	<g>
		<g>
			<path class="st16" d="M7846.4,3400.1L7846.4,3400.1c-55.5-59.2-50.7-150.6,10.7-204.1l7-6.1c61.5-53.5,156.3-48.9,211.8,10.3v0
				c55.5,59.2,50.7,150.6-10.7,204.1l-7,6.1C7996.7,3464,7901.9,3459.3,7846.4,3400.1z"/>
			<path class="st31" d="M7964.3,3687.5l-146.1,127.1l-414.7-442.3l146.1-127.1c101.2-88.1,246.3-99.8,359-38.7
				c28.5,15.4,54.8,35.4,77.9,60c57.2,61,83.4,138.6,79.5,214.9C8061.8,3557.7,8027.6,3632.4,7964.3,3687.5z"/>
			<path class="st8" d="M7832.4,3546.8l-146.1,127.1l-282.8-301.6l146.1-127.1c101.2-88.1,246.3-99.8,359-38.7
				c19.4,42.7,27.8,88.6,25.4,134.2C7929.9,3417,7895.7,3491.6,7832.4,3546.8z"/>
		</g>
		<path class="st5" d="M7825.8,3812.9c-44.1,39.3-174.3-26.4-290.8-147.1c-116.6-120.7-175.5-250.5-131.4-289.9
			c34.8-31.2,123.5,3.4,216.8,78.9c24.6,20.1,49.6,42.9,73.9,68.1c28.4,29.5,53.5,59.4,74.4,88.6
			C7833.6,3701.6,7859.1,3783.1,7825.8,3812.9z"/>
		<path class="st4" d="M7768.7,3611.5c-33.7,37.2-91.2,47.8-137.7,22.5c-53.1-28.9-71.9-94.1-41.9-145.4c8-13.7,18.8-25.1,31.2-33.7
			c24.6,20.1,49.6,42.9,73.9,68.1C7722.8,3552.4,7747.8,3582.4,7768.7,3611.5z"/>
	</g>
	<polyline class="st53" points="8584,4830.4 8962.6,3608.3 8195.9,3097.6 8035,3234.4 	"/>
	<g>
		<path class="st16" d="M8280.1,3104.9c0,50.2-42.2,90.8-94.3,90.8c-52.1,0-94.3-40.7-94.3-90.8s42.2-90.8,94.3-90.8
			C8237.9,3014,8280.1,3054.7,8280.1,3104.9z"/>
		<path class="st10" d="M8233,3104.9c0,25.1-21.1,45.4-47.1,45.4s-47.1-20.3-47.1-45.4c0-25.1,21.1-45.4,47.1-45.4
			S8233,3079.8,8233,3104.9z"/>
	</g>
	<path class="st10" d="M8965.1,5021.5h-975.4l0,0c0-107,86.8-193.8,193.8-193.8h587.8C8878.4,4827.7,8965.1,4914.5,8965.1,5021.5
		L8965.1,5021.5z"/>
	<rect x="8190.9" y="4779.3" class="st16" width="176" height="53.3"/>
	<g>
		<ellipse class="st16" cx="8955.1" cy="3620.8" rx="132" ry="127.2"/>
		<ellipse class="st10" cx="8955.1" cy="3620.8" rx="66" ry="63.6"/>
	</g>
</g>
<g>
	<g>
		<path class="st54" d="M9802,5093.6c-143.1,194.8-430,227.1-430,227.1s-55-283.5,88-478.3c143.1-194.8,430-227.1,430-227.1
			S9945,4898.8,9802,5093.6z"/>
		<path class="st55" d="M9201.3,4977.1c131.1,129.2,124,349.1,124,349.1s-219.8,10.4-350.9-118.9c-131.1-129.2-124-349.1-124-349.1
			S9070.1,4847.9,9201.3,4977.1z"/>
		<path class="st56" d="M9526.3,4879.4c26.6,240.2-162.6,458.3-162.6,458.3s-232.5-171.3-259.1-411.6
			c-26.6-240.2,162.6-458.3,162.6-458.3S9499.6,4639.2,9526.3,4879.4z"/>
	</g>
	<g>
		<polygon class="st57" points="9508.5,6001.4 9010.7,6001.4 8847.5,5275.1 9671.8,5275.1 		"/>
		<polygon class="st34" points="9696.2,6001.4 9198.4,6001.4 9125,5275.1 9859.5,5275.1 		"/>
	</g>
</g>
</svg>
