<?xml version="1.0" encoding="utf-8"?>
<!-- Generator: Adobe Illustrator 22.1.0, SVG Export Plug-In . SVG Version: 6.00 Build 0)  -->
<svg version="1.1" id="Obejcts" opacity="0.6" xmlns="http://www.w3.org/2000/svg" xmlns:xlink="http://www.w3.org/1999/xlink"
	 x="0px" y="0px" viewBox="0 0 800 800" style="enable-background:new 0 0 800 800;" xml:space="preserve">
<style type="text/css">
	.st0{fill:#4C8AA5;}
	.st1{fill:#2A566F;}
	.st2{fill:#FFFFFF;}
	.st3{fill:#F89D18;}
	.st4{fill:#FFBF0F;}
	.st5{fill:#CDE8D9;}
	.st6{opacity:0.55;fill:#2A566F;}
	.st7{font-family:'Bebas';}
	.st8{font-size:35.3997px;}
	.st9{fill:#0E303F;}
	.st10{font-family:'MyriadPro-Regular';}
	.st11{font-size:62.8188px;}
	.st12{fill:#FDFDFE;}
	.st13{fill:#005F7D;}
	.st14{fill:#2DA191;}
	.st15{clip-path:url(#SVGID_2_);fill:#CDE8D9;}
</style>
<g>
	<g>
		<g>
			<g>
				<path class="st0" d="M400,371.8c-18.3-0.5-34.2,0.5-47.7,3c-14,2.6-25.8,5.6-35.3,9.3c-9.5,3.6-16.9,7.3-22.3,11.1
					c-5.4,3.8-9.1,6.6-11.3,8.6c-0.9,0.8-1.6,1.6-2.1,2.1c-0.5,0.6-0.8,0.9-0.9,1c-1.3,1.7-2.4,3.7-3.3,6c-0.9,2.3-1.3,4.5-1.2,6.5
					l-1.3,42.9c-0.1,3.7,1.2,6.6,4,8.9c2.5,1.8,5.7,2.3,9.4,1.5l50.1-11.5l0.2-0.2c1.7-0.4,3.6-1.5,5.4-3.3c2.7-2.5,4.1-5.6,4.5-9.3
					l0.3-18.6c0-0.4,0.2-1,0.5-1.6c0.3-0.6,0.6-1.1,0.8-1.3l2.5-1.6c1.6-1,4.4-2.1,8.3-3.3c3.9-1.1,9.1-2.1,15.6-3
					c6.4-0.8,14.4-1.1,23.9-0.8V371.8z"/>
				<path class="st1" d="M400,371.8c18.3-0.5,34.2,0.5,47.7,3c14,2.6,25.8,5.6,35.3,9.3c9.5,3.6,16.9,7.3,22.3,11.1
					c5.4,3.8,9.1,6.6,11.3,8.6c0.9,0.8,1.6,1.6,2.1,2.1c0.5,0.6,0.8,0.9,0.9,1c1.3,1.7,2.4,3.7,3.3,6c0.9,2.3,1.3,4.5,1.2,6.5
					l1.3,42.9c0.1,3.7-1.2,6.6-4,8.9c-2.5,1.8-5.7,2.3-9.4,1.5L462,461.3l-0.2-0.2c-1.7-0.4-3.6-1.5-5.4-3.3
					c-2.7-2.5-4.1-5.6-4.5-9.3l-0.3-18.6c0-0.4-0.2-1-0.5-1.6c-0.3-0.6-0.6-1.1-0.8-1.3l-2.5-1.6c-1.6-1-4.4-2.1-8.3-3.3
					c-3.9-1.1-9.1-2.1-15.6-3c-6.4-0.8-14.4-1.1-23.9-0.8V371.8z"/>
			</g>
			<path class="st2" d="M510,544.7H289.7c-1.7,0-3.2-1.4-3.2-3.2v-2.1c0-1.7,1.4-3.2,3.2-3.2H510c1.7,0,3.2,1.4,3.2,3.2v2.1
				C513.2,543.3,511.8,544.7,510,544.7z"/>
			<g>
				<g>
					<path class="st0" d="M400,468.2v68H296.6v-25.8c0,0,66.3-27.6,73.2-42.2H400z"/>
					<path class="st1" d="M400,468.2v68h103.4v-25.8c0,0-66.3-27.6-73.2-42.2H400z"/>
				</g>
				<g>
					<rect x="272.7" y="544.7" class="st0" width="127.3" height="65.6"/>
					
						<rect x="400" y="544.7" transform="matrix(-1 -1.224647e-16 1.224647e-16 -1 927.291 1155.1289)" class="st1" width="127.3" height="65.6"/>
				</g>
				
					<ellipse transform="matrix(2.928344e-02 -0.9996 0.9996 2.928344e-02 -148.5963 921.8754)" class="st2" cx="400.3" cy="537.4" rx="51.8" ry="51.8"/>
				<g>
					<path class="st0" d="M405.7,497.9c0,2.9-2.4,5.3-5.3,5.3c-2.9,0-5.3-2.4-5.3-5.3c0-2.9,2.4-5.3,5.3-5.3
						C403.3,492.6,405.7,495,405.7,497.9z"/>
					<path class="st0" d="M385.2,500.6c1.5,2.5,0.6,5.8-1.9,7.3c-2.5,1.5-5.8,0.6-7.3-1.9c-1.5-2.5-0.6-5.8,1.9-7.3
						C380.5,497.2,383.7,498,385.2,500.6z"/>
					<path class="st0" d="M368.8,513.1c2.5,1.5,3.4,4.7,1.9,7.3c-1.5,2.5-4.7,3.4-7.3,1.9c-2.5-1.5-3.4-4.7-1.9-7.3
						C363,512.5,366.2,511.6,368.8,513.1z"/>
					<path class="st0" d="M360.8,532.1c2.9,0,5.3,2.4,5.3,5.3c0,2.9-2.4,5.3-5.3,5.3c-2.9,0-5.3-2.4-5.3-5.3
						C355.5,534.5,357.9,532.1,360.8,532.1z"/>
					<path class="st0" d="M363.5,552.6c2.5-1.5,5.8-0.6,7.3,1.9c1.5,2.5,0.6,5.8-1.9,7.3c-2.5,1.5-5.8,0.6-7.3-1.9
						C360.1,557.3,360.9,554.1,363.5,552.6z"/>
					<path class="st0" d="M376,569c1.5-2.5,4.7-3.4,7.3-1.9c2.5,1.5,3.4,4.7,1.9,7.3c-1.5,2.5-4.7,3.4-7.3,1.9
						C375.4,574.8,374.5,571.5,376,569z"/>
					<path class="st1" d="M395,576.9c0-2.9,2.4-5.3,5.3-5.3c2.9,0,5.3,2.4,5.3,5.3c0,2.9-2.4,5.3-5.3,5.3
						C397.4,582.3,395,579.9,395,576.9z"/>
					<path class="st1" d="M415.5,574.3c-1.5-2.5-0.6-5.8,1.9-7.3c2.5-1.5,5.8-0.6,7.3,1.9c1.5,2.5,0.6,5.8-1.9,7.3
						C420.2,577.7,417,576.9,415.5,574.3z"/>
					<path class="st1" d="M431.9,561.8c-2.5-1.5-3.4-4.7-1.9-7.3c1.5-2.5,4.7-3.4,7.3-1.9c2.5,1.5,3.4,4.7,1.9,7.3
						C437.7,562.4,434.4,563.3,431.9,561.8z"/>
					<path class="st1" d="M439.8,542.8c-2.9,0-5.3-2.4-5.3-5.3c0-2.9,2.4-5.3,5.3-5.3c2.9,0,5.3,2.4,5.3,5.3
						C445.2,540.4,442.8,542.8,439.8,542.8z"/>
					<path class="st1" d="M437.2,522.3c-2.5,1.5-5.8,0.6-7.3-1.9c-1.5-2.5-0.6-5.8,1.9-7.3c2.5-1.5,5.8-0.6,7.3,1.9
						C440.6,517.6,439.8,520.8,437.2,522.3z"/>
					<path class="st1" d="M424.7,505.9c-1.5,2.5-4.7,3.4-7.3,1.9c-2.5-1.5-3.4-4.7-1.9-7.3c1.5-2.5,4.7-3.4,7.3-1.9
						C425.3,500.1,426.2,503.4,424.7,505.9z"/>
				</g>
			</g>
			<g>
				<path class="st2" d="M378.1,474.4h-2.4c-2,0-3.6-1.6-3.6-3.6V433c0-2,1.6-3.6,3.6-3.6h2.4c2,0,3.6,1.6,3.6,3.6v37.8
					C381.7,472.8,380.1,474.4,378.1,474.4z"/>
				<path class="st2" d="M424.3,474.4h-2.4c-2,0-3.6-1.6-3.6-3.6V433c0-2,1.6-3.6,3.6-3.6h2.4c2,0,3.6,1.6,3.6,3.6v37.8
					C427.9,472.8,426.3,474.4,424.3,474.4z"/>
			</g>
		</g>
		<g>
			<g>
				<polygon class="st3" points="80,565.6 92.4,597.1 104.7,628.7 157.3,571.8 				"/>
				<polygon class="st3" points="209.9,514.8 222.3,546.4 234.6,578 157.3,571.8 				"/>
				<path class="st4" d="M157.3,571.8c0,0-50.1,54.2-52.6,56.9l64.9-25.4l64.9-25.4L157.3,571.8z"/>
				<polygon class="st4" points="80,565.6 125.3,489.9 209.9,514.8 157.3,571.8 				"/>
				<polygon class="st2" points="91,566.4 157.3,571.8 130,501.8 74.2,523.6 				"/>
				<polygon class="st5" points="202.5,522.9 157.3,571.8 130,501.8 185.7,480 				"/>
				<path class="st6" d="M182.9,497L87,534.4c-0.9,0.3-1.9-0.1-2.2-1l0,0c-0.3-0.9,0.1-1.9,1-2.2l95.8-37.4c0.9-0.3,1.9,0.1,2.2,1
					l0,0C184.2,495.6,183.7,496.6,182.9,497z"/>
				<path class="st6" d="M187.6,509l-95.8,37.4c-0.9,0.3-1.9-0.1-2.2-1l0,0c-0.3-0.9,0.1-1.9,1-2.2l95.8-37.4c0.9-0.3,1.9,0.1,2.2,1
					l0,0C188.9,507.7,188.4,508.7,187.6,509z"/>
				<path class="st6" d="M192.3,521l-95.8,37.4c-0.9,0.3-1.9-0.1-2.2-1l0,0c-0.3-0.9,0.1-1.9,1-2.2l95.8-37.4c0.9-0.3,1.9,0.1,2.2,1
					l0,0C193.6,519.7,193.1,520.7,192.3,521z"/>
			</g>
			<g>
				<g>
					<path class="st3" d="M621.5,493.5l102,29c1.7,0.5,2.6,2.2,2.2,3.9L707,591.8c-0.5,1.7-2.2,2.6-3.9,2.2l-72.2-20.5
						c-9.1,6.6-22.9,16.1-22.9,16.1l8.7-20.1l-15.6-4.4c-1.7-0.5-2.6-2.2-2.2-3.9l18.6-65.5C618.1,494,619.8,493,621.5,493.5z"/>
					<path class="st4" d="M687.8,486.6l-102-29c-1.7-0.5-3.4,0.5-3.9,2.2l-18.6,65.5c-0.5,1.7,0.5,3.4,2.2,3.9l72.2,20.5
						c4.3,10.5,11,25.7,11,25.7l3.2-21.6l15.6,4.4c1.7,0.5,3.4-0.5,3.9-2.2l18.6-65.5C690.5,488.8,689.5,487.1,687.8,486.6z"/>
				</g>
				<text transform="matrix(0.9619 0.2733 -0.2733 0.9619 588.4899 513.8659)" class="st2 st7 st8">24/7</text>
			</g>
		</g>
		<g>
			<g>
				
					<ellipse transform="matrix(0.2286 -0.9735 0.9735 0.2286 -72.0812 497.4808)" class="st1" cx="277.9" cy="294.2" rx="48.8" ry="48.8"/>
				<text transform="matrix(1 0 0 1 254.7119 312.6602)" class="st9 st10 st11">@</text>
				<text transform="matrix(1 0 0 1 254.7119 310.5117)" class="st2 st10 st11">@</text>
			</g>
			<g>
				<path class="st1" d="M461.3,290.2c0,29.2,23.6,52.8,52.8,52.8c29.2,0,52.8-23.6,52.8-52.8c0-29.2-23.6-52.8-52.8-52.8
					C485,237.4,461.3,261,461.3,290.2z"/>
				<path class="st12" d="M469.3,290.2c0,24.8,20.1,44.8,44.8,44.8c24.8,0,44.8-20.1,44.8-44.8c0-24.8-20.1-44.8-44.8-44.8
					C489.4,245.3,469.3,265.4,469.3,290.2z"/>
				<g>
					<path class="st13" d="M514.2,255.5L514.2,255.5c0.7,0,1.2-0.5,1.2-1.2v-4.9c0-0.7-0.5-1.2-1.2-1.2l0,0c-0.7,0-1.2,0.5-1.2,1.2
						v4.9C513,254.9,513.5,255.5,514.2,255.5z"/>
					<path class="st13" d="M536.5,263.6L536.5,263.6c0.5,0.4,1.3,0.4,1.7-0.1l3.2-3.8c0.4-0.5,0.4-1.3-0.1-1.7l0,0
						c-0.5-0.4-1.3-0.4-1.7,0.1l-3.2,3.8C535.9,262.4,536,263.2,536.5,263.6z"/>
					<path class="st13" d="M548.3,284.1L548.3,284.1c0.1,0.6,0.7,1.1,1.4,1l4.8-0.9c0.6-0.1,1.1-0.7,1-1.4l0,0
						c-0.1-0.6-0.7-1.1-1.4-1l-4.8,0.9C548.7,282.9,548.2,283.5,548.3,284.1z"/>
					<path class="st13" d="M544.2,307.5L544.2,307.5c-0.3,0.6-0.1,1.3,0.4,1.6l4.3,2.5c0.6,0.3,1.3,0.1,1.6-0.4l0,0
						c0.3-0.6,0.1-1.3-0.4-1.6l-4.3-2.5C545.3,306.8,544.5,307,544.2,307.5z"/>
					<path class="st13" d="M526,322.8L526,322.8c-0.6,0.2-0.9,0.9-0.7,1.5l1.7,4.6c0.2,0.6,0.9,0.9,1.5,0.7l0,0
						c0.6-0.2,0.9-0.9,0.7-1.5l-1.7-4.6C527.3,322.9,526.6,322.6,526,322.8z"/>
					<path class="st13" d="M502.3,322.8L502.3,322.8c-0.6-0.2-1.3,0.1-1.5,0.7l-1.7,4.6c-0.2,0.6,0.1,1.3,0.7,1.5l0,0
						c0.6,0.2,1.3-0.1,1.5-0.7l1.7-4.6C503.2,323.7,502.9,323,502.3,322.8z"/>
					<path class="st13" d="M484.1,307.5L484.1,307.5c-0.3-0.6-1.1-0.8-1.6-0.4l-4.3,2.5c-0.6,0.3-0.8,1.1-0.4,1.6l0,0
						c0.3,0.6,1.1,0.8,1.6,0.4l4.3-2.5C484.2,308.8,484.4,308.1,484.1,307.5z"/>
					<path class="st13" d="M480,284.1L480,284.1c0.1-0.6-0.3-1.3-1-1.4l-4.8-0.9c-0.6-0.1-1.3,0.3-1.4,1l0,0c-0.1,0.6,0.3,1.3,1,1.4
						l4.8,0.9C479.3,285.2,479.9,284.8,480,284.1z"/>
					<path class="st13" d="M491.9,263.6L491.9,263.6c0.5-0.4,0.6-1.2,0.1-1.7l-3.2-3.8c-0.4-0.5-1.2-0.6-1.7-0.1l0,0
						c-0.5,0.4-0.6,1.2-0.1,1.7l3.2,3.8C490.6,264,491.4,264,491.9,263.6z"/>
				</g>
				<path class="st3" d="M494,312.5L494,312.5c0.6,0.6,1.6,0.5,2.1-0.1l18.8-20.6c0.6-0.6,0.5-1.6-0.1-2.1l0,0
					c-0.6-0.6-1.6-0.5-2.1,0.1l-18.8,20.6C493.4,311,493.4,312,494,312.5z"/>
				
					<rect x="482.4" y="289.8" transform="matrix(-1 -1.224647e-16 1.224647e-16 -1 996.5117 580.3491)" class="st14" width="31.8" height="0.8"/>
				<circle class="st3" cx="514.2" cy="290.2" r="3.7"/>
				<path class="st3" d="M513.5,289.8h1.4c1.1,0,1.9-0.9,1.9-1.9v-21.6c0-1.1-0.9-1.9-1.9-1.9h-1.4c-1.1,0-1.9,0.9-1.9,1.9v21.6
					C511.5,288.9,512.4,289.8,513.5,289.8z"/>
			</g>
		</g>
		<g>
			<g>
				<g>
					<path class="st4" d="M161.2,322.6c-30.4,0-55.1,24.7-55.1,55.1c0,30.4,24.7,55.1,55.1,55.1V322.6z"/>
					<path class="st3" d="M161.2,322.6c30.4,0,55.1,24.7,55.1,55.1c0,30.4-24.7,55.1-55.1,55.1V322.6z"/>
				</g>
				<g>
					<path class="st2" d="M161.2,334.8c-1.8,0-3.6,0.2-5.4,0.7c-2.8,0.7-5.4,2.3-7,4.8c-1.4,2.1-2.1,4.7-2.2,7.2c0,2.7,0,5.4,0,8.1
						c0.1,0.5-0.4,0.9-0.6,1.4c-1.2,2.2-0.7,5.3,1.3,6.9c0.5,0.3,0.6,1,0.8,1.5c0.9,2.7,2.3,5.2,4.1,7.3v3c0,5-4.1,9.1-9.1,9.1h-4.5
						c0,0-8.2,2.3-13.6,13.6v4.5c0,2.5,2,4.5,4.5,4.5h31.7V334.8z"/>
					<path class="st5" d="M161.2,334.8c1.8,0,3.6,0.2,5.4,0.7c2.8,0.7,5.4,2.3,7,4.8c1.4,2.1,2.1,4.7,2.2,7.2c0,2.7,0,5.4,0,8.1
						c-0.1,0.5,0.4,0.9,0.6,1.4c1.2,2.2,0.7,5.3-1.3,6.9c-0.5,0.3-0.6,1-0.8,1.5c-0.9,2.7-2.3,5.2-4.1,7.3v3c0,5,4.1,9.1,9.1,9.1
						h4.5c0,0,8.2,2.3,13.6,13.6v4.5c0,2.5-2,4.5-4.5,4.5h-31.7V334.8z"/>
				</g>
			</g>
			<g>
				<g>
					<g>
						<g>
							<path class="st4" d="M618.9,329.4c-27.4,0-49.6,22.2-49.6,49.6c0,27.4,22.2,49.6,49.6,49.6V329.4z"/>
							<path class="st3" d="M618.9,329.4c27.4,0,49.6,22.2,49.6,49.6c0,27.4-22.2,49.6-49.6,49.6V329.4z"/>
						</g>
					</g>
					<path class="st2" d="M618.9,343c-19.2,0-34.7,15.6-34.7,34.7c0,19.2,15.6,34.7,34.7,34.7c1.2,0,2.1-1,2.1-2.1
						c0-1.2-1-2.1-2.1-2.1c-16.8,0-30.4-13.7-30.4-30.4c0-16.8,13.7-30.4,30.4-30.4c16.8,0,30.4,13.6,30.4,30.4c0,7-3.7,14-9.1,16.9
						c-1.9,1.1-4,1.6-6.3,1.6c1.4-0.8,2.5-1.9,3.4-3.2c0.2-0.3,0.4-0.5,0.5-0.8c0.7-1.7,0.8-3.6,1.2-5.3c0.5-2.3-9.9-6.7-10.8-3.9
						c-0.3,1-0.8,4.4-1.5,5.2c-0.6,0.8-2,0.4-2.9-0.4c-2.4-2-5-5-7.4-7.4c-0.1-0.1-0.1-0.1-0.2-0.2c-0.1-0.1-0.1-0.1-0.2-0.2v0
						c-2.3-2.3-5.3-5-7.4-7.4c-0.8-0.9-1.1-2.3-0.4-2.9c0.9-0.7,4.2-1.2,5.2-1.5c2.8-0.9-1.6-11.3-3.9-10.8
						c-1.8,0.4-3.7,0.5-5.3,1.2c-0.3,0.1-0.5,0.3-0.8,0.5c-5.9,3.8-6.7,12.9-0.9,19.8c2.2,2.6,4.5,5.1,6.9,7.6l0,0
						c0.1,0.1,0.1,0.1,0.2,0.2c0.1,0.1,0.1,0.1,0.2,0.2l0,0c2.5,2.4,5.4,5.9,10.1,9.1c10,6.7,17.7,4.8,22.2,2.3
						c7.8-4.3,11.3-13.5,11.3-20.7C653.6,358.6,638.1,343,618.9,343L618.9,343z M618.9,343"/>
				</g>
				<g>
					<defs>
						<rect id="SVGID_1_" x="618.9" y="312.4" width="71.2" height="116.3"/>
					</defs>
					<clipPath id="SVGID_2_">
						<use xlink:href="#SVGID_1_"  style="overflow:visible;"/>
					</clipPath>
					<path class="st15" d="M618.9,343c-19.2,0-34.7,15.6-34.7,34.7c0,19.2,15.6,34.7,34.7,34.7c1.2,0,2.1-1,2.1-2.1
						c0-1.2-1-2.1-2.1-2.1c-16.8,0-30.4-13.7-30.4-30.4c0-16.8,13.7-30.4,30.4-30.4c16.8,0,30.4,13.6,30.4,30.4c0,7-3.7,14-9.1,16.9
						c-1.9,1.1-4,1.6-6.3,1.6c1.4-0.8,2.5-1.9,3.4-3.2c0.2-0.3,0.4-0.5,0.5-0.8c0.7-1.7,0.8-3.6,1.2-5.3c0.5-2.3-9.9-6.7-10.8-3.9
						c-0.3,1-0.8,4.4-1.5,5.2c-0.6,0.8-2,0.4-2.9-0.4c-2.4-2-5-5-7.4-7.4c-0.1-0.1-0.1-0.1-0.2-0.2c-0.1-0.1-0.1-0.1-0.2-0.2v0
						c-2.3-2.3-5.3-5-7.4-7.4c-0.8-0.9-1.1-2.3-0.4-2.9c0.9-0.7,4.2-1.2,5.2-1.5c2.8-0.9-1.6-11.3-3.9-10.8
						c-1.8,0.4-3.7,0.5-5.3,1.2c-0.3,0.1-0.5,0.3-0.8,0.5c-5.9,3.8-6.7,12.9-0.9,19.8c2.2,2.6,4.5,5.1,6.9,7.6l0,0
						c0.1,0.1,0.1,0.1,0.2,0.2c0.1,0.1,0.1,0.1,0.2,0.2l0,0c2.5,2.4,5.4,5.9,10.1,9.1c10,6.7,17.7,4.8,22.2,2.3
						c7.8-4.3,11.3-13.5,11.3-20.7C653.6,358.6,638.1,343,618.9,343L618.9,343z M618.9,343"/>
				</g>
			</g>
		</g>
	</g>
</g>
</svg>
