<?xml version="1.0" encoding="utf-8"?>
<!-- Generator: Adobe Illustrator 22.1.0, SVG Export Plug-In . SVG Version: 6.00 Build 0)  -->
<svg version="1.1" id="Layer_3" xmlns="http://www.w3.org/2000/svg" xmlns:xlink="http://www.w3.org/1999/xlink" x="0px" y="0px"
	 viewBox="0 0 4355 5000" style="enable-background:new 0 0 4355 5000;" xml:space="preserve">
<style type="text/css">
	.st0{fill:#237DB9;}
	.st1{fill:#F9F7F7;}
	.st2{fill:#ED6444;}
	.st3{fill:#DA4644;}
	.st4{fill:#96DAE7;}
	.st5{fill:#EDD2B6;}
	.st6{fill:#F4AA79;}
	.st7{fill:#FBB180;}
	.st8{fill:#7B573D;}
	.st9{fill:#917663;}
	.st10{fill:#9FC369;}
	.st11{fill:#496C6E;}
	.st12{fill:none;}
	.st13{fill:#FCCCAC;}
	.st14{fill:#A7CBC7;}
	.st15{fill:none;stroke:#7BAEA8;stroke-miterlimit:10;}
	.st16{fill:none;stroke:#7BAEA8;stroke-miterlimit:10;stroke-dasharray:2.9514,1.9676;}
	.st17{fill:none;stroke:#7BAEA8;stroke-miterlimit:10;stroke-dasharray:2.8936,1.929;}
	.st18{fill:none;stroke:#7BAEA8;stroke-miterlimit:10;stroke-dasharray:3.0028,2.0019;}
	.st19{fill:#2F5151;}
	.st20{fill:#262626;}
	.st21{fill:#0D5279;}
	.st22{fill:#F3F3F3;}
	.st23{fill:#DDDDDC;}
	.st24{fill:#C0C0C0;}
	.st25{fill:#EED3B6;}
	.st26{fill:#0C5075;}
	.st27{fill:#FFFDFD;}
	.st28{fill:#C36969;}
	.st29{fill:#335061;}
	.st30{fill:#EABF9B;}
	.st31{fill:#DC9BC5;}
	.st32{fill:#CD3160;}
	.st33{fill:#FBD864;}
	.st34{fill:#F0B696;}
	.st35{fill:#2260AD;}
	.st36{fill:#494949;}
</style>
<path class="st0" d="M1307.1,2939.9v57.4c0,69.9,6.9,139.8,20.6,207.6c13.4,66.4,33.3,131.6,59.3,193.9c1.2,2.9,2.5,5.9,3.7,8.8
	c-1,0-2,0-2.9,0h-100.3L555.3,3916l192.2-508.3H441.1c-472.1,0-851-378.7-851-850.7v-57.4c0-472.1,378.9-851.8,851-851.8h946.7
	c262.7,0,495.3,117.6,649.8,303.3c-35.8,10.7-70.9,23.4-105.2,37.9c-61.1,25.9-119.9,57.9-174.9,95.2
	c-54.4,36.9-105.4,79.3-151.8,126c-46.3,46.7-88.3,98.1-124.8,152.8c-36.8,55.2-68.5,114.2-94,175.5c-26,62.3-45.9,127.5-59.2,193.9
	C1314.1,2800.1,1307.1,2870,1307.1,2939.9z"/>
<path class="st0" d="M2234.5,2499.5v57.4c0,406-277.1,742.9-655,829.3c-59-116.3-92.1-248.5-92.1-388.8v-57.4
	c0-405.8,276.9-743.5,654.6-830.2C2201.2,2226.4,2234.5,2358.8,2234.5,2499.5z"/>
<circle class="st1" cx="242.4" cy="2575.8" r="190.3"/>
<circle class="st1" cx="912.3" cy="2575.8" r="190.3"/>
<circle class="st2" cx="1582.2" cy="2575.8" r="190.3"/>
<path class="st3" d="M2334.1,2088.1h946.7c472.1,0,851,379.7,851,851.8v57.4c0,472.1-378.9,850.7-851,850.7h-306.4l192.2,508.3
	l-732.1-508.3h-100.3c-472.1,0-846.7-378.7-846.7-850.7v-57.4C1487.4,2467.8,1862.1,2088.1,2334.1,2088.1z"/>
<path class="st4" d="M1487,2939.9v57.4c0,140.4,33.3,272.5,92.3,388.8c-60.6,13.9-123.7,21.3-188.7,21.5c-1.3-2.9-2.5-5.9-3.7-8.8
	c-26-62.3-46-127.5-59.3-193.9c-13.6-67.8-20.6-137.7-20.6-207.6v-57.4c0-69.9,7-139.8,20.6-207.6c13.3-66.4,33.3-131.6,59.3-193.9
	c25.5-61.3,57.2-120.3,94-175.5c36.5-54.7,78.5-106.1,124.8-152.8c46.3-46.7,97.4-89.1,151.8-126c54.9-37.3,113.8-69.3,174.9-95.2
	c34.3-14.5,69.4-27.2,105.2-37.9c40.4,48.6,75.3,101.8,104.2,158.8C1764.1,2196.4,1487,2534.1,1487,2939.9z"/>
<circle class="st1" cx="2139.7" cy="2972.1" r="190.3"/>
<circle class="st1" cx="2809.6" cy="2972.1" r="190.3"/>
<circle class="st1" cx="3479.5" cy="2972.1" r="190.3"/>
<path class="st5" d="M1979.3,2385.9c17.8,4.8,31,15.5,29.5,23.9c-0.1,0.6-0.3,1.2-0.6,1.8c0,0-45.6,45.1-2.8,146.5
	c41.9,99.2,65.4,75.6,65.4,75.6l-63.5,10.6c0,0-53.2-56.3-63.6-87.2c-24.9-74,3.2-161.7,3.2-161.7
	C1946.8,2394.5,1961.5,2381.1,1979.3,2385.9z"/>
<path class="st5" d="M2289.1,2385.9c-17.8,4.8-31,15.5-29.5,23.9c0.1,0.6,0.3,1.2,0.6,1.8c0,0,45.6,45.1,2.8,146.5
	c-41.9,99.2-65.4,75.6-65.4,75.6l63.5,10.6c0,0,53.2-56.3,63.6-87.2c24.9-74-3.2-161.7-3.2-161.7
	C2321.6,2394.5,2306.9,2381.1,2289.1,2385.9z"/>
<path class="st6" d="M2221.5,2298l-12.2-13.3l-2.9-5.5l-5.9,1l-4.9,8l-62.2,101.2v0.4l-0.1-0.2l-0.1,0.2v-0.4l-67.2-109.3l-5.9-1
	l-19.3,22.7c8.8-0.6,26.7-28.7,28.6-29.6c6.3-2.9,16.9-16.3,18.6-18.4c6.1-7.8,9.7-17.7,11.8-27.7c0.7-3.5,1.3-7,1.7-10.4
	c2-16.5,0.5-30.5,0.5-30.5h62.7c0,0-1.4,13,0.3,28.7c1.4,13.4,5.1,28.8,13.7,39.8c1.6,2,12.2,15.4,18.6,18.4c1,0.5,5.1,7.7,12.5,8.8
	C2216.1,2282.1,2217.4,2297.8,2221.5,2298z"/>
<ellipse class="st7" cx="2138.1" cy="2105" rx="99.3" ry="128.8"/>
<path class="st8" d="M2204.8,1946.1c0,0-6.3-21.9-31.9-30.2c-76.8-25-140.9,4.7-174.7,69.3c-1.5,2.8-2.9,5.7-4.4,8.7
	c-18.4,38.4-18.5,77.5-7.8,118.3c11.4,43.7,35.6,83.1,112.6,111.3c0,0-59.8-32.3-59.8-118.6c0,0,2.9-33.2,6.5-40.9l34.4,0.4
	c2.3-6.9-4.1-19.7,14.1-30.9l-0.2,30.1l43.8-0.7c0,0,2-25.1,12.9-32.7c0,0-6.1,17.1,7,34.6l36.3,0.5l-4.3-43.6
	c0,0,25.8,28.5,19.7,41.9l23.8,2.7c0,0,5.6,107-63.5,162c0,0,61.5-6.7,97.5-91.4s13.9-137.5,13.9-137.5S2260.1,1940.6,2204.8,1946.1
	z"/>
<path class="st9" d="M2182.3,1951.6c0,0-68.3-45.8-130.7,21.5C2051.6,1973.1,2105.8,1932.6,2182.3,1951.6z"/>
<path class="st9" d="M2155.9,1957.2c0,0-80.1-18.4-114.4,66.8C2041.6,2024,2077.6,1966.8,2155.9,1957.2z"/>
<path class="st9" d="M2227.7,1965.3c0,0,50.2,26.8,37.1,92.6C2264.7,2057.9,2263.7,2012.1,2227.7,1965.3z"/>
<path class="st10" d="M2261.3,2449.8c2.9,14.3,5.2,27.6,6.6,37.6c8.6-0.4,21.9-3.9,36.5-6.9c17.5-3.6,35-10.5,42.9-13.9
	c-20.7-44.2-41.6-137.4-42.7-141.6c-3.5-11.5-10.2-30.5-31.3-32.1c-2.8-1.3-5.4-2.1-7.8-2.5c-10.3-1.8-43-9.1-62.5-17.9l-9.4-4.3
	c-3.6,14.9-20.3,54.9-64.8,55.8c-35.9,0.7-51.6-38.8-59.1-54l-8.2,5.9c-16,9.1-45.6,15.8-64.8,19.8l-0.4,0.1
	c-2.1,0.4-4.4,1.3-6.9,2.6c-21.5,2.3-27.5,21.7-30.6,33.4c-1,4.2-18.2,98.1-37.2,143.1c8,3.1,25.7,9.3,43.4,12.2
	c14.7,2.4,28.2,5.5,36.8,5.5c0.8-8.6,2.3-19.6,4.1-31.6c7.8,29,14.2,62.2,16,99c1.9,36.9-6.8,78.9-16.8,111.3
	c-4.8,15.7,256.7,18.5,252.4,3.1c-9.1-31.9-16.9-73.4-15.7-108.3C2243.2,2525.1,2251.5,2485.1,2261.3,2449.8z"/>
<g>
	<g>
		<polygon class="st11" points="2614,2050.5 2614,2051.9 2614,2052 		"/>
		<path class="st11" d="M3043.3,1888.3l-78.4-232.8c-1.5-6.2-4.5-12.7-8.4-19.2c-18-29.5-49.2-48.3-83.6-51.5l-38.8-3.6l-74.8,99.4
			l-74.8-99.4l-38.8,3.6c-34.4,3.2-65.6,22-83.6,51.5c-3.9,6.4-7,13-8.4,19.2l-78.4,232.2c0,0-2.4,7.3-2.2,18.3h0c0,0,0,1.4,0,1.5
			c0,0.1,0,1.5,0,1.5h0c0.4,11,7.2,33.1,16.4,49.4l102.3,91.2l33,27.4l134.5,4.4l133.8-5.7l-0.4,1l50.5-26.2l84.8-92.7
			c9.3-16.3,17.5-50.1,17.5-50.1C3045.7,1896.6,3043.3,1888.3,3043.3,1888.3z M2614,2052.1l0-0.2l-64-144.5l1.2-3.8l56.1-162.6
			l11.4,316.3l0.3,6.3l-4.3-9.7L2614,2052.1z M2902.8,2051.4l0.2,0.7l-0.4,1.7l-3.6,8.3l0.6-12.4l11.6-308.8l56,162.5l-1.1-0.1
			l0.8,4L2902.8,2051.4z"/>
		<polygon class="st11" points="2902.5,2052 2902.8,2051.4 2902.5,2050.5 		"/>
	</g>
</g>
<polygon class="st12" points="2613.9,2052.1 2613.8,2052 2549.8,1907.4 2551.2,1903.4 2607.2,1741 2613.8,2050.5 "/>
<path class="st6" d="M2848.5,1597.9l-56.9,60.2l-32.4,22.6l-34.3-22.6l-56.6-60.2l14.7-16.6c21.4-2.2,30.4-20.6,34-31.9
	c1.2-4,1.8-7.1,2-8.3c0.1-0.4,0.1-0.6,0.1-0.6l2.2,0l36.8,0.3l39.3-0.3c0,0,5,37.3,36,40.7c0.1,0,0.2,0,0.3,0L2848.5,1597.9z"/>
<path class="st13" d="M2668.6,1365.4c0.6,16.2-2.7,30.3-11.1,30.6c-8.4,0.3-14.4-12.6-15-28.8c-0.6-16.2,5.9-29.6,14.2-29.9
	S2668,1349.2,2668.6,1365.4z"/>
<path class="st13" d="M2849.6,1365.4c-0.6,16.2,2.7,30.3,11.1,30.6c8.4,0.3,14.4-12.6,15-28.8c0.6-16.2-5.9-29.6-14.2-29.9
	S2850.2,1349.2,2849.6,1365.4z"/>
<path class="st7" d="M2862.1,1331.3l-12,102.8l-4.6,39.4c-1.3,11.2-4.9,21.9-10.6,31.6c-5.6,9.4-13.9,21.2-24.9,31.9
	c-1.7,1.7-3.5,3.3-5.4,4.9c-4.4,3.8-9.8,6.8-15.5,7.5c-1.2,0.2-2.4,0.9-3.6,0.9h-52.7c-1.7,0-3.3-0.8-4.9-1.1
	c-5.2-0.9-10.1-3.5-14.2-7c-0.9-0.8-1.8-1.8-2.7-2.6c-12.5-11.3-21.6-24.4-27.6-34.5c-5.7-9.6-9.3-20.5-10.6-31.6l-4.3-36.8
	l-12.3-105.4c-2.2-19,0.2-38.3,7.5-56c27.8-66.9,95.6-63,95.6-63s67.8-3.9,95.6,63C2861.9,1293,2864.3,1312.4,2862.1,1331.3z"/>
<path class="st8" d="M2884.3,1259.1c-0.5-10.2-2.2-20.9-6-29.4c0,0-7.6-24.9-36.2-37.6c0,0-17-27.1-84.6-21.7c0,0-1.1-4.6,9.3-8.9
	c0,0-29.2-1.9-48.8,12c-0.5,0-1.1,0.1-1.6,0.1c-6.4,0.4-12.2,1.1-17.2,1.9c0,0-77.8,6.3-64.3,102.4l30.4,135.2
	c-0.3-2.3-7.1-64.2,2.5-116c0.1-0.6,0.2-1.3,0.4-1.9c0.1,0,6.4,0,15.7-1.5c16.4-2.7,42.1-10,59.7-30.3c0,0,15.4,47.7,113.9,52.6
	l-4.8,95.6l29.1-120.1c0.3-1.2,0.6-2.3,0.8-3.5c0.8-3.7,1.5-7.4,1.9-11.2c0.3-4,0.6-8,0.6-11.9v-0.1
	C2885,1262.9,2884.5,1261,2884.3,1259.1z"/>
<path class="st8" d="M2850.1,1434.2l-4.6,39.4c-1.3,11.2-4.9,21.9-10.6,31.6c-5.6,9.4-13.9,21.2-24.9,31.9
	c-6.2,4.7-8.7,10.5-20.9,12.2c-1.2,0.2-2.4,0.7-3.6,0.7h-52.7c-1.7,0-3.3-0.6-4.9-0.9c-11.6-2.4-11.8-5.7-16.9-9.3
	c-12.5-11.3-21.6-24.4-27.6-34.6c-5.7-9.6-9.3-20.5-10.6-31.6l-4.3-36.8c0.9,2,1.7,3.9,2.5,5.7c7.5,17.4,27.6,28.2,43.5,19
	c7.9-4.6,12.5-9.7,33.8-12.6l10.7,0.1l10.6-0.1c21.2,2.9,25.8,8,33.8,12.6c15.9,9.2,36-1.7,43.5-19
	C2847.6,1439.9,2848.8,1437.1,2850.1,1434.2z"/>
<path class="st14" d="M2880.3,1825.2l-30.7,11.9c-1.9,0.7-4.1,0.8-6,0l-32.2-12v-66.5h68.9V1825.2z"/>
<g>
	<g>
		<polyline class="st15" points="2875.9,1820.3 2875.9,1821.8 2874.5,1822.3 		"/>
		<path class="st16" d="M2872.7,1823l-23.5,9.1c-1.7,0.7-3.5,0.7-5.2,0l-25.7-9.6"/>
		<polyline class="st15" points="2817.3,1822.3 2815.9,1821.8 2815.9,1820.3 		"/>
		<line class="st17" x1="2815.9" y1="1818.3" x2="2815.9" y2="1766.3"/>
		<polyline class="st15" points="2815.9,1765.3 2815.9,1763.8 2817.4,1763.8 		"/>
		<line class="st18" x1="2819.4" y1="1763.8" x2="2873.4" y2="1763.8"/>
		<polyline class="st15" points="2874.4,1763.8 2875.9,1763.8 2875.9,1765.3 		"/>
		<line class="st17" x1="2875.9" y1="1767.2" x2="2875.9" y2="1819.3"/>
	</g>
</g>
<path class="st19" d="M2833.7,1581.3l15.6,1.5l13.4,1.1l-38.9,130.8l-64.8-34l65.3-86.9C2824.2,1593.9,2826.1,1591.4,2833.7,1581.3z
	"/>
<path class="st19" d="M2684.5,1581.3l-15.6,1.5l-13.3,1.1l38.9,130.8l64.8-34l-65.3-86.9C2694,1593.9,2692.1,1591.4,2684.5,1581.3z"
	/>
<polygon class="st13" points="2641,2399.6 2636.6,2465.1 2566.6,2485.9 2582.6,2393.8 "/>
<path class="st20" d="M2641,2439.9c0,0,22.5,17.1,9.3,85.8c-0.8,4.3-3.9,7.9-8.1,9.3c-14.6,4.8-58.9,14-187.7,18.2
	c-16.5,0.5-29.2-14.8-25-30.8c0.1-0.3,0.2-0.6,0.2-0.9c2-7.3,6.8-13.6,13.4-17.4c11.6-6.7,32.4-17.4,52.6-20.6
	c11.8-1.9,23.5-5,34.4-10c12.9-6,26.9-15.3,33.9-29.2c0,0,16.4,2.2,33.6,13.3C2597.6,2457.6,2621.1,2467.3,2641,2439.9z"/>
<polygon class="st13" points="2871,2399.6 2875.4,2465.1 2945.4,2485.9 2929.5,2393.8 "/>
<path class="st20" d="M2871,2439.9c0,0-22.5,17.1-9.3,85.8c0.8,4.3,3.9,7.9,8.1,9.3c14.6,4.8,58.9,14,187.7,18.2
	c16.5,0.5,29.2-14.8,25-30.8c-0.1-0.3-0.2-0.6-0.2-0.9c-2-7.3-6.8-13.6-13.4-17.4c-11.6-6.7-32.4-17.4-52.6-20.6
	c-11.8-1.9-23.5-5-34.4-10c-12.9-6-26.9-15.3-33.9-29.2c0,0-16.4,2.2-33.6,13.3C2914.4,2457.6,2890.9,2467.3,2871,2439.9z"/>
<path class="st21" d="M2955.9,2058c0,0-36.9-23.2-51.1-23.2H2762h-0.1H2619c-14.1,0-51.1,23.2-51.1,23.2c0,14.1-4.9,28.2,9.3,28.2
	h184.6h0.1h184.6C2960.7,2086.2,2955.9,2072.1,2955.9,2058z"/>
<path class="st21" d="M2651.4,2400.1l-86.7-9.2c0,0-4.5-131.8-2.5-145.3c7.4-50.9,7.4-134.6,17.9-169.9s47.6-49.2,47.6-49.2
	s46.8-37.6,72.9-16.9c7.3,5.8,34.7,20.5-19.4,269.4C2667.2,2344.3,2651.4,2400.1,2651.4,2400.1z"/>
<path class="st21" d="M2862.4,2400.1l86.7-9.2c0,0,4.5-131.8,2.5-145.3c-7.4-50.9-7.4-134.6-17.9-169.9s-47.6-49.2-47.6-49.2
	s-46.8-37.6-72.9-16.9c-7.3,5.8-34.7,20.5,19.4,269.4C2846.6,2344.3,2862.4,2400.1,2862.4,2400.1z"/>
<path class="st21" d="M2663.5,2431.2h-107.8c-4.5,0-8.1-3.7-8.1-8.1v-30.3c0-4.5,3.7-8.1,8.1-8.1h107.8c4.5,0,8.1,3.7,8.1,8.1v30.3
	C2671.6,2427.6,2667.9,2431.2,2663.5,2431.2z"/>
<path class="st21" d="M2849.8,2431.2h107.8c4.5,0,8.1-3.7,8.1-8.1v-30.3c0-4.5-3.7-8.1-8.1-8.1h-107.8c-4.5,0-8.1,3.7-8.1,8.1v30.3
	C2841.7,2427.6,2845.4,2431.2,2849.8,2431.2z"/>
<path class="st22" d="M2972.7,2034.9h-443.4c-12.1,0-21.9-9.8-21.9-21.9v-262.8c0-12.1,9.8-21.9,21.9-21.9h443.4
	c12.1,0,21.9,9.8,21.9,21.9V2013C2994.6,2025.1,2984.8,2034.9,2972.7,2034.9z"/>
<g>
	<g>
		<path class="st23" d="M2511.3,2025.3c3.9,6,10.7,10,18.3,10H2973c12.1,0,21.7-10,21.7-22.1v-262.8c0-5.4-1.8-10.2-5-14.1
			L2511.3,2025.3z"/>
	</g>
</g>
<path class="st24" d="M2989.6,2034h-476.7c-4.4,0-7.9,3.5-7.9,7.9v11.9c0,4.4,3.5,7.9,7.9,7.9h476.7c4.4,0,7.9-3.5,7.9-7.9v-11.9
	C2997.5,2037.5,2993.9,2034,2989.6,2034z"/>
<path class="st21" d="M721.1,1646.7c0,0-0.1-6.1-5.3-14.6l0.3-0.7c0,0-0.5-0.4-1.4-1.1c-5.8-8.6-17.1-20.4-36.7-33
	c-18.4-14-38.3-24.1-42.9-27.4c-28.9-20.6-95.3-58.6-95.3-58.6H297.5c0,0-57.3,38-86.2,58.6c-4.7,3.3-24.5,13.4-42.9,27.4
	c-19.5,12.5-30.9,24.4-36.7,33c-0.9,0.7-1.4,1.1-1.4,1.1l0.3,0.7c-5.2,8.5-5.3,14.6-5.3,14.6c-9.1,24,30.4,98.8,30.4,98.8
	L260,1983.8c63.3,9.6,67.8-14.3,67.8-14.3c-1.6-13.6-16.7-100-16.7-100c-21.5-89.3-56.8-136.8-74-161.2c-4-5.7-1.6-13.6,4.9-16.1
	c12.3-4.6,25.3-9.7,38-14.8c44.3-17.9,77.6-34.5,102.7-49.5l81.5,0.3c0,0.3,0.3,0.5,1,0.6c24.9,14.8,57.8,31.1,101.2,48.6
	c13.3,5.4,26.9,10.6,39.8,15.5c5.6,2.1,7.8,8.9,4.5,13.9c-15.7,23.6-48,70.1-70,161.2c0,0-17.6,86.8-19.2,100.4
	c0,0,1.7,25.1,64.9,15.4l104.2-238.4C690.7,1745.4,730.2,1670.7,721.1,1646.7z"/>
<path class="st25" d="M594.3,1972.1c0,0-2.2,41,7.2,62.5l-75-7.5c0,0,11.8-22.3-0.1-55H594.3z"/>
<path class="st25" d="M253.9,1965.5c0,0,2.2,41-7.2,62.5l75-7.5c0,0-11.8-22.3,0.1-55H253.9z"/>
<path class="st26" d="M260.1,2023.4c-5.3-0.4-9.9-1.8-13-3.8c-2.2,2.1-5,4.6-8.1,7.3c-0.1,0.1-0.2,0.2-0.4,0.4
	c-2.1,1.8-4.4,3.8-6.9,5.8c-0.1,0.1-0.2,0.1-0.2,0.2c-0.9,0.8-1.9,1.5-2.9,2.3c-0.2,0.1-0.4,0.3-0.6,0.5c-2.1,1.7-4.4,3.4-6.7,5.1
	c-0.5,0.4-1,0.7-1.5,1.1c-0.9,0.6-1.8,1.3-2.7,1.9c-0.7,0.5-1.3,1-2.1,1.4c-1.9,1.3-3.9,2.7-5.9,3.9c-1,0.7-2,1.3-3,2
	c-7.8,4.9-16.3,9.5-25.2,13.3c-1.5,0.7-3.1,1.3-4.7,1.9c-31,11.9-33.8,29.2-32.8,38.1c0.4,3.6,1.4,5.8,1.4,5.8s12.6,6.5,29,6.8
	c60.1,1.3,153.8-31,153.8-31s6.7-8,4.4-26.5c-0.1-0.9-0.2-1.7-0.4-2.7c-0.2-1.2-8.8-36.2-12.1-46.1c-7.7,2.7-20,6.5-42.3,11
	c-2,0.4-3.8,0.7-5.5,0.9c-1.1,0.1-2.2,0.2-3.2,0.4c-2,0.2-3.8,0.2-5.3,0.1l-0.2,0l-0.6,0c-0.1,0-0.1,0-0.2,0L260.1,2023.4z"/>
<path class="st26" d="M172.6,2106.1c-13.6-0.3-24.9-4.5-29.3-6.5c-0.2,1.9-0.1,3.7,0,5.2c0.4,3.6,1.4,5.8,1.4,5.8s12.6,6.5,29,6.8
	c60.1,1.3,153.8-31.1,153.8-31.1s3-3.6,4.3-11.5C307.4,2082.8,227.2,2107.3,172.6,2106.1z"/>
<path class="st26" d="M588.4,2030.1c5.3-0.4,9.9-1.8,13-3.8c2.2,2.1,5,4.6,8.1,7.3c0.1,0.1,0.2,0.2,0.4,0.4c2.1,1.8,4.4,3.8,6.9,5.8
	c0.1,0.1,0.2,0.1,0.2,0.2c0.9,0.8,1.9,1.5,2.9,2.3c0.2,0.1,0.4,0.3,0.6,0.5c2.1,1.7,4.4,3.4,6.7,5.1c0.5,0.4,1,0.7,1.5,1.1
	c0.9,0.6,1.8,1.3,2.7,1.9c0.7,0.5,1.3,1,2.1,1.4c1.9,1.3,3.9,2.7,5.9,3.9c1,0.7,2,1.3,3,2c7.8,4.9,16.3,9.5,25.2,13.3
	c1.5,0.7,3.1,1.3,4.7,1.9c31,11.9,33.8,29.2,32.8,38.1c-0.4,3.6-1.4,5.8-1.4,5.8s-12.6,6.5-29,6.8c-60.1,1.3-153.8-31-153.8-31
	s-6.7-8-4.4-26.5c0.1-0.9,0.2-1.7,0.4-2.7c0.2-1.2,8.8-36.2,12.1-46.1c7.7,2.7,20,6.5,42.3,11c2,0.4,3.8,0.7,5.5,0.9
	c1.1,0.1,2.2,0.2,3.2,0.4c2,0.2,3.8,0.2,5.3,0.1l0.2,0l0.6,0c0.1,0,0.1,0,0.2,0L588.4,2030.1z"/>
<path class="st26" d="M675.9,2112.8c13.6-0.3,24.9-4.5,29.3-6.5c0.2,1.9,0.1,3.7,0,5.2c-0.4,3.6-1.4,5.8-1.4,5.8s-12.6,6.5-29,6.8
	c-60.1,1.3-153.8-31.1-153.8-31.1s-3-3.6-4.3-11.5C541.1,2089.5,621.4,2114,675.9,2112.8z"/>
<path class="st21" d="M328.9,1983.8h-87.7c-3.6,0-6.6-3-6.6-6.6v-24.6c0-3.6,3-6.6,6.6-6.6h87.7c3.6,0,6.6,3,6.6,6.6v24.6
	C335.5,1980.8,332.6,1983.8,328.9,1983.8z"/>
<path class="st21" d="M518.9,1984.9h87.7c3.6,0,6.6-3,6.6-6.6v-24.6c0-3.6-3-6.6-6.6-6.6h-87.7c-3.6,0-6.6,3-6.6,6.6v24.6
	C512.3,1981.9,515.3,1984.9,518.9,1984.9z"/>
<path class="st6" d="M549.9,1128.6l-55.2-20.4c-41.4-13.6-32.5-37.4-32.5-37.4h-42.5H419h-42.5c0,0,8.9,23.8-32.5,37.4l-55.2,20.4
	l130.6,15.7L549.9,1128.6z"/>
<path class="st27" d="M344.2,1103.3c0.1,0,0.2,0,0.3,0l24.2,124.7l0.2,0.9l19.5,100.9l6.9,163.2h42.4l9.8-157.1l20.6-106.6
	l24.2-124.9c-5.1-2.7-12-5.6-18.6-6.6c0,0,4.7,33.7-48.3,35.1c-59.5,1.5-60.3-35.1-60.3-35.1c-7.3,0.7-14.3,3.5-21.1,5.5
	C344,1103.3,344.1,1103.3,344.2,1103.3L344.2,1103.3z"/>
<path class="st28" d="M669.8,1347.5l-34.6-131.3c-22.2-88.7-144-112.8-144-112.8l-73.3,376.8l-71-377.8c0,0-124.2,25.1-146.4,113.8
	l-34.6,131.3c0,0-7.2,26.8-1.4,63.6c2.4,15.5,8.6,30.1,18,42.6l28.2,37.5l59.6-13l-36.1-61.6c0,0,0.2-25.4,5.3-39.6l30.8-74.4
	l12,118.9l5.3,89.8h130.2h0.4h130.2l5.3-89.8l12-118.9l30.8,74.4c5.1,14.2,5.3,39.6,5.3,39.6l-36.1,61.6l59.6,13l28.2-37.5
	c9.4-12.5,15.6-27.2,18-42.6C676.9,1374.3,669.8,1347.5,669.8,1347.5z"/>
<path class="st22" d="M637.2,1528.6h-428c-11.7,0-21.2-9.5-21.2-21.2v-253.6c0-11.7,9.5-21.2,21.2-21.2h428
	c11.7,0,21.2,9.5,21.2,21.2v253.6C658.4,1519.2,648.9,1528.6,637.2,1528.6z"/>
<g>
	<g>
		<path class="st23" d="M191.8,1519.3c3.8,5.8,10.3,9.6,17.7,9.6h428c11.7,0,21-9.7,21-21.3V1254c0-5.2-1.8-9.9-4.9-13.6
			L191.8,1519.3z"/>
	</g>
</g>
<path class="st24" d="M653.5,1527.7H193.4c-4.2,0-7.6,3.4-7.6,7.6v11.5c0,4.2,3.4,7.6,7.6,7.6h460.1c4.2,0,7.6-3.4,7.6-7.6v-11.5
	C661.1,1531.2,657.7,1527.7,653.5,1527.7z"/>
<path class="st29" d="M948.1,1632.4l49.9-2l48.7-2.2l-20.3,4.2c0,0-27.6,4.5-53.8,6.5l-49.8,3.3c0,0-28,2.3-32.8,17.8
	c0,0-4,10.1-1.8,20.5c1.8,8.9,7.4,14.7,7.4,14.7c8.7,12.8,37.6,5.4,37.6,5.4l47.9-14.1c25.3-7.1,52.7-12.5,52.7-12.5l20.5-3
	l-46.5,14.8l-47.5,15.4c-19.8,8.3-66.4,15.1-66.4,15.1c-39.1,6-48.8-12-48.8-12c-2-3.3-4.8-9-5.7-15.2c-2.2-12.5-2.6-15.6-0.8-20.6
	c0,0,6.6-19.9,41.9-27.2C880.6,1641.2,926.7,1631.5,948.1,1632.4z"/>
<path class="st30" d="M922.9,1642.3l49.8-3.3c26.2-2,53.9-6.5,53.9-6.5l29.5-6.2l8.3,43.2l-30.4,4.5c0,0-27.5,5.4-52.8,12.5
	l-47.9,14.1c0,0-28.9,7.4-37.6-5.4c0,0-5.6-5.8-7.4-14.7c-2.2-10.4,1.8-20.5,1.8-20.5C894.9,1644.6,922.9,1642.3,922.9,1642.3z"/>
<path class="st29" d="M1463.9,1631.4l-49.9-2l-48.7-2.2l20.3,4.2c0,0,27.6,4.5,53.8,6.5l49.8,3.3c0,0,28,2.3,32.8,17.8
	c0,0,4,10.1,1.8,20.5c-1.8,8.9-7.4,14.7-7.4,14.7c-8.7,12.8-37.6,5.4-37.6,5.4l-47.9-14.1c-25.3-7.1-52.7-12.5-52.7-12.5l-20.5-3
	l46.5,14.8l47.5,15.4c19.8,8.3,66.4,15.1,66.4,15.1c39.1,6,48.8-12,48.8-12c2-3.3,4.8-9,5.7-15.2c2.2-12.5,2.6-15.6,0.8-20.6
	c0,0-6.6-19.9-41.9-27.2C1531.4,1640.2,1485.3,1630.4,1463.9,1631.4z"/>
<path class="st30" d="M1489.1,1641.3l-49.8-3.3c-26.2-2-53.9-6.5-53.9-6.5l-29.5-6.2l-8.3,43.2l30.4,4.5c0,0,27.5,5.4,52.8,12.5
	l47.9,14.1c0,0,28.9,7.4,37.6-5.4c0,0,5.6-5.8,7.4-14.7c2.2-10.4-1.8-20.5-1.8-20.5C1517.1,1643.6,1489.1,1641.3,1489.1,1641.3z"/>
<rect x="1079.9" y="905.6" class="st8" width="232.8" height="310"/>
<ellipse class="st7" cx="1202.1" cy="977.1" rx="102.2" ry="132.5"/>
<path class="st8" d="M1366.9,1227.5c0,0-25.6-70.1-27.9-115.3c0,0,3.7-151.5,4.3-188.8c0,0-0.4-56.7-30.4-97.5
	c0,0-18-28.7-45.3-27.3c0,0-17.6-31-50.2-34.6c0,0-5.6-0.7-16-0.7c-10.3,0-16,0.7-16,0.7c-32.6,3.6-54.3,19.5-54.3,19.5
	c-26.3,16.5-43.2,40.9-43.2,40.9c-30,40.8-28.5,99-28.5,99c0.6,37.3,4.3,188.8,4.3,188.8c-2.3,45.2-27.9,115.3-27.9,115.3l-21,142.6
	c28.9,28,105.3,2.3,105.3,2.3c29.9-9.2,37.6-18.9,37.6-18.9c-15.7-55.7-34.6-201.3-34.6-201.3c-5.1-63.4,0.4-85.9,0.4-85.9
	c-20.2-22.1-24.3-61-24.3-61c-5.2-71.9,16.4-99.8,16.4-99.8c30.7,10.7,59.3,12.7,85.6,11.9c26.3,0.9,55.9-1.4,86.5-12.2
	c0,0,20.7,28.1,15.5,100.1c0,0-4.1,38.9-24.3,61c0,0,5.5,22.6,0.4,85.9c0,0-18.9,145.6-34.6,201.3c0,0,8.3,9.1,37.6,18.9
	c0,0,76.5,25.7,105.3-2.3L1366.9,1227.5z"/>
<polygon class="st6" points="1175.3,1178.8 1115.4,1181.4 1104.9,1218.9 1192.2,1281.1 1274,1249.4 1296.4,1181.4 "/>
<path class="st5" d="M1015.5,1249.4c1.5-8.4,17.2-11.3,35-6.4c17.8,4.8,31,15.5,29.5,23.9c-0.1,0.6-0.3,1.2-0.6,1.8
	c0,0-45.6,45.1-2.8,146.5c41.9,99.2,65.4,75.6,65.4,75.6l-63.5,10.6c0,0-53.4-56.2-63.6-87.2c-19.3-58.4,0.6-162.1,0.6-162.1
	C1015.4,1251.1,1015.3,1250.2,1015.5,1249.4z"/>
<path class="st5" d="M1395.2,1249.4c-1.5-8.4-17.2-11.3-35-6.4c-17.8,4.8-31,15.5-29.5,23.9c0.1,0.6,0.3,1.2,0.6,1.8
	c0,0,45.6,45.1,2.8,146.5c-41.9,99.2-65.4,75.6-65.4,75.6l63.5,10.6c0,0,53.4-56.2,63.6-87.2c19.3-58.4-0.6-162.1-0.6-162.1
	C1395.3,1251.1,1395.3,1250.2,1395.2,1249.4z"/>
<path class="st31" d="M1332.5,1491.5c0-25.7,3.5-51.5,7.5-72.3c15.7-11.8,26.3-33.3,26.3-57.9c0-16.3-4.7-31.4-12.5-43
	c0.1-11.7,0.2-19,0.3-26.4l50.1-11.8l-7.1-34.5c-3.1-14.5-20.6-29.8-37.8-36.2l-16.8-7.9c-0.2-0.1-0.5-0.3-0.7-0.4
	c-2.4-1.3-5.8-2.9-10.1-4.7c-8.9-3.8-21.4-8.9-35.2-15c-13.2,9.1-41,69.8-90.6,76.6c-49.5-6.8-77.3-67.5-90.5-76.6
	c-13.9,6.2-26.3,11.2-35.2,15c-4.3,1.8-7.7,3.4-10.1,4.7c-0.3,0.1-0.5,0.3-0.7,0.4l-19,8.9c-3.7,1.7-7.1,4.1-10,6.8
	c-13.2,7.7-24.6,19.5-27,31l-7.1,34.5l51.5,12.2c0.1,6.5,0.2,13.3,0.2,23.4c-7.7,11.7-12.5,26.7-12.5,43c0,25.1,11,47.1,27.4,58.7
	c3.9,20.7,7.3,46.1,7.3,71.5c0,71.1,1.3,60.4-0.2,63.9c-7.6,15.6,22.1,5.2,13.7,42.6l216,4.6c-8.4-37.4,37.3-25.9,29.7-41.4
	C1337.9,1557.7,1332.5,1562.6,1332.5,1491.5z"/>
<path class="st9" d="M1208.8,802.5c-2,0-3.9,0-6-0.1v0c0,0-0.1,0-0.1,0c-0.1,0-0.1,0-0.1,0v0c-1.8,0-3.9,0.1-5.9,0.1
	c-16.2-0.3-93.3,5.9-112.7,113h7c0,0,13.9-70.3,81.4-88.5c5.3-1.4,26.5-2.7,30.2-2.5c13.9,0.6,21,0.1,30.6,3.6
	c65.9,24,77.7,87.4,77.7,87.4h7.4C1289.8,806.7,1224.9,802.3,1208.8,802.5z"/>
<path class="st6" d="M1239,1100.7c0,0-17.8,8.9-37.2,8.9c-18.3,0-33.7-7.2-33.7-7.2s26.5,60.3-52.8,79l90.7,38.4l90.3-38.4
	C1225.3,1175.7,1239,1100.7,1239,1100.7z"/>
<path class="st32" d="M966.8,1598.8l66.9,14.4c19.3,2,96.5,15.5,127.6,24.3c142.3,40.1,249.5,41.3,249.5,41.3l11.7-42.6
	c0,0-144.3-50-204.6-64.6c-53.4-12.9-156-65.8-245.3-68.2C931.2,1502.4,899.3,1564.9,966.8,1598.8z"/>
<path class="st32" d="M1451.5,1599.3l-66.9,14.3c-19.3,2-96.5,15.3-127.7,24.1c-142.4,39.8-249.6,40.8-249.6,40.8l-11.6-42.6
	c0,0,144.4-49.7,204.8-64.2c53.4-12.8,156.2-65.4,245.4-67.7C1487.4,1502.9,1519.1,1565.5,1451.5,1599.3z"/>
<path class="st22" d="M1350.5,1564.7h-289.6c-7.9,0-14.3-6.4-14.3-14.3v-171.6c0-7.9,6.4-14.3,14.3-14.3h289.6
	c7.9,0,14.3,6.4,14.3,14.3v171.6C1364.9,1558.3,1358.4,1564.7,1350.5,1564.7z"/>
<g>
	<g>
		<path class="st23" d="M1049.1,1558.4c2.6,3.9,7,6.5,12,6.5h289.6c7.9,0,14.2-6.5,14.2-14.4v-171.6c0-3.5-1.2-6.7-3.3-9.2
			L1049.1,1558.4z"/>
	</g>
</g>
<path class="st24" d="M1361.5,1564.1h-311.3c-2.9,0-5.2,2.3-5.2,5.2v7.8c0,2.9,2.3,5.2,5.2,5.2h311.3c2.9,0,5.2-2.3,5.2-5.2v-7.8
	C1366.7,1566.4,1364.4,1564.1,1361.5,1564.1z"/>
<path class="st1" d="M1877,2775.4l49.9-2l48.7-2.2l-20.3,4.2c0,0-27.6,4.5-53.8,6.5l-49.8,3.3c0,0-28,2.3-32.8,17.8
	c0,0-4,10.1-1.8,20.5c1.8,8.9,7.4,14.7,7.4,14.7c8.7,12.8,37.6,5.4,37.6,5.4l47.9-14.1c25.3-7.1,52.7-12.5,52.7-12.5l20.5-3
	l-46.5,14.8l-47.5,15.4c-19.8,8.3-66.4,15.1-66.4,15.1c-39.1,6-48.8-12-48.8-12c-2-3.3-4.8-9-5.7-15.2c-2.2-12.5-2.6-15.6-0.8-20.6
	c0,0,6.6-19.9,41.9-27.2C1809.4,2784.2,1855.5,2774.4,1877,2775.4z"/>
<path class="st30" d="M1851.7,2785.3l49.8-3.3c26.2-2,53.9-6.5,53.9-6.5l29.5-6.2l8.3,43.2l-30.4,4.5c0,0-27.5,5.4-52.8,12.5
	l-47.9,14.1c0,0-28.9,7.4-37.6-5.4c0,0-5.6-5.8-7.4-14.7c-2.2-10.4,1.8-20.5,1.8-20.5C1823.7,2787.6,1851.7,2785.3,1851.7,2785.3z"
	/>
<path class="st1" d="M2392.7,2774.3l-49.9-2l-48.7-2.2l20.3,4.2c0,0,27.6,4.5,53.8,6.5l49.8,3.3c0,0,28,2.3,32.8,17.8
	c0,0,4,10.1,1.8,20.5c-1.8,8.9-7.4,14.7-7.4,14.7c-8.7,12.8-37.6,5.4-37.6,5.4l-47.9-14.1c-25.3-7.1-52.7-12.5-52.7-12.5l-20.5-3
	l46.5,14.8l47.5,15.4c19.8,8.3,66.4,15.1,66.4,15.1c39.1,6,48.8-12,48.8-12c2-3.3,4.8-9,5.7-15.2c2.2-12.5,2.6-15.6,0.8-20.6
	c0,0-6.6-19.9-41.9-27.2C2460.3,2783.1,2414.2,2773.3,2392.7,2774.3z"/>
<path class="st30" d="M2418,2784.2l-49.8-3.3c-26.2-2-53.9-6.5-53.9-6.5l-29.5-6.2l-8.3,43.2l30.4,4.5c0,0,27.5,5.4,52.8,12.5
	l47.9,14.1c0,0,28.9,7.4,37.6-5.4c0,0,5.6-5.8,7.4-14.7c2.2-10.4-1.8-20.5-1.8-20.5C2446,2786.5,2418,2784.2,2418,2784.2z"/>
<path class="st33" d="M1895.7,2741.8l66.9,14.4c19.3,2,96.5,15.5,127.6,24.3c142.3,40.1,249.5,41.3,249.5,41.3l11.7-42.6
	c0,0-144.3-50-204.6-64.6c-53.4-12.9-156-65.8-245.3-68.2C1860,2645.3,1828.1,2707.9,1895.7,2741.8z"/>
<path class="st33" d="M2380.4,2742.2l-66.9,14.3c-19.3,2-96.5,15.3-127.7,24.1c-142.4,39.8-249.6,40.8-249.6,40.8l-11.6-42.6
	c0,0,144.4-49.7,204.8-64.2c53.4-12.8,156.2-65.4,245.4-67.7C2416.3,2645.8,2448,2708.4,2380.4,2742.2z"/>
<path class="st22" d="M2307.3,2694.8h-345.5c-9.4,0-17.1-7.7-17.1-17.1V2473c0-9.4,7.7-17.1,17.1-17.1h345.5
	c9.4,0,17.1,7.7,17.1,17.1v204.7C2324.4,2687.2,2316.7,2694.8,2307.3,2694.8z"/>
<g>
	<g>
		<path class="st23" d="M1947.8,2687.3c3.1,4.6,8.3,7.8,14.3,7.8h345.5c9.4,0,16.9-7.8,16.9-17.2v-204.7c0-4.2-1.4-8-3.9-11
			L1947.8,2687.3z"/>
	</g>
</g>
<path class="st24" d="M2320.4,2694.1H1949c-3.4,0-6.2,2.8-6.2,6.2v9.2c0,3.4,2.8,6.2,6.2,6.2h371.4c3.4,0,6.2-2.8,6.2-6.2v-9.2
	C2326.6,2696.9,2323.8,2694.1,2320.4,2694.1z"/>
<path class="st34" d="M519.6,945.7c-3.2,14.6-2.6,27.9,5,29.6c7.5,1.7,15.2-9,18.4-23.6c3.2-14.6-0.4-27.7-7.9-29.4
	C527.5,920.6,522.8,931.1,519.6,945.7z"/>
<path class="st34" d="M318,946.2c3.2,14.6,2.6,27.9-5,29.6c-7.5,1.7-15.2-9-18.4-23.6c-3.2-14.6,0.4-27.7,7.9-29.4
	C310.1,921.1,314.8,931.7,318,946.2z"/>
<path class="st7" d="M525.2,963.7c-0.1,2.1-0.3,4.3-0.5,6.4c-0.6,7.8-1.4,16-2.5,24.6l-8.1,44.1c0,0-3.3,12.9-12.7,17.3
	c0,0-33.5,20.8-62.5,29.5c0,0-10.9,4.4-18.4,4.4h-0.2c-3.7,0-8.3-1.1-12-2.2c-3.7-1.1-6.4-2.2-6.4-2.2c-29-8.7-62.5-29.5-62.5-29.5
	c-4.3-2-7.3-5.9-9.3-9.4c-1.9-3.4-3.2-7.2-3.9-11l-7.5-41c-1.3-10.7-2.2-20.7-2.9-30.3h0c-14.6-206.2,101.2-156.5,104.6-155
	C423.9,807.9,539.4,758.3,525.2,963.7z"/>
<path class="st8" d="M527.3,967l-2.7,3.1c0,0-1-50.7-4.1-63.5c0,0-7.1-28.6-18.1-34.3c0,0,9.7-35.3-15.6-47c0,0-30.7,32.8-80.8,32.5
	c0,0-34.9,2.8-66.5-20.1c0,0-7.5,13.1-1.4,30.2c0,0-20.4,22.7-22.9,50.6c0,0-1,36.5,0.6,45.8c0,0-1.9-0.9-8.9-8.9
	c-5.7-6.5-8-14.8-10-23.2c-6.1-26-6.1-65.7-0.8-86.9c0,0,7.8-35.6,14.7-38.4c0,0-15.6-50.6-12.3-63.5c0,0,9.2,24.7,40,21.7
	c0,0-13.1-19-10.1-39.3c0,0,23.4,18.3,48.2,13.4c0,0,15.8-1.8,26-5.9c4.3-1.7,8.8-3.2,13.4-4c17.5-3.2,54.8-6.8,72.9,16.9
	c0,0,14.3,15.7,16.6,31.5c0,0,38.4,28.4,40.3,78.1c0,0,3.4,36-1,67.8c-1.5,11.1-4.9,21.8-9.8,31.8l0,0
	C532.8,959.6,530.3,963.4,527.3,967z"/>
<path class="st9" d="M306.7,764.5c0,0,30.9,114.9,143.6,73.7C450.3,838.2,339.1,845.7,306.7,764.5z"/>
<path class="st9" d="M337.3,743c0,0,35.2,100.6,133.1,56.3C470.5,799.3,371.7,813.4,337.3,743z"/>
<path class="st8" d="M472.3,1025.6c-4.6,12.4-9,22.1-9,22.1c4-26.7-4-34.3-4-34.3c-3.1-3.4-9.9-6-17.1-7.8
	c-14.7-3.8-30.2-3.8-44.9,0c-7.2,1.8-14.1,4.4-17.2,7.9c0,0-8,7.6-4,34.3c0,0-4.3-9.7-9-22.1c0,0-38.7-50.8-51.5-61.2
	c0.7,9.5,1.6,19.6,2.9,30.3l7.5,41c0.7,3.9,2,7.6,3.9,11c2,3.5,5,7.3,9.3,9.4c0,0,33.5,20.8,62.5,29.5c0,0,2.7,1.1,6.4,2.2
	c3.6,1.1,8.2,2.2,12,2.2h0.2c7.5-0.1,18.4-4.4,18.4-4.4c29-8.7,62.5-29.5,62.5-29.5c9.4-4.5,12.7-17.3,12.7-17.3l8.1-44.1
	c1-8.6,1.8-16.7,2.5-24.6C511.9,980.4,472.3,1025.6,472.3,1025.6z M448.2,1066.2c-3,3.8-7.3,5.9-11.8,5.9
	c-11.2,0.1-16.6-10.5-16.6-10.5s-5.4,10.6-16.6,10.5c-4.5-0.1-8.7-2.1-11.8-5.9c-4.3-5.3-9.4-16-9.5-36.8c0,0,5.8-15.6,38.5-15.6
	c33.6,0,37.4,15.6,37.4,15.6C457.6,1050.2,452.5,1060.9,448.2,1066.2z"/>
<path class="st21" d="M3803.7,2800.2c0,0-0.1-6.6-5.7-15.8l0.3-0.7c0,0-0.5-0.4-1.6-1.2c-6.3-9.4-18.6-22.3-39.9-35.9
	c-20-15.3-41.7-26.2-46.7-29.8c-31.4-22.4-103.7-63.7-103.7-63.7h-263.7c0,0-62.4,41.4-93.8,63.7c-5.1,3.6-26.7,14.6-46.7,29.8
	c-21.2,13.6-33.6,26.5-39.9,35.9c-1,0.8-1.6,1.2-1.6,1.2l0.3,0.7c-5.6,9.2-5.7,15.8-5.7,15.8c-9.9,26.1,33.1,107.5,33.1,107.5
	l113.4,259.4c68.8,10.5,73.8-15.6,73.8-15.6c-1.7-14.8-18.2-108.8-18.2-108.8c-23.4-97.2-61.8-148.9-80.5-175.4
	c-4.4-6.2-1.7-14.8,5.4-17.5c13.4-5.1,27.5-10.5,41.3-16.1c48.2-19.5,84.4-37.5,111.7-53.9l88.7,0.3c0,0.4,0.4,0.6,1.1,0.7
	c27.1,16.1,62.9,33.8,110.1,52.9c14.5,5.8,29.3,11.6,43.3,16.8c6.1,2.3,8.5,9.7,4.9,15.1c-17,25.7-52.2,76.3-76.2,175.4
	c0,0-19.1,94.4-20.8,109.2c0,0,1.8,27.3,70.7,16.8l113.4-259.4C3770.5,2907.7,3813.5,2826.3,3803.7,2800.2z"/>
<path class="st6" d="M3598.9,2284.6l-53.2-19.6c-39.8-13.1-31.3-36-31.3-36h-41h-0.6h-41c0,0,8.6,22.9-31.3,36l-53.2,19.7
	l125.8,15.1L3598.9,2284.6z"/>
<path class="st27" d="M3400.8,2260.3c0.1,0,0.2,0,0.3,0l23.3,120.2l0.2,0.8l18.8,97.2l6.6,157.2h40.9l9.4-151.4l19.9-102.7
	l23.3-120.3c-4.9-2.6-11.6-5.4-17.9-6.3c0,0,4.5,32.5-46.5,33.8c-57.3,1.5-58.1-33.8-58.1-33.8c-7.1,0.7-13.8,3.4-20.3,5.3
	C3400.6,2260.3,3400.7,2260.2,3400.8,2260.3L3400.8,2260.3z"/>
<path class="st35" d="M3714.5,2495.5l-33.3-126.5c-21.4-85.4-138.7-108.6-138.7-108.6l-70.7,363l-68.4-364c0,0-119.6,24.2-141,109.6
	l-33.3,126.5c0,0-6.9,25.8-1.4,61.3c2.3,14.9,8.3,29,17.4,41.1l27.1,36.1l57.4-12.5l-34.8-59.4c0,0,0.2-24.5,5.1-38.1l29.7-71.7
	l11.6,114.6l5.1,86.5h125.4h0.4h125.4l5.1-86.5l11.6-114.6l29.7,71.7c4.9,13.6,5.1,38.1,5.1,38.1l-34.8,59.4l57.4,12.5l27.1-36.1
	c9.1-12.1,15.1-26.2,17.4-41.1C3721.4,2521.4,3714.5,2495.5,3714.5,2495.5z"/>
<ellipse class="st7" cx="3476" cy="2100.6" rx="104.1" ry="148.6"/>
<path class="st8" d="M3361.7,2071.9c-1.8-21-3.5-53.1,7.7-85.1c7.1-20.3,16.7-44.8,36.6-53.1c24.6-10.3,7.5,6.5,58.8-3.7
	c21.9-4.3,42.3-15.3,77.8-5.2c0,0,34.9,10.7,45.2,89.9c0,0.1,0,0.2,0.1,0.3c0.4,2.2,4.6,25.7,3,55.1c-0.3,5.1-5.3,29.8-9.4,32.8
	c-6.4,4.7-6.5-0.9-7-1.2c-2.1-1,2.8-30,2.5-32.3c-1.8-13.3-11.2-55.2-32.9-65.7c-0.1-0.1-13.6-4.6-35.9,6.3
	c-43.1,20.9-63.3,2.6-68.9,1c-0.4-0.1-6.9-3.9-7.3-4.1c-4.2-2-28.9-12.2-41.2,10.5c-0.1,0.2-0.3,0.5-0.4,0.7
	c-1.6,2.3-12.6,18.1-16.6,54c-0.2,2.1,4.8,28,4.2,30.6c0,0-6.3,3.1-7.3-0.9C3370.3,2100.7,3362.7,2083.1,3361.7,2071.9z"/>
<path class="st8" d="M3574.1,2100.7c0.3,4.1-4.4,25.5-9.8,37.4c-1.3,2.9-2.5,5.7-3.7,8.2c-7.2,15.9-26.6,25.9-41.9,17.5
	c-7.6-4.2-12.1-8.9-32.5-11.6l-10.3,0.1l-10.3-0.1c-20.4,2.7-24.9,7.4-32.5,11.6c-15.4,8.4-34.7-1.5-41.9-17.5
	c-1.1-2.5-2.4-5.3-3.7-8.2c-5.3-11.9-10.1-33.3-9.8-37.4h-7.5c0.9,13.8,2.6,27.9,5.6,40.5c0,0,14.7,102.5,95.9,108
	c0,0,1.4,0.2,4,0.2v0c0.1,0,0.1,0,0.2,0v0c0,0,0.1,0,0.1,0c0,0,0.1,0,0.1,0v0c0.1,0,0.1,0,0.2,0v0c2.5,0,4-0.2,4-0.2
	c81.2-5.5,95.9-108,95.9-108c2.9-12.6,4.6-26.7,5.6-40.5H3574.1z"/>
<path class="st25" d="M3665.7,3154.3c0,0-2.4,44.6,7.9,68l-81.6-8.2c0,0,12.8-24.3-0.1-59.8H3665.7z"/>
<path class="st25" d="M3295.2,3147.1c0,0,2.4,44.6-7.9,68l81.6-8.2c0,0-12.8-24.3,0.1-59.8H3295.2z"/>
<path class="st20" d="M3302,3210.2c-5.8-0.5-10.8-2-14.2-4.1c-2.4,2.3-5.4,5-8.8,7.9c-0.1,0.1-0.3,0.3-0.5,0.4
	c-2.3,2-4.8,4.1-7.5,6.3c-0.1,0.1-0.2,0.1-0.3,0.2c-1,0.8-2.1,1.7-3.2,2.5c-0.2,0.1-0.5,0.4-0.7,0.5c-2.3,1.8-4.8,3.7-7.3,5.6
	c-0.5,0.4-1.1,0.8-1.6,1.2c-1,0.7-2,1.4-3,2.1c-0.7,0.5-1.5,1.1-2.2,1.6c-2.1,1.4-4.2,2.9-6.5,4.3c-1,0.8-2.2,1.4-3.3,2.1
	c-8.5,5.4-17.7,10.4-27.4,14.5c-1.7,0.7-3.4,1.5-5.1,2.1c-33.8,13-36.8,31.8-35.7,41.4c0.4,3.9,1.5,6.3,1.5,6.3s13.7,7,31.5,7.4
	c65.4,1.4,167.4-33.8,167.4-33.8s7.3-8.7,4.8-28.8c-0.1-0.9-0.2-1.9-0.4-2.9c-0.2-1.4-9.6-39.4-13.2-50.2c-8.4,2.9-21.8,7.1-46,12
	c-2.2,0.5-4.1,0.8-6,1c-1.2,0.2-2.4,0.3-3.5,0.4c-2.2,0.2-4.1,0.2-5.8,0.1l-0.2,0l-0.7,0c-0.1-0.1-0.1-0.1-0.2-0.1L3302,3210.2z"/>
<path class="st36" d="M3206.8,3300.2c-14.8-0.3-27-4.9-31.9-7.1c-0.2,2.1-0.1,4.1,0,5.7c0.4,3.9,1.5,6.3,1.5,6.3s13.7,7,31.6,7.4
	c65.3,1.4,167.4-33.8,167.4-33.8s3.3-3.9,4.7-12.5C3353.5,3274.8,3266.2,3301.4,3206.8,3300.2z"/>
<path class="st20" d="M3659.2,3217.4c5.8-0.5,10.8-2,14.2-4.1c2.4,2.3,5.4,5,8.8,7.9c0.1,0.1,0.3,0.3,0.5,0.4c2.3,2,4.8,4.1,7.5,6.3
	c0.1,0.1,0.2,0.1,0.3,0.2c1,0.8,2.1,1.7,3.2,2.5c0.2,0.1,0.5,0.4,0.7,0.5c2.3,1.8,4.8,3.7,7.3,5.6c0.5,0.4,1.1,0.8,1.6,1.2
	c1,0.7,2,1.4,3,2.1c0.7,0.5,1.5,1.1,2.2,1.6c2.1,1.4,4.2,2.9,6.5,4.3c1,0.8,2.2,1.4,3.3,2.1c8.5,5.4,17.7,10.4,27.4,14.5
	c1.7,0.7,3.4,1.5,5.1,2.1c33.8,13,36.8,31.8,35.7,41.4c-0.4,3.9-1.5,6.3-1.5,6.3s-13.7,7-31.5,7.4c-65.4,1.4-167.4-33.8-167.4-33.8
	s-7.3-8.7-4.8-28.8c0.1-0.9,0.2-1.9,0.4-2.9c0.2-1.4,9.6-39.4,13.2-50.2c8.4,2.9,21.8,7.1,46,12c2.2,0.5,4.1,0.8,6,1
	c1.2,0.2,2.4,0.3,3.5,0.4c2.2,0.2,4.1,0.2,5.8,0.1l0.2,0l0.7,0c0.1-0.1,0.1-0.1,0.2-0.1L3659.2,3217.4z"/>
<path class="st36" d="M3754.5,3307.4c14.8-0.3,27-4.9,31.9-7.1c0.2,2.1,0.1,4.1,0,5.7c-0.4,3.9-1.5,6.3-1.5,6.3s-13.7,7-31.6,7.4
	c-65.3,1.4-167.4-33.8-167.4-33.8s-3.3-3.9-4.7-12.5C3607.8,3282.1,3695.1,3308.7,3754.5,3307.4z"/>
<path class="st21" d="M3376.9,3167h-95.4c-4,0-7.2-3.2-7.2-7.2V3133c0-4,3.2-7.2,7.2-7.2h95.4c4,0,7.2,3.2,7.2,7.2v26.8
	C3384.1,3163.8,3380.8,3167,3376.9,3167z"/>
<path class="st21" d="M3583.6,3168.2h95.4c4,0,7.2-3.2,7.2-7.2v-26.8c0-4-3.2-7.2-7.2-7.2h-95.4c-4,0-7.2,3.2-7.2,7.2v26.8
	C3576.4,3165,3579.6,3168.2,3583.6,3168.2z"/>
<path class="st22" d="M3683.1,2670h-412.3c-11.3,0-20.4-9.1-20.4-20.4v-244.3c0-11.3,9.1-20.4,20.4-20.4h412.3
	c11.3,0,20.4,9.1,20.4,20.4v244.3C3703.5,2660.9,3694.3,2670,3683.1,2670z"/>
<g>
	<g>
		<path class="st23" d="M3254,2661.1c3.6,5.5,9.9,9.3,17,9.3h412.3c11.3,0,20.2-9.3,20.2-20.6v-244.3c0-5-1.7-9.5-4.7-13.1
			L3254,2661.1z"/>
	</g>
</g>
<path class="st24" d="M3698.7,2669.2h-443.2c-4.1,0-7.4,3.3-7.4,7.4v11c0,4.1,3.3,7.4,7.4,7.4h443.2c4.1,0,7.4-3.3,7.4-7.4v-11
	C3706.1,2672.5,3702.8,2669.2,3698.7,2669.2z"/>
</svg>
