<?xml version="1.0" encoding="utf-8"?>
<!-- Generator: Adobe Illustrator 22.1.0, SVG Export Plug-In . SVG Version: 6.00 Build 0)  -->
<svg version="1.1" id="_x32_aaf6dea-f5da-4445-9251-37af7c547efe"
	 xmlns="http://www.w3.org/2000/svg" xmlns:xlink="http://www.w3.org/1999/xlink" x="0px" y="0px" viewBox="0 0 838 773.5"
	 style="enable-background:new 0 0 838 773.5;" xml:space="preserve">
<style type="text/css">
	.st0{fill:url(#SVGID_1_);}
	.st1{fill:#FFFFFF;}
	.st2{fill:#6C63FF;}
	.st3{fill:none;stroke:#6C63FF;stroke-width:5;stroke-miterlimit:10;}
	.st4{fill:url(#SVGID_2_);}
	.st5{fill:url(#SVGID_3_);}
	.st6{clip-path:url(#SVGID_5_);}
	.st7{fill:url(#SVGID_6_);}
	.st8{clip-path:url(#SVGID_8_);}
	.st9{fill:#BDBDBD;}
	.st10{fill:#FF5252;}
	.st11{fill:#464353;}
	.st12{fill:#514E7F;}
	.st13{opacity:0.1;enable-background:new    ;}
	.st14{opacity:0.5;fill:#6C63FF;enable-background:new    ;}
</style>
<title>photos</title>
<linearGradient id="SVGID_1_" gradientUnits="userSpaceOnUse" x1="635.8726" y1="-38.1432" x2="635.8726" y2="640.7168" gradientTransform="matrix(0.9902 0.1399 0.1399 -0.9902 -176.2388 587.1512)">
	<stop  offset="0" style="stop-color:#808080;stop-opacity:0.25"/>
	<stop  offset="0.54" style="stop-color:#808080;stop-opacity:0.12"/>
	<stop  offset="1" style="stop-color:#808080;stop-opacity:0.1"/>
</linearGradient>
<polygon class="st0" points="153.1,672.2 248,0 838,83.3 743,755.5 "/>
<rect x="170.7" y="82.9" transform="matrix(0.1399 -0.9902 0.9902 0.1399 56.5129 812.7702)" class="st1" width="650.7" height="581.8"/>
<rect id="_x31_5fa7734-96da-431a-a67f-b368dfbdb931" x="270.9" y="35.6" transform="matrix(0.1399 -0.9902 0.9902 0.1399 138.8276 757.8615)" class="st2" width="469.5" height="526.9"/>
<rect id="_x36_968f8e0-9aea-4d3d-90e1-4904e891fc16" x="270.9" y="35.6" transform="matrix(0.1399 -0.9902 0.9902 0.1399 138.8276 757.8615)" class="st3" width="469.5" height="526.9"/>
<linearGradient id="SVGID_2_" gradientUnits="userSpaceOnUse" x1="364.825" y1="0.4812" x2="364.825" y2="679.3412" gradientTransform="matrix(1 0 0 -1 0 774.0012)">
	<stop  offset="0" style="stop-color:#808080;stop-opacity:0.25"/>
	<stop  offset="0.54" style="stop-color:#808080;stop-opacity:0.12"/>
	<stop  offset="1" style="stop-color:#808080;stop-opacity:0.1"/>
</linearGradient>
<rect x="66.9" y="94.7" class="st4" width="595.8" height="678.9"/>
<rect x="73.9" y="104.8" class="st1" width="581.8" height="650.7"/>
<linearGradient id="SVGID_3_" gradientUnits="userSpaceOnUse" x1="363.245" y1="111.7412" x2="363.245" y2="594.7112" gradientTransform="matrix(1 0 0 -1 0 774.0012)">
	<stop  offset="0" style="stop-color:#808080;stop-opacity:0.25"/>
	<stop  offset="0.54" style="stop-color:#808080;stop-opacity:0.12"/>
	<stop  offset="1" style="stop-color:#808080;stop-opacity:0.1"/>
</linearGradient>
<rect x="96.4" y="116" class="st5" width="533.6" height="483"/>
<g>
	<defs>
		<rect id="SVGID_4_" x="96.4" y="116" width="533.6" height="483"/>
	</defs>
	<clipPath id="SVGID_5_">
		<use xlink:href="#SVGID_4_"  style="overflow:visible;"/>
	</clipPath>
	<g class="st6">
		
			<linearGradient id="SVGID_6_" gradientUnits="userSpaceOnUse" x1="551.8546" y1="62.0219" x2="551.8546" y2="440.728" gradientTransform="matrix(1 0 0 -1 -147.54 710.7612)">
			<stop  offset="0" style="stop-color:#808080;stop-opacity:0.25"/>
			<stop  offset="0.54" style="stop-color:#808080;stop-opacity:0.12"/>
			<stop  offset="1" style="stop-color:#808080;stop-opacity:0.1"/>
		</linearGradient>
		<path class="st7" d="M211.3,395.8c17.4,19.2,31.8,43,55,54.2c33.7,16.2,74.8-0.1,102.6-25.4s47.3-58.7,73.5-85.7
			c75.3-77.4,203.3-89.2,297.3-37c13.4,7.5,26.5,16.3,35.9,28.4c12.3,15.9,17.6,36.1,21.6,55.9c8.9,44.3,12.6,89.4,11.1,134.5
			c-1,30.7-6.8,65.4-32.1,82.3c-8,5.3-17.2,8.3-26.4,11c-135.9,40.1-280,37.3-421.4,31.3c-105.4-4.5-212-10.8-312.7-43
			c-4.6-1.5-9.5-3.2-12.5-7.1c-3.4-4.4-3.5-10.5-3-16c1.4-18.3,7-35.9,11.2-53.7c8.7-37.1,11.5-75.4,8.3-113.4
			c-2.8-33.7-21.7-62.1,17.3-71.5C98.1,325.6,169.2,349.3,211.3,395.8z"/>
	</g>
</g>
<rect id="_x36_b8b7763-08eb-41e9-84db-926332f3d231" x="100.4" y="120" class="st1" width="526.9" height="469.5"/>
<g>
	<defs>
		<rect id="SVGID_7_" x="100.4" y="120" width="526.9" height="469.5"/>
	</defs>
	<clipPath id="SVGID_8_">
		<use xlink:href="#SVGID_7_"  style="overflow:visible;"/>
	</clipPath>
	<g class="st8">
		<path class="st9" d="M213.8,391.8c17.2,18.7,31.3,41.8,54.3,52.7c33.3,15.8,73.8-0.1,101.3-24.7s46.7-57.1,72.6-83.3
			c74.4-75.2,200.7-86.7,293.5-36c13.3,7.3,26.1,15.8,35.5,27.6c12.2,15.4,17.4,35.1,21.3,54.3c8.8,43,12.4,86.9,10.9,130.7
			c-1,29.8-6.8,63.6-31.7,80c-7.9,5.2-17,8-26,10.7c-134.2,39-276.5,36.3-416.1,30.4c-104.1-4.4-209.3-10.6-308.7-41.8
			c-4.6-1.4-9.4-3.1-12.4-6.9c-3.3-4.3-3.4-10.2-3-15.6c1.4-17.8,6.9-34.9,11.1-52.2c8.6-36.1,11.3-73.3,8.2-110.3
			c-2.8-32.7-21.4-60.4,17.1-69.5C102,323.6,172.3,346.8,213.8,391.8z"/>
	</g>
</g>
<circle class="st10" cx="165.7" cy="185.3" r="38.3"/>
<rect x="73.9" y="671.1" class="st2" width="581.8" height="84.4"/>
<polygon class="st11" points="447.1,600.3 440.9,600.3 395.7,366.9 389.9,600.3 383.3,600.3 376,367.3 331.9,600.3 325,600.3 
	354.9,360.4 355.9,352.6 414.6,346.1 416.4,360.4 "/>
<rect x="284.9" y="299.3" class="st11" width="37.4" height="23.2"/>
<path class="st11" d="M501.8,289.1l22.6-9.1h5c1.5,0,2.7,1.2,2.7,2.7v63.7c0,1.5-1.2,2.7-2.7,2.7h-5l-22.6-9.4V289.1z"/>
<rect x="455.6" y="292" class="st11" width="46.2" height="44.8"/>
<rect x="375.4" y="207.9" class="st12" width="29.8" height="5.4"/>
<rect x="341.4" y="214.9" class="st12" width="83.8" height="61.1"/>
<rect x="341.4" y="268.8" class="st13" width="83.8" height="7.2"/>
<rect x="454.9" y="292" class="st13" width="1.9" height="44.8"/>
<rect x="309.5" y="299.3" class="st13" width="12.8" height="23.2"/>
<polygon class="st13" points="416.4,360.4 354.9,360.4 355.9,352.6 414.6,346.1 "/>
<path class="st12" d="M318.2,270h130c4.1,0,7.5,3.3,7.5,7.5v74.3c0,4.1-3.3,7.5-7.5,7.5h-130c-4.1,0-7.5-3.3-7.5-7.5v-74.3
	C310.7,273.3,314,270,318.2,270z"/>
<path class="st12" d="M501.4,289.1h0.4l0,0v50.6l0,0h-0.4c-2,0-3.6-1.6-3.6-3.6l0,0v-43.3C497.8,290.8,499.4,289.1,501.4,289.1z"/>
<path class="st12" d="M524.4,280h4.7c1.7,0,3,1.3,3,3v63.1c0,1.7-1.3,3-3,3h-4.7l0,0V280L524.4,280z"/>
<rect x="284.9" y="299.3" class="st13" width="6.7" height="23.2"/>
<path class="st12" d="M282.4,292h3c2.8,0,5,2.2,5,5v29.4c0,2.8-2.2,5-5,5h-3c-2.8,0-5-2.2-5-5V297C277.4,294.3,279.6,292,282.4,292z
	"/>
<circle class="st11" cx="341.4" cy="214.9" r="41.7"/>
<circle class="st2" cx="341.4" cy="214.9" r="31.3"/>
<circle class="st11" cx="418.8" cy="215.8" r="30.4"/>
<circle class="st2" cx="418.8" cy="215.8" r="22.8"/>
<circle class="st2" cx="416.4" cy="283.3" r="4"/>
<circle class="st14" cx="429.2" cy="283.3" r="4"/>
<path class="st13" d="M315.2,275.9c0,0-7.7,9-6.3,13.9L315.2,275.9z"/>
<path class="st13" d="M335.3,280.3c0,0-11.5,10.2-9.8,11.4L335.3,280.3z"/>
<path class="st13" d="M342.4,292.8c0,0-1.2,6.7,0.7,7L342.4,292.8z"/>
</svg>
