<?xml version="1.0" encoding="utf-8"?>
<!-- Generator: Adobe Illustrator 22.1.0, SVG Export Plug-In . SVG Version: 6.00 Build 0)  -->
<svg version="1.1" id="Layer_1" xmlns="http://www.w3.org/2000/svg" xmlns:xlink="http://www.w3.org/1999/xlink" x="0px" y="0px"
	 viewBox="0 0 451.3 382" style="enable-background:new 0 0 451.3 382;" xml:space="preserve">
<style type="text/css">
	.st0{fill:#073B5B;}
	.st1{fill:#70CCDA;}
	.st2{fill:#C6EBF0;}
	.st3{fill:#10AAC1;}
	.st4{fill:#0C8091;}
</style>
<g id="Layer_2_1_">
	<circle class="st0" cx="224.4" cy="191" r="191"/>
</g>
<g id="OBJECTS">
	<g>
		
			<image style="overflow:visible;opacity:0.5;enable-background:new    ;" width="457" height="314" xlink:href="827C1268.png"  transform="matrix(1 0 0 1 3 59.0379)">
		</image>
		<g>
			<g>
				<g>
					<g>
						<g>
							<g>
								<polygon class="st1" points="156,120 297.8,120 226.9,49.1 								"/>
							</g>
						</g>
						<g>
							<g>
								<polygon class="st1" points="14.2,120 156,120 85.1,49.1 								"/>
							</g>
						</g>
						<g>
							<g>
								<polygon class="st2" points="85.1,49.1 156,120 226.9,49.1 								"/>
							</g>
						</g>
						<g>
							<g>
								<polygon class="st2" points="226.9,49.1 297.8,120 368.7,49.1 								"/>
							</g>
						</g>
						<g>
							<g>
								<polygon class="st1" points="369.1,49.1 368.7,49.1 297.8,120 440,120 								"/>
							</g>
						</g>
					</g>
					<g>
						<g>
							<g>
								<polygon class="st2" points="14.2,120 227,332.8 156,120 								"/>
							</g>
						</g>
						<g>
							<g>
								<polygon class="st3" points="156,120 227,332.8 297.8,120 								"/>
							</g>
						</g>
						<g>
							<g>
								<polygon class="st4" points="297.8,120 227,332.8 439.8,120 								"/>
							</g>
						</g>
					</g>
				</g>
			</g>
		</g>
	</g>
</g>
</svg>
