<?xml version="1.0" encoding="utf-8"?>
<!-- Generator: Adobe Illustrator 22.1.0, SVG Export Plug-In . SVG Version: 6.00 Build 0)  -->
<svg version="1.1" id="Layer_1" xmlns="http://www.w3.org/2000/svg" xmlns:xlink="http://www.w3.org/1999/xlink" x="0px" y="0px"
	 viewBox="0 0 422.4 401.5" style="enable-background:new 0 0 422.4 401.5;" xml:space="preserve">
<style type="text/css">
	.st0{fill:#14293E;}
	.st1{fill:#0A151F;}
	.st2{fill:#00989E;}
	.st3{fill:#17C5CC;}
	.st4{fill:#FEB52A;}
	.st5{fill:#FFCAA6;}
	.st6{fill:#6C99CB;}
	.st7{fill:#9BB6D4;}
	.st8{fill:#F2B78F;}
	.st9{fill:#D38411;}
	.st10{fill:#B6896B;}
	.st11{fill:#A5F6FA;}
	.st12{fill:#073B5B;}
	.st13{fill:#FF4C01;}
	.st14{fill:#C03901;}
	.st15{fill:#517398;}
	.st16{fill:#B3B3B3;}
	.st17{fill:#EFEFEF;}
	.st18{fill:#FFFFFF;}
	.st19{fill:#787878;}
	.st20{fill:#FFD95E;}
	.st21{fill:#868686;}
	.st22{fill:#E1E1E1;}
	.st23{fill:#FAFEFF;}
	.st24{fill:#2D2D2D;}
	.st25{fill:#D1D1D1;}
</style>
<g>
	<g>
		<g>
			<g>
				<path class="st0" d="M325.5,391.3l4.1,7.3h34v-11.8l-4.1-7.3h-3h-7.2l-3.8-3.1h-1.3v-0.8l2.3-4l5.9-4.4v-5.8v-7.1l-4.1-7.1h-4.1
					h-9.4h-4.1l-4.1,7.1v7.1v5.8l5.9,4.4l2.3,4v0.8h-1.2l-3.8,3.1h-7.3h-3l-4.1,7.3v4.5h7.2H325.5z M349.3,379.5L349.3,379.5
					L349.3,379.5L349.3,379.5z"/>
			</g>
			<g>
				<path class="st0" d="M281.4,398.6l4.1-7.3h3.1h7v-4.4l-4.1-7.3h-10.1l-3.8-3.1h-1.3v-0.8l2.3-4l5.9-4.4v-13l-4.1-7.1h-17.7
					l-4.1,7.1v13l5.9,4.4l2.3,4v0.8h-1.2l-3.8,3.1h-10.3l-4.1,7.3v11.7L281.4,398.6L281.4,398.6z M281.4,379.6L281.4,379.6
					L281.4,379.6L281.4,379.6z"/>
			</g>
			<g>
				<path class="st1" d="M285.5,391.3l-4.1,7.3l0,0h48.2l-4.1-7.3h-2.9h-7.2l0,0l-3.8-3.1h-1.3v-0.8l2.3-4l5.9-4.4v-5.8v-7.1
					l-4.1-7.1h-4.1h-9.4h-4.1l-4.1,7.1v7.1v5.8l5.9,4.4l2.3,4v0.8h-1.2l-3.8,3.1h-0.2h-7H285.5z M315.3,391.3L315.3,391.3
					L315.3,391.3L315.3,391.3z"/>
			</g>
			<g>
				<path class="st1" d="M217.7,391.3l-4.1,7.3l0,0h48.2l-4.1-7.3h-2.9h-7.2l0,0l-3.8-3.1h-1.3v-0.8l2.3-4l5.9-4.4v-5.8v-7.1
					l-4.1-7.1h-4.1h-9.4H229l-4.1,7.1v7.1v5.8l5.9,4.4l2.3,4v0.8h-1.2l-3.8,3.1h-0.2h-7H217.7z M247.5,391.3L247.5,391.3
					L247.5,391.3L247.5,391.3z"/>
			</g>
		</g>
	</g>
	<g>
		<g>
			<g>
				<path class="st2" d="M119.5,87.3l4.1-7.3h3.1h7v-4.4l-4.1-7.3h-10.1l-3.8-3.1h-1.3v-0.8l2.3-4l5.9-4.4V43l-4.1-7.1h-17.7
					L96.7,43v13l5.9,4.4l2.3,4v0.8h-1.2l-3.8,3.1H89.6l-4.1,7.3v11.7L119.5,87.3L119.5,87.3z M119.4,68.3L119.4,68.3L119.4,68.3
					L119.4,68.3z"/>
			</g>
			<g>
				<path class="st3" d="M55.7,80l-4.1,7.3l0,0h48.2L95.7,80h-2.9h-7.2l0,0l-3.8-3.1h-1.3v-0.8l2.3-4l5.9-4.4v-5.8v-7.2l-4.1-7.1
					h-4.1h-9.4H67l-4.1,7.1v7.1v5.9l5.9,4.4l2.3,4v0.8h-1.2L66.1,80h-0.2h-7H55.7z M85.5,80L85.5,80L85.5,80L85.5,80z"/>
			</g>
		</g>
	</g>
	<g>
		<path class="st4" d="M195.5,401.5L195.5,401.5c-6-0.3-12-0.9-17.9-1.7c-0.6-0.1-1-0.7-0.9-1.3c0.1-0.6,0.6-1,1.3-0.9
			c5.8,0.8,11.7,1.4,17.6,1.7c0.6,0,1.1,0.6,1.1,1.2C196.6,401.1,196.1,401.5,195.5,401.5z M215.6,401.5c-0.6,0-1.1-0.5-1.1-1
			c0-0.6,0.4-1.1,1-1.2c5.9-0.3,11.8-0.9,17.6-1.8c0.6-0.1,1.2,0.3,1.3,0.9c0.1,0.6-0.3,1.2-0.9,1.3
			C227.6,400.5,221.6,401.1,215.6,401.5C215.6,401.4,215.6,401.5,215.6,401.5z M158.2,395.9c-0.1,0-0.2,0-0.3,0
			c-5.8-1.5-11.5-3.3-17.1-5.3c-0.6-0.2-0.9-0.8-0.7-1.4s0.8-0.9,1.4-0.7c5.5,2,11.2,3.8,16.9,5.2c0.6,0.2,1,0.8,0.8,1.4
			C159.1,395.5,158.7,395.9,158.2,395.9z M252.9,395.5c-0.5,0-0.9-0.3-1.1-0.8c-0.2-0.6,0.2-1.2,0.8-1.4c5.7-1.5,11.4-3.3,16.9-5.4
			c0.6-0.2,1.2,0.1,1.4,0.7c0.2,0.6-0.1,1.2-0.7,1.4c-5.6,2.1-11.3,3.9-17.1,5.4C253.1,395.5,253,395.5,252.9,395.5z M122.7,382.7
			c-0.2,0-0.3,0-0.5-0.1c-5.3-2.6-10.6-5.5-15.7-8.7c-0.5-0.3-0.7-1-0.4-1.5s1-0.7,1.5-0.4c5,3.1,10.2,6,15.5,8.6
			c0.6,0.3,0.8,0.9,0.5,1.5C123.5,382.5,123.1,382.7,122.7,382.7z M288.3,382.2c-0.4,0-0.8-0.2-1-0.6c-0.3-0.5-0.1-1.2,0.5-1.5
			c5.3-2.6,10.5-5.5,15.4-8.7c0.5-0.3,1.2-0.2,1.5,0.4c0.3,0.5,0.2,1.2-0.4,1.5c-5.1,3.2-10.3,6.1-15.6,8.8
			C288.6,382.1,288.4,382.2,288.3,382.2z M90.6,362.7c-0.2,0-0.5-0.1-0.7-0.2c-4.7-3.6-9.3-7.6-13.6-11.6c-0.4-0.4-0.5-1.1,0-1.6
			c0.4-0.4,1.1-0.5,1.6,0c4.3,4,8.8,7.9,13.5,11.5c0.5,0.4,0.6,1.1,0.2,1.6C91.3,362.6,90.9,362.7,90.6,362.7z M320.2,361.9
			c-0.3,0-0.7-0.1-0.9-0.4c-0.4-0.5-0.3-1.2,0.2-1.6c4.6-3.6,9.1-7.5,13.4-11.6c0.4-0.4,1.1-0.4,1.6,0c0.4,0.4,0.4,1.1,0,1.6
			c-4.3,4.1-8.9,8.1-13.6,11.7C320.7,361.9,320.5,361.9,320.2,361.9z M63.2,336.7c-0.3,0-0.6-0.1-0.8-0.4c-3.9-4.5-7.6-9.3-11-14.1
			c-0.4-0.5-0.2-1.2,0.3-1.5c0.5-0.4,1.2-0.2,1.5,0.3c3.4,4.8,7.1,9.5,10.9,14c0.4,0.5,0.3,1.2-0.1,1.6
			C63.7,336.6,63.4,336.7,63.2,336.7z M347.5,335.7c-0.3,0-0.5-0.1-0.7-0.3c-0.5-0.4-0.5-1.1-0.1-1.6c3.8-4.5,7.4-9.2,10.8-14
			c0.3-0.5,1-0.6,1.5-0.3c0.5,0.3,0.6,1,0.3,1.5c-3.4,4.9-7.1,9.7-10.9,14.2C348.1,335.6,347.8,335.7,347.5,335.7z M41.5,305.7
			c-0.4,0-0.8-0.2-1-0.6c-2.9-5.2-5.6-10.6-8-16.1c-0.2-0.6,0-1.2,0.6-1.5c0.6-0.2,1.2,0,1.5,0.6c2.4,5.4,5,10.7,7.9,15.9
			c0.3,0.5,0.1,1.2-0.4,1.5C41.9,305.7,41.7,305.7,41.5,305.7z M368.9,304.6c-0.2,0-0.4,0-0.5-0.1c-0.5-0.3-0.7-1-0.4-1.5
			c2.8-5.2,5.4-10.5,7.8-15.9c0.2-0.6,0.9-0.8,1.5-0.6c0.6,0.2,0.8,0.9,0.6,1.5c-2.3,5.5-5,10.9-7.9,16.1
			C369.7,304.4,369.3,304.6,368.9,304.6z M26.6,271c-0.5,0-0.9-0.3-1.1-0.8c-1.8-5.7-3.3-11.5-4.5-17.3c-0.1-0.6,0.3-1.2,0.9-1.3
			c0.6-0.1,1.2,0.3,1.3,0.9c1.2,5.8,2.7,11.5,4.5,17.1c0.2,0.6-0.1,1.2-0.7,1.4C26.8,271,26.7,271,26.6,271z M383.6,269.7
			c-0.1,0-0.2,0-0.3,0c-0.6-0.2-0.9-0.8-0.7-1.4c1.7-5.6,3.2-11.4,4.4-17.2c0.1-0.6,0.7-1,1.3-0.9c0.6,0.1,1,0.7,0.9,1.3
			c-1.2,5.8-2.7,11.7-4.4,17.4C384.5,269.4,384.1,269.7,383.6,269.7z M19,234c-0.6,0-1-0.4-1.1-1c-0.6-5.9-0.9-11.9-1-17.9
			c0-0.6,0.5-1.1,1.1-1.1l0,0c0.6,0,1.1,0.5,1.1,1.1c0,5.9,0.4,11.8,1,17.7C20.2,233.4,19.7,234,19,234C19.1,234,19,234,19,234z
			 M391,232.7h-0.1c-0.6-0.1-1.1-0.6-1-1.2c0.6-5.8,0.8-11.8,0.8-17.7v-0.4c0-0.6,0.5-1.1,1.1-1.1s1.1,0.5,1.1,1.1v0.4
			c0,6-0.3,12-0.8,17.9C392,232.2,391.5,232.7,391,232.7z M18.9,196.2L18.9,196.2c-0.7-0.1-1.2-0.6-1.1-1.2
			c0.6-5.9,1.5-11.9,2.6-17.7c0.1-0.6,0.7-1,1.3-0.9c0.6,0.1,1,0.7,0.9,1.3c-1.1,5.8-2,11.7-2.6,17.5
			C20,195.7,19.5,196.2,18.9,196.2z M390.7,194.4c-0.6,0-1-0.4-1.1-1c-0.6-5.9-1.6-11.7-2.8-17.5c-0.1-0.6,0.3-1.2,0.9-1.3
			s1.2,0.3,1.3,0.9c1.2,5.8,2.1,11.8,2.8,17.7C391.9,193.8,391.4,194.4,390.7,194.4C390.8,194.4,390.7,194.4,390.7,194.4z
			 M26.5,159.1c-0.1,0-0.2,0-0.3-0.1c-0.6-0.2-0.9-0.8-0.7-1.4c1.8-5.7,3.8-11.3,6.2-16.8c0.2-0.6,0.9-0.8,1.5-0.6s0.8,0.9,0.6,1.5
			c-2.3,5.4-4.3,11-6.1,16.6C27.4,158.8,26.9,159.1,26.5,159.1z M382.8,157.5c-0.5,0-0.9-0.3-1.1-0.8c-1.8-5.6-3.9-11.2-6.2-16.6
			c-0.2-0.6,0-1.2,0.6-1.5c0.6-0.2,1.2,0,1.5,0.6c2.4,5.5,4.5,11.1,6.3,16.8c0.2,0.6-0.1,1.2-0.7,1.4
			C383,157.5,382.9,157.5,382.8,157.5z M41.3,124.4c-0.2,0-0.4,0-0.5-0.1c-0.5-0.3-0.7-1-0.4-1.5c2.9-5.2,6.1-10.3,9.4-15.2
			c0.3-0.5,1-0.6,1.5-0.3s0.6,1,0.3,1.5c-3.3,4.9-6.5,9.9-9.3,15.1C42.1,124.1,41.7,124.4,41.3,124.4z M367.6,122.9
			c-0.4,0-0.8-0.2-1-0.6c-2.9-5.1-6.1-10.2-9.5-15c-0.4-0.5-0.2-1.2,0.3-1.5c0.5-0.4,1.2-0.2,1.5,0.3c3.4,4.9,6.6,10,9.6,15.2
			c0.3,0.5,0.1,1.2-0.4,1.5C368,122.8,367.8,122.9,367.6,122.9z M62.9,93.3c-0.3,0-0.5-0.1-0.7-0.3c-0.5-0.4-0.5-1.1-0.1-1.6
			c3.9-4.5,8-8.9,12.3-13c0.4-0.4,1.1-0.4,1.6,0c0.4,0.4,0.4,1.1,0,1.6c-4.2,4.1-8.3,8.4-12.2,12.9C63.6,93.2,63.2,93.3,62.9,93.3z
			 M345.8,92c-0.3,0-0.6-0.1-0.8-0.4c-3.9-4.4-8-8.7-12.3-12.8c-0.4-0.4-0.5-1.1,0-1.6c0.4-0.4,1.1-0.5,1.6,0
			c4.3,4.1,8.5,8.4,12.4,12.9c0.4,0.5,0.4,1.2-0.1,1.6C346.3,91.9,346,92,345.8,92z M90.3,67.2c-0.3,0-0.7-0.1-0.9-0.4
			c-0.4-0.5-0.3-1.2,0.2-1.6c4.7-3.7,9.6-7.1,14.7-10.3c0.5-0.3,1.2-0.2,1.5,0.3s0.2,1.2-0.3,1.5c-5,3.1-9.8,6.6-14.5,10.2
			C90.8,67.1,90.5,67.2,90.3,67.2z M318.1,66.2c-0.2,0-0.5-0.1-0.7-0.2c-4.7-3.6-9.6-7-14.6-10.1c-0.5-0.3-0.7-1-0.4-1.5
			c0.3-0.5,1-0.7,1.5-0.4c5.1,3.1,10,6.6,14.8,10.2c0.5,0.4,0.6,1.1,0.2,1.6C318.8,66,318.5,66.2,318.1,66.2z M122.3,47.2
			c-0.4,0-0.8-0.2-1-0.6c-0.3-0.5,0-1.2,0.5-1.5c5.3-2.6,10.9-5,16.4-7.1c0.6-0.2,1.2,0.1,1.4,0.6c0.2,0.6-0.1,1.2-0.6,1.4
			c-5.5,2.1-11,4.5-16.2,7.1C122.7,47.1,122.5,47.2,122.3,47.2z M285.9,46.4c-0.2,0-0.3,0-0.5-0.1c-5.3-2.6-10.8-4.9-16.3-6.9
			c-0.6-0.2-0.9-0.8-0.7-1.4c0.2-0.6,0.9-0.9,1.4-0.7c5.6,2.1,11.1,4.4,16.5,7c0.6,0.3,0.8,0.9,0.5,1.5
			C286.7,46.2,286.3,46.4,285.9,46.4z M157.8,34c-0.5,0-0.9-0.3-1.1-0.8c-0.2-0.6,0.2-1.2,0.8-1.4c5.8-1.5,11.7-2.7,17.5-3.7
			c0.6-0.1,1.2,0.3,1.3,0.9c0.1,0.6-0.3,1.2-0.9,1.3c-5.8,0.9-11.6,2.1-17.3,3.6C158,34,157.9,34,157.8,34z M250.4,33.5
			c-0.1,0-0.2,0-0.3,0c-5.7-1.4-11.5-2.6-17.4-3.5c-0.6-0.1-1-0.7-0.9-1.3s0.6-1,1.3-0.9c5.9,0.9,11.8,2.1,17.6,3.5
			c0.6,0.1,1,0.8,0.8,1.3C251.3,33.2,250.9,33.5,250.4,33.5z M195.1,28.2c-0.6,0-1.1-0.5-1.1-1.1s0.4-1.1,1.1-1.2
			c5.9-0.3,12-0.3,17.9-0.1c0.6,0,1.1,0.5,1.1,1.2c0,0.6-0.6,1.1-1.2,1.1C207,27.9,201,27.9,195.1,28.2
			C195.2,28.2,195.1,28.2,195.1,28.2z"/>
	</g>
	<g>
		<g>
			<g>
				<g>
					<g>
						<polygon class="st5" points="329.4,54.4 329.4,44.7 325.7,51.2 325.7,54.4 						"/>
					</g>
					<g>
						<g>
							<polygon class="st6" points="347,35.2 343.3,35.2 343.3,35.2 341.3,33.6 338.3,33.6 338.3,35.2 338.2,35.2 338.2,35.4 
								346.6,43.8 							"/>
						</g>
						<g>
							<polygon class="st7" points="338.2,35.4 338.2,39.4 338.3,46.6 346.6,43.8 							"/>
						</g>
					</g>
					<g>
						<g>
							<polygon class="st6" points="338.3,33.6 335.2,33.6 333.2,35.2 333.5,40.2 338.3,35.4 							"/>
						</g>
						<g>
							<polygon class="st7" points="338.2,39.3 338.3,39.3 338.3,35.4 333.5,40.2 334.3,50.4 338.3,46.6 338.2,39.4 							"/>
						</g>
					</g>
					<g>
						<polygon class="st1" points="329.5,35.2 327.8,35.2 325.7,39 325.7,51.2 329.5,51.2 329.5,39.4 						"/>
					</g>
					<g>
						<polygon class="st8" points="347,44.7 347,54.4 350.7,54.4 350.7,51.2 						"/>
					</g>
					<g>
						<polygon class="st9" points="350.7,39 348.6,35.2 347,35.2 347,53.6 350.7,51.2 						"/>
					</g>
					<g>
						<polygon class="st1" points="342.8,18.4 333.7,18.4 331.5,22.1 331.5,25.8 331.5,28.9 338.2,33.9 345,28.9 345,25.8 345,22.1 
													"/>
					</g>
					<g>
						<polygon class="st5" points="340.7,18.4 335.8,18.4 333.3,22.7 333.3,22.8 333.3,22.8 331.5,25.8 333.3,28.9 338.2,28.9 
							338.2,22.8 343.2,22.8 						"/>
					</g>
					<g>
						<g>
							<polygon class="st5" points="335.8,30.3 335.8,35.2 338.3,37.2 338.3,30.3 							"/>
						</g>
						<g>
							<polygon class="st8" points="338.3,30.3 338.3,37.2 340.7,35.2 340.7,30.3 							"/>
						</g>
					</g>
					<g>
						<polygon class="st8" points="343.2,22.8 338.2,22.8 338.2,28.9 333.3,28.9 335.8,33.2 340.7,33.2 345,25.8 						"/>
					</g>
					<g>
						<polygon class="st10" points="339.4,28.9 337.1,28.9 336.5,29.4 337.1,29.9 339.4,29.9 340,29.4 						"/>
					</g>
					<g>
						<polygon class="st0" points="340.7,18.4 335.8,18.4 334.7,20.3 338.2,21.7 341.8,20.3 						"/>
					</g>
					<g>
						<g>
							<polygon class="st9" points="329.4,35.2 329.5,39.4 329.5,41.4 329.4,46.4 329.5,57.1 338.3,57.1 338.3,46.6 333.2,35.2 
															"/>
						</g>
					</g>
					<g>
						<g>
							<polygon class="st4" points="347.1,35.2 347,39.4 347,41.4 347.1,46.4 347,54.4 338.2,54.4 338.3,46.6 343.3,35.2 							"/>
						</g>
					</g>
					<g>
						<polygon class="st2" points="338.3,37.3 339.7,43.2 338.3,46.6 336.8,43.2 						"/>
					</g>
					<g>
						<polygon class="st11" points="338.3,37.2 339.3,36.4 340.2,37.3 338.3,39.2 336.3,37.3 337.2,36.4 						"/>
					</g>
				</g>
				<g>
					<g>
						<g>
							<g>
								<polygon class="st12" points="337,25.4 335.9,24.4 335.6,24.4 334.5,25.4 334.9,25.8 335.8,25 336.6,25.8 								"/>
							</g>
						</g>
					</g>
					<g>
						<g>
							<g>
								<polygon class="st12" points="341.9,25.4 340.9,24.4 340.5,24.4 339.5,25.4 339.8,25.8 340.7,25 341.5,25.8 								"/>
							</g>
						</g>
					</g>
				</g>
			</g>
		</g>
		<g>
			<g>
				<g>
					<g>
						<polygon class="st5" points="285.1,54.4 285.1,44.7 281.4,51.2 281.4,54.4 						"/>
					</g>
					<g>
						<g>
							<polygon class="st13" points="302.7,35.2 298.9,35.2 299,35.2 297,33.6 293.9,33.6 293.9,35.2 293.9,35.2 293.9,35.4 
								302.3,43.8 							"/>
						</g>
						<g>
							<polygon class="st14" points="293.9,35.4 293.9,39.4 293.9,46.6 302.3,43.8 							"/>
						</g>
					</g>
					<g>
						<g>
							<polygon class="st13" points="293.9,33.6 290.8,33.6 288.9,35.2 289.1,40.2 293.9,35.4 							"/>
						</g>
						<g>
							<polygon class="st14" points="293.9,39.3 293.9,39.3 293.9,35.4 289.1,40.2 290,50.4 293.9,46.6 293.9,39.4 							"/>
						</g>
					</g>
					<g>
						<polygon class="st15" points="285.1,35.2 283.5,35.2 281.4,39 281.4,51.2 285.1,54.4 285.1,39.4 						"/>
					</g>
					<g>
						<polygon class="st8" points="302.6,44.7 302.6,54.4 306.3,54.4 306.3,51.2 						"/>
					</g>
					<g>
						<polygon class="st0" points="306.3,39 304.2,35.2 302.7,35.2 302.6,53.6 306.3,51.2 						"/>
					</g>
					<g>
						<polygon class="st16" points="298.5,18.4 289.3,18.4 287.2,22.1 287.2,25.8 287.2,28.9 293.9,33.9 300.6,28.9 300.6,25.8 
							300.6,22.1 						"/>
					</g>
					<g>
						<polygon class="st5" points="296.4,18.4 291.5,18.4 289,22.7 288.9,22.8 288.9,22.8 287.2,25.8 288.9,28.9 293.9,28.9 
							293.9,22.8 298.9,22.8 						"/>
					</g>
					<g>
						<g>
							<polygon class="st5" points="291.5,30.3 291.5,35.2 293.9,37.2 293.9,30.3 							"/>
						</g>
						<g>
							<polygon class="st8" points="293.9,30.3 293.9,37.2 296.4,35.2 296.4,30.3 							"/>
						</g>
					</g>
					<g>
						<polygon class="st8" points="298.9,22.8 293.9,22.8 293.9,28.9 288.9,28.9 291.5,33.2 296.4,33.2 300.6,25.8 						"/>
					</g>
					<g>
						<polygon class="st10" points="295.1,28.9 292.7,28.9 292.2,29.4 292.7,29.9 295.1,29.9 295.6,29.4 						"/>
					</g>
					<g>
						<polygon class="st17" points="296.4,18.4 291.5,18.4 290.4,20.3 293.9,21.7 297.5,20.3 						"/>
					</g>
					<g>
						<g>
							<polygon class="st6" points="285.1,35.2 285.1,39.4 285.1,41.4 285.1,46.4 285.1,57.1 293.9,57.1 293.9,46.6 288.9,35.2 
															"/>
						</g>
					</g>
					<g>
						<g>
							<polygon class="st15" points="302.7,35.2 302.7,39.4 302.7,41.4 302.7,46.4 302.7,54.4 293.9,59.5 293.9,46.6 299,35.2 
															"/>
						</g>
					</g>
					<g>
						<polygon class="st1" points="293.9,37.3 295.4,43.2 293.9,46.6 292.5,43.2 						"/>
					</g>
					<g>
						<polygon class="st0" points="293.9,37.2 294.9,36.4 295.9,37.3 293.9,39.2 292,37.3 292.9,36.4 						"/>
					</g>
				</g>
				<g>
					<g>
						<g>
							<g>
								<polygon class="st12" points="292.6,25.4 291.6,24.4 291.2,24.4 290.2,25.4 290.6,25.8 291.4,25 292.3,25.8 								"/>
							</g>
						</g>
					</g>
					<g>
						<g>
							<g>
								<polygon class="st12" points="297.6,25.4 296.5,24.4 296.2,24.4 295.1,25.4 295.5,25.8 296.4,25 297.2,25.8 								"/>
							</g>
						</g>
					</g>
				</g>
			</g>
		</g>
		<g>
			<g>
				<g>
					<g>
						<g>
							<polygon class="st0" points="362.3,52.6 357.8,52.6 357.9,52.6 355.5,50.7 351.8,50.7 348.1,50.7 345.7,52.6 346,58.6 
								351.8,52.8 351.8,52.8 361.9,62.9 							"/>
						</g>
						<g>
							<polygon class="st1" points="351.8,52.8 351.8,52.8 346,58.6 347,70.9 351.8,66.2 361.9,62.9 							"/>
						</g>
					</g>
					<g>
						<polygon class="st2" points="341.2,64 341.2,57.6 341.2,52.6 339.2,52.6 336.7,57.1 336.7,64 336.7,71.9 336.7,75.6 
							341.3,75.6 341.3,64 						"/>
					</g>
					<g>
						<polygon class="st3" points="364.2,52.6 362.3,52.6 362.3,71.9 362.3,75.6 366.8,75.6 366.8,71.9 366.8,57.1 						"/>
					</g>
					<g>
						<polygon class="st9" points="357.3,32.3 346.3,32.3 343.7,36.8 343.7,41.2 343.7,44.9 351.8,50.9 359.9,44.9 359.9,41.2 
							359.9,36.8 						"/>
					</g>
					<g>
						<polygon class="st5" points="354.7,32.3 348.8,32.3 345.9,37.4 345.8,37.6 345.8,37.6 343.7,41.2 345.8,44.9 351.8,44.9 
							351.8,37.6 357.8,37.6 						"/>
					</g>
					<g>
						<g>
							<polygon class="st5" points="348.8,46.6 348.8,52.6 351.8,55 351.8,46.6 							"/>
						</g>
						<g>
							<polygon class="st8" points="351.8,46.6 351.8,55 354.7,52.6 354.7,46.6 							"/>
						</g>
					</g>
					<g>
						<polygon class="st8" points="357.8,37.6 351.8,37.6 351.8,44.9 345.8,44.9 348.8,50.2 354.7,50.2 359.9,41.2 						"/>
					</g>
					<g>
						<polygon class="st10" points="353.2,44.9 350.3,44.9 349.7,45.5 350.3,46.2 353.2,46.2 353.8,45.5 						"/>
					</g>
					<g>
						<polygon class="st4" points="354.7,32.3 348.8,32.3 347.5,34.6 351.8,36.2 356,34.6 						"/>
					</g>
					<g>
						<g>
							<polygon class="st3" points="341.2,52.6 341.2,57.6 341.2,60 341.2,66.1 341.2,75.6 351.8,75.6 351.8,66.2 345.7,52.6 
															"/>
						</g>
					</g>
					<g>
						<g>
							<polygon class="st2" points="362.4,52.6 362.4,57.6 362.4,60 362.4,66.1 362.4,75.6 351.8,75.6 351.8,66.2 357.9,52.6 
															"/>
						</g>
					</g>
					<g>
						<polygon class="st14" points="351.8,55.1 353.6,62.2 351.8,66.2 350,62.2 						"/>
					</g>
					<g>
						<polygon class="st13" points="351.8,55 353,54 354.1,55.1 351.8,57.4 349.5,55.1 350.6,54 						"/>
					</g>
				</g>
				<g>
					<g>
						<g>
							<g>
								<polygon class="st12" points="350.3,40.8 349,39.5 348.6,39.5 347.3,40.8 347.8,41.2 348.8,40.2 349.8,41.2 								"/>
							</g>
						</g>
					</g>
					<g>
						<g>
							<g>
								<polygon class="st12" points="356.2,40.8 355,39.5 354.5,39.5 353.3,40.8 353.7,41.2 354.8,40.2 355.8,41.2 								"/>
							</g>
						</g>
					</g>
				</g>
			</g>
		</g>
		<g>
			<g>
				<g>
					<g>
						<g>
							<polygon class="st17" points="291,52.6 286.5,52.6 286.5,52.6 284.2,50.6 280.5,50.6 280.5,52.6 280.4,52.6 280.4,52.7 
								290.6,62.9 							"/>
						</g>
						<g>
							<polygon class="st18" points="280.4,52.7 280.4,57.6 280.5,66.2 290.6,62.9 							"/>
						</g>
					</g>
					<g>
						<g>
							<polygon class="st17" points="280.5,50.6 276.7,50.6 274.4,52.6 274.7,58.5 280.5,52.8 							"/>
						</g>
						<g>
							<polygon class="st18" points="280.4,57.5 280.5,57.5 280.5,52.8 274.7,58.5 275.7,70.9 280.5,66.2 280.4,57.6 							"/>
						</g>
					</g>
					<g>
						<polygon class="st19" points="267.9,52.6 265.3,57.1 265.3,71.8 265.3,71.9 265.3,75.6 269.8,75.6 269.8,71.9 269.8,71.9 
							269.8,57.6 269.8,52.6 						"/>
					</g>
					<g>
						<polygon class="st16" points="292.9,52.6 291,52.6 291,64 291,64 291,75.6 295.4,75.6 295.4,71.9 295.4,64 295.4,57.1 						
							"/>
					</g>
					<g>
						<polygon class="st14" points="286,32.3 274.9,32.3 272.3,36.8 272.3,41.2 272.3,44.9 280.4,50.9 288.6,44.9 288.6,41.2 
							288.6,36.8 						"/>
					</g>
					<g>
						<polygon class="st5" points="283.4,32.3 277.5,32.3 274.5,37.4 274.4,37.6 274.4,37.6 272.3,41.2 274.4,44.9 280.4,44.9 
							280.4,37.6 286.4,37.6 						"/>
					</g>
					<g>
						<g>
							<polygon class="st5" points="277.5,46.6 277.5,52.6 280.5,55 280.5,46.6 							"/>
						</g>
						<g>
							<polygon class="st8" points="280.5,46.6 280.5,55 283.4,52.6 283.4,46.6 							"/>
						</g>
					</g>
					<g>
						<polygon class="st8" points="286.4,37.6 280.4,37.6 280.4,44.9 274.4,44.9 277.5,50.2 283.4,50.2 288.6,41.2 						"/>
					</g>
					<g>
						<polygon class="st10" points="281.9,44.9 279,44.9 278.4,45.5 279,46.2 281.9,46.2 282.5,45.5 						"/>
					</g>
					<g>
						<polygon class="st13" points="283.4,32.3 277.5,32.3 276.2,34.6 280.4,36.2 284.7,34.6 						"/>
					</g>
					<g>
						<g>
							<polygon class="st16" points="269.8,52.6 269.8,57.6 269.8,60 269.8,66.1 269.8,75.6 280.5,75.6 280.5,66.2 274.4,52.6 
															"/>
						</g>
					</g>
					<g>
						<g>
							<polygon class="st19" points="291.1,52.6 291.1,57.6 291.1,60 291.1,66.1 291.1,75.6 280.4,75.6 280.5,66.2 286.5,52.6 
															"/>
						</g>
					</g>
					<g>
						<polygon class="st7" points="280.5,55.1 282.2,62.2 280.5,66.2 278.7,62.2 						"/>
					</g>
					<g>
						<polygon class="st6" points="280.5,55 281.7,54 282.8,55.1 280.5,57.4 278.1,55.1 279.2,54 						"/>
					</g>
				</g>
				<g>
					<g>
						<g>
							<g>
								<polygon class="st12" points="278.9,40.8 277.7,39.5 277.2,39.5 276,40.8 276.4,41.2 277.4,40.2 278.5,41.2 								"/>
							</g>
						</g>
					</g>
					<g>
						<g>
							<g>
								<polygon class="st12" points="284.9,40.8 283.6,39.5 283.2,39.5 282,40.8 282.4,41.2 283.4,40.2 284.4,41.2 								"/>
							</g>
						</g>
					</g>
				</g>
			</g>
		</g>
		<g>
			<g>
				<g>
					<polygon class="st1" points="316.1,88.9 316.1,75.6 306.8,75.6 303.3,75.6 303.3,88.9 303.3,100 314.5,100 314.5,88.9 					"/>
				</g>
				<g>
					<g>
						<polygon class="st1" points="317.8,100 317.8,124.1 329,124.1 329,108.1 						"/>
					</g>
					<g>
						<polygon points="316.1,75.6 316.1,88.9 317.8,88.9 317.8,100 329,111.2 329,100 329,88.9 329,75.6 						"/>
					</g>
				</g>
				<g>
					<g>
						<polygon points="303.3,100 314.5,111.3 314.5,109.2 314.5,108.3 314.5,100 						"/>
					</g>
					<g>
						<polygon class="st1" points="303.3,100 303.3,124.1 314.5,124.1 314.5,111.3 						"/>
					</g>
				</g>
				<g>
					<g>
						<rect x="305.6" y="124.1" width="6.6" height="3.3"/>
					</g>
					<g>
						<rect x="305.6" y="127.4" class="st0" width="6.6" height="3.3"/>
					</g>
					<g>
						<rect x="320.1" y="127.4" class="st0" width="6.6" height="3.3"/>
					</g>
					<g>
						<rect x="320.1" y="124.1" width="6.6" height="3.3"/>
					</g>
				</g>
			</g>
			<g>
				<g>
					<g>
						<polygon class="st5" points="301.6,75.6 301.6,50.9 295.4,70.5 295.4,75.6 						"/>
					</g>
					<g>
						<polygon class="st14" points="330.6,35.2 324.4,35.2 324.5,35.2 321.3,32.6 316.2,32.6 316.2,35.2 316.1,35.2 316.1,35.4 
							330,49.3 						"/>
					</g>
					<g>
						<g>
							<polygon class="st14" points="316.2,32.6 311,32.6 307.8,35.2 308.2,43.4 316.2,35.5 							"/>
						</g>
						<g>
							<polygon class="st13" points="316.1,35.4 316.1,35.5 308.2,43.4 309.6,69.2 316.2,53.9 330,49.3 							"/>
						</g>
					</g>
					<g>
						<polygon class="st14" points="301.6,35.2 299,35.2 295.4,41.4 295.4,70.5 301.6,70.5 301.6,42 						"/>
					</g>
					<g>
						<polygon class="st8" points="330.6,50.9 330.6,75.6 336.7,75.6 336.7,70.5 						"/>
					</g>
					<g>
						<polygon class="st13" points="336.7,41.4 333.2,35.2 330.6,35.2 330.6,70.5 336.7,70.5 						"/>
					</g>
					<g>
						<polygon class="st9" points="323.7,7.4 308.6,7.4 305,13.5 305,19.6 305,24.6 316.1,32.9 327.2,24.6 327.2,19.6 327.2,13.5 
													"/>
					</g>
					<g>
						<polygon class="st5" points="320.2,7.4 312.1,7.4 308,14.4 307.9,14.6 307.9,14.6 305,19.6 307.9,24.6 316.1,24.6 316.1,14.6 
							324.3,14.6 						"/>
					</g>
					<g>
						<g>
							<polygon class="st5" points="312.1,27 312.1,35.2 316.2,38.5 316.2,27 							"/>
						</g>
						<g>
							<polygon class="st8" points="316.2,27 316.2,38.5 320.2,35.2 320.2,27 							"/>
						</g>
					</g>
					<g>
						<polygon class="st8" points="324.3,14.6 316.1,14.6 316.1,24.6 307.9,24.6 312.1,31.9 320.2,31.9 327.2,19.6 						"/>
					</g>
					<g>
						<polygon class="st10" points="318.1,24.6 314.2,24.6 313.3,25.5 314.2,26.4 318.1,26.4 319,25.5 						"/>
					</g>
					<g>
						<polygon class="st4" points="320.2,7.4 312.1,7.4 310.3,10.5 316.1,12.8 322,10.5 						"/>
					</g>
					<g>
						<g>
							<polygon class="st0" points="301.6,35.2 301.6,42 301.6,45.4 301.6,53.7 301.6,75.6 316.2,75.6 316.2,53.9 307.8,35.2 
															"/>
						</g>
					</g>
					<g>
						<g>
							<polygon class="st1" points="330.7,35.2 330.7,42 330.7,45.4 330.7,53.7 330.7,75.6 316.1,75.6 316.2,53.9 324.5,35.2 
															"/>
						</g>
					</g>
					<g>
						<polygon class="st17" points="316.2,38.6 318.6,48.4 316.2,53.9 313.7,48.4 						"/>
					</g>
					<g>
						<polygon class="st18" points="316.2,38.5 317.8,37.1 319.3,38.6 316.2,41.8 313,38.6 314.5,37.1 						"/>
					</g>
				</g>
				<g>
					<g>
						<g>
							<g>
								<polygon class="st12" points="314,19 312.3,17.3 311.7,17.3 310,19 310.6,19.6 312,18.2 313.4,19.6 								"/>
							</g>
						</g>
					</g>
					<g>
						<g>
							<g>
								<polygon class="st12" points="322.2,19 320.5,17.3 319.9,17.3 318.2,19 318.8,19.6 320.2,18.2 321.6,19.6 								"/>
							</g>
						</g>
					</g>
				</g>
			</g>
		</g>
	</g>
	<g>
		<ellipse class="st20" cx="204.9" cy="213.9" rx="159.8" ry="159.8"/>
		<path class="st4" d="M204.9,381.6c-92.4,0-167.6-75.2-167.6-167.6S112.5,46.3,204.9,46.3s167.6,75.2,167.6,167.6
			S297.3,381.6,204.9,381.6z M204.9,61.9C121,61.9,52.8,130.1,52.8,214S121,366.1,204.9,366.1S357,297.9,357,214
			S288.8,61.9,204.9,61.9z"/>
	</g>
	<g>
		<g>
			<g>
				<g>
					<g>
						<rect x="238" y="284.9" class="st5" width="10.8" height="28"/>
					</g>
					<g>
						<g>
							<polygon class="st0" points="300,257.3 289.2,257.3 289.2,257.2 283.5,252.6 274.5,252.6 265.5,252.6 259.8,257.2 
								260.6,271.7 274.5,257.7 274.5,257.7 299,282.1 							"/>
						</g>
						<g>
							<polygon class="st1" points="274.5,257.7 274.5,257.8 260.6,271.7 263,301.5 274.6,290.3 299,282.1 							"/>
						</g>
					</g>
					<g>
						<polygon class="st2" points="248.9,257.3 244.2,257.3 238,268.3 238,303.8 248.9,303.8 248.9,269.3 						"/>
					</g>
					<g>
						<rect x="299.9" y="303.8" class="st8" width="10.8" height="9.1"/>
					</g>
					<g>
						<polygon class="st3" points="310.7,268.3 304.5,257.3 300,257.3 299.9,303.8 310.7,303.8 						"/>
					</g>
					<g>
						<polygon class="st1" points="287.9,208.3 261.2,208.3 254.9,219.1 254.9,229.8 254.9,238.7 274.5,253.2 294.1,238.7 
							294.1,229.8 294.1,219.1 						"/>
					</g>
					<g>
						<polygon class="st5" points="281.6,208.3 267.4,208.3 260.2,220.6 260,221 260,221 254.9,229.8 260,238.7 274.5,238.7 
							274.5,221 289,221 						"/>
					</g>
					<g>
						<g>
							<polygon class="st5" points="267.4,242.8 267.4,257.3 274.5,263.1 274.5,242.8 							"/>
						</g>
						<g>
							<polygon class="st8" points="274.5,242.8 274.5,263.1 281.6,257.3 281.6,242.8 							"/>
						</g>
					</g>
					<g>
						<polygon class="st8" points="289,221 274.5,221 274.5,238.7 260,238.7 267.4,251.4 281.6,251.4 294.1,229.8 						"/>
					</g>
					<g>
						<polygon class="st10" points="277.9,238.7 271.1,238.7 269.5,240.2 271.1,241.8 277.9,241.8 279.5,240.2 						"/>
					</g>
					<g>
						<polygon class="st0" points="281.6,208.3 267.4,208.3 264.2,213.8 274.5,217.7 284.8,213.8 						"/>
					</g>
					<g>
						<g>
							<polygon class="st3" points="248.9,257.3 248.9,269.3 248.9,275.2 248.9,289.9 248.9,312.9 274.6,312.9 274.6,290.3 
								259.8,257.2 							"/>
						</g>
					</g>
					<g>
						<g>
							<polygon class="st2" points="300.2,257.3 300.1,269.3 300.1,275.2 300.2,289.9 300.1,312.9 274.5,312.9 274.6,290.3 
								289.2,257.2 							"/>
						</g>
					</g>
					<g>
						<polygon class="st14" points="274.6,263.3 278.9,280.6 274.6,290.3 270.3,280.6 						"/>
					</g>
					<g>
						<polygon class="st13" points="274.5,263.1 277.5,260.6 280.2,263.3 274.6,268.9 268.9,263.3 271.6,260.7 						"/>
					</g>
				</g>
				<g>
					<g>
						<g>
							<g>
								<polygon class="st12" points="270.8,228.8 267.8,225.7 266.7,225.7 263.7,228.7 264.8,229.8 267.2,227.4 269.7,229.8 
																	"/>
							</g>
						</g>
					</g>
					<g>
						<g>
							<g>
								<polygon class="st12" points="285.3,228.8 282.2,225.7 281.2,225.7 278.2,228.7 279.2,229.8 281.7,227.4 284.2,229.8 
																	"/>
							</g>
						</g>
					</g>
				</g>
			</g>
		</g>
		<g>
			<g>
				<g>
					<g>
						<rect x="99.1" y="303.8" class="st5" width="10.8" height="9.3"/>
					</g>
					<g>
						<g>
							<polygon class="st17" points="161.1,257.4 150.2,257.4 150.3,257.4 144.6,252.8 135.6,252.8 135.6,257.4 135.6,257.4 
								135.6,257.8 160,282.3 							"/>
						</g>
						<g>
							<polygon class="st18" points="135.6,257.8 135.6,269.5 135.6,290.4 160,282.3 							"/>
						</g>
					</g>
					<g>
						<g>
							<polygon class="st17" points="135.6,252.8 126.6,252.8 120.9,257.4 121.7,271.9 135.6,257.9 							"/>
						</g>
						<g>
							<polygon class="st18" points="135.6,269.2 135.6,269.3 135.6,257.9 121.7,271.9 124.1,301.7 135.6,290.4 135.6,269.5 							
								"/>
						</g>
					</g>
					<g>
						<polygon class="st1" points="110,257.4 105.3,257.4 99.1,268.5 99.1,304 110,304 110,269.5 						"/>
					</g>
					<g>
						<rect x="161" y="285.1" class="st8" width="10.8" height="28"/>
					</g>
					<g>
						<polygon class="st0" points="171.8,268.5 165.6,257.4 161.1,257.4 161,304 171.8,304 						"/>
					</g>
					<g>
						<polygon class="st14" points="148.9,208.4 122.2,208.4 116,219.2 116,230 116,238.8 135.6,253.4 155.1,238.8 155.1,230 
							155.1,219.2 						"/>
					</g>
					<g>
						<polygon class="st5" points="142.7,208.4 128.5,208.4 121.3,220.8 121.1,221.2 121.1,221.2 116,230 121.1,238.8 135.6,238.8 
							135.6,221.2 150.1,221.2 						"/>
					</g>
					<g>
						<g>
							<polygon class="st5" points="128.5,243 128.5,257.4 135.6,263.2 135.6,243 							"/>
						</g>
						<g>
							<polygon class="st8" points="135.6,243 135.6,263.2 142.7,257.4 142.7,243 							"/>
						</g>
					</g>
					<g>
						<polygon class="st8" points="150.1,221.2 135.6,221.2 135.6,238.8 121.1,238.8 128.5,251.6 142.7,251.6 155.1,230 						"/>
					</g>
					<g>
						<polygon class="st10" points="139,238.8 132.1,238.8 130.6,240.4 132.1,241.9 139,241.9 140.6,240.4 						"/>
					</g>
					<g>
						<polygon class="st13" points="142.7,208.4 128.5,208.4 125.3,214 135.6,217.9 145.9,214 						"/>
					</g>
					<g>
						<g>
							<polygon class="st0" points="110,257.4 110,269.5 110,275.3 110,290 110,313.1 135.6,313.1 135.6,290.4 120.9,257.4 							
								"/>
						</g>
					</g>
					<g>
						<g>
							<polygon class="st1" points="161.2,257.4 161.2,269.5 161.2,275.3 161.2,290 161.2,313.1 135.6,313.1 135.6,290.4 
								150.3,257.4 							"/>
						</g>
					</g>
					<g>
						<polygon class="st7" points="135.6,263.5 139.9,280.8 135.6,290.4 131.3,280.8 						"/>
					</g>
					<g>
						<polygon class="st6" points="135.6,263.2 138.6,260.8 141.2,263.5 135.6,269.1 130,263.5 132.7,260.9 						"/>
					</g>
				</g>
				<g>
					<g>
						<g>
							<g>
								<polygon class="st12" points="131.9,228.9 128.9,225.9 127.8,225.9 124.8,228.9 125.9,230 128.3,227.6 130.8,230 								
									"/>
							</g>
						</g>
					</g>
					<g>
						<g>
							<g>
								<polygon class="st12" points="146.3,228.9 143.3,225.9 142.2,225.9 139.2,228.9 140.3,230 142.8,227.6 145.2,230 								
									"/>
							</g>
						</g>
					</g>
				</g>
			</g>
		</g>
		<g>
			<g>
				<g>
					<g>
						<polygon class="st5" points="179.5,187.7 179.5,159.7 168.7,178.6 168.7,187.7 						"/>
					</g>
					<g>
						<g>
							<polygon class="st13" points="230.7,132 219.8,132 219.9,132 214.2,127.4 205.2,127.4 205.2,132 205.2,132 205.2,132.4 
								229.7,156.9 							"/>
						</g>
						<g>
							<polygon class="st14" points="205.2,132.4 205.2,144.1 205.2,165 229.7,156.9 							"/>
						</g>
					</g>
					<g>
						<g>
							<polygon class="st13" points="205.2,127.4 196.2,127.4 190.5,132 191.3,146.4 205.2,132.5 							"/>
						</g>
						<g>
							<polygon class="st14" points="205.2,143.8 205.2,143.8 205.2,132.5 191.3,146.4 193.7,176.3 205.2,165 205.2,144.1 							
								"/>
						</g>
					</g>
					<g>
						<polygon class="st1" points="179.6,132 174.9,132 168.7,143 168.7,178.6 179.6,178.6 179.6,144.1 						"/>
					</g>
					<g>
						<polygon class="st8" points="230.6,159.7 230.6,187.7 241.4,187.7 241.4,178.6 						"/>
					</g>
					<g>
						<polygon class="st0" points="241.4,143 235.2,132 230.7,132 230.6,178.6 241.4,178.6 						"/>
					</g>
					<g>
						<polygon class="st1" points="218.5,83 191.8,83 185.6,93.8 185.6,104.6 185.6,113.4 205.2,128 224.8,113.4 224.8,104.6 
							224.8,93.8 						"/>
					</g>
					<g>
						<polygon class="st5" points="212.3,83 198.1,83 190.9,95.4 190.7,95.8 190.7,95.8 185.6,104.6 190.7,113.4 205.2,113.4 
							205.2,95.8 219.7,95.8 						"/>
					</g>
					<g>
						<g>
							<polygon class="st5" points="198.1,117.6 198.1,132 205.2,137.8 205.2,117.6 							"/>
						</g>
						<g>
							<polygon class="st8" points="205.2,117.6 205.2,137.8 212.3,132 212.3,117.6 							"/>
						</g>
					</g>
					<g>
						<polygon class="st8" points="219.7,95.8 205.2,95.8 205.2,113.4 190.7,113.4 198.1,126.2 212.3,126.2 224.8,104.6 						"/>
					</g>
					<g>
						<polygon class="st10" points="208.6,113.4 201.7,113.4 200.2,115 201.7,116.5 208.6,116.5 210.2,115 						"/>
					</g>
					<g>
						<polygon class="st0" points="212.3,83 198.1,83 194.9,88.6 205.2,92.5 215.5,88.6 						"/>
					</g>
					<g>
						<g>
							<polygon class="st0" points="179.6,132 179.6,144.1 179.6,149.9 179.6,164.6 179.6,187.7 205.2,187.7 205.2,165 190.5,132 
															"/>
						</g>
					</g>
					<g>
						<g>
							<polygon class="st1" points="230.8,132 230.8,144.1 230.8,149.9 230.8,164.6 230.8,187.7 205.2,187.7 205.2,165 219.9,132 
															"/>
						</g>
					</g>
					<g>
						<polygon class="st17" points="205.2,138.1 209.5,155.3 205.2,165 200.9,155.3 						"/>
					</g>
					<g>
						<polygon class="st18" points="205.2,137.8 208.2,135.4 210.9,138.1 205.2,143.7 199.6,138.1 202.3,135.4 						"/>
					</g>
				</g>
				<g>
					<g>
						<g>
							<g>
								<polygon class="st12" points="201.5,103.5 198.5,100.5 197.4,100.5 194.4,103.5 195.5,104.6 197.9,102.1 200.4,104.6 
																	"/>
							</g>
						</g>
					</g>
					<g>
						<g>
							<g>
								<polygon class="st12" points="215.9,103.5 212.8,100.5 211.7,100.5 208.8,103.5 209.8,104.6 212.3,102.1 214.8,104.6 
																	"/>
							</g>
						</g>
					</g>
				</g>
			</g>
		</g>
		<g>
			<g>
				<rect x="201.2" y="202.3" class="st3" width="8.2" height="29.1"/>
			</g>
			<g>
				
					<rect x="211.3" y="223.2" transform="matrix(0.707 -0.7072 0.7072 0.707 -107.7814 223.149)" class="st0" width="8.2" height="36.9"/>
			</g>
			<g>
				
					<rect x="176.6" y="237.6" transform="matrix(0.7069 -0.7073 0.7073 0.7069 -113.7558 208.7813)" class="st13" width="36.9" height="8.2"/>
			</g>
		</g>
	</g>
	<g>
		<g>
			<g>
				<g>
					<path class="st6" d="M384.2,327.6c0.4,0.1,0.8,0.1,1.2,0.2c3.5,0.8,6,3.5,6.5,7c0.3,2.6-0.4,5-2.3,6.9
						c-3.3,3.4-6.7,6.7-10.1,10.1c-0.4,0.4-1,0.4-1.4,0.1c-0.4-0.4-0.4-0.9,0.1-1.4c3.3-3.3,6.6-6.6,9.9-9.9
						c1.2-1.2,1.9-2.7,1.9-4.5c0.1-3.4-2.5-6.2-5.8-6.5c-2-0.2-3.7,0.4-5.2,1.8c-4.5,4.4-8.9,8.8-13.3,13.2
						c-2.5,2.5-1.5,6.6,1.7,7.7c1.8,0.6,3.4,0.2,4.8-1.1c2.8-2.8,5.6-5.5,8.4-8.3c1.7-1.6,3.3-3.3,5-4.9c1-1,1.1-2.6,0.2-3.7
						c-1-1.2-2.8-1.4-4-0.4c-0.1,0.1-0.2,0.2-0.3,0.3c-3.3,3.3-6.6,6.6-9.8,9.8c-0.3,0.3-0.6,0.4-1,0.3c-0.6-0.2-0.9-0.9-0.5-1.4
						c0-0.1,0.1-0.1,0.2-0.2c3.3-3.3,6.6-6.6,10-10c2.3-2.3,6.1-1.7,7.5,1.3c0.8,1.8,0.5,3.8-1,5.3c-2.9,2.8-5.7,5.7-8.6,8.5
						c-1.6,1.5-3.1,3.1-4.7,4.6c-1.4,1.4-3.1,2-5.1,1.9c-2.9-0.1-5.4-2.4-5.9-5.2c0-0.2-0.1-0.5-0.1-0.7c0-0.3,0-0.7,0-1
						c0-0.1,0-0.1,0.1-0.2c0.2-1.5,0.8-2.8,1.9-3.9c4.5-4.4,9-8.9,13.5-13.3c1-1,2.2-1.7,3.6-2.1c0.5-0.1,1-0.2,1.5-0.3
						C383.4,327.6,383.8,327.6,384.2,327.6z"/>
				</g>
			</g>
		</g>
	</g>
	<g>
		<g>
			<g>
				<g>
					<path class="st0" d="M230.7,51.6c0.1-0.4,0.1-0.9,0.2-1.3c0.9-3.9,3.9-6.7,7.9-7.2c3-0.4,5.6,0.5,7.7,2.6
						c3.8,3.8,7.6,7.6,11.3,11.3c0.5,0.5,0.5,1.1,0.1,1.5s-1,0.4-1.5-0.1c-3.7-3.7-7.4-7.4-11.1-11.1c-1.4-1.4-3.1-2.1-5-2.2
						c-3.8-0.1-7,2.8-7.3,6.5c-0.2,2.2,0.5,4.2,2,5.8c4.9,5,9.8,10,14.8,15c2.8,2.8,7.4,1.7,8.6-2c0.7-2,0.2-3.8-1.3-5.4
						c-3.1-3.1-6.2-6.3-9.3-9.4c-1.8-1.9-3.7-3.7-5.5-5.6c-1.1-1.2-2.9-1.3-4.1-0.3c-1.4,1.1-1.6,3.1-0.4,4.5
						c0.1,0.1,0.2,0.2,0.3,0.3c3.7,3.7,7.4,7.4,11,11c0.3,0.3,0.5,0.7,0.4,1.1c-0.2,0.7-1,1-1.6,0.5c-0.1-0.1-0.1-0.1-0.2-0.2
						c-3.7-3.7-7.5-7.4-11.2-11.2c-2.6-2.6-1.9-6.8,1.4-8.4c2-0.9,4.3-0.5,5.9,1.1c3.2,3.2,6.3,6.4,9.5,9.6c1.7,1.8,3.5,3.5,5.2,5.3
						c1.6,1.6,2.3,3.5,2.2,5.7c-0.2,3.2-2.7,6.1-5.9,6.6c-0.3,0-0.5,0.1-0.8,0.1c-0.4,0-0.7,0-1.1,0c-0.1,0-0.2-0.1-0.2-0.1
						c-1.7-0.2-3.1-0.9-4.3-2.1c-5-5-10-10.1-15-15.2c-1.1-1.2-1.9-2.5-2.3-4.1c-0.1-0.6-0.2-1.2-0.3-1.7
						C230.7,52.5,230.7,52,230.7,51.6z"/>
				</g>
			</g>
		</g>
	</g>
	<g>
		<g>
			<g>
				<g>
					<path class="st13" d="M42.9,75.8c0.3,0,0.5,0.1,0.8,0.1c2.3,0.5,4.1,2.4,4.4,4.8c0.2,1.8-0.3,3.4-1.6,4.7
						c-2.3,2.3-4.6,4.6-6.9,6.9c-0.3,0.3-0.7,0.3-0.9,0c-0.3-0.3-0.2-0.6,0.1-0.9c2.2-2.2,4.5-4.5,6.7-6.7c0.8-0.8,1.3-1.9,1.3-3.1
						c0-2.3-1.7-4.2-4-4.4c-1.4-0.1-2.5,0.3-3.5,1.2c-3,3-6.1,6-9.1,9c-1.7,1.7-1,4.5,1.2,5.2c1.2,0.4,2.3,0.1,3.2-0.8
						c1.9-1.9,3.8-3.8,5.7-5.6c1.1-1.1,2.3-2.2,3.4-3.4c0.7-0.7,0.8-1.8,0.2-2.5c-0.7-0.8-1.9-1-2.7-0.3c-0.1,0.1-0.1,0.1-0.2,0.2
						c-2.2,2.2-4.5,4.5-6.7,6.7c-0.2,0.2-0.4,0.3-0.7,0.2c-0.4-0.1-0.6-0.6-0.3-1l0.1-0.1c2.3-2.3,4.5-4.5,6.8-6.8
						c1.6-1.6,4.1-1.1,5.1,0.9c0.6,1.2,0.3,2.6-0.7,3.6c-1.9,1.9-3.9,3.8-5.8,5.8c-1.1,1.1-2.1,2.1-3.2,3.2c-1,1-2.1,1.4-3.5,1.3
						c-1.9-0.1-3.7-1.6-4-3.6c0-0.2-0.1-0.3-0.1-0.5s0-0.4,0-0.7c0,0,0-0.1,0-0.2c0.1-1,0.5-1.9,1.3-2.6c3.1-3,6.1-6.1,9.2-9.1
						c0.7-0.7,1.5-1.2,2.5-1.4c0.3-0.1,0.7-0.1,1.1-0.2C42.4,75.8,42.6,75.8,42.9,75.8z"/>
				</g>
			</g>
		</g>
	</g>
	<g>
		<g>
			<g>
				<g>
					<path class="st0" d="M253.6,307.8c0.3,0,0.5,0.1,0.8,0.1c2.3,0.5,4.1,2.4,4.4,4.8c0.2,1.8-0.3,3.4-1.6,4.7
						c-2.3,2.3-4.6,4.6-6.9,6.9c-0.3,0.3-0.7,0.3-0.9,0c-0.3-0.3-0.2-0.6,0.1-0.9c2.2-2.2,4.5-4.5,6.7-6.7c0.8-0.8,1.3-1.9,1.3-3.1
						c0-2.3-1.7-4.2-4-4.4c-1.4-0.1-2.5,0.3-3.5,1.2c-3,3-6.1,6-9.1,9c-1.7,1.7-1,4.5,1.2,5.2c1.2,0.4,2.3,0.1,3.2-0.8
						c1.9-1.9,3.8-3.8,5.7-5.6c1.1-1.1,2.3-2.2,3.4-3.4c0.7-0.7,0.8-1.8,0.2-2.5c-0.7-0.8-1.9-1-2.7-0.3c-0.1,0.1-0.1,0.1-0.2,0.2
						c-2.2,2.2-4.5,4.5-6.7,6.7c-0.2,0.2-0.4,0.3-0.7,0.2c-0.4-0.1-0.6-0.6-0.3-1l0.1-0.1c2.3-2.3,4.5-4.5,6.8-6.8
						c1.6-1.6,4.1-1.1,5.1,0.9c0.6,1.2,0.3,2.6-0.7,3.6c-1.9,1.9-3.9,3.8-5.8,5.8c-1.1,1.1-2.1,2.1-3.2,3.2c-1,1-2.1,1.4-3.5,1.3
						c-1.9-0.1-3.7-1.6-4-3.6c0-0.2-0.1-0.3-0.1-0.5s0-0.4,0-0.7c0,0,0-0.1,0-0.2c0.1-1,0.5-1.9,1.3-2.6c3.1-3,6.1-6.1,9.2-9.1
						c0.7-0.7,1.5-1.2,2.5-1.4c0.3-0.1,0.7-0.1,1.1-0.2C253.1,307.8,253.3,307.8,253.6,307.8z"/>
				</g>
			</g>
		</g>
	</g>
	<g>
		<g>
			<g>
				<g>
					<g>
						<path class="st6" d="M43.8,37.5l-7.7,7.7l-7.7,7.7c-0.6,0.6-0.6,1.5,0,2L38.5,65c0.6,0.6,1.4,0.6,2,0V49.5H56
							c0.6-0.6,0.6-1.4,0-2l-10.2-10C45.3,36.9,44.4,36.9,43.8,37.5z"/>
					</g>
				</g>
			</g>
		</g>
		<g>
			<g>
				<g>
					<g>
						<polygon class="st15" points="40.4,65 55.9,49.5 40.4,49.5 						"/>
					</g>
				</g>
			</g>
		</g>
		<g>
			<g>
				<g>
					<g>
						<polygon class="st7" points="43.8,37.5 28.4,52.9 43.8,52.9 						"/>
					</g>
				</g>
			</g>
		</g>
	</g>
	<g>
		<g>
			<g>
				<g>
					<g>
						<path class="st16" d="M417.6,200v-10.9v-10.9c0-0.8-0.6-1.4-1.4-1.4H402c-0.8,0-1.4,0.6-1.4,1.4l10.9,10.9l-11,10.9
							c0,0.8,0.6,1.4,1.4,1.4h14.2C416.9,201.4,417.6,200.8,417.6,200z"/>
					</g>
				</g>
			</g>
		</g>
		<g>
			<g>
				<g>
					<g>
						<polygon class="st21" points="400.5,178.1 400.5,200 411.4,189.1 						"/>
					</g>
				</g>
			</g>
		</g>
		<g>
			<g>
				<g>
					<g>
						<polygon class="st22" points="417.6,200 417.6,178.1 406.6,189.1 						"/>
					</g>
				</g>
			</g>
		</g>
	</g>
	<g>
		<g>
			<g>
				<g>
					<g>
						<path class="st6" d="M66.2,18.3h-6.8h-6.9c-0.5,0-0.9,0.4-0.9,0.9v8.9c0,0.5,0.4,0.9,0.9,0.9l6.8-6.8l6.8,6.8
							c0.5,0,0.9-0.4,0.9-0.9v-8.9C67.1,18.7,66.7,18.3,66.2,18.3z"/>
					</g>
				</g>
			</g>
		</g>
		<g>
			<g>
				<g>
					<g>
						<polygon class="st15" points="52.5,29 66.2,29 59.3,22.1 						"/>
					</g>
				</g>
			</g>
		</g>
		<g>
			<g>
				<g>
					<g>
						<polygon class="st7" points="66.2,18.3 52.5,18.3 59.3,25.1 						"/>
					</g>
				</g>
			</g>
		</g>
	</g>
	<g>
		<g>
			<g>
				<g>
					<g>
						<path class="st16" d="M407.3,146h-6.8h-6.8c-0.5,0-0.9,0.4-0.9,0.9v8.9c0,0.5,0.4,0.9,0.9,0.9l6.8-6.8l6.8,6.8
							c0.5,0,0.9-0.4,0.9-0.9v-8.9C408.2,146.4,407.8,146,407.3,146z"/>
					</g>
				</g>
			</g>
		</g>
		<g>
			<g>
				<g>
					<g>
						<polygon class="st21" points="393.7,156.7 407.3,156.7 400.5,149.9 						"/>
					</g>
				</g>
			</g>
		</g>
		<g>
			<g>
				<g>
					<g>
						<polygon class="st22" points="407.3,146 393.7,146 400.5,152.9 						"/>
					</g>
				</g>
			</g>
		</g>
	</g>
	<g>
		<g>
			<g>
				<g>
					<path class="st4" d="M366.6,86.8l-3.2-3.2l13.4-13.4l3.2,3.2l4.2,1.6l8.4,8.4c0.1-0.6,0.1-1.2,0.1-1.8
						c0-10.1-8.2-18.2-18.2-18.2c-10.1,0-18.2,8.2-18.2,18.2c0,10.1,8.2,18.2,18.2,18.2c0.8,0,1.5-0.1,2.2-0.1l-8.6-8.6L366.6,86.8z
						"/>
				</g>
			</g>
		</g>
		<g>
			<g>
				<g>
					<path class="st9" d="M392.6,83.4l-8.4-8.4l-4.2-1.6l-3.2-3.2l-13.4,13.4l3.2,3.2l1.6,4.2l8.6,8.6
						C385.1,98.6,391.8,91.8,392.6,83.4z"/>
				</g>
			</g>
		</g>
		<g>
			<g>
				<g>
					<path class="st23" d="M386.1,83.6v-4.1h-2.9c-0.2-0.9-0.6-1.7-1-2.5l2.1-2.1l-2.9-2.9l-2.1,2.1c-0.8-0.5-1.6-0.8-2.5-1v-2.9
						h-4.1v2.9c-0.9,0.2-1.7,0.6-2.5,1l-2.1-2.1l-2.9,2.9l2.1,2.1c-0.5,0.8-0.8,1.6-1,2.5h-2.9v4.1h2.9c0.2,0.9,0.6,1.7,1,2.5
						l-2.1,2.1l2.9,2.9l2.1-2.1c0.8,0.5,1.6,0.8,2.5,1v2.9h4.1V90c0.9-0.2,1.7-0.6,2.5-1l2.1,2.1l2.9-2.9l-2.1-2.1
						c0.5-0.8,0.8-1.6,1-2.5H386.1z M374.7,85.6c-2.2,0-4-1.8-4-4s1.8-4,4-4s4,1.8,4,4S376.9,85.6,374.7,85.6z"/>
				</g>
			</g>
		</g>
	</g>
	<g>
		<g>
			<g>
				<g>
					<path class="st3" d="M48.4,333.5l-3.2-3.2l13.4-13.4l3.2,3.2l4.2,1.6l8.4,8.4c0.1-0.6,0.1-1.2,0.1-1.8
						c0-10.1-8.2-18.2-18.2-18.2c-10.1,0-18.2,8.2-18.2,18.2c0,10.1,8.2,18.2,18.2,18.2c0.8,0,1.5-0.1,2.2-0.1l-8.6-8.6L48.4,333.5z
						"/>
				</g>
			</g>
		</g>
		<g>
			<g>
				<g>
					<path class="st2" d="M74.4,330.1l-8.4-8.4l-4.2-1.6l-3.2-3.2l-13.4,13.4l3.2,3.2l1.6,4.2l8.6,8.6
						C67,345.3,73.6,338.5,74.4,330.1z"/>
				</g>
			</g>
		</g>
		<g>
			<g>
				<g>
					<path class="st23" d="M67.9,330.3v-4.1H65c-0.2-0.9-0.6-1.7-1-2.5l2.1-2.1l-2.9-2.9l-2.1,2.1c-0.8-0.5-1.6-0.8-2.5-1v-2.9h-4.1
						v2.9c-0.9,0.2-1.7,0.6-2.5,1l-2.1-2.1l-2.9,2.9l2.1,2.1c-0.5,0.8-0.8,1.6-1,2.5h-2.9v4.1h2.9c0.2,0.9,0.6,1.7,1,2.5l-2.1,2.1
						l2.9,2.9l2.1-2.1c0.8,0.5,1.6,0.8,2.5,1v2.9h4.1v-2.9c0.9-0.2,1.7-0.6,2.5-1l2.1,2.1l2.9-2.9l-2.1-2.1c0.5-0.8,0.8-1.6,1-2.5
						H67.9z M56.6,332.3c-2.2,0-4-1.8-4-4s1.8-4,4-4s4,1.8,4,4C60.6,330.5,58.8,332.3,56.6,332.3z"/>
				</g>
			</g>
		</g>
	</g>
	<g>
		<g>
			<g>
				<g>
					<path class="st13" d="M391.8,113.5v-2.8h-2c-0.1-0.6-0.4-1.2-0.7-1.7l1.4-1.4l-2-2l-1.4,1.4c-0.5-0.3-1.1-0.6-1.7-0.7v-2h-2.9
						v2c-0.6,0.1-1.2,0.4-1.7,0.7l-1.4-1.4l-2,2l1.4,1.4c-0.3,0.5-0.6,1.1-0.7,1.7h-2v2.8h2c0.1,0.6,0.4,1.2,0.7,1.7l-1.4,1.4l2,2
						l1.4-1.4c0.5,0.3,1.1,0.6,1.7,0.7v2h2.8v-2c0.6-0.1,1.2-0.4,1.7-0.7l1.4,1.4l2-2l-1.4-1.4c0.3-0.5,0.6-1.1,0.7-1.7H391.8z
						 M383.9,114.8c-1.5,0-2.8-1.2-2.8-2.8c0-1.5,1.2-2.8,2.8-2.8c1.5,0,2.8,1.2,2.8,2.8C386.7,113.6,385.5,114.8,383.9,114.8z"/>
				</g>
			</g>
		</g>
	</g>
	<g>
		<g>
			<g>
				<g>
					<path class="st13" d="M15.6,146.9v-2.8h-2c-0.1-0.6-0.4-1.2-0.7-1.7l1.4-1.4l-2-2l-1.4,1.4c-0.5-0.3-1.1-0.6-1.7-0.7v-2H6.4v2
						c-0.6,0.1-1.2,0.4-1.7,0.7L3.3,139l-2,2l1.4,1.4c-0.3,0.5-0.6,1.1-0.7,1.7H0v2.8h2c0.1,0.6,0.4,1.2,0.7,1.7L1.3,150l2,2
						l1.4-1.4c0.5,0.3,1.1,0.6,1.7,0.7v2h2.8v-2c0.6-0.1,1.2-0.4,1.7-0.7l1.4,1.4l2-2l-1.4-1.4c0.3-0.5,0.6-1.1,0.7-1.7H15.6z
						 M7.7,148.2c-1.5,0-2.8-1.2-2.8-2.8c0-1.5,1.2-2.8,2.8-2.8c1.5,0,2.8,1.2,2.8,2.8S9.3,148.2,7.7,148.2z"/>
				</g>
			</g>
		</g>
	</g>
	<g>
		<g>
			<g>
				<g>
					<path class="st18" d="M351.2,209v-2.8h-2c-0.1-0.6-0.4-1.2-0.7-1.7l1.4-1.4l-2-2l-1.4,1.4c-0.5-0.3-1.1-0.6-1.7-0.7v-2H342v2
						c-0.6,0.1-1.2,0.4-1.7,0.7l-1.4-1.4l-2,2l1.4,1.4c-0.3,0.5-0.6,1.1-0.7,1.7h-2v2.8h2c0.1,0.6,0.4,1.2,0.7,1.7l-1.4,1.4l2,2
						l1.4-1.4c0.5,0.3,1.1,0.6,1.7,0.7v2h2.8v-2c0.6-0.1,1.2-0.4,1.7-0.7l1.4,1.4l2-2l-1.4-1.4c0.3-0.5,0.6-1.1,0.7-1.7H351.2z
						 M343.3,210.3c-1.5,0-2.8-1.2-2.8-2.8c0-1.5,1.2-2.8,2.8-2.8c1.5,0,2.8,1.2,2.8,2.8C346.1,209.1,344.8,210.3,343.3,210.3z"/>
				</g>
			</g>
		</g>
	</g>
	<g>
		<g>
			<g>
				<g>
					<path class="st6" d="M422.4,165.4v-2.8h-2c-0.1-0.6-0.4-1.2-0.7-1.7l1.4-1.4l-2-2l-1.4,1.4c-0.5-0.3-1.1-0.6-1.7-0.7v-2h-2.8v2
						c-0.6,0.1-1.2,0.4-1.7,0.7l-1.4-1.4l-2,2l1.4,1.4c-0.3,0.5-0.6,1.1-0.7,1.7h-2v2.8h2c0.1,0.6,0.4,1.2,0.7,1.7l-1.4,1.4l2,2
						l1.4-1.4c0.5,0.3,1.1,0.6,1.7,0.7v2h2.8v-2c0.6-0.1,1.2-0.4,1.7-0.7l1.4,1.4l2-2l-1.4-1.4c0.3-0.5,0.6-1.1,0.7-1.7H422.4z
						 M414.5,166.7c-1.5,0-2.8-1.2-2.8-2.8c0-1.5,1.2-2.8,2.8-2.8c1.5,0,2.8,1.2,2.8,2.8S416,166.7,414.5,166.7z"/>
				</g>
			</g>
		</g>
	</g>
	<g>
		<g>
			<g>
				<polygon class="st0" points="416.3,226.9 411.2,221.7 397.5,235.4 389.8,227.7 384.7,232.8 397.5,245.7 397.5,245.6 
					397.5,245.7 				"/>
			</g>
		</g>
	</g>
	<g>
		<g>
			<g>
				<polygon class="st18" points="91.5,238.8 86.4,233.7 72.7,247.3 65,239.7 59.9,244.8 72.7,257.6 72.7,257.6 72.7,257.6 				"/>
			</g>
		</g>
	</g>
	<g>
		<g>
			<g>
				<polygon class="st9" points="28.3,116.6 24.9,113.2 16.1,122.1 11.1,117.1 7.7,120.4 16.1,128.8 16.1,128.7 16.1,128.8 				"/>
			</g>
		</g>
	</g>
	<g>
		<g>
			<g>
				<polygon class="st3" points="165.5,193.6 162.2,190.3 153.3,199.2 148.4,194.2 145,197.5 153.3,205.8 153.3,205.8 153.4,205.8 
									"/>
			</g>
		</g>
	</g>
	<g>
		<g>
			<g>
				<g>
					<polygon class="st24" points="137.5,331.8 111.2,358 131.7,378.5 143.2,378.5 163.7,358 					"/>
				</g>
			</g>
			<g>
				<g>
					<g>
						<polygon class="st21" points="155.3,346 145.7,336.4 145.7,346 						"/>
					</g>
				</g>
				<g>
					<g>
						<g>
							<polygon class="st25" points="155.3,346 155.3,346 145.7,346 155.3,355.6 							"/>
						</g>
					</g>
					<g>
						<g>
							<polygon class="st23" points="145.7,346 145.7,336.4 119.6,336.4 119.6,380.6 155.3,380.6 155.3,355.6 							"/>
						</g>
					</g>
				</g>
				<g>
					<g>
						<rect x="123.7" y="345.8" class="st4" width="14" height="2.6"/>
					</g>
				</g>
				<g>
					<g>
						<rect x="123.7" y="351" class="st4" width="27.9" height="2.6"/>
					</g>
				</g>
				<g>
					<g>
						<rect x="123.7" y="356.3" class="st4" width="27.9" height="2.6"/>
					</g>
				</g>
				<g>
					<g>
						<rect x="123.7" y="361.5" class="st4" width="27.9" height="2.6"/>
					</g>
				</g>
				<g>
					<g>
						<rect x="137.6" y="366.7" class="st4" width="13.9" height="2.6"/>
					</g>
				</g>
				<g>
					<g>
						<rect x="137.6" y="371.9" class="st4" width="13.9" height="2.6"/>
					</g>
				</g>
				<g>
					<g>
						<rect x="123.7" y="340.6" class="st4" width="14" height="2.6"/>
					</g>
				</g>
				<g>
					<g>
						<polygon class="st14" points="130,366.5 131.1,367.5 132.5,367.3 132.7,368.7 134,369.4 133.4,370.7 134,372 132.7,372.6 
							132.5,374.1 131.1,373.9 130,374.9 129,373.9 127.6,374.1 127.3,372.6 126.1,372 126.7,370.7 126.1,369.4 127.3,368.7 
							127.6,367.3 129,367.5 						"/>
					</g>
				</g>
			</g>
			<g>
				<g>
					<path class="st25" d="M111.2,358c-1.9,0-3.4,1.5-3.4,3.4v34.2c0,1.9,1.5,3.4,3.4,3.4l20.5-20.5L111.2,358z"/>
				</g>
			</g>
			<g>
				<g>
					<path class="st21" d="M163.7,358l-20.5,20.5l20.5,20.5c1.9,0,3.4-1.5,3.4-3.4v-34.2C167.1,359.5,165.6,358,163.7,358z"/>
				</g>
			</g>
			<g>
				<g>
					<polygon class="st16" points="143.2,378.5 131.7,378.5 111.2,399 163.7,399 					"/>
				</g>
			</g>
		</g>
	</g>
	<g>
		<g>
			<g>
				<g>
					<g>
						<path class="st7" d="M356.2,16.4c0.8,0.8,2.1,0.8,2.9,0s0.8-2.1,0-2.9c-0.8-0.8-2.1-0.8-2.9,0
							C355.4,14.3,355.4,15.6,356.2,16.4z"/>
					</g>
				</g>
			</g>
		</g>
		<g>
			<g>
				<g>
					<g>
						<path class="st6" d="M361.1,18.4l2.1,2.1c3.1-3.1,3.1-8,0-11.1l-2.1,2.1C363,13.4,363,16.5,361.1,18.4z"/>
					</g>
				</g>
			</g>
			<g>
				<g>
					<g>
						<path class="st7" d="M352.1,9.4l2.1,2.1c1.9-1.9,4.9-1.9,6.8,0l2.1-2.1C360.2,6.3,355.2,6.3,352.1,9.4z"/>
					</g>
				</g>
			</g>
			<g>
				<g>
					<g>
						<path class="st6" d="M366.1,23.4l2.1,2.1c5.8-5.8,5.8-15.4,0-21.2l-2.1,2.1C370.8,11.2,370.8,18.7,366.1,23.4z"/>
					</g>
				</g>
			</g>
			<g>
				<g>
					<g>
						<path class="st7" d="M347.1,4.4l2.1,2.1c4.7-4.7,12.3-4.7,16.9,0l2.1-2.1C362.4-1.5,352.9-1.5,347.1,4.4z"/>
					</g>
				</g>
			</g>
		</g>
	</g>
	<g>
		<g>
			<g>
				<g>
					<path class="st18" d="M274.6,194.2c-1.2,0-2.3,1-2.3,2.3c0,1.2,1,2.3,2.3,2.3l0,0V194.2L274.6,194.2z"/>
				</g>
				<g>
					<path class="st4" d="M276.8,196.4c0-1.2-1-2.3-2.3-2.3v4.5C275.8,198.7,276.8,197.7,276.8,196.4z"/>
				</g>
			</g>
			<g>
				<path class="st4" d="M274.6,163.4v0.7v24v0.7h4l0.6-0.6v-0.3c0-2.4,0.8-4.8,2.4-6.8c2-1.9,3.2-4.6,3.2-7.4
					C284.8,168,280.2,163.4,274.6,163.4z"/>
			</g>
			<g>
				<path class="st18" d="M274.6,164.1v-0.7c-5.6,0-10.2,4.6-10.2,10.2c0,2.9,1.2,5.7,3.4,7.6c1.4,1.9,2.1,4.2,2.1,6.6v0.1l0.3,0.8
					h4.3C274.6,188.7,274.6,164.1,274.6,164.1z"/>
			</g>
			<g>
				<g>
					<path class="st18" d="M275.4,161.3v-8.4c0-1-1.7-1-1.7,0v8.3C273.7,162.3,275.4,162.3,275.4,161.3z"/>
				</g>
			</g>
			<g>
				<g>
					<path class="st18" d="M262.1,176.1h-8.4c-1,0-1,1.7,0,1.7h8.3C263.2,177.8,263.1,176.1,262.1,176.1z"/>
				</g>
			</g>
			<g>
				<g>
					<path class="st18" d="M295.2,176.1h-8.4c-1,0-1,1.7,0,1.7h8.3C296.3,177.8,296.3,176.1,295.2,176.1z"/>
				</g>
			</g>
			<g>
				<g>
					<path class="st18" d="M285.6,167.2l5.9-5.9c0.7-0.7-0.5-1.9-1.2-1.2l-5.9,5.9C283.7,166.8,284.9,167.9,285.6,167.2z"/>
				</g>
			</g>
			<g>
				<g>
					<path class="st18" d="M264.4,166.2l-5.9-5.9c-0.7-0.7-1.9,0.5-1.2,1.2l5.9,5.9C264,168.1,265.1,166.9,264.4,166.2z"/>
				</g>
			</g>
			<g>
				<path class="st0" d="M277.9,172.5l-0.5,2.4l-1-0.6l-1.8,1.2l-1.8-1.2l-1,0.7l-0.5-2.4c-0.2-1-1.6-0.7-1.3,0.3l3.4,15.4l1.2-0.3
					l1.2,0.3l3.4-15.4C279.4,171.9,278.2,171.4,277.9,172.5z M274.6,187.5l-2.5-11.2l0.7-0.5l1.8,1.2l1.9-1.2l0.7,0.4L274.6,187.5z"
					/>
			</g>
			<g>
				<polygon class="st13" points="274.6,188.7 274.6,187.4 269.9,187.4 269.9,196.4 274.6,196.4 274.6,195.1 274.6,195.1 				"/>
			</g>
			<g>
				<rect x="274.6" y="187.4" class="st14" width="4.6" height="9"/>
			</g>
			<g>
				<g>
					<rect x="269.9" y="192.8" class="st18" width="4.6" height="1.8"/>
				</g>
				<g>
					<rect x="274.6" y="192.8" class="st4" width="4.7" height="1.8"/>
				</g>
				<g>
					<rect x="269.9" y="189.2" class="st18" width="4.6" height="1.8"/>
				</g>
				<g>
					<rect x="274.6" y="189.2" class="st4" width="4.7" height="1.8"/>
				</g>
			</g>
		</g>
	</g>
</g>
</svg>
