<?xml version="1.0" encoding="utf-8"?>
<!-- Generator: Adobe Illustrator 22.1.0, SVG Export Plug-In . SVG Version: 6.00 Build 0)  -->
<svg version="1.1" id="Layer_1" xmlns="http://www.w3.org/2000/svg" xmlns:xlink="http://www.w3.org/1999/xlink" x="0px" y="0px"
	 viewBox="0 0 500 500" style="enable-background:new 0 0 500 500;" xml:space="preserve">
<style type="text/css">
	.st0{fill:#DA4643;}
	.st1{fill:#CE2729;}
	.st2{fill:#FBBE4E;}
	.st3{fill:#00A4A1;}
	.st4{fill:#D39D45;}
	.st5{fill:#007C76;}
	.st6{fill:#3C444F;}
	.st7{fill:#EFF7F0;}
</style>
<g id="OBJECTS">
</g>
<g>
	<path class="st0" d="M498.8,250.6c0,137.2-111.2,248.4-248.4,248.4C113.2,499,2,387.8,2,250.6C2,113.4,113.2,2.2,250.4,2.2
		C387.6,2.2,498.8,113.4,498.8,250.6z"/>
</g>
<g>
	<path class="st1" d="M381.3,360.3L402,344L293,231.1l1.4-11.6L183,171.9l-17.5-3.3l-2-3.2l-5.5,15.7l-11.7-30.8l-72.5-35.8
		l-52.6,40.4C8.8,184.3,2,216.6,2,250.6c0,133.2,104.8,241.9,236.5,248.1L409.3,369L381.3,360.3z"/>
</g>
<g>
	
		<rect x="225.7" y="226.2" transform="matrix(0.9237 -0.3832 0.3832 0.9237 -92.9101 138.8578)" class="st2" width="152.8" height="152.8"/>
	
		<rect x="178.8" y="142.4" transform="matrix(0.9237 -0.3832 0.3832 0.9237 -56.2702 102.4031)" class="st3" width="100.2" height="100.2"/>
	
		<rect x="272.4" y="330.4" transform="matrix(0.9199 -0.3922 0.3922 0.9199 -107.073 150.3965)" class="st4" width="84.4" height="13.8"/>
	<g>
		<g>
			
				<rect x="282.4" y="295" transform="matrix(0.9199 -0.3922 0.3922 0.9199 -100.1513 137.579)" class="st4" width="8.5" height="37.8"/>
			
				<rect x="312.8" y="282" transform="matrix(0.9199 -0.3922 0.3922 0.9199 -92.6144 148.4687)" class="st4" width="8.5" height="37.8"/>
		</g>
	</g>
	
		<rect x="216.6" y="215.9" transform="matrix(0.9199 -0.3922 0.3922 0.9199 -66.9565 112.1245)" class="st5" width="48.8" height="8"/>
	<g>
		
			<rect x="222.4" y="195.5" transform="matrix(0.9198 -0.3925 0.3925 0.9198 -62.9825 104.7917)" class="st5" width="4.9" height="21.9"/>
		
			<rect x="239.9" y="188" transform="matrix(0.9198 -0.3923 0.3923 0.9198 -58.6121 111.0345)" class="st5" width="4.9" height="21.9"/>
	</g>
	<path class="st6" d="M247.3,423.3L138.1,153.9c-8.8-10.7-40.4-20.7-58.6-24.7c-3.8-0.8-6.3-4.6-5.5-8.5c0.8-3.8,4.6-6.3,8.5-5.5
		c5.5,1.2,53.7,12,67.6,30.8l0.5,0.7l0.3,0.8l103.8,256.1c24.3-11.7,105.4-48.9,154.5-48.9c3.9,0,7.1,3.2,7.1,7.1
		c0,3.9-3.2,7.1-7.1,7.1c-53.7,0-154,50.3-155.1,50.8L247.3,423.3z"/>
	<path d="M146.9,167.2c-3.9,0-7.5-2.3-9.1-6.1c-6.9-17-46.1-27.7-59.3-30.2c-5.3-1-8.9-6.1-7.9-11.4c1-5.3,6.1-8.8,11.4-7.9
		c6.3,1.2,61.8,12.2,74,42.1c2,5-0.4,10.7-5.4,12.8C149.3,166.9,148.1,167.2,146.9,167.2z"/>
	<circle cx="252.8" cy="420.7" r="35.3"/>
	<ellipse class="st7" cx="252.8" cy="420.7" rx="21.2" ry="21.2"/>
</g>
</svg>
