<?xml version="1.0" encoding="utf-8"?>
<!-- Generator: Adobe Illustrator 22.1.0, SVG Export Plug-In . SVG Version: 6.00 Build 0)  -->
<svg version="1.1" id="Layer_1" xmlns="http://www.w3.org/2000/svg" xmlns:xlink="http://www.w3.org/1999/xlink" x="0px" y="0px"
	 viewBox="0 0 422.4 401.5" style="enable-background:new 0 0 422.4 401.5;" xml:space="preserve">
<style type="text/css">
	.st0{clip-path:url(#SVGID_2_);}
	.st1{clip-path:url(#SVGID_4_);}
	.st2{fill:#425252;}
	.st3{fill:#D3C5C9;}
	.st4{fill:#2C3737;}
	.st5{fill:#7D818C;}
	.st6{fill:#FFFFFF;}
	.st7{fill:#FF7A00;}
	.st8{fill:#D1920E;}
	.st9{clip-path:url(#SVGID_6_);}
	.st10{clip-path:url(#SVGID_8_);}
	.st11{fill:#B72608;}
	.st12{fill:#940000;}
	.st13{clip-path:url(#SVGID_22_);}
	.st14{clip-path:url(#SVGID_23_);}
	.st15{clip-path:url(#SVGID_24_);}
	.st16{clip-path:url(#SVGID_25_);}
	.st17{clip-path:url(#SVGID_26_);}
	.st18{clip-path:url(#SVGID_27_);}
	.st19{clip-path:url(#SVGID_28_);}
	.st20{clip-path:url(#SVGID_29_);}
	.st21{clip-path:url(#SVGID_30_);}
	.st22{clip-path:url(#SVGID_31_);}
	.st23{clip-path:url(#SVGID_32_);}
	.st24{clip-path:url(#SVGID_33_);}
	.st25{clip-path:url(#SVGID_34_);fill:#B72608;}
	.st26{fill:#FF6A00;}
	.st27{fill:#E84D00;}
	.st28{fill:#F4330A;}
	.st29{fill:#C42108;}
	.st30{clip-path:url(#SVGID_37_);}
	.st31{opacity:0.5;clip-path:url(#SVGID_38_);enable-background:new    ;}
	.st32{clip-path:url(#SVGID_38_);fill:#940000;}
	.st33{fill:none;stroke:#7D818C;stroke-miterlimit:10;}
	.st34{fill:#C9A361;}
	.st35{fill:#E0D494;}
	.st36{fill:#E3CD7D;}
	.st37{fill:#B69FA5;}
	.st38{fill:#F5FAF8;}
</style>
<g>
	<g>
		<g>
			<defs>
				<circle id="SVGID_1_" cx="209.2" cy="201.8" r="198.3"/>
			</defs>
			<clipPath id="SVGID_2_">
				<use xlink:href="#SVGID_1_"  style="overflow:visible;"/>
			</clipPath>
			<g class="st0">
				<g>
					<defs>
						<rect id="SVGID_3_" x="7.7" y="69.6" width="400.6" height="329.7"/>
					</defs>
					<clipPath id="SVGID_4_">
						<use xlink:href="#SVGID_3_"  style="overflow:visible;"/>
					</clipPath>
					<g class="st1">
						<polygon class="st2" points="-74,374.9 410.1,94.6 546.7,175.2 61.6,455.6 						"/>
						<polygon class="st3" points="62.2,455.2 62.2,467.1 -83.6,382.4 -83.4,370.7 						"/>
						<polygon class="st4" points="62.2,453.6 62.2,467.1 452.3,239.2 452.1,229.6 						"/>
						<polygon class="st5" points="62.2,464.7 62.2,476.5 452.4,250.7 452.3,239.2 						"/>
						<polygon class="st5" points="-46.2,393.5 -46.2,405.3 62.1,467.1 62.1,455.2 						"/>
						<polygon class="st5" points="279.7,246 286.1,249.7 264.4,262.6 258,258.9 						"/>
						<polygon class="st5" points="221.2,280.4 227.6,284.1 205.9,297 199.5,293.3 						"/>
						<polygon class="st5" points="162.7,314.9 169.1,318.6 147.4,331.5 141,327.8 						"/>
						<polygon class="st6" points="97.4,353.4 99.2,353.4 103.9,357.1 88.9,365.9 82.5,362.3 						"/>
						<polygon class="st5" points="104.2,349.4 110.6,353 103.9,357.1 97.4,353.4 						"/>
						<polygon class="st6" points="45.7,383.8 52.2,387.5 30.4,400.4 24,396.7 						"/>
						<polygon class="st6" points="337.4,211.5 343.8,215.2 322.1,228.1 315.7,224.4 						"/>
						<polygon class="st6" points="395.1,177.1 401.5,180.8 379.8,193.7 373.4,190 						"/>
						<path class="st7" d="M296.2,243.3"/>
						<polygon class="st8" points="62.2,464.7 62.2,476.5 -83.6,391.9 -83.4,380.3 						"/>
					</g>
				</g>
				<g>
					<defs>
						<circle id="SVGID_5_" cx="209.2" cy="201.8" r="198.3"/>
					</defs>
					<clipPath id="SVGID_6_">
						<use xlink:href="#SVGID_5_"  style="overflow:visible;"/>
					</clipPath>
					<polygon class="st9" points="342.4,268 261.8,221.4 68.7,337 149.7,383.5 					"/>
				</g>
				<g>
					<defs>
						<circle id="SVGID_7_" cx="209.2" cy="201.8" r="198.3"/>
					</defs>
					<clipPath id="SVGID_8_">
						<use xlink:href="#SVGID_7_"  style="overflow:visible;"/>
					</clipPath>
					<g id="Layer_2_1_" class="st10">
						<g>
							<polygon class="st11" points="149.5,314.6 347.4,195.5 347.4,99.4 149.5,218.4 							"/>
							<g>
								<g>
									<polygon id="XMLID_4_" class="st12" points="155.1,221.6 341.8,109.3 341.8,192.3 155.1,304.6 									"/>
								</g>
								<g>
									<defs>
										<polygon id="SVGID_9_" points="155.1,221.6 341.8,109.3 341.8,192.3 155.1,304.6 										"/>
									</defs>
									<defs>
										<polygon id="SVGID_10_" points="155.1,221.6 341.8,109.3 341.8,192.3 155.1,304.6 										"/>
									</defs>
									<defs>
										<polygon id="SVGID_11_" points="155.1,221.6 341.8,109.3 341.8,192.3 155.1,304.6 										"/>
									</defs>
									<defs>
										<polygon id="SVGID_12_" points="155.1,221.6 341.8,109.3 341.8,192.3 155.1,304.6 										"/>
									</defs>
									<defs>
										<polygon id="SVGID_13_" points="155.1,221.6 341.8,109.3 341.8,192.3 155.1,304.6 										"/>
									</defs>
									<defs>
										<polygon id="SVGID_14_" points="155.1,221.6 341.8,109.3 341.8,192.3 155.1,304.6 										"/>
									</defs>
									<defs>
										<polygon id="SVGID_15_" points="155.1,221.6 341.8,109.3 341.8,192.3 155.1,304.6 										"/>
									</defs>
									<defs>
										<polygon id="SVGID_16_" points="155.1,221.6 341.8,109.3 341.8,192.3 155.1,304.6 										"/>
									</defs>
									<defs>
										<polygon id="SVGID_17_" points="155.1,221.6 341.8,109.3 341.8,192.3 155.1,304.6 										"/>
									</defs>
									<defs>
										<polygon id="SVGID_18_" points="155.1,221.6 341.8,109.3 341.8,192.3 155.1,304.6 										"/>
									</defs>
									<defs>
										<polygon id="SVGID_19_" points="155.1,221.6 341.8,109.3 341.8,192.3 155.1,304.6 										"/>
									</defs>
									<defs>
										<polygon id="SVGID_20_" points="155.1,221.6 341.8,109.3 341.8,192.3 155.1,304.6 										"/>
									</defs>
									<defs>
										<polygon id="SVGID_21_" points="155.1,221.6 341.8,109.3 341.8,192.3 155.1,304.6 										"/>
									</defs>
									<clipPath id="SVGID_22_">
										<use xlink:href="#SVGID_9_"  style="overflow:visible;"/>
									</clipPath>
									<clipPath id="SVGID_23_" class="st13">
										<use xlink:href="#SVGID_10_"  style="overflow:visible;"/>
									</clipPath>
									<clipPath id="SVGID_24_" class="st14">
										<use xlink:href="#SVGID_11_"  style="overflow:visible;"/>
									</clipPath>
									<clipPath id="SVGID_25_" class="st15">
										<use xlink:href="#SVGID_12_"  style="overflow:visible;"/>
									</clipPath>
									<clipPath id="SVGID_26_" class="st16">
										<use xlink:href="#SVGID_13_"  style="overflow:visible;"/>
									</clipPath>
									<clipPath id="SVGID_27_" class="st17">
										<use xlink:href="#SVGID_14_"  style="overflow:visible;"/>
									</clipPath>
									<clipPath id="SVGID_28_" class="st18">
										<use xlink:href="#SVGID_15_"  style="overflow:visible;"/>
									</clipPath>
									<clipPath id="SVGID_29_" class="st19">
										<use xlink:href="#SVGID_16_"  style="overflow:visible;"/>
									</clipPath>
									<clipPath id="SVGID_30_" class="st20">
										<use xlink:href="#SVGID_17_"  style="overflow:visible;"/>
									</clipPath>
									<clipPath id="SVGID_31_" class="st21">
										<use xlink:href="#SVGID_18_"  style="overflow:visible;"/>
									</clipPath>
									<clipPath id="SVGID_32_" class="st22">
										<use xlink:href="#SVGID_19_"  style="overflow:visible;"/>
									</clipPath>
									<clipPath id="SVGID_33_" class="st23">
										<use xlink:href="#SVGID_20_"  style="overflow:visible;"/>
									</clipPath>
									<clipPath id="SVGID_34_" class="st24">
										<use xlink:href="#SVGID_21_"  style="overflow:visible;"/>
									</clipPath>
									<rect x="161.8" y="202.8" class="st25" width="5.8" height="108.3"/>
									<rect x="175.9" y="197.3" class="st25" width="5.8" height="108.3"/>
									<rect x="189.9" y="191.7" class="st25" width="5.8" height="108.3"/>
									<rect x="203.9" y="183.8" class="st25" width="5.8" height="108.3"/>
									<rect x="218" y="177.6" class="st25" width="5.8" height="108.3"/>
									<rect x="232" y="159.2" class="st25" width="5.8" height="108.3"/>
									<rect x="246.1" y="153.7" class="st25" width="5.8" height="108.3"/>
									<rect x="260.1" y="148.2" class="st25" width="5.8" height="108.3"/>
									<rect x="274.1" y="142.7" class="st25" width="5.8" height="108.3"/>
									<rect x="288.2" y="125.2" class="st25" width="5.8" height="108.3"/>
									<rect x="302.2" y="119.7" class="st25" width="5.8" height="108.3"/>
									<rect x="316.2" y="114.2" class="st25" width="5.8" height="108.3"/>
									<rect x="330.3" y="108.7" class="st25" width="5.8" height="108.3"/>
								</g>
								<polygon class="st26" points="149.5,314.6 68.6,268.1 68.6,172 149.5,218.4 								"/>
								<polygon class="st27" points="74.2,264.8 74.2,181.7 143.9,221.7 143.9,304.9 								"/>
								<polygon class="st26" points="71,255.4 71,251 147.1,294.3 147.1,298.8 								"/>
								<polygon class="st26" points="71,225 71,220.6 147.1,263.9 147.1,268.3 								"/>
								<polygon class="st26" points="71,209.8 71,205.4 147.1,248.6 147.1,253.1 								"/>
								<polygon class="st26" points="71,194.6 71,190.1 147.1,233.4 147.1,237.9 								"/>
								<polygon class="st28" points="347.1,99.6 266.5,52.9 68.6,172 149.5,218.4 								"/>
								<g>
									<g>
										<polygon id="XMLID_2_" class="st29" points="79.6,171.9 266.6,59.5 336,99.7 149.4,211.9 										"/>
									</g>
									<g>
										<defs>
											<polygon id="SVGID_35_" points="79.6,171.9 266.6,59.5 336,99.7 149.4,211.9 											"/>
										</defs>
										<defs>
											<polygon id="SVGID_36_" points="79.6,171.9 266.6,59.5 336,99.7 149.4,211.9 											"/>
										</defs>
										<clipPath id="SVGID_37_">
											<use xlink:href="#SVGID_35_"  style="overflow:visible;"/>
										</clipPath>
										<clipPath id="SVGID_38_" class="st30">
											<use xlink:href="#SVGID_36_"  style="overflow:visible;"/>
										</clipPath>
										<rect x="266.5" y="52.9" class="st31" width="99" height="81.6"/>
										<polygon class="st32" points="79.6,176.7 266.6,64.3 336,104.5 149.4,216.7 										"/>
									</g>
									<g>
										<g>
											<line class="st33" x1="74.2" y1="172" x2="208" y2="61.1"/>
											<line class="st33" x1="149.6" y1="214" x2="208" y2="61.1"/>
											<line class="st33" x1="267.3" y1="56.7" x2="208" y2="61.1"/>
											<line class="st33" x1="341.8" y1="99.4" x2="208" y2="61.1"/>
										</g>
										<g>
											<polygon class="st34" points="207,64.8 212.8,61.5 216.5,42.8 202.1,51.1 											"/>
											<polygon class="st35" points="207,64.8 203.7,62.9 198.7,49.2 202.1,51.1 											"/>
											<polygon class="st36" points="216.4,42.9 212.8,40.9 198.7,49.2 202.1,51.1 											"/>
										</g>
										<line class="st33" x1="207.6" y1="45.9" x2="207.6" y2="-1.4"/>
									</g>
									<polygon class="st26" points="115.5,198.9 99.8,189.9 99.8,286.1 115.5,295 									"/>
								</g>
								<g>
									<g>
										<g>
											<path class="st37" d="M166.4,235.4c1.8-1.1,4.5-2.7,4.5-2.7l2.5,1.4c0,0-2.5,7.2-2.5,11.8c-1.3,0.7-1.9,4.1-1.9,4.1
												l-2.5-1.4C166.4,248.6,166.4,240.7,166.4,235.4z"/>
											<path class="st37" d="M186.4,223.2l2.5,1.4c0,0-2.5,7.3-2.6,11.9c-1.4,0.9-2.2,1.4-3.7,2.2c-2-1.2-3-1.8-5-3
												c0,2.4,0,3.6,0,6c-1.2,0.7-1.8,4-1.8,4l-2.5-1.4c0,0,0-7.9,0-13.2c1.4-0.9,2.2-1.4,3.7-2.2c2,1.2,3,1.8,5,3
												c0-2.4,0-3.6,0-6C183.9,224.8,186.4,223.2,186.4,223.2z"/>
											<path class="st37" d="M188,225.7c0,0,0-2.1,0-3.4c4.9-3,12.2-7.5,12.2-7.5l2.5,1.4c0,0-4.8,3.5-6.4,4.4
												c0,3.9,0,5.9,0,9.9c-1.4,0.8-1.9,4.1-1.9,4.1l-2.5-1.4c0,0,0-5.9,0-9.9c-1,0.6-1.4,3.8-1.4,3.8L188,225.7"/>
											<path class="st37" d="M212.6,217.2l2.5,1.4l-11,10l-2.5-1.4c0,0,0-8,0-13.4c4.3-2.6,10.7-6.5,10.7-6.5l2.5,1.4
												c0,0-6.3,4.3-8.9,5.8c0,0.6,0,1,0,1.6c2.2-1.4,5.6-3.4,5.6-3.4l2.5,1.4c0,0-5.8,3.8-8.1,5.2c0,0.7,0,1,0,1.8
												C208.7,219.6,212.6,217.2,212.6,217.2z"/>
											<path class="st37" d="M220.4,212.6c-0.5,0.3-0.7,0.4-1.2,0.7c0,1.4,0,2,0,3.4c-1.1,0.6-1.9,4-1.9,4l-2.6-1.3
												c0,0,0-8,0.1-13.4c2.6-1.5,3.8-2.3,6.3-3.8s4.1-1.4,5.4-0.8c0.7,0.4,2.2,1,2.2,1s-2.4,5-4,6.8c1.1,1,1.7,1.4,2.7,2.5
												c-1.4,0.9-2.2,4.2-2.2,4.2l-2.5-1.4C222.7,214.6,221.3,213.4,220.4,212.6z M220.9,205.8c-0.6,0.4-1,0.6-1.6,1
												c0,1.3,0,1.9,0,3.1c0.6-0.4,1-0.6,1.6-1c1.2-0.7,1.8-1.7,1.8-2.6C222.7,205.3,222.1,205,220.9,205.8z"/>
											<path class="st37" d="M242.3,189.3l2.5,1.4c0,0-4.7,12.6-6.2,13.5c-2-1.2-3-1-5-2.2c0,2.4-1.8,10.1-1.8,10.1l-2.5-1.4
												c0,0,0-8.1,0.1-13.5c1.4-0.9,2.2-1.4,3.7-2.2c2,1.2,5,3,5,3s0-3.7,0-6.1C239.6,190.9,242.3,189.3,242.3,189.3z"/>
											<path class="st37" d="M253.8,193.5c-2,1.2-3,1.8-5,3c-0.3,1.1-0.6,1.8-0.9,2.9c-0.9,0.6-2.1,4-2.1,4l-2.5-1.3
												c0,0,3.5-10.2,5.8-16.9c1.8-1,4.4-2.6,4.4-2.6l2.5,1.4c0,0,1.3,5.2,3.2,8.6c-1.8,1.1-2.8,1.7-4.6,2.8
												C254.3,194.6,254.2,194.2,253.8,193.5z M252.5,191c-0.5-1-0.8-1.6-1.3-2.6c-0.5,1.7-0.8,2.5-1.3,4.2
												C251,191.9,251.5,191.6,252.5,191z"/>
											<path class="st37" d="M262.6,180.7c-0.8,0.5-1.4,3.7-1.4,3.7l-2.5-1.4c0,0,0-2.1,0-3.5c4.9-3,12.2-7.3,12.2-7.3l2.5,1.4
												c0,0-2.5,1.6-2.5,2.1c-1.5,1-2.3,1.4-3.8,2.3c0,4,0,5.9,0,9.9c-1.3,0.7-1.8,4.1-1.8,4.1l-2.6-1.4
												C262.6,190.6,262.6,184.6,262.6,180.7z"/>
											<path class="st37" d="M272.4,171.2c1.8-1,4.5-2.6,4.5-2.6l2.5,1.4c0,0-2.5,7.1-2.6,12c-1.4,0.8-1.9,4.1-1.9,4.1l-2.5-1.4
												C272.4,184.7,272.4,176.6,272.4,171.2z"/>
											<path class="st37" d="M278.9,174.1c0-4.1,3.1-8.9,7.5-11.5c2.4-1.4,4.5-1.8,5.8-1c0.3,0.2,2.8,1.6,2.8,1.6
												s-1.2,0.7-1.2,1.9c0,4.1-3.1,8.9-7.5,11.5c-1.7,1-3,2.5-3,2.5s-2.3-1.3-2.7-1.4C279.5,177.1,278.9,175.9,278.9,174.1z
												 M289.3,167.9c0-2.1-1.3-2.6-3-1.6c-1.6,1-3,3-3,5.1s1.3,2.6,3,1.6C288,172,289.3,170,289.3,167.9z"/>
											<path class="st37" d="M308.8,149.5l2.5,1.4c0,0-2.5,7.5-2.5,11.9c-1.4,0.9-2.2,0.5-3.7,1.4c-2-1.2-3-1-5-2.2
												c0,2.4,0,3.6,0,6.1c-1.1,0.6-1.8,4-1.8,4l-2.5-1.4c0,0,0-8,0-13.4c1.4-0.9,2.2-1.3,3.7-2.2c2,1.2,3,1.8,5,3
												c0-2.4,0-3.6,0-6.1C306.2,151.1,308.8,149.5,308.8,149.5z"/>
											<path class="st37" d="M320.3,153.7c-2,1.2-3,1.8-5,3c-0.3,1.1-0.6,1.7-0.9,2.8c-0.8,0.5-2,4-2,4l-2.6-1.3
												c0,0,3.4-10,5.8-16.7c1.8-1,4.4-2.6,4.4-2.6l2.5,1.4c0,0,1.3,5,3.3,8.4c-1.8,1.1-2.7,1.7-4.6,2.7
												C320.9,154.7,320.7,154.4,320.3,153.7z M319.1,151.2c-0.5-1-0.8-1.5-1.3-2.6c-0.5,1.6-0.8,2.5-1.3,4.1
												C317.6,152.1,318.1,151.8,319.1,151.2z"/>
											<path class="st37" d="M326.9,138.9c1.8-1,4.5-2.6,4.5-2.6l2.5,1.4c0,0-2.5,5.1-2.5,8.3c2.4-1.4,5.9-3.5,5.9-3.5l2.5,1.4
												l-10.4,9.7l-2.5-1.4C326.9,152,326.9,144.1,326.9,138.9z"/>
										</g>
										<g>
											<path class="st37" d="M174.9,255.5c-3.4,2-6.9,7.1-6.9,7.1l-2.5-1.4c0,0,0-5,0-8.3c9.9-6,29.7-17.9,29.7-17.9l2.5,1.4
												c0,0-2.5,4.4-2.6,7.1c-3.8,2.2-5.7,3.4-9.5,5.7c0,7.9,0,15.9-0.1,23.9c-3.7,2.2-8.3,7.8-8.3,7.8l-2.5-1.4
												C174.9,279.3,174.9,263.5,174.9,255.5z"/>
											<path class="st37" d="M212.6,248.8c-1.2,0.7-1.8,1-3,1.8c0,3.3,0,4.9,0,8.2c-3.8,2.2-8.3,7.9-8.3,7.9l-2.5-1.4
												c0,0,0.1-21.7,0.1-32.5c6.2-3.8,9.3-5.6,15.5-9.4c5.5-3.3,9.8-4.1,12.3-2.5c1.6,1,2.7,1.6,2.7,1.6s-2.6,13.9-6.4,18.3
												c2.7,2.4,4,3.6,6.7,6.1c-4.3,2.6-9.1,8.3-9.1,8.3l-2.5-1.4C218.1,253.7,214.9,250.7,212.6,248.8z M213.8,232.2
												c-1.6,1-2.4,1.4-3.9,2.4c0,3,0,4.6,0,7.6c1.6-1,2.4-1.4,3.9-2.4c3-1.8,4.4-4.1,4.4-6.5
												C218.2,231,216.7,230.4,213.8,232.2z"/>
											<path class="st37" d="M256.1,225.3c-4.9,3-7.4,4.4-12.3,7.4c-0.9,2.8-1.3,4.2-2.2,7.1c-3.8,2.2-8.6,8-8.6,8l-2.5-1.4
												c0,0,9.5-27.5,14.2-41.3c4.2-2.6,10.7-6.4,10.7-6.4l2.5,1.4c0,0,7.1,15.3,11.5,22.9c-4.3,2.6-8.7,8.2-8.7,8.2l-2.5-1.4
												C258.2,229.7,256.9,227.1,256.1,225.3z M253,219.1c-1.3-2.6-1.8-3.8-3.1-6.3c-1.3,4.1-1.9,6.1-3.1,10.1
												C249.3,221.4,250.5,220.7,253,219.1z"/>
											<path class="st37" d="M272.2,188.6c6.3-3.8,9.5-5.7,15.9-9.5c6.2-4.5,18.6-5.8,18.2,5.3c-0.4,10.9-9.2,21.6-18.2,27.3
												c-5.8,3.5-13.4,11.1-13.4,11.1l-2.5-1.4C272.1,221.3,272.2,199.5,272.2,188.6z M287.6,203.4c4.6-2.7,7.7-7.4,7.7-12.4
												c0-5-3.1-5.8-7.7-3.1c-1.8,1.1-2.7,1.7-4.6,2.7c0,6.2,0,9.3,0,15.5C284.8,205,285.7,204.5,287.6,203.4z"/>
											<path class="st37" d="M337.9,173.1l2.5,1.4c0,0-2.5,4.2-2.5,6.7c-8.4,5.2-24.3,17.9-24.3,17.9l-2.5-1.4
												c0,0,0-21.6,0-32.4c8.7-5.2,26.2-15.7,26.2-15.7l2.6,1.4c0,0-2.6,4.2-2.6,6.8c-6.2,3.8-9.3,5.6-15.5,9.4
												c0,1.5,0,2.2,0,3.8c5.4-3.3,13.6-8.3,13.6-8.3l2.5,1.4c0,0-2.5,4.1-2.5,6.4c-5.4,3.3-8.2,5-13.6,8.3c0,1.7,0,2.6,0,4.2
												C328.2,178.9,337.9,173.1,337.9,173.1z"/>
										</g>
									</g>
									<g>
										<g>
											<path class="st38" d="M169,236.9c1.8-1.1,2.6-1.6,4.5-2.7c0,5.3,0,7.9,0,13.1c-1.8,1-2.6,1.6-4.5,2.7
												C169,244.7,169,242.1,169,236.9z"/>
											<path class="st38" d="M189,224.6c0,5.3,0,7.9,0,13.3c-1.4,0.9-2.2,1.4-3.7,2.2c-2-1.2-3-1.8-5-3c0,2.4,0,3.6,0,6
												c-1.8,1-2.6,1.6-4.3,2.6c0-5.3,0-7.9,0-13.2c1.4-0.9,2.2-1.4,3.7-2.2c2,1.2,3,1.8,5,3c0-2.4,0-3.6,0-6
												C186.4,226.2,187.2,225.6,189,224.6z"/>
											<path class="st38" d="M194.4,224.8c-1.5,1-2.3,1.4-3.8,2.3c0-1.4,0-2.1,0-3.4c4.9-3,7.3-4.5,12.2-7.5c0,1.4,0,2.1,0,3.5
												c-1.5,1-2.3,1.4-3.8,2.3c0,3.9,0,5.9,0,9.9c-1.8,1-2.6,1.6-4.5,2.7C194.4,230.7,194.4,228.7,194.4,224.8z"/>
											<path class="st38" d="M215.2,218.6c0,1.4,0,2,0,3.4c-4.4,2.6-6.6,4-11,6.7c0-5.4,0-8,0-13.4c4.3-2.6,6.4-3.9,10.7-6.5
												c0,1.4,0,2.1,0,3.4c-2.6,1.5-3.8,2.3-6.3,3.8c0,0.6,0,1,0,1.6c2.2-1.4,3.4-2,5.6-3.4c0,1.3,0,1.9,0,3.3
												c-2.2,1.4-3.4,2-5.6,3.4c0,0.7,0,1,0,1.8C211.2,221,212.6,220.2,215.2,218.6z"/>
											<path class="st38" d="M222.9,213.9c-0.5,0.3-0.7,0.4-1.2,0.7c0,1.4,0,2,0,3.4c-1.8,1-2.6,1.6-4.5,2.7c0-5.4,0-8,0.1-13.4
												c2.6-1.5,3.8-2.3,6.3-3.8c3.7-2.2,6-1.7,6,1.4c0,1.9-0.9,3.9-2.5,5.7c1.1,1,1.7,1.4,2.7,2.5c-1.9,1.1-2.9,1.7-4.7,2.9
												C224.3,215.1,223.9,214.7,222.9,213.9z M223.4,207.1c-0.6,0.4-1,0.6-1.6,1c0,1.3,0,1.9,0,3.1c0.6-0.4,1-0.6,1.6-1
												c1.2-0.7,1.8-1.7,1.8-2.6C225.2,206.7,224.6,206.4,223.4,207.1z"/>
											<path class="st38" d="M244.8,190.8c0,5.4,0,8.1-0.1,13.5c-1.4,0.9-2.2,1.4-3.7,2.2c-2-1.2-3-1.8-5-3c0,2.4,0,3.7,0,6.1
												c-1.8,1-2.6,1.6-4.3,2.6c0-5.4,0-8.1,0.1-13.5c1.4-0.9,2.2-1.4,3.7-2.2c2,1.2,3,1.8,5,3c0-2.4,0-3.7,0-6.1
												C242.1,192.3,243,191.8,244.8,190.8z"/>
											<path class="st38" d="M256.3,195c-2,1.2-3,1.8-5,3c-0.3,1.1-0.6,1.8-0.9,2.9c-1.8,1.1-2.7,1.6-4.6,2.7
												c2.3-6.7,3.5-10.2,5.8-16.9c1.8-1,2.6-1.6,4.4-2.6c2.3,4,3.4,6,5.8,10c-1.8,1.1-2.8,1.7-4.6,2.8
												C256.8,196,256.6,195.7,256.3,195z M255,192.4c-0.5-1-0.8-1.6-1.3-2.6c-0.5,1.7-0.8,2.5-1.3,4.2
												C253.5,193.3,254,193,255,192.4z"/>
											<path class="st38" d="M265.1,182.1c-1.5,1-2.3,1.4-3.8,2.3c0-1.4,0-2.1,0-3.5c4.9-3,7.3-4.4,12.2-7.3c0,1.4,0,2.1,0,3.5
												c-1.5,1-2.3,1.4-3.8,2.3c0,4,0,5.9,0,9.9c-1.8,1-2.6,1.6-4.5,2.6C265,188,265,186.1,265.1,182.1z"/>
											<path class="st38" d="M275,172.7c1.8-1,2.6-1.6,4.5-2.6c0,5.4,0,8,0,13.4c-1.8,1-2.6,1.6-4.5,2.6
												C274.9,180.7,274.9,178,275,172.7z"/>
											<path class="st38" d="M281.4,175.5c0-4.1,3.1-8.9,7.5-11.5c4.3-2.6,7.5-1.5,7.5,2.6c0,4.1-3.1,8.9-7.5,11.5
												S281.4,179.6,281.4,175.5z M291.8,169.2c0-2.1-1.3-2.6-3-1.6c-1.6,1-3,3-3,5.1c0,2.1,1.3,2.6,3,1.6
												C290.4,173.4,291.8,171.3,291.8,169.2z"/>
											<path class="st38" d="M311.4,151c0,5.3,0,8,0,13.3c-1.4,0.9-2.2,1.3-3.7,2.2c-2-1.2-3-1.8-5-3c0,2.4,0,3.6,0,6.1
												c-1.8,1-2.6,1.5-4.3,2.6c0-5.4,0-8,0-13.4c1.4-0.9,2.2-1.3,3.7-2.2c2,1.2,3,1.8,5,3c0-2.4,0-3.6,0-6.1
												C308.7,152.5,309.6,152,311.4,151z"/>
											<path class="st38" d="M322.8,155c-2,1.2-3,1.8-5,3c-0.3,1.1-0.6,1.7-0.9,2.8c-1.8,1.1-2.7,1.6-4.6,2.7
												c2.3-6.7,3.4-10,5.8-16.7c1.8-1,2.6-1.5,4.4-2.6c2.3,3.9,3.4,5.8,5.8,9.8c-1.8,1.1-2.7,1.7-4.6,2.7
												C323.4,156.1,323.2,155.8,322.8,155z M321.6,152.6c-0.5-1-0.8-1.5-1.3-2.6c-0.5,1.6-0.8,2.5-1.3,4.1
												C320.1,153.5,320.6,153.2,321.6,152.6z"/>
											<path class="st38" d="M329.4,140.2c1.8-1,2.6-1.6,4.5-2.6c0,3.9,0,5.8,0,9.7c2.4-1.4,3.6-2.2,5.9-3.5c0,1.4,0,2.1,0,3.4
												c-4.2,2.5-6.2,3.8-10.4,6.2C329.4,148.2,329.4,145.5,329.4,140.2z"/>
										</g>
										<g>
											<path class="st38" d="M177.5,257c-3.8,2.2-5.6,3.4-9.4,5.7c0-3.4,0-5,0-8.3c9.9-6,19.8-11.9,29.7-17.9c0,3.4,0,5.1,0,8.5
												c-3.8,2.2-5.7,3.4-9.5,5.7c0,7.9,0,15.9-0.1,23.9c-4.3,2.6-6.5,3.8-10.8,6.4C177.4,272.8,177.5,264.9,177.5,257z"/>
											<path class="st38" d="M215.2,250.2c-1.2,0.7-1.8,1-3,1.8c0,3.3,0,4.9,0,8.2c-4.3,2.6-6.5,3.8-10.8,6.4
												c0-10.8,0.1-21.7,0.1-32.5c6.2-3.8,9.3-5.6,15.5-9.4c9-5.4,14.7-4.1,14.7,3.5c0,4.7-2.2,9.6-6.1,13.9
												c2.7,2.4,4,3.6,6.7,6.1c-4.6,2.8-7,4.2-11.6,6.9C218.4,253.1,217.4,252.2,215.2,250.2z M216.3,233.7
												c-1.6,1-2.4,1.4-3.9,2.4c0,3,0,4.6,0,7.6c1.6-1,2.4-1.4,3.9-2.4c3-1.8,4.4-4.1,4.4-6.5
												C220.7,232.5,219.2,231.8,216.3,233.7z"/>
											<path class="st38" d="M258.6,226.8c-4.9,3-7.4,4.4-12.3,7.4c-0.9,2.8-1.3,4.2-2.2,7.1c-4.4,2.6-6.7,4-11.1,6.7
												c4.7-13.7,9.5-27.5,14.2-41.3c4.2-2.6,6.4-3.8,10.7-6.4c4.6,8.1,9.4,16.2,14,24.3c-4.5,2.7-6.7,4.1-11.2,6.8
												C259.8,229.4,259.4,228.5,258.6,226.8z M255.6,220.6c-1.3-2.6-1.8-3.8-3.1-6.3c-1.3,4.1-1.9,6.1-3.1,10.1
												C251.8,222.8,253,222,255.6,220.6z"/>
											<path class="st38" d="M274.7,190c6.3-3.8,9.5-5.7,15.9-9.5c6.2-4.5,18.6-5.8,18.2,5.3c-0.4,10.9-9.2,21.6-18.2,27.3
												c-6.3,3.8-9.5,5.8-15.9,9.6C274.7,211.9,274.7,200.9,274.7,190z M290,204.8c4.6-2.7,7.7-7.4,7.7-12.4
												c0-5-3.1-5.8-7.7-3.1c-1.8,1.1-2.7,1.7-4.6,2.7c0,6.2,0,9.3,0,15.5C287.3,206.5,288.2,205.9,290,204.8z"/>
											<path class="st38" d="M340.4,174.4c0,3.3,0,4.9,0,8.2c-8.9,5.5-17.9,11-26.8,16.4c0-10.8,0-21.6,0-32.4
												c8.7-5.2,17.5-10.5,26.2-15.7c0,3.3,0,4.9,0,8.2c-6.2,3.8-9.3,5.6-15.5,9.4c0,1.5,0,2.2,0,3.8c5.4-3.3,8.2-5,13.6-8.3
												c0,3.1,0,4.6,0,7.8c-5.4,3.3-8.2,5-13.6,8.3c0,1.7,0,2.6,0,4.2C330.8,180.4,334,178.4,340.4,174.4z"/>
										</g>
									</g>
								</g>
							</g>
						</g>
					</g>
				</g>
			</g>
		</g>
	</g>
</g>
</svg>
