<?xml version="1.0" encoding="utf-8"?>
<!-- Generator: Adobe Illustrator 22.1.0, SVG Export Plug-In . SVG Version: 6.00 Build 0)  -->
<svg version="1.1" id="Layer_1" xmlns="http://www.w3.org/2000/svg" xmlns:xlink="http://www.w3.org/1999/xlink" x="0px" y="0px"
	 viewBox="0 0 422.4 401.5" style="enable-background:new 0 0 422.4 401.5;" xml:space="preserve">
<style type="text/css">
	.st0{clip-path:url(#SVGID_2_);fill:#3BC0CB;}
	.st1{clip-path:url(#SVGID_4_);}
	.st2{fill:#4E857A;}
	.st3{fill:#62A48B;}
	.st4{font-family:'ArialMT';}
	.st5{font-size:33.4884px;}
	.st6{font-size:21.9838px;}
	.st7{font-size:21.9829px;}
	.st8{clip-path:url(#SVGID_6_);}
	.st9{clip-path:url(#SVGID_8_);}
	.st10{font-size:33.4867px;}
	.st11{font-size:21.9828px;}
	.st12{clip-path:url(#SVGID_10_);}
	.st13{font-size:18.981px;}
	.st14{font-size:12.4604px;}
	.st15{clip-path:url(#SVGID_12_);}
	.st16{clip-path:url(#SVGID_14_);}
	.st17{font-size:18.9811px;}
	.st18{clip-path:url(#SVGID_16_);}
	.st19{fill:#EF9E20;}
	.st20{fill:#F6CA10;}
	.st21{font-size:26.5679px;}
	.st22{fill:#F5EFDB;}
	.st23{opacity:0.5;fill:#EF9E20;enable-background:new    ;}
	.st24{clip-path:url(#SVGID_18_);}
	.st25{clip-path:url(#SVGID_20_);}
	.st26{font-size:26.5669px;}
	.st27{clip-path:url(#SVGID_22_);}
	.st28{font-size:19.1182px;}
	.st29{clip-path:url(#SVGID_24_);}
	.st30{clip-path:url(#SVGID_26_);}
	.st31{clip-path:url(#SVGID_28_);}
	.st32{clip-path:url(#SVGID_30_);}
	.st33{fill:#E76650;}
	.st34{fill:#F69256;}
	.st35{fill:#FFFAEF;}
	.st36{fill:#3C2A34;}
	.st37{fill:#F7B781;}
	.st38{fill:#52668A;}
	.st39{fill:#514E78;}
	.st40{fill:#2D1D26;}
	.st41{fill:#EE3A3D;}
</style>
<g>
	<g>
		<defs>
			<circle id="SVGID_1_" cx="208.3" cy="200.8" r="201"/>
		</defs>
		<clipPath id="SVGID_2_">
			<use xlink:href="#SVGID_1_"  style="overflow:visible;"/>
		</clipPath>
		<path class="st0" d="M359.8,106.2c-0.2-0.3-0.4-0.7-0.7-0.9C327.3,61.5,275.7,33,217.6,33C159.4,33,107.9,61.5,76,105.3
			c-0.3,0.3-0.5,0.6-0.7,0.9C54.8,134.8,42.7,170,42.7,207.9c0,96.4,78.5,174.9,174.9,174.9s174.9-78.5,174.9-174.9
			C392.5,170,380.3,134.9,359.8,106.2z M355.3,301.3C348,298,327,289.2,296,282.4c5.5-21.7,8.5-45.6,8.8-70.3H384
			C383.1,245.1,372.7,275.7,355.3,301.3z M51.2,212.1h79.2c0.3,24.9,3.4,48.9,8.9,70.7c-19.1,4.2-39,10.3-59.3,18.7
			C62.5,275.8,52,245.1,51.2,212.1z M80.6,113.4c7.7,2.9,28.8,10.1,59.8,15.6c-6.2,22.8-9.7,48.2-10,74.7H51.2
			C52,170.2,62.8,139.2,80.6,113.4z M221.8,135.7c19.9-0.2,41.6-1.8,64.5-5.5c6.2,22.3,9.6,47.3,10,73.5h-74.5L221.8,135.7
			L221.8,135.7z M221.8,127.2v-79c18.9,2.1,36.8,18.1,50.7,45.6c4.4,8.6,8.2,18.1,11.4,28.3C261.8,125.5,240.9,127,221.8,127.2z
			 M213.4,127.2c-19.3-0.2-36.7-1.6-51.4-3.5c-3.7-0.5-7.3-1-10.8-1.5c3.2-10.2,7-19.8,11.4-28.5c13.9-27.5,31.8-43.5,50.7-45.6
			v79.1H213.4z M160.6,132.1c15.1,2,32.9,3.4,52.8,3.6v67.9h-74.5c0.3-26,3.8-51,9.9-73.3C152.6,131,156.5,131.6,160.6,132.1z
			 M138.8,212.1h74.5v62c-20.2,0.3-42.4,2.2-65.8,6.9C142.1,259.8,139.1,236.4,138.8,212.1z M213.4,282.6v85.3
			c-18.9-2.1-36.8-18.1-50.7-45.6c-5.1-10-9.4-21.2-12.9-33.1C172.4,284.7,193.8,282.8,213.4,282.6z M221.8,282.5
			c19.3,0.2,36.6,1.9,51.3,4.2c4.3,0.7,8.4,1.4,12.4,2.2c-3.5,12.1-7.8,23.3-13,33.4c-13.9,27.5-31.8,43.5-50.7,45.6V282.5z
			 M274.7,278.4c-15.2-2.4-33-4.2-52.9-4.3v-62h74.5c-0.3,24.2-3.3,47.6-8.6,68.6C283.5,279.9,279.2,279.1,274.7,278.4z
			 M304.8,203.6c-0.3-26.5-3.8-52.1-10.1-74.9c19.2-3.5,39.2-8.5,59.7-15.5c17.9,25.8,28.7,56.9,29.5,90.4H304.8z M349.2,106.1
			c-19.5,6.5-38.6,11.2-56.9,14.5c-3.4-11-7.5-21.3-12.3-30.6c-12.8-25.3-29-41.7-46.8-47.8C280.3,46.6,321.7,70.7,349.2,106.1z
			 M201.9,42.2c-17.8,6.1-34,22.5-46.8,47.8c-4.8,9.4-8.9,19.8-12.3,30.9c-27.9-4.9-48-11.4-56.9-14.6
			C113.3,70.7,154.8,46.6,201.9,42.2z M85.1,308.4c19.3-7.8,38.3-13.5,56.4-17.6c3.7,12.7,8.2,24.5,13.6,35.2
			c12.5,24.7,28.3,41,45.7,47.4C153.7,368.7,112.3,344.2,85.1,308.4z M234.4,373.5c17.3-6.4,33.2-22.7,45.7-47.4
			c5.4-10.7,10-22.7,13.7-35.5c28.3,6.2,48.4,14.1,56.5,17.7C323,344.2,281.6,368.7,234.4,373.5z"/>
	</g>
	<g>
		<defs>
			<circle id="SVGID_3_" cx="208.3" cy="200.8" r="201"/>
		</defs>
		<clipPath id="SVGID_4_">
			<use xlink:href="#SVGID_3_"  style="overflow:visible;"/>
		</clipPath>
		<g class="st1">
			<path class="st2" d="M221.3,76.7c0,0-36.4,5.4-80.9-19.3l-11,47.8c0,0,46.3,24.1,89.1,18.9L221.3,76.7z"/>
			<path class="st3" d="M216.8,81.7c0,0-40.9,0.1-73.1-16.2l-7.9,35.5c0,0,36.7,21.5,79.2,19L216.8,81.7z"/>
			<path class="st2" d="M195.3,104.8c-4.1,11.5-15.4,17.9-25.2,14.4s-14.5-15.7-10.4-27.1c4.1-11.5,15.4-17.9,25.2-14.4
				C194.8,81.1,199.4,93.3,195.3,104.8z"/>
			<text transform="matrix(0.9799 0.1997 -0.1997 0.9799 168.606 107.1552)" class="st3 st4 st5">$</text>
			<text transform="matrix(0.9982 6.073740e-02 -6.073740e-02 0.9982 198.4128 108.7513)" class="st2 st4 st6">$</text>
			<text transform="matrix(0.9785 0.2062 -0.2062 0.9785 144.8145 95.3603)" class="st2 st4 st7">$</text>
		</g>
	</g>
	<g>
		<defs>
			<circle id="SVGID_5_" cx="208.3" cy="200.8" r="201"/>
		</defs>
		<clipPath id="SVGID_6_">
			<use xlink:href="#SVGID_5_"  style="overflow:visible;"/>
		</clipPath>
		<g class="st8">
			<path class="st2" d="M195.3,291.5c0,0-36.4,5.4-80.9-19.3l-11,47.8c0,0,46.3,24.1,89.1,18.9L195.3,291.5z"/>
			<path class="st3" d="M190.8,296.5c0,0-40.9,0.1-73.1-16.2l-7.9,35.5c0,0,36.7,21.5,79.2,19L190.8,296.5z"/>
			<path class="st2" d="M169.3,319.6c-4.1,11.5-15.4,17.9-25.2,14.4s-14.5-15.7-10.4-27.1c4.1-11.5,15.4-17.9,25.2-14.4
				C168.8,296,173.5,308.1,169.3,319.6z"/>
			<text transform="matrix(0.9799 0.1997 -0.1997 0.9799 142.6326 321.9889)" class="st3 st4 st5">$</text>
			<text transform="matrix(0.9982 6.073740e-02 -6.073740e-02 0.9982 172.4409 323.5851)" class="st2 st4 st6">$</text>
			<text transform="matrix(0.9785 0.2062 -0.2062 0.9785 118.8423 310.1939)" class="st2 st4 st7">$</text>
		</g>
	</g>
	<g>
		<defs>
			<circle id="SVGID_7_" cx="208.3" cy="200.8" r="201"/>
		</defs>
		<clipPath id="SVGID_8_">
			<use xlink:href="#SVGID_7_"  style="overflow:visible;"/>
		</clipPath>
		<g class="st9">
			<path class="st2" d="M357.5,216.2c0,0-19.5,31.3-67.1,49.2l29.3,39.3c0,0,48.3-19.6,72.1-55.6L357.5,216.2z"/>
			<path class="st3" d="M358.4,222.8c0,0-26.4,31.2-59.7,45.2l21.9,29c0,0,40.2-14.1,65.8-48.1L358.4,222.8z"/>
			<path class="st2" d="M362.1,254.2c6.1,10.6,3.7,23.3-5.3,28.6c-9,5.2-21.3,0.9-27.4-9.7s-3.7-23.3,5.3-28.5
				C343.7,239.3,356,243.6,362.1,254.2z"/>
			<text transform="matrix(0.7867 -0.6173 0.6173 0.7867 346.4951 276.0412)" class="st3 st4 st10">$</text>
			<text transform="matrix(0.6927 -0.7212 0.7212 0.6927 367.1109 254.3528)" class="st2 st4 st11">$</text>
			<text transform="matrix(0.7908 -0.6121 0.6121 0.7908 322.1944 286.5689)" class="st2 st4 st7">$</text>
		</g>
	</g>
	<g>
		<defs>
			<circle id="SVGID_9_" cx="208.3" cy="200.8" r="201"/>
		</defs>
		<clipPath id="SVGID_10_">
			<use xlink:href="#SVGID_9_"  style="overflow:visible;"/>
		</clipPath>
		<g class="st12">
			<path class="st2" d="M84.8,197.8c0,0-11.1,17.7-38,27.9L63.4,248c0,0,27.4-11.1,40.8-31.5L84.8,197.8z"/>
			<path class="st3" d="M85.4,201.6c0,0-15,17.7-33.8,25.6L64,243.7c0,0,22.8-8,37.3-27.3L85.4,201.6z"/>
			<path class="st2" d="M87.5,219.4c3.5,6,2.1,13.2-3,16.2s-12.1,0.5-15.5-5.5c-3.5-6-2.1-13.2,3-16.2S84,213.4,87.5,219.4z"/>
			<text transform="matrix(0.7867 -0.6173 0.6173 0.7867 78.5945 231.7399)" class="st3 st4 st13">$</text>
			<text transform="matrix(0.6927 -0.7212 0.7212 0.6927 90.2825 219.4509)" class="st2 st4 st14">$</text>
			<text transform="matrix(0.7908 -0.6121 0.6121 0.7908 64.8431 237.7339)" class="st2 st4 st14">$</text>
		</g>
	</g>
	<g>
		<defs>
			<circle id="SVGID_11_" cx="208.3" cy="200.8" r="201"/>
		</defs>
		<clipPath id="SVGID_12_">
			<use xlink:href="#SVGID_11_"  style="overflow:visible;"/>
		</clipPath>
		<g class="st15">
			<path class="st2" d="M308,318.5c0,0-11.1,17.7-38,27.9l16.6,22.3c0,0,27.4-11.1,40.8-31.5L308,318.5z"/>
			<path class="st3" d="M308.6,322.3c0,0-15,17.7-33.8,25.6l12.4,16.4c0,0,22.8-8,37.3-27.3L308.6,322.3z"/>
			<path class="st2" d="M310.7,340.1c3.5,6,2.1,13.2-3,16.2s-12.1,0.5-15.5-5.5c-3.5-6-2.1-13.2,3-16.2
				C300.3,331.6,307.2,334.1,310.7,340.1z"/>
			<text transform="matrix(0.7867 -0.6173 0.6173 0.7867 301.7996 352.4304)" class="st3 st4 st13">$</text>
			<text transform="matrix(0.6927 -0.7212 0.7212 0.6927 313.4878 340.1423)" class="st2 st4 st14">$</text>
			<text transform="matrix(0.7908 -0.6121 0.6121 0.7908 288.0487 358.4258)" class="st2 st4 st14">$</text>
		</g>
	</g>
	<g>
		<defs>
			<circle id="SVGID_13_" cx="208.3" cy="200.8" r="201"/>
		</defs>
		<clipPath id="SVGID_14_">
			<use xlink:href="#SVGID_13_"  style="overflow:visible;"/>
		</clipPath>
		<g class="st16">
			<path class="st2" d="M296.6,47.3c0,0-20.5,3.8-46.2-9.2l-5.2,27.3c0,0,26.7,12.7,50.8,8.8L296.6,47.3z"/>
			<path class="st3" d="M294.2,50.2c0,0-23.2,0.9-41.7-7.7l-3.7,20.2c0,0,21.3,11.4,45.3,9.1L294.2,50.2z"/>
			<path class="st2" d="M282.5,63.8c-2.1,6.6-8.3,10.5-14,8.7c-5.6-1.8-8.5-8.6-6.4-15.2s8.3-10.5,14-8.7
				C281.7,50.4,284.6,57.2,282.5,63.8z"/>
			<text transform="matrix(0.9865 0.1636 -0.1636 0.9865 267.3844 65.6568)" class="st3 st4 st17">$</text>
			<text transform="matrix(0.9997 2.404002e-02 -2.404002e-02 0.9997 284.3732 65.9511)" class="st2 st4 st14">$</text>
			<text transform="matrix(0.9854 0.1701 -0.1701 0.9854 253.679 59.4885)" class="st2 st4 st14">$</text>
		</g>
	</g>
	<g>
		<defs>
			<circle id="SVGID_15_" cx="208.3" cy="200.8" r="201"/>
		</defs>
		<clipPath id="SVGID_16_">
			<use xlink:href="#SVGID_15_"  style="overflow:visible;"/>
		</clipPath>
		<g class="st18">
			<path class="st19" d="M140.6,252.3c6-10.4,2.5-23.6-7.9-29.6s-23.6-2.5-29.6,7.9s-2.5,23.6,7.9,29.6
				C121.3,266.2,134.6,262.7,140.6,252.3z"/>
			<path class="st20" d="M137.6,250.4c5-8.6,2-19.5-6.5-24.5c-8.6-5-19.5-2-24.5,6.5c-5,8.6-2,19.5,6.5,24.5
				C121.7,261.9,132.7,259,137.6,250.4z"/>
			<text transform="matrix(0.8652 0.5014 -0.5014 0.8652 111.4854 247.3084)" class="st19 st4 st21">$</text>
			<path class="st22" d="M126,224c0,0,19.3,7.7,9.9,28.9c0,0,5.9-8,3.5-16.2C136.8,227.8,132.1,225.9,126,224z"/>
			<path class="st23" d="M108.9,229.4c0,0-4.7,10.2,0,19.9c4.7,9.7,15.9,9.8,15.9,9.8s-15.2,2.5-19.7-10.9
				C101.2,236.8,106.9,231.3,108.9,229.4z"/>
		</g>
	</g>
	<g>
		<defs>
			<circle id="SVGID_17_" cx="208.3" cy="200.8" r="201"/>
		</defs>
		<clipPath id="SVGID_18_">
			<use xlink:href="#SVGID_17_"  style="overflow:visible;"/>
		</clipPath>
		<g class="st24">
			<path class="st19" d="M286.5,107.6c-0.7-12-10.9-21.1-22.8-20.5c-12,0.7-21.1,10.9-20.5,22.8c0.7,12,10.9,21.1,22.8,20.5
				C278,129.7,287.2,119.5,286.5,107.6z"/>
			<path class="st20" d="M283,107.6c-0.5-9.9-9-17.4-18.9-16.9s-17.4,9-16.9,18.9s9,17.4,18.9,16.9C276,125.9,283.6,117.5,283,107.6
				z"/>
			<text transform="matrix(0.9985 -5.483972e-02 5.483972e-02 0.9985 259.4126 119.3114)" class="st19 st4 st21">$</text>
			<path class="st22" d="M258.8,91.8c0,0,20.4-4.2,24.1,18.8c0,0,0.6-9.9-5.9-15.4C269.9,89.1,264.9,90.1,258.8,91.8z"/>
			<path class="st23" d="M247.5,105.8c0,0,1.7,11.1,10.9,16.7c9.2,5.5,18.6-0.5,18.6-0.5s-11.3,10.4-22.4,1.7
				C245.1,116.1,246.8,108.4,247.5,105.8z"/>
		</g>
	</g>
	<g>
		<defs>
			<circle id="SVGID_19_" cx="208.3" cy="200.8" r="201"/>
		</defs>
		<clipPath id="SVGID_20_">
			<use xlink:href="#SVGID_19_"  style="overflow:visible;"/>
		</clipPath>
		<g class="st25">
			<path class="st19" d="M275.4,312.7c-5.1-10.8-18-15.5-28.8-10.5c-10.8,5.1-15.5,18-10.5,28.8c5.1,10.8,18,15.5,28.8,10.5
				C275.7,336.5,280.4,323.6,275.4,312.7z"/>
			<path class="st20" d="M272.1,314.1c-4.2-9-14.8-12.8-23.8-8.6c-9,4.2-12.8,14.8-8.6,23.8s14.8,12.8,23.8,8.6
				S276.3,323,272.1,314.1z"/>
			<text transform="matrix(0.9059 -0.4234 0.4234 0.9059 254.6185 333.7116)" class="st19 st4 st26">$</text>
			<path class="st22" d="M243.8,308.5c0,0,17.4-11.5,29.4,8.4c0,0-3.2-9.4-11.3-12.1C253.1,301.8,248.9,304.6,243.8,308.5z"/>
			<path class="st23" d="M238.5,325.6c0,0,5.7,9.7,16.4,11.4c10.6,1.7,17.1-7.4,17.1-7.4s-6.6,13.9-20.2,9.9
				C240.1,336.2,238.9,328.3,238.5,325.6z"/>
		</g>
	</g>
	<g>
		<defs>
			<circle id="SVGID_21_" cx="208.3" cy="200.8" r="201"/>
		</defs>
		<clipPath id="SVGID_22_">
			<use xlink:href="#SVGID_21_"  style="overflow:visible;"/>
		</clipPath>
		<g class="st27">
			<path class="st19" d="M232.5,368.9c4-7.7,1-17.1-6.7-21c-7.7-4-17.1-1-21,6.7c-4,7.7-1,17.1,6.7,21S228.6,376.5,232.5,368.9z"/>
			<path class="st20" d="M230.4,367.6c3.3-6.3,0.8-14.1-5.5-17.4s-14.1-0.8-17.4,5.5c-3.3,6.3-0.8,14.1,5.5,17.4
				S227.1,374,230.4,367.6z"/>
			<text transform="matrix(0.8884 0.459 -0.459 0.8884 211.4576 366.2267)" class="st19 st4 st28">$</text>
			<path class="st22" d="M221.1,349c0,0,14.2,4.9,8.1,20.4c0,0,4-5.9,2-11.7C229,351.4,225.5,350.2,221.1,349z"/>
			<path class="st23" d="M209,353.5c0,0-3,7.5,0.7,14.3s11.7,6.5,11.7,6.5s-10.8,2.3-14.5-7.2C203.7,359.1,207.6,354.9,209,353.5z"
				/>
		</g>
	</g>
	<g>
		<defs>
			<circle id="SVGID_23_" cx="208.3" cy="200.8" r="201"/>
		</defs>
		<clipPath id="SVGID_24_">
			<use xlink:href="#SVGID_23_"  style="overflow:visible;"/>
		</clipPath>
		<g class="st29">
			<path class="st19" d="M123.7,83.8c4-7.7,1-17.1-6.7-21c-7.7-4-17.1-1-21,6.7c-4,7.7-1,17.1,6.7,21
				C110.3,94.5,119.8,91.5,123.7,83.8z"/>
			<path class="st20" d="M121.5,82.6c3.3-6.3,0.8-14.1-5.5-17.4c-6.3-3.3-14.1-0.8-17.4,5.5s-0.8,14.1,5.5,17.4
				C110.5,91.4,118.3,88.9,121.5,82.6z"/>
			<text transform="matrix(0.8884 0.459 -0.459 0.8884 102.6281 81.197)" class="st19 st4 st28">$</text>
			<path class="st22" d="M112.3,64c0,0,14.2,4.9,8.1,20.4c0,0,4-5.9,2-11.7C120.2,66.3,116.7,65.1,112.3,64z"/>
			<path class="st23" d="M100.2,68.5c0,0-3,7.5,0.7,14.3s11.7,6.5,11.7,6.5s-10.8,2.3-14.5-7.2C94.9,74,98.8,69.9,100.2,68.5z"/>
		</g>
	</g>
	<g>
		<defs>
			<circle id="SVGID_25_" cx="208.3" cy="200.8" r="201"/>
		</defs>
		<clipPath id="SVGID_26_">
			<use xlink:href="#SVGID_25_"  style="overflow:visible;"/>
		</clipPath>
		<g class="st30">
			<path class="st19" d="M92.5,293.8c4-7.7,1-17.1-6.7-21c-7.7-4-17.1-1-21,6.7c-4,7.7-1,17.1,6.7,21
				C79.1,304.5,88.5,301.5,92.5,293.8z"/>
			<path class="st20" d="M90.3,292.6c3.3-6.3,0.8-14.1-5.5-17.4s-14.1-0.8-17.4,5.5s-0.8,14.1,5.5,17.4
				C79.3,301.4,87.1,298.9,90.3,292.6z"/>
			<text transform="matrix(0.8884 0.459 -0.459 0.8884 71.417 291.187)" class="st19 st4 st28">$</text>
			<path class="st22" d="M81.1,274c0,0,14.2,4.9,8.1,20.4c0,0,4-5.9,2-11.7C88.9,276.3,85.5,275.1,81.1,274z"/>
			<path class="st23" d="M68.9,278.5c0,0-3,7.5,0.7,14.3s11.7,6.5,11.7,6.5s-10.8,2.3-14.5-7.2C63.7,284,67.6,279.9,68.9,278.5z"/>
		</g>
	</g>
	<g>
		<defs>
			<circle id="SVGID_27_" cx="208.3" cy="200.8" r="201"/>
		</defs>
		<clipPath id="SVGID_28_">
			<use xlink:href="#SVGID_27_"  style="overflow:visible;"/>
		</clipPath>
		<g class="st31">
			<path class="st19" d="M387.8,208.8c4-7.7,1-17.1-6.7-21c-7.7-4-17.1-1-21,6.7c-4,7.7-1,17.1,6.7,21
				C374.4,219.4,383.8,216.4,387.8,208.8z"/>
			<path class="st20" d="M385.6,207.5c3.3-6.3,0.8-14.1-5.5-17.4c-6.3-3.3-14.1-0.8-17.4,5.5s-0.8,14.1,5.5,17.4
				C374.5,216.3,382.3,213.8,385.6,207.5z"/>
			<text transform="matrix(0.8884 0.459 -0.459 0.8884 366.6774 206.1237)" class="st19 st4 st28">$</text>
			<path class="st22" d="M376.3,188.9c0,0,14.2,4.9,8.1,20.4c0,0,4-5.9,2-11.7C384.2,191.3,380.8,190.1,376.3,188.9z"/>
			<path class="st23" d="M364.2,193.4c0,0-3,7.5,0.7,14.3s11.7,6.5,11.7,6.5s-10.8,2.3-14.5-7.2C358.9,199,362.8,194.8,364.2,193.4z
				"/>
		</g>
	</g>
	<g>
		<defs>
			<circle id="SVGID_29_" cx="208.3" cy="200.8" r="201"/>
		</defs>
		<clipPath id="SVGID_30_">
			<use xlink:href="#SVGID_29_"  style="overflow:visible;"/>
		</clipPath>
		<g class="st32">
			<path class="st33" d="M-17,37.2l199.7,130.4c0,0,29-11.6,43.8-6.7c14.8,4.9,43.3,24.3,43.3,24.3l19.1,32.4l-38.7,69.1l-78.3-44
				c0,0-17.1-19-20.7-21.1C147.4,219.6-17,118.3-17,118.3V37.2z"/>
			<path class="st33" d="M299.7,231.6c2.6-4.7,1.2-10.5-3.3-13l-21.7-12.2c-4.4-2.5-10.1-0.7-12.8,4l-1.3,2.3
				c-2.6,4.7-1.2,10.5,3.3,13l21.7,12.2c4.4,2.5,10.1,0.7,12.8-4L299.7,231.6z"/>
			<path class="st33" d="M285.8,249.2c2.6-4.7,1.1-10.5-3.3-13L260.8,224c-4.4-2.5-10.1-0.7-12.8,4l-1.3,2.4
				c-2.6,4.7-1.2,10.5,3.3,13l21.7,12.2c4.4,2.5,10.1,0.7,12.8-4L285.8,249.2z"/>
			<path class="st33" d="M270.3,264.8c2.6-4.7,1.2-10.5-3.3-13l-21.7-12.2c-4.4-2.5-10.1-0.7-12.8,4l-1.3,2.3
				c-2.6,4.7-1.2,10.5,3.3,13l21.7,12.2c4.4,2.5,10.1,0.7,12.8-4L270.3,264.8z"/>
			<path class="st33" d="M262.1,279.2c2.6-4.7,1.2-10.5-3.3-13L237.1,254c-4.4-2.5-10.1-0.7-12.8,4l-1.3,2.3
				c-2.6,4.7-1.2,10.5,3.3,13l21.7,12.2c4.4,2.5,10.1,0.7,12.8-4L262.1,279.2z"/>
			<path class="st34" d="M419.7,71.3l-147.6,90.5c0,0-34.3-12.5-49.6-3.4c-15.2,9.1-20.5,35.2-37.3,38.7
				c-16.8,3.4,6.5,24.7,23.6,11.2s28-23.2,28-23.2l56.7,31.8l160-128.1L419.7,71.3z"/>
			<path class="st34" d="M189.9,235.3c2.6-4.6,0.8-10.4-4-13.1l0,0c-4.8-2.7-10.7-1.2-13.3,3.4l-11.9,21.1c-2.6,4.6-0.8,10.4,4,13.1
				l0,0c4.8,2.7,10.7,1.2,13.3-3.4L189.9,235.3z"/>
			<path class="st34" d="M207.1,245c2.6-4.6,0.8-10.4-4-13.1l0,0c-4.8-2.7-10.7-1.2-13.3,3.4L178,256.4c-2.6,4.6-0.8,10.4,4,13.1
				l0,0c4.8,2.7,10.7,1.2,13.3-3.4L207.1,245z"/>
			<path class="st34" d="M224.4,254.7c2.6-4.6,0.8-10.4-4-13.1l0,0c-4.8-2.7-10.7-1.2-13.3,3.4l-11.9,21.1c-2.6,4.6-0.8,10.4,4,13.1
				l0,0c4.8,2.7,10.7,1.2,13.3-3.4L224.4,254.7z"/>
			<path class="st34" d="M241.7,264.4c2.6-4.6,0.8-10.4-4-13.1l0,0c-4.8-2.7-10.7-1.2-13.3,3.4l-11.9,21.1c-2.6,4.6-0.8,10.4,4,13.1
				l0,0c4.8,2.7,10.7,1.2,13.3-3.4L241.7,264.4z"/>
			<polygon class="st35" points="152.3,144.5 165.4,152.6 129.4,209.6 114.3,199.9 			"/>
			<polygon class="st35" points="325.4,199.8 311.6,206.8 275.4,154.6 287.1,146.4 			"/>
			<polygon class="st36" points="159.2,143.1 117.9,205.5 -21.4,122.4 -21.4,18.7 			"/>
			<path class="st37" d="M176.7,224.5l11.1,7.4c0,0-4.6,6.7-9.7,4.1C171.8,232.8,176.7,224.5,176.7,224.5z"/>
			<path class="st37" d="M194.4,235l11.2,7.4c0,0-4.6,6.7-9.7,4.1C189.4,243.2,194.4,235,194.4,235z"/>
			<path class="st37" d="M210.1,244.7l11.2,7.4c0,0-4.6,6.7-9.7,4.1C205.2,252.9,210.1,244.7,210.1,244.7z"/>
			<path class="st37" d="M228.8,255.2l11.2,7.2c0,0-4.6,6.8-9.6,4.3C224,263.5,228.8,255.2,228.8,255.2z"/>
			<polygon class="st38" points="278.6,143.1 324.7,206.8 456.5,122.4 456.5,18.7 			"/>
			<polygon class="st39" points="278.6,143.1 328.4,190.2 456.5,96.5 456.5,122.4 324.7,206.8 			"/>
			<polygon class="st40" points="159.2,143.1 106.1,186.6 -21.3,106.8 -21.4,122.4 117.9,205.5 			"/>
			<polygon class="st33" points="274.5,160.3 301.9,210 309.8,204.2 277.9,158.2 			"/>
			<polygon class="st41" points="168.6,158.4 137.7,213.5 129.9,208.7 163.6,154.9 			"/>
		</g>
	</g>
</g>
</svg>
