<?xml version="1.0" encoding="utf-8"?>
<!-- Generator: Adobe Illustrator 22.1.0, SVG Export Plug-In . SVG Version: 6.00 Build 0)  -->
<svg version="1.1" id="Layer_1" xmlns="http://www.w3.org/2000/svg" xmlns:xlink="http://www.w3.org/1999/xlink" x="0px" y="0px"
	 viewBox="0 0 8192 8192" style="enable-background:new 0 0 8192 8192;" xml:space="preserve">
<style type="text/css">
	.st0{opacity:0.3;fill:#231F20;}
	.st1{fill:#FBB872;}
	.st2{fill:#FCC78E;}
	.st3{fill:#FFE7B4;}
	.st4{fill:#F9A965;}
	.st5{fill:#FDBD10;}
	.st6{fill:#603813;}
	.st7{fill:#462600;}
	.st8{fill:#7B4A21;}
	.st9{fill:#834F25;}
	.st10{fill:#F9A31A;}
	.st11{fill:#F68C1E;}
	.st12{fill:#8D4C3F;}
	.st13{fill:#5E2E24;}
	.st14{fill:#773E33;}
	.st15{fill:#FFD085;}
	.st16{fill:#985245;}
	.st17{fill:none;stroke:#FDBD10;stroke-width:0.5907;stroke-miterlimit:10;}
	.st18{fill:#FFDDAA;}
	.st19{fill:#72451D;}
	.st20{fill:#663C16;}
	.st21{fill:#5C3610;}
	.st22{fill:#502D07;}
	.st23{fill:#71441C;}
	.st24{fill:#693E18;}
	.st25{fill:#784820;}
	.st26{fill:#4D2B05;}
	.st27{fill:#6E421B;}
	.st28{fill:#70431C;}
	.st29{fill:#5D3611;}
	.st30{fill:#6A3F19;}
</style>
<g>
	<path class="st0" d="M1098.9,4564.2c-608.7,42-1270.8,110.4-1058.3,318.5C461.9,5295,1545.2,6694.6,1923.6,6658
		c698.9-67.6,2142-404.4,2526.3-583c384.2-178.6-234-297.7-512.7-433.5C3658.4,5505.6,1098.9,4564.2,1098.9,4564.2z"/>
	<ellipse class="st0" cx="4832.5" cy="6579.6" rx="1112.4" ry="183.2"/>
	<ellipse class="st0" cx="3549" cy="4976.1" rx="1112.4" ry="183.2"/>
	<ellipse class="st0" cx="5992.6" cy="5007.1" rx="1582.7" ry="183.2"/>
	<path class="st0" d="M8192,6660.9c0,62.9-162.6,113.9-363.2,113.9c-200.6,0-363.2-51-363.2-113.9c0-62.9,162.6-113.9,363.2-113.9
		C8029.4,6547,8192,6598,8192,6660.9z"/>
	<g>
		<g>
			<path class="st1" d="M3911.4,2311.8c-174.8,12.2-278.2,115.2-254.1,281.6c24.1,166.4,130.1,222.2,297.4,222.2
				c167.3,0,808.7-51.3,808.7-51.3S4336.6,2282.1,3911.4,2311.8z"/>
			<path class="st2" d="M3918,2814.5c131.8-1.7,164.1-244.4,0-269.5l845.3-22.3c0,0,139.7,225.4,58.8,265.4
				C4741.3,2828.2,3918,2814.5,3918,2814.5z"/>
			<path class="st3" d="M3939.6,2330.3c-280.3-60.2,956.2,28.6,1789.8-78.1c283-36.2,551.4,137.4,635.4,410.1
				c53.1,172.5,95.1,381.9,66.2,629.1c-81.8,699,323.5,1647.5,698.3,1704.2l-2287.7,61.9c0,0-397.5,41.6-431.1-605.7
				C4376.7,3804.5,4692.2,2492.1,3939.6,2330.3z"/>
			<path class="st4" d="M4860.1,4522.1c-138.7,6.6-211.9,134.8-189.6,249.6c22.3,114.8,126.4,163.1,215.6,166.8
				c89.2,3.7,483.3-22.3,483.3-22.3S5250.5,4503.5,4860.1,4522.1z"/>
			<path class="st1" d="M4886.1,4938.6c96.8-1.3,167.3-185.9,0-223.1c0,0,334.6-63.2,468.5,0c133.8,63.2,3.9,212.8-145,215.6
				C5060.6,4934,4886.1,4938.6,4886.1,4938.6z"/>
			<path class="st2" d="M4841.5,5057.5c286.5,0,323.5-208.2,304.9-323.5c-18.6-115.3-148.7-215.6-286.3-211.9
				c0,0,290-44.6,780.8,22.3c490.8,66.9,1026.2-29.7,1249.3-52.1c223.1-22.3,426.8,4.5,438.7,215.6
				c8.6,152.4-44.6,304.9-282.5,289.8C6890.7,4987.9,4841.5,5057.5,4841.5,5057.5z"/>
		</g>
		<g>
			<g>
				<path class="st5" d="M2266.3,3979.1c-3.3,0-6.5-2.1-7.7-5.4l-588.9-1653.9l-588.9,1653.9c-1.5,4.2-6.2,6.4-10.4,4.9
					c-4.2-1.5-6.4-6.2-4.9-10.4L1662,2292.9c2.3-6.5,13-6.5,15.3,0l596.6,1675.4c1.5,4.2-0.7,8.9-4.9,10.4
					C2268.1,3979,2267.2,3979.1,2266.3,3979.1z"/>
			</g>
			<g>
				<path class="st5" d="M5936.8,3979.1c-3.3,0-6.5-2.1-7.7-5.4l-588.9-1653.9l-588.9,1653.9c-1.5,4.2-6.2,6.4-10.4,4.9
					c-4.2-1.5-6.4-6.2-4.9-10.4l596.6-1675.4c2.3-6.5,13-6.5,15.3,0l596.6,1675.4c1.5,4.2-0.7,8.9-4.9,10.4
					C5938.6,3979,5937.7,3979.1,5936.8,3979.1z"/>
			</g>
			<path class="st6" d="M5496.2,2121.2c-40.1,3.6,18.2,116.7-116.7,116.7s-204.2-54.7-547.1-441.3
				c-342.8-386.6-656.5-196.9-889.9-131.3c-233.4,65.6-306.4-94.8-437.6-94.8c-131.3,0-204.2,160.5-437.7,94.8
				c-233.4-65.6-547.1-255.3-889.9,131.3c-342.8,386.6-412.1,441.3-547.1,441.3s-76.6-113.1-116.7-116.7
				c-40.1-3.6-54.7,116.7,0,178.7c54.7,62,182.4,113.1,328.2,0c145.9-113.1,320.9-368.4,528.8-477.8s299.1-138.6,510.6-47.4
				c211.5,91.2,328.2,127.6,423.1,98.5c94.8-29.2,138.6-80.2,200.6-80.2c62,0,105.8,51.1,200.6,80.2c94.8,29.2,211.5-7.3,423.1-98.5
				c211.5-91.2,302.7-62,510.6,47.4c207.9,109.4,382.9,364.7,528.8,477.8c145.9,113.1,273.5,62,328.2,0
				C5551,2237.9,5536.4,2117.5,5496.2,2121.2z"/>
			<path class="st7" d="M5511.7,2127c0.7,5.1,26.4,211.4-171.5,211.4c-134.2,0-255.5-195.6-484.2-396.8
				c-228.7-201.2-407.8-338.9-661.4-237c-219.3,88.2-494.8,228.4-689.7-27.7c-194.9,256.1-470.3,115.9-689.7,27.7
				c-253.5-102-432.6,35.8-661.4,237c-228.7,201.2-350,396.8-484.2,396.8c-197.9,0-172.2-206.3-171.5-211.4
				c-27.3,24.1-31.4,119.8,15.5,172.9c54.7,62,182.4,113.1,328.2,0c145.9-113.1,320.9-368.4,528.8-477.8
				c207.9-109.4,299.1-138.6,510.6-47.4c211.5,91.2,328.2,127.6,423.1,98.5c94.8-29.2,138.6-80.2,200.6-80.2
				c62,0,105.8,51.1,200.6,80.2c94.8,29.2,211.5-7.3,423.1-98.5c211.5-91.2,302.7-62,510.6,47.4
				c207.9,109.4,382.9,364.7,528.8,477.8c145.9,113.1,273.5,62,328.2,0C5543.1,2246.8,5539,2151.1,5511.7,2127z"/>
			<path class="st8" d="M3504.9,1570.5c-131.3,0-204.2,160.5-437.7,94.8c-233.4-65.6-547.1-255.3-889.9,131.3
				c-342.8,386.6-412.1,441.3-547.1,441.3s-76.6-113.1-116.7-116.7c-2.5-0.2-5,0.1-7.3,0.8c0,0,8.3,5.7,11,44.1
				c2.8,38.6,46.8,100.6,139.2,100.6c97.8,0,206.7-99.2,334.8-234.2s272.8-296.2,394.1-362.4c121.2-66.1,206.7-108.8,512.5-17.9
				c305.9,90.9,350.8,115.7,488.5,35.8c137.7-79.9,150.5-66.1,150.5-66.1v-48.1C3526.6,1571.7,3516,1570.5,3504.9,1570.5z"/>
			<path class="st8" d="M3506.5,1570.5c131.3,0,204.2,160.5,437.7,94.8c233.4-65.6,547.1-255.3,889.9,131.3
				c342.8,386.6,412.1,441.3,547.1,441.3c134.9,0,76.6-113.1,116.7-116.7c2.5-0.2,5,0.1,7.3,0.8c0,0-8.3,5.7-11,44.1
				c-2.8,38.6-46.8,100.6-139.2,100.6c-97.8,0-206.7-99.2-334.8-234.2c-128.1-135-272.8-296.2-394.1-362.4
				c-121.2-66.1-206.7-108.8-512.5-17.9c-305.9,90.9-350.8,115.7-488.5,35.8c-137.7-79.9-150.5-66.1-150.5-66.1v-48.1
				C3484.9,1571.7,3495.5,1570.5,3506.5,1570.5z"/>
			<path class="st6" d="M3553.8,1168.3c-24-20.6-33.2-36.6-21.7-72.1c11.4-35.5,0.8-43.5-27.1-67.5c-27.9,24-38.5,32-27.1,67.5
				c11.4,35.5,2.3,51.5-21.7,72.1c-24,20.6-26.3,48.1-5,59.7l53.9,13.6l53.9-13.6C3580.1,1216.4,3577.8,1188.9,3553.8,1168.3z"/>
			<path class="st7" d="M3553.8,1168.3c-24-20.6-33.2-36.6-21.7-72.1c8.4-26.1,4.8-37.4-8.8-51c-10.9,1.1-19.2,10.2-12,14.5
				c10.3,6.2,10.3,22.2,5.2,42.9c-5.2,20.7-1.6,41.3,5.2,58.4c6.7,17.1,28.9,36.2-16.6,38.2c-44.7,2-58.6,24.2-59.1,25
				c0.2,0.1,0.4,0.3,0.6,0.4c1.5,0.6,6.7,2.7,14.3,5.8l44.2,11.1l53.9-13.6C3580.1,1216.4,3577.8,1188.9,3553.8,1168.3z"/>
			<rect x="3460.8" y="1415.2" class="st6" width="88.2" height="2568.2"/>
			<rect x="3524.1" y="1415.2" class="st7" width="25.5" height="2568.2"/>
			<rect x="3474.5" y="1415.2" class="st9" width="25.5" height="2568.2"/>
			<path class="st6" d="M3597.9,3903.5h-186c-20.5,0-37.2-16.7-37.2-37.2l0,0c0-20.5,16.7-37.2,37.2-37.2h186
				c20.5,0,37.2,16.7,37.2,37.2l0,0C3635.1,3886.8,3618.4,3903.5,3597.9,3903.5z"/>
			<path class="st6" d="M3682.8,4496.7H3327c-20.5,0-37.2-16.7-37.2-37.2l0,0c0-20.5,16.7-37.2,37.2-37.2h355.8
				c20.5,0,37.2,16.7,37.2,37.2l0,0C3720,4479.9,3703.3,4496.7,3682.8,4496.7z"/>
			<path class="st6" d="M3681.3,4248.6c-72.3-62-84.7-138.5-46.2-204.6c38.6-66.1,13.1-134.3-37.2-140.5h-93h-93
				c-50.3,6.2-75.8,74.4-37.2,140.5c38.6,66.1,26.2,142.6-46.2,204.6c-72.3,62-28.9,173.6,22.7,173.6c51.7,0,153.6,0,153.6,0
				s102,0,153.6,0C3710.2,4422.3,3753.6,4310.6,3681.3,4248.6z"/>
			<path class="st6" d="M3615.9,4496.7h-111h-111c0,0-560.8,33.1-620.7,245.9h731.6h731.6
				C4176.7,4529.8,3615.9,4496.7,3615.9,4496.7z"/>
			<path class="st6" d="M4240.7,4804.6H2769.2c-17.1,0-31-14-31-31l0,0c0-17.1,14-31,31-31h1471.5c17.1,0,31,14,31,31l0,0
				C4271.7,4790.6,4257.7,4804.6,4240.7,4804.6z"/>
			<path class="st6" d="M4455.6,5007.1H2554.2c-17.1,0-31-14-31-31l0,0c0-17.1,14-31,31-31h1901.4c17.1,0,31,14,31,31l0,0
				C4486.6,4993.2,4472.7,5007.1,4455.6,5007.1z"/>
			<path class="st6" d="M4219,4804.6h-714.1h-714.1c-115.7,0-209.4,71.6-223.2,140.5h937.3h937.3
				C4428.5,4876.2,4334.8,4804.6,4219,4804.6z"/>
			<path class="st10" d="M1669.7,3962.7h-617.3c0,0,55.1,234.2,243.9,234.2s373.3,0,373.3,0s184.5,0,373.3,0
				s243.9-234.2,243.9-234.2H1669.7z"/>
			<path class="st10" d="M5340.2,3962.7h-617.3c0,0,55.1,234.2,243.9,234.2s373.3,0,373.3,0s184.5,0,373.3,0
				s243.9-234.2,243.9-234.2H5340.2z"/>
			<g>
				<path class="st6" d="M3623.4,1327c0,65.4-53.1,118.5-118.5,118.5c-65.4,0-118.5-53.1-118.5-118.5c0-65.4,53.1-118.5,118.5-118.5
					C3570.4,1208.5,3623.4,1261.6,3623.4,1327z"/>
				<path class="st7" d="M3504.9,1208.5c-3.6,0-7.2,0.2-10.7,0.5c2.1,1.3,7.7,0,17.5,1.5c76,11.9,121.9,127.1,54.7,182.5
					c-70.5,58-145.5,16.8-146.7,16.1c21.6,22.4,51.7,36.3,85.3,36.3c65.4,0,118.5-53,118.5-118.5
					C3623.4,1261.6,3570.4,1208.5,3504.9,1208.5z"/>
				<path class="st9" d="M3476.7,1244.9c6.6,7.3-0.2,24.3-15.2,37.9c-15,13.6-32.6,18.7-39.2,11.4c-6.6-7.3,0.2-24.3,15.2-37.9
					C3452.5,1242.7,3470,1237.6,3476.7,1244.9z"/>
			</g>
			<g>
				<path class="st6" d="M3571,997.8c0,36.5-29.6,66-66,66c-36.5,0-66-29.6-66-66s29.6-66,66-66C3541.4,931.8,3571,961.3,3571,997.8
					z"/>
				<path class="st7" d="M3504.9,931.8c-2,0-4,0.1-6,0.3c1.2,0.7,4.3,0,9.8,0.8c42.3,6.6,67.9,70.8,30.5,101.7
					c-39.3,32.3-81,9.4-81.8,9c12,12.5,28.8,20.2,47.5,20.2c36.5,0,66-29.6,66-66S3541.4,931.8,3504.9,931.8z"/>
				<path class="st9" d="M3489.2,952.1c3.7,4.1-0.1,13.5-8.5,21.1c-8.4,7.6-18.2,10.4-21.9,6.3c-3.7-4.1,0.1-13.5,8.5-21.1
					C3475.7,950.8,3485.5,948,3489.2,952.1z"/>
			</g>
			<path class="st7" d="M3549.7,3903.5h48.3c20.5,0,37.2-16.7,37.2-37.2c0-20.5-16.7-37.2-37.2-37.2h-48.3c0,0,24.1,11,22.7,37.2
				C3571,3892.5,3549.7,3903.5,3549.7,3903.5z"/>
			<path class="st9" d="M3430.4,3829.1c0,0-51,28.9,0,74.4h37.9c0,0-42.7-39.3,0-74.4H3430.4z"/>
			<path class="st7" d="M3599.9,3989.6c-9,71.6-46.8,83.4-36.5,155c10.3,71.6,20.7,89.6,60.6,131.6c40,42,29.6,113.7-65.4,146
				c32.7,0,73.1,0,100,0c51.7,0,95.1-111.6,22.7-173.6c-72.3-62-84.7-138.5-46.2-204.6c38.6-66.1,13.1-134.3-37.2-140.5h-61
				C3536.9,3903.5,3608.9,3918,3599.9,3989.6z"/>
			<path class="st9" d="M3482.8,3903.5h-21.3c-50.3,6.2-75.8,74.4-37.2,140.5c38.6,66.1,26.2,142.6-46.2,204.6
				c-72.3,62-28.9,173.6,22.7,173.6c24.4,0,18.5,0,49.3,0c-19.6-12.5-44.5-35.7-52.1-76.5c-13.1-70.3,49.6-104,71.1-177.1
				c21.4-73-13.9-118.5-26.3-177C3430.4,3933.1,3482.8,3903.5,3482.8,3903.5z"/>
			<path class="st7" d="M3600.6,4496.7h82.2c20.5,0,37.2-16.7,37.2-37.2c0-20.5-16.7-37.2-37.2-37.2h-79.5l-2.8,0.7
				c0,0,33.1,4.8,33.1,36.5C3633.7,4491.1,3600.6,4496.7,3600.6,4496.7z"/>
			<path class="st9" d="M3385.7,4422.3c0,0-32.4,7.6-32.4,37.2c0,29.6,40.7,37.2,40.7,37.2h46.8c0,0-22.7-16.5-22.7-37.2
				s22.7-37.2,22.7-37.2H3385.7z"/>
			<path class="st7" d="M3628.2,4742.6h608.3c-59.9-212.8-620.7-245.9-620.7-245.9h-15.3c0,0,274.9,74.4,336.9,148.8
				C3999.5,4719.9,3628.2,4742.6,3628.2,4742.6z"/>
			<path class="st9" d="M2945,4742.6h171.3c56.8-172.2,277.7-245.9,277.7-245.9s-29.9,1.8-76.3,7.1
				C3121.1,4547.9,3000.6,4670.9,2945,4742.6z"/>
			<path class="st7" d="M4020.1,4804.6h220.5c17.1,0,31-14,31-31c0-17.1-14-31-31-31h-220.5c0,0,37.2,8.3,37.2,31
				C4057.3,4796.3,4020.1,4804.6,4020.1,4804.6z"/>
			<path class="st7" d="M4236.6,5007.1h220.5c17.1,0,31-14,31-31s-14-31-31-31h-220.5c0,0,37.2,8.3,37.2,31
				S4236.6,5007.1,4236.6,5007.1z"/>
			<path class="st9" d="M3122,4742.6h-220.5c-17.1,0-31,14-31,31c0,17.1,14,31,31,31H3122c0,0-37.2-8.3-37.2-31
				C3084.8,4750.9,3122,4742.6,3122,4742.6z"/>
			<path class="st9" d="M2996.2,4945.1H2724c-21,0-38.3,14-38.3,31s17.2,31,38.3,31h272.2c0,0-45.9-8.3-45.9-31
				S2996.2,4945.1,2996.2,4945.1z"/>
			<path class="st7" d="M3968.5,4945.1h473.8c-13.8-68.9-107.5-140.5-223.2-140.5h-320.8c0,0,161.2,53.7,169.5,97.1
				C4075.9,4945.1,3968.5,4945.1,3968.5,4945.1z"/>
			<path class="st9" d="M2945,4804.6c0,0-129.8,47.5-162.8,140.5h231.5c0,0,0-115.7,93-140.5H2945z"/>
			<path class="st11" d="M2286.9,3962.7h-238.1C1988.6,4187.9,1702,4197,1702,4197c61,0,199.8,0,341,0
				C2231.8,4197,2286.9,3962.7,2286.9,3962.7z"/>
			<path class="st5" d="M1299.1,4197c53.5,0,106.6,0,155.1,0c-37.6-44.4-93.1-126.3-105.4-234.2h-188.7
				C1173.6,4017.8,1210.8,4131.5,1299.1,4197z"/>
			<path class="st11" d="M5957.4,3962.7h-238.1c-60.2,225.2-346.8,234.2-346.8,234.2c61,0,199.8,0,341,0
				C5902.3,4197,5957.4,3962.7,5957.4,3962.7z"/>
			<path class="st5" d="M4969.6,4197c53.5,0,106.6,0,155.1,0c-37.6-44.4-93.1-126.3-105.4-234.2h-188.7
				C4844.1,4017.8,4881.3,4131.5,4969.6,4197z"/>
		</g>
		<g>
			<path class="st12" d="M4264.1,5580c0,0-2103.2-1426.9-2148.5-1455.8c-45.3-28.8-141.9-19.3-141.9-19.3L4071,5525.6L4264.1,5580z"
				/>
			<path class="st13" d="M4071,6075.1c0,0,258.9-70,258.9-304.6s-304.6-209.9-304.6-209.9l-588.5,102.9L4071,6075.1z"/>
			<path class="st14" d="M4071,5581.2c60.3-7.2,214.6,48.4,223.9,184.2c9.3,135.8-106.6,232-223.9,254.1v55.6
				c0,0,294.9-50.4,282.6-300.4c-12.3-250-242.8-256.5-282.6-249V5581.2z"/>
			<polygon class="st14" points="3920.2,5972.9 1973.8,4654.4 247.5,4838.4 113.7,4797.1 113.7,4852.7 1792.6,6505.5 4071,6075.1 
				4071,6019.5 			"/>
			<polygon class="st13" points="113.7,4797.1 1973.8,4598.8 4071,6019.5 1792.6,6450 			"/>
			<path class="st15" d="M1884.7,6375.5L284.1,4828c0,0,156.4-242.1,0-487.4l1761.1-187.2l469.6,1897L1884.7,6375.5z"/>
			<g>
				<polygon class="st14" points="3920.2,5479 1973.8,4160.5 247.5,4344.5 113.7,4303.2 113.7,4358.8 1792.6,6011.6 4071,5581.2 
					4071,5525.6 				"/>
				<polygon class="st16" points="113.7,4303.2 1973.8,4105 4071,5525.6 1792.6,5956.1 				"/>
				<polygon class="st17" points="359.1,4388.8 2013,4219.8 3785.5,5466.4 1829.1,5836.1 				"/>
			</g>
			<path class="st18" d="M1884.7,5994.3c0,0,151.8,154.9,0,381.2L4071,5956.1v-374.9L1884.7,5994.3z"/>
			<g>
				<path class="st5" d="M1385.9,4714.5l-203.5,17.7l-4-3.7l5-0.4c13.7-1.2,13.7-12.6-0.1-25.6l-222.7-206.6
					c-14.3-13-36.7-22.4-50.5-21.2l-5,0.4l-4.1-3.7l119.4-10.4l4,3.7l-5,0.4c-13.8,1.2-13.7,12.6,0.1,25.6l234.8,217.8l51.6-4.5
					c39.3-3.4,39.8-28.8,12.1-66.8l3.9-0.3L1385.9,4714.5z"/>
				<path class="st5" d="M1735.5,4656.4c24.9,14.5,45.3,19.7,56.8,18.7l3.3-0.3l4,3.7l-125.3,10.9l-4-3.7l3.5-0.3
					c10.1-0.9,12.1-10.3-10-24.7l-69-44.4l-92.3,8l29.5,47.8c9.6,15.5,30.1,23,40.3,22.1l3.5-0.3l4,3.7l-84.3,7.3l-4-3.7l3.5-0.3
					c11.2-1,18.1-8.3,10.4-23.9l-119.1-202.7c-3.3-5.9-22.6-39.6-33.3-50.5l3.5-0.3L1735.5,4656.4z M1571.3,4601.2l-137.1-88.2
					l58.4,95L1571.3,4601.2z"/>
				<path class="st5" d="M1998.2,4375.8l4,3.7l-3.5,0.3c-11.7,1-21,8.7-10.5,24.7l150.4,206.5c0,0,17,23.9,37.7,42l-3.7,0.3
					l-279.8-172.5l87.3,144c0,0,14.2,22.6,34.9,42.2l-3.7,0.3l-355.3-234.2c-23.7-14.7-45.4-19.6-57-18.6l-3.2,0.3l-4-3.7
					l119.9-10.4l4,3.7l-3.5,0.3c-10.1,0.9-11.3,10.2,10,24.7l187.8,125.1l-103.5-168.4l3.8-0.2l254.8,157l-102.2-134.6
					c-11.7-15.3-29-22.8-39.9-21.9l-3.5,0.3l-4-3.7L1998.2,4375.8z"/>
			</g>
		</g>
		<g>
			<g>
				<path class="st19" d="M6057.3,5637.6c-502.9-225.7-731.6-399.3-731.6-399.3l-92.2,105l-17.1,138.7c0,0,281.7,55.5,784.6,281.2
					c502.9,225.7,1848.2,1166.5,2002.2,823.2C8157.3,6243,6560.2,5863.3,6057.3,5637.6z"/>
				<path class="st20" d="M5642.5,5615.1c102.5,38.4,222.3,87,358.5,148.1c502.9,225.7,1848.2,1166.5,2002.2,823.2
					c30.1-67-6.5-135.3-88.6-203.6c-9.5,84.6-52.1,194.4-214.4,164c-256.2-47.9-1164.4-535.3-1230.6-590.6
					c-54.9-45.8-26.7-139.8-15.4-170.6c-69.4-23.5-134.9-46.2-194.9-68c-5.6,14.9-19.2,41.8-51.5,71.6
					c-49,45.1-180.2-53.7-344.8-124.4c-131.3-56.4-118.2-140.3-107.5-172c-16.1-8.3-31.8-16.4-47-24.5L5642.5,5615.1z"/>
				<path class="st20" d="M5396,5474.3c-104.5-51-48.8-171.8-29.6-207.2c-15.5-10.5-26.4-18.3-33-23l-100.6,105.3l-4.1,33.2
					l-1.5,101.8c33.1,7.4,143.4,34,322,96.8c26.9-40.2,65.3-100.8,75.9-133.3c2.5-7.6,3.8-15,4.5-22c-13-7.2-25.5-14.1-37.6-20.9
					C5571.4,5453.4,5514.2,5531.9,5396,5474.3z"/>
				<path class="st19" d="M4657,4900.6c-40.1,19.4-70.7,80.4-97.6,140.2c-26.8,59.8-52.1,123.2-39.9,166.1
					c12.2,42.9,102.2,45.9,102.2,45.9l86.5-145.2l51-161.1C4759.2,4946.5,4697.1,4881.2,4657,4900.6z"/>
				<path class="st20" d="M4710.2,4908.4c-5,53.4-96.1,261.9-139.5,257.8c-24.7-2.3-33.7-34.7-36.9-63.4
					c-14.1,39-22.3,76-14.3,104.1c12.2,42.9,102.2,45.9,102.2,45.9l86.5-145.2l19.1-60.3c8.2-47,15.2-88.8,19.2-112.8
					C4737.5,4926.5,4724.5,4916.2,4710.2,4908.4z"/>
				<g>
					<path class="st21" d="M5023.5,4406.6c75.2-8.2,149.9,5.6,292.7,69.7c142.8,64.1,202.8,110.8,246.6,172.4
						c43.8,61.6-5.2,118.5-5.2,118.5l-309.6-139l-309.6-138.9C4938.4,4489.3,4948.3,4414.8,5023.5,4406.6z"/>
					<path class="st22" d="M5557.6,4767.2c0,0,49-56.9,5.2-118.5c-28.6-40.2-64.3-74.1-125.2-110.5c16.9,43.8,19.6,107.5-144.2,55.1
						c-99.8-31.9-89.3-5.4-43.9,35.7L5557.6,4767.2z"/>
					<path class="st23" d="M5219.8,4436.9c-46.5-16.7-84.3-26-118.3-30c-73.2,28.7-86,104.9-86,104.9l119.3,47.2
						C5132.6,4476.5,5182.5,4447.3,5219.8,4436.9z"/>
					<path class="st24" d="M4884.3,4471.2c95.4,0.9,193.1,25,384.4,110.8c191.3,85.9,274.3,142.8,338.4,213.5
						c64.1,70.7,8.4,124.6,8.4,124.6L5200.5,4734l-414.9-186.2C4785.6,4547.8,4788.9,4470.4,4884.3,4471.2z"/>
					<path class="st6" d="M5607.1,4795.6c-36.2-39.9-78.4-75.5-142.7-114.3c0.1,0.1,128.3,155.2-73,84.7
						c-118.3-41.4-69.2,4.7-8.6,49.8l232.7,104.4C5615.4,4920.2,5671.1,4866.3,5607.1,4795.6z"/>
					<path class="st25" d="M5162.7,4537c-52.2-20.7-96.2-35.5-135.1-45.7c-138.4,3.6-153,96.4-153,96.4l164,58.9
						C5061,4577.3,5125.9,4548.2,5162.7,4537z"/>
					<path class="st19" d="M5160,4824.4l-427.8-157.5c0,0-52,6.3-58.8-41.2c-6.8-47.5,45.5-85.7,112.2-77.9
						c66.7,7.7,255.3,51.7,438.4,133.8c212.5,95.4,341.3,193.9,391.4,238.6c50.1,44.7,56.3,109.2,16.4,135.6s-69.8-16.5-69.8-16.5
						L5160,4824.4z"/>
					<g>
						<path class="st6" d="M5615.4,4920.2c-26.2-23.4-74-61.5-144-106.1c90,61.9,98.2,147.4-2.4,99.2
							c-107.8-51.6-295.7-118.7-295.7-118.7s22.9,27.5,55.7,66.7l333,178c0,0,29.8,43,69.8,16.5S5665.6,4964.9,5615.4,4920.2z"/>
						<path class="st6" d="M5440.8,4795c3,1.9,6.2,3.9,9.8,6C5447.4,4799,5444.1,4797,5440.8,4795z"/>
					</g>
					<path class="st25" d="M5086.1,4626.6c-73.4-26-142.2-45.6-197.6-58.8c-92.8,28.6-89.5,113.5-89.5,113.5l175.7,48.5
						C5003.4,4646.4,5059.9,4629.8,5086.1,4626.6z"/>
				</g>
				<g>
					<path class="st21" d="M4393.3,5810.9c43.8,61.6,103.9,108.3,246.6,172.4c142.8,64.1,217.6,77.9,292.7,69.7
						c75.2-8.2,85.1-82.7,85.1-82.7l-309.6-138.9l-309.6-138.9C4398.5,5692.3,4349.5,5749.3,4393.3,5810.9z"/>
					<path class="st22" d="M5017.7,5970.2c0,0-9.9,74.5-85.1,82.7c-49,5.4-98.1,1.2-165.8-20c44-16.5,93.3-56.8-54.7-144.4
						c-90.1-53.4-63.4-63.1-2.5-56.5L5017.7,5970.2z"/>
					<path class="st23" d="M4546.4,5937.4c-43.3-23.6-75.4-45.7-101-68.5c-27.2-73.8,21.2-133.9,21.2-133.9l114.5,57.8
						C4518,5845.9,4529.4,5902.7,4546.4,5937.4z"/>
					<path class="st24" d="M4349,5664c64.1,70.7,147,127.7,338.4,213.5c191.3,85.9,289,110,384.4,110.8
						c95.4,0.9,98.7-76.6,98.7-76.6l-414.9-186.2l-414.9-186.2C4340.6,5539.3,4285,5593.3,4349,5664z"/>
					<path class="st6" d="M5071.8,5988.3c-53.9-0.5-108.5-8.4-180.3-30.6c0.1,0,201.2-7.3,14.8-110.8
						c-109.6-60.9-42.5-54.8,31.4-39.5l232.7,104.4C5170.5,5911.7,5167.2,5989.2,5071.8,5988.3z"/>
					<path class="st25" d="M4583.2,5828.2c-50.2-25.2-90.5-48.2-124-70.6c-89.3-105.7-29.7-178.4-29.7-178.4l153,83.3
						C4545.7,5725.4,4567.1,5793.3,4583.2,5828.2z"/>
					<path class="st19" d="M4796.1,5635.2l-402-215c0,0-29.8-43-69.8-16.5c-40,26.5-33.8,90.9,16.4,135.6
						c50.1,44.7,208.3,156.4,391.4,238.6c212.5,95.4,371.7,126.1,438.4,133.8c66.7,7.7,119-30.5,112.2-77.9
						c-6.8-47.5-58.8-41.2-58.8-41.2L4796.1,5635.2z"/>
					<g>
						<path class="st6" d="M5170.5,5911.7c-34.9-4.1-95.1-14.4-175-37c106.1,26.1,175.4-24.6,72.5-67.8
							c-110.1-46.2-285.2-142-285.2-142s35.8-1.1,86.8-2.7l354.4,130.4c0,0,52-6.3,58.8,41.2
							C5289.5,5881.3,5237.2,5919.5,5170.5,5911.7z"/>
						<path class="st6" d="M4960.8,5864.5c3.4,0.9,7.1,2,11,3.3C4968.2,5866.8,4964.5,5865.7,4960.8,5864.5z"/>
					</g>
					<path class="st25" d="M4599.2,5711.4c-68.2-37.6-128.6-76-175.3-108.5c-40.3-88.3,25.3-142.3,25.3-142.3l153.1,99
						C4559.1,5636.5,4584.2,5689.8,4599.2,5711.4z"/>
				</g>
				<path class="st6" d="M4732.2,4666.9c0,0,72.8,88.2-75.1,417.7c-147.9,329.6-262.1,333.8-262.1,333.8
					c102.7,120.5,388.7,244.7,388.7,244.7s282.9,131,441.2,127.7c0,0-72.8-88.2,75.1-417.7c147.9-329.6,262.1-333.8,262.1-333.8
					c-102.7-120.5-388.7-244.7-388.7-244.7S4890.5,4663.5,4732.2,4666.9z"/>
				<path class="st9" d="M5543,5630.7L5543,5630.7c-17.5-7.9-25.4-28.7-17.6-46.2l82.3-183.4c7.9-17.5,28.7-25.4,46.2-17.6l0,0
					c17.5,7.9,25.4,28.7,17.6,46.2l-82.3,183.4C5581.3,5630.6,5560.5,5638.5,5543,5630.7z"/>
				<path class="st9" d="M6310.9,5975.3L6310.9,5975.3c-17.5-7.9-25.4-28.7-17.6-46.2l82.3-183.4c7.9-17.5,28.7-25.4,46.2-17.6l0,0
					c17.5,7.9,25.4,28.7,17.6,46.2l-82.3,183.4C6349.3,5975.2,6328.5,5983.2,6310.9,5975.3z"/>
				<path class="st9" d="M7849.4,6694.4L7849.4,6694.4c-17.5-7.9-25.4-28.7-17.6-46.2l103.7-231.2c7.9-17.5,28.7-25.4,46.2-17.6l0,0
					c17.5,7.9,25.4,28.7,17.6,46.2l-103.7,231.2C7887.7,6694.4,7866.9,6702.3,7849.4,6694.4z"/>
				<path class="st9" d="M5627.2,5649.3L5627.2,5649.3c-17.5-7.9-25.4-28.7-17.6-46.2l68-151.5c7.9-17.5,28.7-25.4,46.2-17.6l0,0
					c17.5,7.9,25.4,28.7,17.6,46.2l-68,151.5C5665.5,5649.3,5644.7,5657.2,5627.2,5649.3z"/>
				<path class="st9" d="M6235.7,5922.4L6235.7,5922.4c-17.5-7.9-25.4-28.7-17.6-46.2l68-151.5c7.9-17.5,28.7-25.4,46.2-17.6l0,0
					c17.5,7.9,25.4,28.7,17.6,46.2l-68,151.5C6274,5922.3,6253.2,5930.2,6235.7,5922.4z"/>
				<path class="st26" d="M4831,5683.9c87.3,36.8,275.3,109.4,393.7,106.9c0,0-72.8-88.2,75.1-417.7
					c147.9-329.6,262.1-333.8,262.1-333.8c-102.7-120.5-388.7-244.7-388.7-244.7s-5.5-2.5-15.1-6.8c0.2,0.2,206,159.9,115,291.4
					c-91,131.6-153.8,275.8-198.2,447.4C5030.8,5697.5,4945.6,5690.1,4831,5683.9z"/>
				<path class="st27" d="M4782,5149.5c-116,258.4-228.4,330.9-295,349.5c49.1,35.1,105.2,68,155.4,94.9
					c55.8-44.4,154.7-150.9,265.2-397.1c118-263,122.5-402.7,114.1-463.8c-46.7-17-99.3-34.1-150.5-46.7
					C4893,4729.5,4916.1,4850.7,4782,5149.5z"/>
				<path class="st28" d="M5543,5630.7c17.5,7.9,38.3,0,46.2-17.6l20.3-45.3c0,0-19.7,43.8-50.9,29.9c-31.2-14-12.9-58.5-12.9-58.5
					l-20.3,45.3C5517.5,5602,5525.4,5622.8,5543,5630.7z"/>
				<path class="st28" d="M5627.2,5649.3c17.5,7.9,38.3,0,46.2-17.6l20.3-45.3c0,0-19.7,43.8-50.9,29.9
					c-31.2-14-12.9-58.5-12.9-58.5l-20.3,45.3C5601.7,5620.6,5609.7,5641.4,5627.2,5649.3z"/>
				<path class="st28" d="M6235.7,5922.4c17.5,7.9,38.3,0,46.2-17.6l20.3-45.3c0,0-19.7,43.8-50.9,29.8
					c-31.2-14-12.9-58.5-12.9-58.5l-20.3,45.3C6210.3,5893.7,6218.2,5914.5,6235.7,5922.4z"/>
				<path class="st28" d="M6310.9,5975.3c17.5,7.9,38.3,0,46.2-17.6l20.3-45.3c0,0-19.7,43.8-50.9,29.9
					c-31.2-14-12.9-58.5-12.9-58.5l-20.3,45.3C6285.5,5946.6,6293.4,5967.4,6310.9,5975.3z"/>
				<path class="st28" d="M7849.4,6694.4c17.5,7.9,38.3,0,46.2-17.6l20.3-45.3c0,0-19.7,43.8-50.9,29.8
					c-31.2-14-12.9-58.5-12.9-58.5l-20.3,45.3C7823.9,6665.8,7831.8,6686.6,7849.4,6694.4z"/>
			</g>
			<g>
				<path class="st29" d="M5584.2,6531.6c-6.1-71-21.2-145.6-123.7-190.1h-657.3h-1.5h-657.3c-102.5,44.5-117.7,119.1-123.7,190.1
					c-6.1,70.9,347.9,117.1,781,117.2v0c0.2,0,0.5,0,0.7,0c0.2,0,0.5,0,0.7,0v0C5236.3,6648.7,5590.3,6602.5,5584.2,6531.6z"/>
				<path class="st30" d="M4335.6,6627.6c23.5-130.6,114.2-201,114.2-201l-198.9-13.8c-76.7,33.5-114.1,126.6-129.7,179.8
					C4175.1,6606.8,4248.4,6618.6,4335.6,6627.6z"/>
				<path class="st22" d="M5584.2,6531.6c-6.1-71-21.2-145.6-123.7-190.1H5172L4929.1,6450c0,0,16.2,134.9-200.3,198.3
					c24,0.3,48.4,0.5,73,0.5v0c0.2,0,0.5,0,0.7,0c0.2,0,0.5,0,0.7,0v0C5236.3,6648.7,5590.3,6602.5,5584.2,6531.6z"/>
				<ellipse class="st28" cx="4801.8" cy="6371.7" rx="690" ry="99.4"/>
				<path class="st29" d="M5450.7,6330.6c-5.1-58.3-17.7-119.4-103-155.9h-547.4h-1.2h-547.4c-85.4,36.5-98,97.7-103,155.9
					c-5,58.2,289.7,96,650.4,96.1v0c0.2,0,0.4,0,0.6,0c0.2,0,0.4,0,0.6,0v0C5160.9,6426.6,5455.7,6388.7,5450.7,6330.6z"/>
				<path class="st30" d="M4469.6,6414.7c26.6-123.2,112-189.4,112-189.4l-198.9-13.8c-74.2,32.4-111.6,120.6-128.1,174.5
					C4309.5,6398,4383.2,6407.8,4469.6,6414.7z"/>
				<path class="st22" d="M5450.7,6330.6c-5.1-58.3-17.7-119.4-103-155.9h-173.4l-104.1,97.7c0,0,77.8,132.8-315.4,154.2
					c14.7,0.1,29.4,0.2,44.3,0.2v0c0.2,0,0.4,0,0.6,0c0.2,0,0.4,0,0.6,0v0C5160.9,6426.6,5455.7,6388.7,5450.7,6330.6z"/>
				<ellipse class="st28" cx="4799" cy="6199.5" rx="574.6" ry="81.6"/>
			</g>
		</g>
	</g>
</g>
</svg>
