<?xml version="1.0" encoding="utf-8"?>
<!-- Generator: Adobe Illustrator 22.1.0, SVG Export Plug-In . SVG Version: 6.00 Build 0)  -->
<svg version="1.1" id="Layer_1" xmlns="http://www.w3.org/2000/svg" xmlns:xlink="http://www.w3.org/1999/xlink" x="0px" y="0px"
	 viewBox="0 0 10043.3 10043.3" style="enable-background:new 0 0 10043.3 10043.3;" xml:space="preserve">
<style type="text/css">
	.st0{clip-path:url(#XMLID_3_);}
	.st1{fill:#3C3C3B;}
	.st2{fill:#FBC19D;}
	.st3{fill:#A77551;}
	.st4{fill:#FFFFFF;}
	.st5{fill:none;}
</style>
<g>
	<defs>
		<circle id="XMLID_1_" cx="5021.5" cy="4987.5" r="5021.5"/>
	</defs>
	<clipPath id="XMLID_3_">
		<use xlink:href="#XMLID_1_"  style="overflow:visible;"/>
	</clipPath>
	<g class="st0">
		<g>
			<rect x="5090" y="3794.8" class="st1" width="61.5" height="614.9"/>
			
				<rect x="3911.4" y="4110.6" transform="matrix(0.866 -0.5 0.5 0.866 -1680.874 2562.9797)" class="st1" width="61.5" height="614.9"/>
			
				<rect x="3048.7" y="4973.4" transform="matrix(0.5 -0.866 0.866 0.5 -3033.5837 5307.3086)" class="st1" width="61.5" height="614.9"/>
			<rect x="2456.2" y="6428.6" class="st1" width="614.9" height="61.5"/>
			
				<rect x="2772" y="7607.1" transform="matrix(0.8661 -0.4999 0.4999 0.8661 -3405.9031 2562.4343)" class="st1" width="614.9" height="61.5"/>
			
				<rect x="3634.8" y="8469.8" transform="matrix(0.5 -0.866 0.866 0.5 -5390.6104 7664.3496)" class="st1" width="614.9" height="61.5"/>
			<rect x="5090" y="8508.9" class="st1" width="61.5" height="614.9"/>
			
				<rect x="5991.8" y="4387.3" transform="matrix(0.5 -0.866 0.866 0.5 -676.5383 7664.3433)" class="st1" width="614.9" height="61.5"/>
			
				<rect x="6854.5" y="5250.1" transform="matrix(0.866 -0.5 0.5 0.866 -1680.8788 4288.4312)" class="st1" width="614.9" height="61.5"/>
			<rect x="7170.3" y="6428.6" class="st1" width="614.9" height="61.5"/>
			
				<rect x="7131.2" y="7330.4" transform="matrix(0.4999 -0.8661 0.8661 0.4999 -3033.3723 10022.2314)" class="st1" width="61.5" height="614.9"/>
			
				<rect x="6268.5" y="8193.1" transform="matrix(0.866 -0.5 0.5 0.866 -3406.3279 4288.4287)" class="st1" width="61.5" height="614.9"/>
		</g>
		<g>
			<g>
				
					<rect x="5356.5" y="3444.1" transform="matrix(0.866 -0.5 0.5 0.866 -820.7727 5259.7188)" class="st2" width="8095.9" height="1434.7"/>
				<path class="st2" d="M5551.7,5297.2l-1437.8,830.1l881.3,1526.5L6433,6823.7c176.4-101.9,236.9-327.5,135-504l-512.4-887.5
					C5953.7,5255.8,5728.1,5195.3,5551.7,5297.2z"/>
			</g>
			<g>
				
					<rect x="119.6" y="113.5" transform="matrix(0.5 -0.866 0.866 0.5 -3185.4392 2805.5703)" class="st3" width="1434.7" height="8095.9"/>
				<path class="st3" d="M5068.7,7551.3l912.1-1579.7l-1260.2-727.6c-176.5-101.9-402.1-41.4-504,135l-543.1,940.8
					c-101.9,176.5-41.4,402.1,135,504L5068.7,7551.3z"/>
				<g>
					<path class="st3" d="M5015.4,7520.5l205-355l639,368.9c98,56.6,131.6,181.9,75,280l0,0c-56.6,98-181.9,131.6-280,75
						L5015.4,7520.5z"/>
					<path class="st3" d="M5251.1,7112.3l205-355l745.5,430.4c98,56.6,131.6,181.9,75,280l0,0c-56.6,98-182,131.6-280,75
						L5251.1,7112.3z"/>
					<path class="st3" d="M5486.8,6704l205-355l852,491.9c98,56.6,131.6,182,75,280l0,0c-56.6,98-182,131.6-280,75L5486.8,6704z"/>
					<path class="st3" d="M5722.5,6295.8l205-355l958.5,553.4c98,56.6,131.6,182,75,280l0,0c-56.6,98-182,131.6-280,75
						L5722.5,6295.8z"/>
				</g>
			</g>
			<g>
				<polygon class="st3" points="5191.9,5405.4 3980.8,5618.9 3909.6,5215.2 5120.7,5001.7 				"/>
			</g>
			<g>
				<g>
					
						<rect x="-597.3" y="-14.6" transform="matrix(0.5 -0.866 0.866 0.5 -3185.4377 2036.9639)" class="st4" width="1537.2" height="7583.5"/>
					<path class="st1" d="M2850.8,5797.4c-28.3,49-11.5,111.7,37.5,140c49,28.3,111.7,11.5,140-37.5c28.3-49,11.5-111.7-37.5-140
						C2941.7,5731.6,2879.1,5748.4,2850.8,5797.4z"/>
				</g>
				
					<rect x="-1269.7" y="-373.3" transform="matrix(0.5 -0.866 0.866 0.5 -3185.436 1319.6053)" class="st1" width="1639.7" height="7583.5"/>
			</g>
			<g>
				<polygon class="st2" points="5049.5,5405.4 6260.6,5618.9 6331.8,5215.2 5120.7,5001.7 				"/>
				<path class="st2" d="M4438.2,5869.1l887.5-512.4l-205-355l-887.5,512.4c-98,56.6-131.6,182-75,280l0,0
					C4214.8,5892.1,4340.1,5925.7,4438.2,5869.1z"/>
			</g>
			<g>
				<path class="st2" d="M4729,7807.5l266.2-153.7c98-56.6,131.6-182,75-280l0,0c-56.6-98-181.9-131.6-280-75L4524,7452.5
					c-98,56.6-131.6,181.9-75,280l0,0C4505.6,7830.5,4630.9,7864.1,4729,7807.5z"/>
				<path class="st2" d="M4244.8,7542.7l355-205c98-56.6,131.6-181.9,75-280l0,0c-56.6-98-182-131.6-280-75l-355,205
					c-98,56.6-131.6,181.9-75,280l0,0C4021.4,7565.7,4146.8,7599.3,4244.8,7542.7z"/>
				<path class="st2" d="M3902.6,7196l621.3-358.7c98-56.6,131.6-181.9,75-280l0,0c-56.6-98-181.9-131.6-280-75l-621.3,358.7
					c-98,56.6-131.6,182-75,280l0,0C3679.2,7219,3804.5,7252.6,3902.6,7196z"/>
				<path class="st2" d="M3560.4,6849.2l355-205c98-56.6,131.6-182,75-280l0,0c-56.6-98-181.9-131.6-280-75l-355,205
					c-98,56.6-131.6,182-75,280l0,0C3337,6872.2,3462.3,6905.8,3560.4,6849.2z"/>
			</g>
			<g>
				
					<rect x="6278.3" y="3008.6" transform="matrix(0.866 -0.5 0.5 0.866 -539.4429 5541.0771)" class="st4" width="7583.5" height="1537.2"/>
				<path class="st1" d="M7380.6,5782.9c44.4,53.9,24.2,133.7-39.4,160.4c-44.7,18.8-98.3,2.2-124.9-38.4
					c-36.8-56.2-11.3-133.3,56-154.5C7311.1,5738.3,7354.7,5751.5,7380.6,5782.9z"/>
			</g>
			
				<rect x="6899.6" y="2598.6" transform="matrix(0.866 -0.5 0.5 0.866 -276.8714 5803.6465)" class="st1" width="7583.5" height="1639.7"/>
		</g>
	</g>
</g>
<line class="st5" x1="4737" y1="1234.3" x2="5919" y2="2639.3"/>
<line class="st5" x1="6334" y1="946.3" x2="6334" y2="946.3"/>
</svg>
